<?xml version="1.0" encoding="UTF-8" standalone="no"?>
<svg
   inkscape:version="1.1.1 (3bf5ae0d25, 2021-09-20)"
   sodipodi:docname="tampere-hacklab-logo_sticker_2022.svg"
   id="svg2"
   version="1.1"
   width="45mm"
   height="45mm"
   xml:space="preserve"
   xmlns:inkscape="http://www.inkscape.org/namespaces/inkscape"
   xmlns:sodipodi="http://sodipodi.sourceforge.net/DTD/sodipodi-0.dtd"
   xmlns="http://www.w3.org/2000/svg"
   xmlns:svg="http://www.w3.org/2000/svg"
   xmlns:rdf="http://www.w3.org/1999/02/22-rdf-syntax-ns#"
   xmlns:cc="http://creativecommons.org/ns#"
   xmlns:dc="http://purl.org/dc/elements/1.1/"><sodipodi:namedview
     inkscape:current-layer="svg2"
     inkscape:window-maximized="1"
     inkscape:window-y="-8"
     inkscape:window-x="-8"
     inkscape:cy="144.37485"
     inkscape:cx="106.95221"
     inkscape:zoom="2.3515176"
     fit-margin-bottom="0"
     fit-margin-right="0"
     fit-margin-left="0"
     fit-margin-top="0"
     inkscape:snap-bbox-midpoints="true"
     inkscape:snap-bbox-edge-midpoints="true"
     inkscape:bbox-nodes="true"
     inkscape:bbox-paths="true"
     inkscape:snap-bbox="true"
     inkscape:object-paths="true"
     inkscape:snap-intersection-paths="true"
     inkscape:snap-smooth-nodes="true"
     inkscape:snap-midpoints="true"
     inkscape:snap-text-baseline="true"
     inkscape:snap-center="true"
     inkscape:snap-object-midpoints="true"
     showgrid="false"
     id="namedview13"
     inkscape:window-height="1025"
     inkscape:window-width="1920"
     inkscape:pageshadow="2"
     inkscape:pageopacity="0"
     guidetolerance="10"
     gridtolerance="10"
     objecttolerance="10"
     borderopacity="1"
     bordercolor="#666666"
     pagecolor="#ffffff"
     inkscape:pagecheckerboard="0"
     inkscape:document-units="mm"
     showguides="true"
     inkscape:guide-bbox="true"><sodipodi:guide
       position="85.039369,170.07874"
       orientation="1,0"
       id="guide833" /><sodipodi:guide
       position="2.4029589e-06,85.039371"
       orientation="0,-1"
       id="guide835" /></sodipodi:namedview><metadata
     id="metadata8"><rdf:RDF><cc:Work
         rdf:about=""><dc:format>image/svg+xml</dc:format><dc:type
           rdf:resource="http://purl.org/dc/dcmitype/StillImage" /><cc:license
           rdf:resource="http://creativecommons.org/licenses/by/4.0/" /></cc:Work><cc:License
         rdf:about="http://creativecommons.org/licenses/by/4.0/"><cc:permits
           rdf:resource="http://creativecommons.org/ns#Reproduction" /><cc:permits
           rdf:resource="http://creativecommons.org/ns#Distribution" /><cc:requires
           rdf:resource="http://creativecommons.org/ns#Notice" /><cc:requires
           rdf:resource="http://creativecommons.org/ns#Attribution" /><cc:permits
           rdf:resource="http://creativecommons.org/ns#DerivativeWorks" /></cc:License></rdf:RDF></metadata><defs
     id="defs6"><rect
       x="-48.904589"
       y="-25.09018"
       width="277.26776"
       height="253.45335"
       id="rect65137" /><rect
       x="-130.80551"
       y="131.70761"
       width="52.021501"
       height="34.280064"
       id="rect2445" /></defs><path
     id="rect12752"
     style="fill:#ffed1f;stroke-width:3.72579;stroke-dasharray:7.45162, 3.72579"
     d="M 2.4029589e-6,2.4029589e-6 H 170.07874 V 170.07874 H 2.4029589e-6 Z" /><path
     id="path14"
     style="opacity:0.98;fill:#000000;fill-opacity:1;fill-rule:nonzero;stroke:none;stroke-width:0.531496"
     d="m 70.177678,59.911572 h 14.720319 v 6.430039 H 48.621792 V 59.911572 H 63.375591 V 36.059092 H 107.58755 V 134.01965 H 63.36815 V 75.687431 H 53.141634 v -6.42897 h 27.224292 l -0.0053,6.454482 H 70.177678 V 126.33635 H 99.901061 V 42.838856 H 70.177678 Z" /><text
     xml:space="preserve"
     id="text2443"
     style="font-size:13.3333px;line-height:1.25;font-family:'Helvetica 65 Medium';-inkscape-font-specification:'Helvetica 65 Medium, ';writing-mode:lr-tb;white-space:pre;shape-inside:url(#rect2445)" /><g
     aria-label="Tampere Hacklab, Ahlmanintie 56, 33800 Tampere FINLAND, phone +358 93157 6905, info@tampere.hacklab.fi, tampere.hacklab.fi,"
     transform="matrix(0.91483407,0,0,0.91299248,7.2424597,7.3990668)"
     id="text4035"
     style="font-size:9.08183px;line-height:1.25;font-family:'Helvetica 65 Medium';-inkscape-font-specification:'Helvetica 65 Medium, '"><path
       d="M 2.2881979,-5.8668243 H 0.20842331 V -6.6206872 H 5.2593044 v 0.7538629 H 3.1883988 V 2.4029589e-6 H 2.2881979 Z"
       style="font-size:9.08183px;font-family:Hack;-inkscape-font-specification:Hack"
       id="path62985" /><path
       d="m 7.7248793,0.12860254 q -0.7183869,0 -1.1884426,-0.41240733 -0.4656211,-0.4168418 -0.4656211,-1.19287711 0,-0.6430006 0.3104141,-1.0021941 0.3104141,-0.363628 0.8115111,-0.509966 0.5010971,-0.1463381 1.0687115,-0.1463381 h 1.0953184 v -0.1286002 q 0,-0.6341316 -0.3237176,-0.8824629 -0.3192831,-0.2483313 -0.9002009,-0.2483313 -0.4523178,0 -0.8868975,0.1241656 -0.4345798,0.1241657 -0.8115112,0.34589 v -0.8159456 q 0.4079728,-0.1507726 0.8248147,-0.2483313 0.4168418,-0.097559 0.8514215,-0.097559 0.4434487,0 0.8602906,0.1241656 0.4212763,0.1197312 0.7272559,0.3991039 0.3059798,0.2749382 0.4079728,0.7405593 0.07095,0.3281521 0.07095,0.9888907 v 1.0154976 q 0,0.4168418 0.04434,0.92237336 0.04878,0.50553156 0.21729,0.8957664429589 H 9.6184054 Q 9.5430191,-0.1729426 9.4986742,-0.36806004 9.4543294,-0.56761197 9.4277225,-0.75386044 9.1660877,-0.30597722 8.7004665,-0.08868734 8.2392798,0.12860254 7.7248793,0.12860254 Z m 0.199552,-0.68291105 q 0.5055315,0 0.8203801,-0.24833129 Q 9.0640945,-1.0509711 9.2104326,-1.4500749 9.3567707,-1.8536133 9.3567707,-2.3148 V -2.496614 H 8.3235351 q -0.34589,0 -0.6784766,0.079821 -0.328152,0.075386 -0.5454419,0.2926762 -0.2128554,0.2172899 -0.2128554,0.6341317 0,0.4700556 0.2882417,0.70508345 0.2882417,0.23059334 0.7494284,0.23059334 z"
       style="font-size:9.08183px;font-family:Hack;-inkscape-font-specification:Hack"
       id="path62987" /><path
       d="m 11.418808,-4.9666234 h 0.669607 l 0.07095,0.4257108 q 0.301545,-0.5454419 0.891332,-0.5454419 0.634132,0 0.882463,0.6252627 0.301545,-0.6252627 0.94898,-0.6252627 0.603091,0 0.842553,0.4523177 0.243897,0.4656211 0.243897,1.7560569 V 2.4029589e-6 H 15.223598 V -2.842504 q 0,-0.5587454 -0.03104,-0.864725 -0.02661,-0.3059796 -0.08869,-0.4523177 -0.110862,-0.2438968 -0.439015,-0.2438968 -0.337021,0 -0.465621,0.2660692 -0.07539,0.1552071 -0.106427,0.4523177 -0.03104,0.2971107 -0.03104,0.8425526 V 2.4029589e-6 l -0.744994,0 V -2.842504 q 0,-0.5365729 -0.03104,-0.8514215 -0.03104,-0.3148486 -0.09756,-0.4611867 -0.119731,-0.2483313 -0.447883,-0.2483313 -0.328152,0 -0.447883,0.2616347 -0.07095,0.1507726 -0.101993,0.4611867 -0.03104,0.3059797 -0.03104,0.8381181 V 2.4029589e-6 h -0.740559 z"
       style="font-size:9.08183px;font-family:Hack;-inkscape-font-specification:Hack"
       id="path62989" /><path
       d="m 17.245722,-4.9666234 h 0.74056 l 0.07982,0.6341317 q 0.425711,-0.7538628 1.334781,-0.7538628 0.891332,0 1.401298,0.6962145 0.514401,0.6962145 0.514401,1.902395 0,1.2150495 -0.518835,1.91569854 -0.514401,0.700649 -1.396864,0.700649 -0.931242,0 -1.334781,-0.75386285 V 1.889094 h -0.82038 z m 2.048733,4.40344591 q 1.166271,0 1.166271,-1.91569851 0,-1.9156985 -1.166271,-1.9156985 -0.598655,0 -0.913504,0.4966626 -0.314849,0.4966625 -0.314849,1.4146014 0,0.9223734 0.314849,1.4234704 0.319283,0.49666261 0.913504,0.49666261 z"
       style="font-size:9.08183px;font-family:Hack;-inkscape-font-specification:Hack"
       id="path62991" /><path
       d="m 24.877476,0.12860254 q -1.148532,0 -1.804836,-0.68734554 -0.65187,-0.69178 -0.65187,-1.8846571 0,-0.7405594 0.2572,-1.3392152 0.261635,-0.5986558 0.771601,-0.9489803 0.5144,-0.3547589 1.268263,-0.3547589 0.993325,0 1.538767,0.6385661 0.549877,0.6341317 0.549877,1.7604915 v 0.3991038 h -3.534287 v 0.026607 q 0,0.7760353 0.407973,1.2372219 0.407973,0.46118671 1.206181,0.46118671 0.461187,0 0.891332,-0.14633808 0.43458,-0.14633808 0.838118,-0.35475903 v 0.81151123 q -0.421276,0.172945 -0.855856,0.27493821 -0.430145,0.1064277 -0.882463,0.1064277 z m 1.113056,-3.05536174 q 0,-0.4124073 -0.124165,-0.7449939 -0.124166,-0.3325865 -0.399104,-0.527704 -0.270504,-0.1951174 -0.718387,-0.1951174 -0.452318,0 -0.758298,0.1995519 -0.301545,0.1951174 -0.47449,0.527704 -0.16851,0.3325865 -0.212855,0.7405594 z"
       style="font-size:9.08183px;font-family:Hack;-inkscape-font-specification:Hack"
       id="path62993" /><path
       d="m 28.677832,-4.9666234 h 0.74056 l 0.07982,0.9711527 q 0.208421,-0.527704 0.625262,-0.8070767 0.421277,-0.2838071 1.006629,-0.2838071 0.611959,0 1.064277,0.3104141 v 0.8336836 q -0.478925,-0.3902349 -1.135229,-0.3902349 -0.753863,0 -1.157401,0.4833591 -0.403538,0.4789246 -0.403538,1.3791256 V 2.4029589e-6 h -0.820381 z"
       style="font-size:9.08183px;font-family:Hack;-inkscape-font-specification:Hack"
       id="path62995" /><path
       d="m 35.812922,0.12860254 q -1.148533,0 -1.804837,-0.68734554 -0.651869,-0.69178 -0.651869,-1.8846571 0,-0.7405594 0.2572,-1.3392152 0.261635,-0.5986558 0.771601,-0.9489803 0.5144,-0.3547589 1.268263,-0.3547589 0.993325,0 1.538767,0.6385661 0.549877,0.6341317 0.549877,1.7604915 v 0.3991038 h -3.534287 v 0.026607 q 0,0.7760353 0.407973,1.2372219 0.407973,0.46118671 1.206181,0.46118671 0.461186,0 0.891332,-0.14633808 0.434579,-0.14633808 0.838118,-0.35475903 v 0.81151123 q -0.421277,0.172945 -0.855856,0.27493821 -0.430146,0.1064277 -0.882463,0.1064277 z m 1.113056,-3.05536174 q 0,-0.4124073 -0.124166,-0.7449939 -0.124165,-0.3325865 -0.399104,-0.527704 -0.270503,-0.1951174 -0.718386,-0.1951174 -0.452318,0 -0.758298,0.1995519 -0.301545,0.1951174 -0.47449,0.527704 -0.16851,0.3325865 -0.212855,0.7405594 z"
       style="font-size:9.08183px;font-family:Hack;-inkscape-font-specification:Hack"
       id="path62997" /><path
       d="m 44.349312,-6.6206872 h 0.900201 v 2.7139063 h 2.452271 v -2.7139063 h 0.900201 V 2.4029589e-6 H 47.701784 V -3.1529181 H 45.249513 V 2.4029589e-6 h -0.900201 z"
       style="font-size:9.08183px;font-family:Hack;-inkscape-font-specification:Hack"
       id="path62999" /><path
       d="m 51.466665,0.12860254 q -0.718387,0 -1.188443,-0.41240733 -0.465621,-0.4168418 -0.465621,-1.19287711 0,-0.6430006 0.310414,-1.0021941 0.310414,-0.363628 0.811511,-0.509966 0.501097,-0.1463381 1.068712,-0.1463381 h 1.095318 v -0.1286002 q 0,-0.6341316 -0.323717,-0.8824629 -0.319283,-0.2483313 -0.900201,-0.2483313 -0.452318,0 -0.886898,0.1241656 -0.43458,0.1241657 -0.811511,0.34589 v -0.8159456 q 0.407973,-0.1507726 0.824815,-0.2483313 0.416841,-0.097559 0.851421,-0.097559 0.443449,0 0.860291,0.1241656 0.421276,0.1197312 0.727256,0.3991039 0.305979,0.2749382 0.407973,0.7405593 0.07095,0.3281521 0.07095,0.9888907 v 1.0154976 q 0,0.4168418 0.04434,0.92237336 0.04878,0.50553156 0.21729,0.8957664429589 h -0.82038 Q 53.284805,-0.1729426 53.24046,-0.36806004 q -0.04434,-0.19955193 -0.07095,-0.3858004 -0.261635,0.44788322 -0.727256,0.6651731 -0.461187,0.21728988 -0.975587,0.21728988 z m 0.199552,-0.68291105 q 0.505531,0 0.82038,-0.24833129 0.319283,-0.2483313 0.465621,-0.6474351 0.146338,-0.4035384 0.146338,-0.8647251 v -0.181814 h -1.033235 q -0.34589,0 -0.678477,0.079821 -0.328152,0.075386 -0.545442,0.2926762 -0.212855,0.2172899 -0.212855,0.6341317 0,0.4700556 0.288241,0.70508345 0.288242,0.23059334 0.749429,0.23059334 z"
       style="font-size:9.08183px;font-family:Hack;-inkscape-font-specification:Hack"
       id="path63001" /><path
       d="m 57.803548,0.12860254 q -0.784904,0 -1.321477,-0.32815207 -0.532138,-0.33258655 -0.807077,-0.92237337 -0.270503,-0.5897868 -0.270503,-1.3569531 0,-0.7716008 0.274938,-1.3569531 0.274938,-0.5897868 0.811511,-0.9179389 0.536573,-0.3325865 1.330346,-0.3325865 0.412407,0 0.744994,0.097559 0.332587,0.093124 0.678477,0.2838072 v 0.855856 q -0.314849,-0.2793727 -0.634132,-0.4124073 -0.314849,-0.1330346 -0.718387,-0.1330346 -0.598656,0 -0.957849,0.2572002 -0.354759,0.2572003 -0.514401,0.6917801 -0.155207,0.4345797 -0.155207,0.9667182 0,0.527704 0.159642,0.9667182 0.159641,0.4345798 0.5144,0.69178005 0.354759,0.25720026 0.94898,0.25720026 0.390235,0 0.727256,-0.12860013 0.337021,-0.12860013 0.629698,-0.40797288 v 0.84698713 q -0.634132,0.38136591 -1.441209,0.38136591 z"
       style="font-size:9.08183px;font-family:Hack;-inkscape-font-specification:Hack"
       id="path63003" /><path
       d="m 61.147149,-6.9000599 h 0.842552 v 3.9954731 l 2.141858,-2.0620366 h 0.993325 L 63.169275,-3.0952697 65.430864,2.4029589e-6 h -0.99776 L 62.597226,-2.5631313 61.989701,-1.9910824 V 2.4029589e-6 h -0.842552 z"
       style="font-size:9.08183px;font-family:Hack;-inkscape-font-specification:Hack"
       id="path63005" /><path
       d="m 69.253385,0.0354783 q -0.73169,0 -1.135229,-0.47005565 -0.399104,-0.47449015 -0.399104,-1.33034615 v -4.4965702 h -1.308173 v -0.6385662 h 2.124119 v 5.1351364 q 0,0.5410074 0.203986,0.82481459 0.203987,0.28380719 0.594222,0.28380719 h 0.953415 V 0.0354783 Z"
       style="font-size:9.08183px;font-family:Hack;-inkscape-font-specification:Hack"
       id="path63007" /><path
       d="m 73.337553,0.12860254 q -0.718387,0 -1.188443,-0.41240733 -0.465621,-0.4168418 -0.465621,-1.19287711 0,-0.6430006 0.310414,-1.0021941 0.310414,-0.363628 0.811511,-0.509966 0.501097,-0.1463381 1.068712,-0.1463381 h 1.095318 v -0.1286002 q 0,-0.6341316 -0.323718,-0.8824629 -0.319283,-0.2483313 -0.900201,-0.2483313 -0.452317,0 -0.886897,0.1241656 -0.43458,0.1241657 -0.811511,0.34589 v -0.8159456 q 0.407973,-0.1507726 0.824814,-0.2483313 0.416842,-0.097559 0.851422,-0.097559 0.443449,0 0.860291,0.1241656 0.421276,0.1197312 0.727255,0.3991039 0.30598,0.2749382 0.407973,0.7405593 0.07095,0.3281521 0.07095,0.9888907 v 1.0154976 q 0,0.4168418 0.04435,0.92237336 0.04878,0.50553156 0.21729,0.8957664429589 h -0.82038 Q 75.155692,-0.1729426 75.111348,-0.36806004 q -0.04435,-0.19955193 -0.07095,-0.3858004 -0.261635,0.44788322 -0.727256,0.6651731 -0.461187,0.21728988 -0.975587,0.21728988 z m 0.199552,-0.68291105 q 0.505531,0 0.82038,-0.24833129 0.319283,-0.2483313 0.465621,-0.6474351 0.146338,-0.4035384 0.146338,-0.8647251 v -0.181814 h -1.033236 q -0.34589,0 -0.678476,0.079821 -0.328152,0.075386 -0.545442,0.2926762 -0.212855,0.2172899 -0.212855,0.6341317 0,0.4700556 0.288241,0.70508345 0.288242,0.23059334 0.749429,0.23059334 z"
       style="font-size:9.08183px;font-family:Hack;-inkscape-font-specification:Hack"
       id="path63009" /><path
       d="m 79.585742,0.12860254 q -0.940111,0 -1.365822,-0.75386285 L 78.1401,2.4029589e-6 H 77.403975 V -6.9000599 h 0.815945 v 2.5675682 q 0.203987,-0.3858004 0.56318,-0.5676144 0.359194,-0.1862484 0.807077,-0.1862484 0.532138,0 0.895766,0.2305933 0.363628,0.2261588 0.580918,0.6075248 0.221725,0.3769314 0.314849,0.8381181 0.09756,0.4611866 0.09756,0.9223733 0,0.4656212 -0.09756,0.9312424 -0.09756,0.4611866 -0.319283,0.84255254 -0.21729,0.38136591 -0.580918,0.61195925 -0.363628,0.23059335 -0.895767,0.23059335 z m -0.164076,-0.69178003 q 0.390235,0 0.625263,-0.18181398 0.239462,-0.18181398 0.359194,-0.47449013 0.124165,-0.2926762 0.16851,-0.6252627 0.04434,-0.3325866 0.04434,-0.6341317 0,-0.3015451 -0.04434,-0.6341317 -0.04435,-0.337021 -0.16851,-0.6252627 -0.119732,-0.2926762 -0.359194,-0.4744901 -0.235028,-0.181814 -0.625263,-0.181814 -0.3858,0 -0.625262,0.181814 -0.235028,0.1818139 -0.363628,0.4700556 -0.124166,0.2882417 -0.168511,0.6252627 -0.04434,0.3325866 -0.04434,0.6341317 0,0.3059796 0.04434,0.6430007 0.04435,0.3325865 0.168511,0.6252627 0.1286,0.28824165 0.363628,0.47005563 0.239462,0.18181398 0.625262,0.18181398 z"
       style="font-size:9.08183px;font-family:Hack;-inkscape-font-specification:Hack"
       id="path63011" /><path
       d="m 83.789641,1.2549623 q 1.08645,-0.48779359 1.117491,-1.48111875 -0.09312,0.017738 -0.17738,0.017738 -0.301545,0 -0.487793,-0.17294501 -0.195118,-0.172945 -0.195118,-0.4877936 0,-0.14633809 0.04878,-0.27493819 0.04878,-0.1330346 0.155207,-0.2261589 0.08869,-0.075386 0.221724,-0.1241656 0.133035,-0.053214 0.292676,-0.053214 0.376932,0 0.585353,0.3015452 0.203986,0.29711062 0.203986,0.83368358 0,0.75386285 -0.407973,1.30817376 Q 84.738621,1.4412108 83.993628,1.716149 Z"
       style="font-size:9.08183px;font-family:Hack;-inkscape-font-specification:Hack"
       id="path63013" /><path
       d="m 95.141923,-6.6206872 h 1.086449 L 98.254933,2.4029589e-6 H 97.328125 L 96.840332,-1.7250132 H 94.521095 L 94.04217,2.4029589e-6 h -0.926808 z m 1.485553,4.1772871 -0.944545,-3.3879483 -0.944546,3.3879483 z"
       style="font-size:9.08183px;font-family:Hack;-inkscape-font-specification:Hack"
       id="path63015" /><path
       d="m 99.283739,-6.9000599 h 0.815941 v 2.6784304 q 0.44789,-0.864725 1.46782,-0.864725 0.61196,0 0.93568,0.2838071 0.32815,0.2838072 0.45231,0.7405594 0.12417,0.4567522 0.12417,0.9844562 V 2.4029589e-6 h -0.82038 V -3.0775318 q 0,-0.6696076 -0.23503,-0.9844562 -0.23503,-0.3148486 -0.73169,-0.3148486 -0.46118,0 -0.72282,0.2305934 -0.2572,0.2261588 -0.36363,0.5853523 -0.10643,0.3591935 -0.10643,0.7538628 V 2.4029589e-6 h -0.815941 z"
       style="font-size:9.08183px;font-family:Hack;-inkscape-font-specification:Hack"
       id="path63017" /><path
       d="m 107.52745,0.0354783 q -0.73169,0 -1.13523,-0.47005565 -0.3991,-0.47449015 -0.3991,-1.33034615 v -4.4965702 h -1.30818 v -0.6385662 h 2.12412 v 5.1351364 q 0,0.5410074 0.20399,0.82481459 0.20398,0.28380719 0.59422,0.28380719 h 0.95341 V 0.0354783 Z"
       style="font-size:9.08183px;font-family:Hack;-inkscape-font-specification:Hack"
       id="path63019" /><path
       d="m 109.83782,-4.9666234 h 0.66961 l 0.0709,0.4257108 q 0.30155,-0.5454419 0.89133,-0.5454419 0.63413,0 0.88247,0.6252627 0.30154,-0.6252627 0.94898,-0.6252627 0.60309,0 0.84255,0.4523177 0.24389,0.4656211 0.24389,1.7560569 V 2.4029589e-6 h -0.74499 V -2.842504 q 0,-0.5587454 -0.031,-0.864725 -0.0266,-0.3059796 -0.0887,-0.4523177 -0.11086,-0.2438968 -0.43901,-0.2438968 -0.33703,0 -0.46563,0.2660692 -0.0754,0.1552071 -0.10642,0.4523177 -0.031,0.2971107 -0.031,0.8425526 V 2.4029589e-6 h -0.745 V -2.842504 q 0,-0.5365729 -0.031,-0.8514215 -0.031,-0.3148486 -0.0976,-0.4611867 -0.11973,-0.2483313 -0.44788,-0.2483313 -0.32815,0 -0.44789,0.2616347 -0.0709,0.1507726 -0.10199,0.4611867 -0.031,0.3059797 -0.031,0.8381181 V 2.4029589e-6 h -0.74056 z"
       style="font-size:9.08183px;font-family:Hack;-inkscape-font-specification:Hack"
       id="path63021" /><path
       d="m 117.07934,0.12860254 q -0.71839,0 -1.18845,-0.41240733 -0.46562,-0.4168418 -0.46562,-1.19287711 0,-0.6430006 0.31042,-1.0021941 0.31041,-0.363628 0.81151,-0.509966 0.50109,-0.1463381 1.06871,-0.1463381 h 1.09532 v -0.1286002 q 0,-0.6341316 -0.32372,-0.8824629 -0.31928,-0.2483313 -0.9002,-0.2483313 -0.45232,0 -0.8869,0.1241656 -0.43458,0.1241657 -0.81151,0.34589 v -0.8159456 q 0.40797,-0.1507726 0.82481,-0.2483313 0.41685,-0.097559 0.85143,-0.097559 0.44344,0 0.86029,0.1241656 0.42127,0.1197312 0.72725,0.3991039 0.30598,0.2749382 0.40798,0.7405593 0.0709,0.3281521 0.0709,0.9888907 v 1.0154976 q 0,0.4168418 0.0443,0.92237336 0.0488,0.50553156 0.21729,0.8957664429589 h -0.82038 Q 118.89748,-0.1729426 118.85313,-0.36806004 q -0.0443,-0.19955193 -0.0709,-0.3858004 -0.26164,0.44788322 -0.72726,0.6651731 -0.46118,0.21728988 -0.97558,0.21728988 z m 0.19955,-0.68291105 q 0.50553,0 0.82038,-0.24833129 0.31928,-0.2483313 0.46562,-0.6474351 0.14634,-0.4035384 0.14634,-0.8647251 v -0.181814 h -1.03324 q -0.34589,0 -0.67848,0.079821 -0.32815,0.075386 -0.54544,0.2926762 -0.21285,0.2172899 -0.21285,0.6341317 0,0.4700556 0.28824,0.70508345 0.28824,0.23059334 0.74943,0.23059334 z"
       style="font-size:9.08183px;font-family:Hack;-inkscape-font-specification:Hack"
       id="path63023" /><path
       d="m 121.15463,-4.9666234 h 0.73612 l 0.0798,0.7449939 q 0.44789,-0.864725 1.45895,-0.864725 1.52103,0 1.52103,2.0088227 V 2.4029589e-6 h -0.82038 V -3.0775318 q 0,-0.6696076 -0.23503,-0.9844562 -0.23059,-0.3148486 -0.71839,-0.3148486 -0.58091,0 -0.89576,0.4124073 -0.31042,0.4079729 -0.31042,1.1574012 V 2.4029589e-6 h -0.81594 z"
       style="font-size:9.08183px;font-family:Hack;-inkscape-font-specification:Hack"
       id="path63025" /><path
       d="m 128.07687,-5.8668243 q -0.13304,0 -0.13304,-0.1330346 v -0.7671663 q 0,-0.1330347 0.13304,-0.1330347 h 0.63856 q 0.13304,0 0.13304,0.1330347 v 0.7671663 q 0,0.1330346 -0.13304,0.1330346 z m 1.48998,5.9023026 q -0.73169,0 -1.13522,-0.47005565 -0.39911,-0.47449015 -0.39911,-1.33034615 v -2.5631337 h -1.08645 v -0.6385662 h 1.9024 v 3.2016999 q 0,0.5410074 0.20398,0.82481459 0.20399,0.28380719 0.59422,0.28380719 h 0.95342 V 0.0354783 Z"
       style="font-size:9.08183px;font-family:Hack;-inkscape-font-specification:Hack"
       id="path63027" /><path
       d="m 132.09007,-4.9666234 h 0.73612 l 0.0798,0.7449939 q 0.44789,-0.864725 1.45895,-0.864725 1.52103,0 1.52103,2.0088227 V 2.4029589e-6 h -0.82038 V -3.0775318 q 0,-0.6696076 -0.23503,-0.9844562 -0.23059,-0.3148486 -0.71839,-0.3148486 -0.58091,0 -0.89576,0.4124073 -0.31042,0.4079729 -0.31042,1.1574012 V 2.4029589e-6 h -0.81594 z"
       style="font-size:9.08183px;font-family:Hack;-inkscape-font-specification:Hack"
       id="path63029" /><path
       d="m 140.2717,0.01774035 q -0.9135,0 -1.29487,-0.36806245 -0.37693,-0.37249693 -0.37693,-1.2682634 v -2.7139062 h -1.32591 v -0.6341317 h 1.32591 v -1.2993048 l 0.81594,-0.354759 v 1.6540638 h 1.85362 v 0.6341317 h -1.85362 v 2.7139062 q 0,0.545442 0.20843,0.76716634 0.20842,0.21728988 0.72725,0.21728988 h 0.91794 v 0.65186963 z"
       style="font-size:9.08183px;font-family:Hack;-inkscape-font-specification:Hack"
       id="path63031" /><path
       d="m 144.48003,-5.8668243 q -0.13303,0 -0.13303,-0.1330346 v -0.7671663 q 0,-0.1330347 0.13303,-0.1330347 h 0.63857 q 0.13303,0 0.13303,0.1330347 v 0.7671663 q 0,0.1330346 -0.13303,0.1330346 z m 1.48999,5.9023026 q -0.73169,0 -1.13523,-0.47005565 -0.3991,-0.47449015 -0.3991,-1.33034615 v -2.5631337 h -1.08645 v -0.6385662 h 1.90239 v 3.2016999 q 0,0.5410074 0.20399,0.82481459 0.20399,0.28380719 0.59422,0.28380719 h 0.95342 V 0.0354783 Z"
       style="font-size:9.08183px;font-family:Hack;-inkscape-font-specification:Hack"
       id="path63033" /><path
       d="m 150.63511,0.12860254 q -1.14854,0 -1.80484,-0.68734554 -0.65187,-0.69178 -0.65187,-1.8846571 0,-0.7405594 0.2572,-1.3392152 0.26164,-0.5986558 0.7716,-0.9489803 0.5144,-0.3547589 1.26827,-0.3547589 0.99332,0 1.53876,0.6385661 0.54988,0.6341317 0.54988,1.7604915 v 0.3991038 h -3.53429 v 0.026607 q 0,0.7760353 0.40798,1.2372219 0.40797,0.46118671 1.20618,0.46118671 0.46118,0 0.89133,-0.14633808 0.43458,-0.14633808 0.83812,-0.35475903 v 0.81151123 q -0.42128,0.172945 -0.85586,0.27493821 -0.43015,0.1064277 -0.88246,0.1064277 z m 1.11305,-3.05536174 q 0,-0.4124073 -0.12416,-0.7449939 -0.12417,-0.3325865 -0.39911,-0.527704 -0.2705,-0.1951174 -0.71838,-0.1951174 -0.45232,0 -0.7583,0.1995519 -0.30155,0.1951174 -0.47449,0.527704 -0.16851,0.3325865 -0.21286,0.7405594 z"
       style="font-size:9.08183px;font-family:Hack;-inkscape-font-specification:Hack"
       id="path63035" /><path
       d="m 160.89207,0.12860254 q -0.19955,0 -0.44788,-0.0177379 -0.2439,-0.01773795 -0.46119,-0.05321385 -0.22616,-0.0354759 -0.41684,-0.08868975 -0.19068,-0.05321385 -0.36806,-0.12416564 V -1.0642746 q 0.41684,0.22172441 0.82038,0.32815211 0.4124,0.11086218 0.82038,0.11086218 0.77603,0 1.16627,-0.39023489 0.3991,-0.3946694 0.3991,-1.0997528 0,-0.3858004 -0.11086,-0.6607387 -0.11086,-0.2749382 -0.30155,-0.4567522 -0.18624,-0.1773794 -0.47892,-0.2838071 -0.29268,-0.1064277 -0.69622,-0.1064277 -0.34589,0 -0.68291,0.079821 -0.34589,0.084255 -0.65187,0.2483313 v -3.3258655 h 3.35248 v 0.7538629 h -2.53653 v 1.6274568 q 0.19068,-0.070952 0.3858,-0.1064277 0.16851,-0.031041 0.39023,-0.031041 0.53658,0 0.94455,0.1640761 0.40797,0.164076 0.68735,0.4434487 0.59865,0.6030903 0.59865,1.6363258 0,1.0598425 -0.62526,1.66293275 -0.30598,0.29267616 -0.74943,0.44788322 -0.43901,0.15077257 -1.03767,0.15077257 z"
       style="font-size:9.08183px;font-family:Hack;-inkscape-font-specification:Hack"
       id="path63037" /><path
       d="m 166.83872,0.12860254 q -0.60752,0 -1.01106,-0.2128554 -0.40354,-0.21728987 -0.66517,-0.62082822 -0.27938,-0.43457972 -0.41241,-1.06427692 -0.1286,-0.6296972 -0.1286,-1.4412084 0,-1.7915329 0.643,-2.6606924 0.64744,-0.8691595 1.86248,-0.8691595 0.18182,0 0.35033,0.017738 0.17294,0.017738 0.31485,0.048779 0.17738,0.035476 0.33258,0.08869 0.15965,0.053214 0.30155,0.1108622 v 0.8248147 q -0.28381,-0.1685106 -0.59422,-0.2527658 -0.15521,-0.044345 -0.32372,-0.062083 -0.16851,-0.022172 -0.32372,-0.022172 -0.86472,0 -1.2993,0.6385662 -0.43902,0.6474351 -0.43902,1.8890916 0.21286,-0.4434487 0.58979,-0.6829111 0.38137,-0.2350278 0.9002,-0.2350278 0.91351,0 1.44121,0.5897868 0.53214,0.5897868 0.53214,1.6540638 0,1.0820149 -0.53657,1.67180172 -0.53658,0.58978682 -1.53434,0.58978682 z m 0,-0.700649 q 0.58979,0 0.8869,-0.39466937 0.30155,-0.39466937 0.30155,-1.15740117 0,-0.7671663 -0.30155,-1.1618357 -0.15521,-0.2039864 -0.38137,-0.2971106 -0.22615,-0.093124 -0.50109,-0.093124 -0.31042,0 -0.53658,0.1108622 -0.22615,0.1064277 -0.37693,0.2971107 -0.1552,0.1951174 -0.24389,0.4833591 -0.0843,0.2838072 -0.0843,0.6607386 0,0.3769314 0.0843,0.6651731 0.0887,0.2838072 0.24389,0.47892461 0.15078,0.19068295 0.37693,0.30154513 0.22616,0.1064277 0.53214,0.1064277 z"
       style="font-size:9.08183px;font-family:Hack;-inkscape-font-specification:Hack"
       id="path63039" /><path
       d="m 168.71952,1.3488307 q 0.61227,1.0214916 1.60234,0.9354145 -0.0286,-0.09039 -0.0385,-0.1740593 -0.0355,-0.2994495 0.11434,-0.5047573 0.14878,-0.2141151 0.46144,-0.2511691 0.14532,-0.017222 0.27877,0.016083 0.13785,0.032784 0.24285,0.1275122 0.0853,0.079201 0.1494,0.2055707 0.0685,0.1258475 0.0873,0.2843796 0.0444,0.374312 -0.23056,0.6167728 -0.27103,0.2375353 -0.80388,0.3006837 -0.74862,0.088721 -1.3471,-0.2511809 -0.58966,-0.3409455 -0.95036,-1.0484051 z"
       style="font-size:9.08183px;font-family:Hack;-inkscape-font-specification:Hack"
       id="path63041" /><path
       d="m 169.95014,12.866045 q 0,-0.212856 0.0222,-0.447884 0.0177,-0.230593 0.0621,-0.470055 0.0355,-0.203987 0.0976,-0.447883 0.0621,-0.243897 0.14634,-0.48336 l 0.90463,10e-7 q -0.11529,0.226158 -0.20842,0.443448 -0.0931,0.21729 -0.15521,0.447883 -0.0576,0.221725 -0.0887,0.43458 -0.0266,0.21729 -0.0266,0.439014 0,0.74056 0.33258,1.130795 0.33703,0.394669 0.94455,0.394669 0.59422,0 0.93124,-0.390235 0.33702,-0.390235 0.33702,-1.073146 l 0,-0.682911 0.73613,0 0,0.682911 q 0,0.625263 0.2705,0.966719 0.26607,0.341455 0.76717,0.341455 0.5011,0 0.7716,-0.319283 0.2705,-0.310414 0.2705,-0.931242 0,-0.368063 -0.0887,-0.802642 -0.0842,-0.425711 -0.26607,-0.882463 l 0.82482,0 q 0.1419,0.541007 0.21285,0.957849 0.071,0.394669 0.071,0.749428 0,0.465621 -0.11974,0.855856 -0.11973,0.39467 -0.36362,0.687346 -0.47449,0.572049 -1.28157,0.572049 -0.28824,0 -0.5144,-0.07982 -0.22616,-0.07539 -0.40354,-0.221724 -0.35919,-0.301546 -0.5144,-0.886898 -0.17294,0.65187 -0.61196,0.99776 -0.23059,0.181814 -0.50996,0.261634 -0.27938,0.08426 -0.59866,0.08426 -0.90464,0 -1.42791,-0.607525 -0.2572,-0.301545 -0.39023,-0.731691 -0.13303,-0.42571 -0.13303,-0.98889 z"
       style="font-size:9.08183px;font-family:Hack;-inkscape-font-specification:Hack"
       id="path63043" /><path
       d="m 169.95014,18.333757 q 0,-0.212855 0.0222,-0.447883 0.0177,-0.230593 0.0621,-0.470056 0.0355,-0.203986 0.0976,-0.447883 0.0621,-0.243897 0.14634,-0.483359 l 0.90463,0 q -0.11529,0.226159 -0.20842,0.443449 -0.0931,0.21729 -0.15521,0.447883 -0.0576,0.221724 -0.0887,0.43458 -0.0266,0.21729 -0.0266,0.439014 0,0.740559 0.33258,1.130794 0.33703,0.39467 0.94455,0.39467 0.59422,0 0.93124,-0.390235 0.33702,-0.390235 0.33702,-1.073146 l 0,-0.682911 0.73613,0 0,0.682911 q 0,0.625263 0.2705,0.966718 0.26607,0.341456 0.76717,0.341456 0.5011,0 0.7716,-0.319283 0.2705,-0.310415 0.2705,-0.931243 0,-0.368062 -0.0887,-0.802642 -0.0842,-0.425711 -0.26607,-0.882463 l 0.82482,0 q 0.1419,0.541008 0.21285,0.957849 0.071,0.39467 0.071,0.749429 0,0.465621 -0.11974,0.855856 -0.11973,0.394669 -0.36362,0.687345 -0.47449,0.572049 -1.28157,0.572049 -0.28824,0 -0.5144,-0.07982 -0.22616,-0.07539 -0.40354,-0.221724 -0.35919,-0.301545 -0.5144,-0.886898 -0.17294,0.65187 -0.61196,0.99776 -0.23059,0.181814 -0.50996,0.261635 -0.27938,0.08425 -0.59866,0.08425 -0.90464,0 -1.42791,-0.607525 -0.2572,-0.301545 -0.39023,-0.73169 -0.13303,-0.425711 -0.13303,-0.988891 z"
       style="font-size:9.08183px;font-family:Hack;-inkscape-font-specification:Hack"
       id="path63045" /><path
       d="m 169.95014,24.018775 q 0,-1.006629 0.49666,-1.578678 0.49666,-0.567614 1.40573,-0.567614 0.70508,0 1.15297,0.354759 0.44345,0.350324 0.58978,1.015498 0.0665,-0.270504 0.20399,-0.501098 0.13747,-0.230593 0.33702,-0.390234 0.20842,-0.168511 0.45675,-0.248332 0.24833,-0.07539 0.52771,-0.07539 0.76716,0 1.23722,0.536573 0.22616,0.261635 0.34145,0.620828 0.11974,0.363628 0.11974,0.838118 0,0.926808 -0.46119,1.463381 -0.45675,0.536573 -1.24166,0.536573 -0.58535,0 -0.98002,-0.319283 -0.39023,-0.314849 -0.54101,-0.895766 -0.14633,0.669607 -0.58978,1.019932 -0.44345,0.350324 -1.1441,0.350324 -0.46562,0 -0.82038,-0.150773 -0.35033,-0.146338 -0.58979,-0.421276 -0.50109,-0.576483 -0.50109,-1.587546 z m 3.97773,0.0044 q 0,0.541008 0.27937,0.824815 0.27938,0.283807 0.81151,0.283807 0.54101,0 0.82482,-0.279372 0.28381,-0.283808 0.28381,-0.82925 0,-0.536573 -0.28381,-0.82038 -0.28381,-0.283807 -0.82482,-0.283807 -0.53213,0 -0.81151,0.283807 -0.27937,0.283807 -0.27937,0.82038 z m -3.27709,0.0133 q 0,0.589786 0.33703,0.913504 0.34145,0.328152 0.94454,0.328152 0.32815,0 0.56318,-0.08869 0.23503,-0.08425 0.39024,-0.239462 0.33702,-0.332586 0.33702,-0.926808 0,-0.594221 -0.33259,-0.922373 -0.33702,-0.328152 -0.94455,-0.328152 -0.61195,0 -0.95341,0.328152 -0.34146,0.337021 -0.34146,0.935677 z"
       style="font-size:9.08183px;font-family:Hack;-inkscape-font-specification:Hack"
       id="path63047" /><path
       d="m 169.95014,29.490937 q 0,-1.064277 0.86915,-1.60085 0.8736,-0.541008 2.56314,-0.541007 1.69397,0 2.56757,0.541007 0.86916,0.536573 0.86916,1.60085 0,1.064277 -0.86916,1.605284 -0.42571,0.26607 -1.06428,0.403539 -0.63413,0.137469 -1.50329,0.137469 -0.86916,0 -1.50329,-0.137469 -0.63413,-0.13747 -1.05985,-0.403539 -0.86915,-0.545442 -0.86915,-1.605284 z m 0.70951,0 q 0,0.634132 0.67405,0.940111 0.6696,0.30598 2.04873,0.30598 1.38356,0 2.04873,-0.30598 0.67848,-0.305979 0.67848,-0.940111 0,-0.625263 -0.67404,-0.931242 -0.33259,-0.155207 -0.83812,-0.235028 -0.5011,-0.07539 -1.21505,-0.07539 -1.388,0 -2.04873,0.310415 -0.67405,0.310414 -0.67405,0.931242 z m 1.17514,0.0089 q 0,-0.141904 0.19069,-0.221725 0.19068,-0.07539 0.44788,-0.1286 0.20398,-0.04434 0.49223,-0.07539 0.28824,-0.02661 0.43901,-0.02661 0.10643,0 0.38137,0.01774 0.27493,0.01774 0.51883,0.07095 0.63413,0.1286 0.63413,0.34589 0,0.124166 -0.16851,0.208421 -0.16851,0.08869 -0.47892,0.150772 -0.22173,0.04434 -0.49666,0.07095 -0.27494,0.02661 -0.42572,0.02661 -0.0887,0 -0.35032,-0.01774 -0.26163,-0.0133 -0.53657,-0.05765 -0.64744,-0.110862 -0.64744,-0.363628 z"
       style="font-size:9.08183px;font-family:Hack;-inkscape-font-specification:Hack"
       id="path63049" /><path
       d="m 169.95014,34.958649 q 0,-1.064277 0.86915,-1.60085 0.8736,-0.541007 2.56314,-0.541007 1.69397,0 2.56757,0.541008 0.86916,0.536573 0.86916,1.600849 0,1.064277 -0.86916,1.605285 -0.42571,0.266069 -1.06428,0.403538 -0.63413,0.137469 -1.50329,0.137469 -0.86916,0 -1.50329,-0.137469 -0.63413,-0.137469 -1.05985,-0.403538 -0.86915,-0.545442 -0.86915,-1.605285 z m 0.70951,0 q 0,0.634132 0.67405,0.940112 0.6696,0.305979 2.04873,0.305979 1.38356,0 2.04873,-0.305979 0.67848,-0.30598 0.67848,-0.940112 0,-0.625262 -0.67404,-0.931242 -0.33259,-0.155207 -0.83812,-0.235028 -0.5011,-0.07539 -1.21505,-0.07539 -1.388,0 -2.04873,0.310414 -0.67405,0.310414 -0.67405,0.931242 z m 1.17514,0.0089 q 0,-0.141903 0.19069,-0.221724 0.19068,-0.07539 0.44788,-0.1286 0.20398,-0.04434 0.49223,-0.07539 0.28824,-0.02661 0.43901,-0.02661 0.10643,0 0.38137,0.01774 0.27493,0.01774 0.51883,0.07095 0.63413,0.128601 0.63413,0.34589 0,0.124166 -0.16851,0.208421 -0.16851,0.08869 -0.47892,0.150773 -0.22173,0.04434 -0.49666,0.07095 -0.27494,0.02661 -0.42572,0.02661 -0.0887,0 -0.35032,-0.01774 -0.26163,-0.0133 -0.53657,-0.05765 -0.64744,-0.110862 -0.64744,-0.363628 z"
       style="font-size:9.08183px;font-family:Hack;-inkscape-font-specification:Hack"
       id="path63051" /><path
       d="m 175.94556,45.450656 0,-2.079775 0.75386,1e-6 0,5.050881 -0.75386,0 0,-2.070906 -5.86682,0 0,-0.900201 z"
       style="font-size:9.08183px;font-family:Hack;-inkscape-font-specification:Hack"
       id="path63053" /><path
       d="m 169.95014,50.887342 q 0,-0.718387 0.4124,-1.188443 0.41684,-0.465621 1.19288,-0.465621 0.643,0 1.00219,0.310414 0.36363,0.310415 0.50997,0.811512 0.14634,0.501097 0.14634,1.068711 l 0,1.095319 0.1286,0 q 0.63413,0 0.88246,-0.323718 0.24833,-0.319283 0.24833,-0.900201 0,-0.452318 -0.12416,-0.886897 -0.12417,-0.43458 -0.34589,-0.811512 l 0.81594,0 q 0.15077,0.407973 0.24833,0.824815 0.0976,0.416842 0.0976,0.851422 0,0.443448 -0.12416,0.86029 -0.11973,0.421276 -0.39911,0.727256 -0.27494,0.30598 -0.74056,0.407973 -0.32815,0.07095 -0.98889,0.07095 l -1.0155,0 q -0.41684,0 -0.92237,0.04434 -0.50553,0.04878 -0.89576,0.21729 l 0,-0.82038 q 0.17294,-0.07539 0.36806,-0.119731 0.19955,-0.04434 0.3858,-0.07095 -0.44789,-0.261635 -0.66518,-0.727256 -0.21728,-0.461186 -0.21728,-0.975587 z m 0.68291,0.199552 q 0,0.505532 0.24833,0.82038 0.24833,0.319283 0.64743,0.465621 0.40354,0.146338 0.86473,0.146338 l 0.18181,0 0,-1.033235 q 0,-0.34589 -0.0798,-0.678477 -0.0754,-0.328152 -0.29268,-0.545442 -0.21729,-0.212855 -0.63413,-0.212855 -0.47005,0 -0.70508,0.288242 -0.23059,0.288241 -0.23059,0.749428 z"
       style="font-size:9.08183px;font-family:Hack;-inkscape-font-specification:Hack"
       id="path63055" /><path
       d="m 175.04536,54.58126 0,0.669607 -0.42571,0.07095 q 0.54544,0.301545 0.54544,0.891332 0,0.634132 -0.62526,0.882463 0.62526,0.301545 0.62526,0.94898 0,0.603091 -0.45232,0.842553 -0.46562,0.243897 -1.75605,0.243897 l -2.87798,-1e-6 0,-0.744993 2.8425,0 q 0.55875,0 0.86473,-0.03104 0.30598,-0.02661 0.45231,-0.08869 0.2439,-0.110863 0.2439,-0.439015 0,-0.337021 -0.26607,-0.465621 -0.15521,-0.07539 -0.45232,-0.106427 -0.29711,-0.03104 -0.84255,-0.03104 l -2.8425,0 0,-0.744994 2.8425,0 q 0.53657,0 0.85142,-0.03104 0.31485,-0.03104 0.46119,-0.09756 0.24833,-0.119731 0.24833,-0.447883 0,-0.328152 -0.26163,-0.447883 -0.15078,-0.07095 -0.46119,-0.101994 -0.30598,-0.03104 -0.83812,-0.03104 l -2.8425,0 0,-0.740559 z"
       style="font-size:9.08183px;font-family:Hack;-inkscape-font-specification:Hack"
       id="path63057" /><path
       d="m 175.04536,60.408181 0,0.740559 -0.63413,0.07982 q 0.75386,0.425711 0.75386,1.334781 0,0.891332 -0.69621,1.401298 -0.69622,0.5144 -1.9024,0.5144 -1.21505,0 -1.9157,-0.518835 -0.70064,-0.514401 -0.70064,-1.396864 0,-0.931242 0.75386,-1.33478 l -2.51436,0 0,-0.82038 z m -4.40344,2.048733 q 0,1.16627 1.91569,1.16627 1.9157,0 1.9157,-1.16627 0,-0.598656 -0.49666,-0.913504 -0.49666,-0.314849 -1.4146,-0.314849 -0.92238,0 -1.42347,0.314848 -0.49666,0.319284 -0.49666,0.913505 z"
       style="font-size:9.08183px;font-family:Hack;-inkscape-font-specification:Hack"
       id="path63059" /><path
       d="m 169.95014,68.039938 q 0,-1.148532 0.68734,-1.804836 0.69178,-0.65187 1.88466,-0.65187 0.74056,0 1.33921,0.257201 0.59866,0.261634 0.94898,0.7716 0.35476,0.514401 0.35476,1.268264 0,0.993325 -0.63856,1.538767 -0.63414,0.549876 -1.7605,0.549876 l -0.3991,0 0,-3.534286 -0.0266,0 q -0.77603,0 -1.23722,0.407973 -0.46118,0.407972 -0.46118,1.20618 0,0.461187 0.14633,0.891332 0.14634,0.43458 0.35476,0.838118 l -0.81151,0 q -0.17294,-0.421276 -0.27494,-0.855856 -0.10642,-0.430145 -0.10642,-0.882463 z m 3.05536,1.113057 q 0.4124,0 0.74499,-0.124166 0.33259,-0.124166 0.5277,-0.399104 0.19512,-0.270504 0.19512,-0.718387 0,-0.452318 -0.19955,-0.758297 -0.19512,-0.301545 -0.5277,-0.47449 -0.33259,-0.168511 -0.74056,-0.212856 z"
       style="font-size:9.08183px;font-family:Hack;-inkscape-font-specification:Hack"
       id="path63061" /><path
       d="m 175.04536,71.840284 0,0.740559 -0.97115,0.07982 q 0.5277,0.208421 0.80707,0.625262 0.28381,0.421277 0.28381,1.006629 0,0.611959 -0.31041,1.064277 l -0.83369,0 q 0.39024,-0.478925 0.39024,-1.135229 0,-0.753863 -0.48336,-1.157401 -0.47892,-0.403538 -1.37913,-0.403538 l -2.47,-10e-7 0,-0.82038 z"
       style="font-size:9.08183px;font-family:Hack;-inkscape-font-specification:Hack"
       id="path63063" /><path
       d="m 169.95014,78.975378 q 0,-1.148532 0.68734,-1.804836 0.69178,-0.65187 1.88466,-0.65187 0.74056,0 1.33921,0.257201 0.59866,0.261634 0.94898,0.7716 0.35476,0.514401 0.35476,1.268264 0,0.993325 -0.63856,1.538767 -0.63414,0.549876 -1.7605,0.549876 l -0.3991,0 0,-3.534286 -0.0266,0 q -0.77603,0 -1.23722,0.407973 -0.46118,0.407972 -0.46118,1.20618 0,0.461187 0.14633,0.891332 0.14634,0.43458 0.35476,0.838118 l -0.81151,0 q -0.17294,-0.421276 -0.27494,-0.855856 -0.10642,-0.430145 -0.10642,-0.882463 z m 3.05536,1.113057 q 0.4124,0 0.74499,-0.124166 0.33259,-0.124166 0.5277,-0.399104 0.19512,-0.270504 0.19512,-0.718387 0,-0.452317 -0.19955,-0.758297 -0.19512,-0.301545 -0.5277,-0.47449 -0.33259,-0.168511 -0.74056,-0.212856 z"
       style="font-size:9.08183px;font-family:Hack;-inkscape-font-specification:Hack"
       id="path63065" /><path
       d="m 176.69942,87.937472 0,3.897914 -0.75386,0 0,-2.997713 -2.03986,-10e-7 0,2.718341 -0.75387,0 0,-2.718341 -3.07309,0 0,-0.900201 z"
       style="font-size:9.08183px;font-family:Hack;-inkscape-font-specification:Hack"
       id="path63067" /><path
       d="m 170.8326,93.26328 0,1.387995 5.11296,0 0,-1.387995 0.75386,0 0,3.67619 -0.75386,0 0,-1.387994 -5.11296,0 0,1.387994 -0.75386,0 0,-3.67619 z"
       style="font-size:9.08183px;font-family:Hack;-inkscape-font-specification:Hack"
       id="path63069" /><path
       d="m 176.69942,98.456085 0,1.135229 -5.44998,2.234986 5.44998,0 0,0.86472 -6.62068,0 0,-1.13523 5.44998,-2.23498 -5.44998,0 0,-0.864725 z"
       style="font-size:9.08183px;font-family:Hack;-inkscape-font-specification:Hack"
       id="path63071" /><path
       d="m 176.69942,104.26082 0,0.9002 -5.86682,0 0,3.19726 -0.75386,0 0,-4.09746 z"
       style="font-size:9.08183px;font-family:Hack;-inkscape-font-specification:Hack"
       id="path63073" /><path
       d="m 176.69942,110.96578 0,1.08645 -6.62068,2.02656 0,-0.9268 1.72501,-0.4878 0,-2.31923 -1.72501,-0.47893 0,-0.92681 z m -4.17728,1.48556 3.38795,-0.94455 -3.38795,-0.94455 z"
       style="font-size:9.08183px;font-family:Hack;-inkscape-font-specification:Hack"
       id="path63075" /><path
       d="m 176.69942,114.85925 0,1.13523 -5.44998,2.23498 5.44998,0 0,0.86473 -6.62068,0 0,-1.13523 5.44998,-2.23498 -5.44998,0 0,-0.86473 z"
       style="font-size:9.08183px;font-family:Hack;-inkscape-font-specification:Hack"
       id="path63077" /><path
       d="m 176.69942,120.3181 0,1.34365 q 0,1.51659 -0.80707,2.23498 -0.80708,0.71838 -2.50992,0.71838 -1.68954,0 -2.49662,-0.71838 -0.80707,-0.71839 -0.80707,-2.23498 l 0,-1.34365 z m -5.88456,1.32591 q 0,1.13523 0.55875,1.57868 0.55431,0.44788 2.01769,0.44788 1.46781,0 2.01769,-0.44345 0.28381,-0.22616 0.41684,-0.6297 0.13747,-0.3991 0.13747,-0.95341 l 0,-0.42571 -5.14844,0 z"
       style="font-size:9.08183px;font-family:Hack;-inkscape-font-specification:Hack"
       id="path63079" /><path
       d="m 168.82378,126.95211 q 0.48779,1.08645 1.48111,1.11749 -0.0177,-0.0931 -0.0177,-0.17738 0,-0.30154 0.17294,-0.48779 0.17295,-0.19512 0.48779,-0.19512 0.14634,0 0.27494,0.0488 0.13304,0.0488 0.22616,0.15521 0.0754,0.0887 0.12417,0.22172 0.0532,0.13303 0.0532,0.29268 0,0.37693 -0.30154,0.58535 -0.29711,0.20399 -0.83369,0.20399 -0.75386,0 -1.30817,-0.40798 -0.54544,-0.40797 -0.82038,-1.15296 z"
       style="font-size:9.08183px;font-family:Hack;-inkscape-font-specification:Hack"
       id="path63081" /><path
       d="m 175.04536,136.95629 0,0.74056 -0.63413,0.0798 q 0.75386,0.42571 0.75386,1.33478 0,0.89133 -0.69621,1.4013 -0.69622,0.5144 -1.9024,0.5144 -1.21505,0 -1.9157,-0.51883 -0.70064,-0.5144 -0.70064,-1.39687 0,-0.93124 0.75386,-1.33478 l -2.51436,0 0,-0.82038 z m -4.40344,2.04873 q 0,1.16627 1.91569,1.16628 1.9157,0 1.9157,-1.16628 0,-0.59865 -0.49666,-0.9135 -0.49666,-0.31485 -1.4146,-0.31485 -0.92238,0 -1.42347,0.31485 -0.49666,0.31928 -0.49666,0.9135 z"
       style="font-size:9.08183px;font-family:Hack;-inkscape-font-specification:Hack"
       id="path63083" /><path
       d="m 176.9788,142.44621 0,0.81594 -2.67843,0 q 0.86472,0.44789 0.86472,1.46782 0,0.61196 -0.28381,0.93567 -0.2838,0.32816 -0.74055,0.45232 -0.45676,0.12417 -0.98446,0.12417 l -3.07753,0 0,-0.82038 3.07753,0 q 0.66961,0 0.98446,-0.23503 0.31484,-0.23503 0.31484,-0.73169 0,-0.46119 -0.23059,-0.72282 -0.22616,-0.2572 -0.58535,-0.36363 -0.35919,-0.10643 -0.75386,-0.10643 l -2.80703,0 0,-0.81594 z"
       style="font-size:9.08183px;font-family:Hack;-inkscape-font-specification:Hack"
       id="path63085" /><path
       d="m 169.95014,149.78971 q 0,-1.03767 0.6696,-1.58755 0.67404,-0.54544 1.93344,-0.54544 1.26383,0 1.93787,0.54988 0.67404,0.54987 0.67404,1.57867 0,1.0288 -0.67404,1.57425 -0.66961,0.54987 -1.94231,0.54987 -1.26382,0 -1.93343,-0.54544 -0.66517,-0.54544 -0.66517,-1.57424 z m 0.69178,-0.004 q 0,0.60753 0.49666,0.93125 0.49666,0.32815 1.42347,0.32815 0.92237,0 1.4146,-0.32815 0.49666,-0.32372 0.49666,-0.93125 0,-0.61196 -0.49666,-0.94011 -0.49223,-0.32372 -1.4146,-0.32372 -0.92681,0 -1.42347,0.32816 -0.49666,0.32815 -0.49666,0.93567 z"
       style="font-size:9.08183px;font-family:Hack;-inkscape-font-specification:Hack"
       id="path63087" /><path
       d="m 175.04536,153.38163 0,0.73613 -0.74499,0.0798 q 0.86472,0.44788 0.86472,1.45894 0,1.52103 -2.00882,1.52103 l -3.07753,0 0,-0.82038 3.07753,0 q 0.66961,0 0.98446,-0.23502 0.31484,-0.2306 0.31484,-0.71839 0,-0.58092 -0.4124,-0.89577 -0.40798,-0.31041 -1.1574,-0.31041 l -2.80703,0 0,-0.81595 z"
       style="font-size:9.08183px;font-family:Hack;-inkscape-font-specification:Hack"
       id="path63089" /><path
       d="m 169.95014,160.99123 q 0,-1.14853 0.68734,-1.80483 0.69178,-0.65187 1.88466,-0.65187 0.74056,0 1.33921,0.2572 0.59866,0.26163 0.94898,0.7716 0.35476,0.5144 0.35476,1.26826 0,0.99333 -0.63856,1.53877 -0.63414,0.54987 -1.7605,0.54987 l -0.3991,0 0,-3.53428 -0.0266,0 q -0.77603,0 -1.23722,0.40797 -0.46118,0.40797 -0.46118,1.20618 0,0.46119 0.14633,0.89133 0.14634,0.43458 0.35476,0.83812 l -0.81151,0 q -0.17294,-0.42128 -0.27494,-0.85585 -0.10642,-0.43015 -0.10642,-0.88247 z m 3.05536,1.11306 q 0.4124,0 0.74499,-0.12417 0.33259,-0.12416 0.5277,-0.3991 0.19512,-0.2705 0.19512,-0.71839 0,-0.45232 -0.19955,-0.7583 -0.19512,-0.30154 -0.5277,-0.47449 -0.33259,-0.16851 -0.74056,-0.21285 z"
       style="font-size:9.08183px;font-family:Hack;-inkscape-font-specification:Hack"
       id="path63091" /><path
       d="m 169.50679,172.36673 1.90137,-0.51126 0.19576,0.728 -1.90138,0.51126 0.51126,1.90138 -0.71944,0.19345 -0.51126,-1.90138 -1.90566,0.51242 -0.19575,-0.72801 1.90566,-0.51241 -0.51126,-1.90138 0.71944,-0.19345 z"
       style="font-size:9.08183px;font-family:Hack;-inkscape-font-specification:Hack"
       id="path63093" /><path
       d="m 163.25975,169.95013 q 0.21285,1e-5 0.44788,0.0222 0.2306,0.0177 0.47006,0.0621 0.20398,0.0355 0.44788,0.0976 0.2439,0.0621 0.48336,0.14634 l 0,0.90463 q -0.22616,-0.11529 -0.44345,-0.20842 -0.21729,-0.0931 -0.44788,-0.15521 -0.22173,-0.0576 -0.43458,-0.0887 -0.21729,-0.0266 -0.43902,-0.0266 -0.74056,0 -1.13079,0.33258 -0.39467,0.33703 -0.39467,0.94455 0,0.59422 0.39024,0.93124 0.39023,0.33702 1.07314,0.33702 l 0.68291,0 0,0.73613 -0.68291,0 q -0.62526,0 -0.96672,0.2705 -0.34145,0.26607 -0.34145,0.76717 0,0.5011 0.31928,0.7716 0.31041,0.2705 0.93124,0.2705 0.36806,0 0.80264,-0.0887 0.42572,-0.0842 0.88247,-0.26607 l 0,0.82482 q -0.54101,0.1419 -0.95785,0.21285 -0.39467,0.071 -0.74943,0.071 -0.46562,0 -0.85586,-0.11974 -0.39467,-0.11973 -0.68734,-0.36362 -0.57205,-0.47449 -0.57205,-1.28157 0,-0.28824 0.0798,-0.5144 0.0754,-0.22616 0.22172,-0.40354 0.30155,-0.35919 0.8869,-0.5144 -0.65187,-0.17294 -0.99776,-0.61196 -0.18181,-0.23059 -0.26163,-0.50996 -0.0843,-0.27938 -0.0843,-0.59866 0,-0.90464 0.60753,-1.42791 0.30154,-0.2572 0.73169,-0.39023 0.42571,-0.13304 0.98889,-0.13304 z"
       style="font-size:9.08183px;font-family:Hack;-inkscape-font-specification:Hack"
       id="path63095" /><path
       d="m 157.97385,169.95014 q 0.19955,0 0.44788,0.0177 0.2439,0.0177 0.46119,0.0532 0.22616,0.0355 0.41684,0.0887 0.19069,0.0532 0.36806,0.12416 l 0,0.90907 q -0.41684,-0.22172 -0.82038,-0.32815 -0.4124,-0.11086 -0.82038,-0.11086 -0.77603,0 -1.16627,0.39023 -0.3991,0.39467 -0.3991,1.09976 0,0.3858 0.11086,0.66073 0.11086,0.27494 0.30155,0.45676 0.18625,0.17738 0.47892,0.2838 0.29268,0.10643 0.69622,0.10643 0.34589,0 0.68291,-0.0798 0.34589,-0.0842 0.65187,-0.24833 l 0,3.32586 -3.35247,1e-5 0,-0.75387 2.53652,0 0,-1.62745 q -0.19068,0.071 -0.3858,0.10642 -0.16851,0.031 -0.39023,0.031 -0.53658,0 -0.94455,-0.16407 -0.40797,-0.16408 -0.68734,-0.44345 -0.59866,-0.60309 -0.59866,-1.63633 0,-1.05984 0.62526,-1.66293 0.30598,-0.29267 0.74943,-0.44788 0.43901,-0.15077 1.03767,-0.15077 z"
       style="font-size:9.08183px;font-family:Hack;-inkscape-font-specification:Hack"
       id="path63097" /><path
       d="m 152.10703,169.95013 q 1.00663,1e-5 1.57868,0.49667 0.56762,0.49666 0.56762,1.40573 0,0.70508 -0.35476,1.15297 -0.35033,0.44345 -1.0155,0.58978 0.2705,0.0665 0.5011,0.20399 0.23059,0.13747 0.39023,0.33702 0.16851,0.20842 0.24833,0.45675 0.0754,0.24833 0.0754,0.52771 0,0.76716 -0.53657,1.23722 -0.26164,0.22616 -0.62083,0.34145 -0.36363,0.11974 -0.83812,0.11974 -0.92681,0 -1.46338,-0.46119 -0.53657,-0.45675 -0.53657,-1.24166 0,-0.58535 0.31928,-0.98002 0.31485,-0.39023 0.89577,-0.54101 -0.66961,-0.14633 -1.01994,-0.58978 -0.35032,-0.44345 -0.35032,-1.1441 0,-0.46562 0.15077,-0.82038 0.14634,-0.35033 0.42128,-0.58979 0.57648,-0.5011 1.58754,-0.5011 z m -0.004,3.97774 q -0.54101,0 -0.82482,0.27937 -0.2838,0.27938 -0.2838,0.81151 0,0.54101 0.27937,0.82482 0.28381,0.28381 0.82925,0.28381 0.53657,0 0.82038,-0.28381 0.28381,-0.28381 0.28381,-0.82482 0,-0.53213 -0.28381,-0.81151 -0.28381,-0.27937 -0.82038,-0.27937 z m -0.0133,-3.27709 q -0.58979,0 -0.91351,0.33702 -0.32815,0.34146 -0.32815,0.94455 0,0.32815 0.0887,0.56318 0.0842,0.23503 0.23946,0.39024 0.33259,0.33702 0.92681,0.33702 0.59422,0 0.92237,-0.33259 0.32815,-0.33702 0.32815,-0.94455 0,-0.61195 -0.32815,-0.95341 -0.33702,-0.34146 -0.93567,-0.34146 z"
       style="font-size:9.08183px;font-family:Hack;-inkscape-font-specification:Hack"
       id="path63099" /><path
       d="m 141.55738,169.95014 q 0.16408,0 0.33702,0.0177 0.16851,0.0133 0.32372,0.0488 0.29267,0.0621 0.63413,0.19955 l 0,0.82482 q -0.27937,-0.16408 -0.59422,-0.24833 -0.32815,-0.0887 -0.65187,-0.0887 -0.85586,0 -1.29487,0.643 -0.43458,0.64743 -0.43458,1.88466 0.10199,-0.22616 0.2572,-0.39911 0.15521,-0.17294 0.32815,-0.28381 0.36806,-0.23502 0.9135,-0.23502 0.90464,0 1.43234,0.58978 0.52771,0.59423 0.52771,1.65407 0,0.52327 -0.1286,0.94898 -0.13304,0.43014 -0.41241,0.73169 -0.5277,0.58092 -1.5299,0.58092 -0.60752,0 -1.01106,-0.21729 -0.40354,-0.21286 -0.66517,-0.6164 -0.28381,-0.44345 -0.41241,-1.07758 -0.1286,-0.63413 -0.1286,-1.43234 0,-0.87803 0.15521,-1.53876 0.15077,-0.66074 0.48336,-1.10863 0.65187,-0.87803 1.87135,-0.87802 z m -0.28824,3.06423 q -0.31042,0 -0.53658,0.10642 -0.22615,0.11087 -0.37693,0.30155 -0.32371,0.40797 -0.32371,1.1441 0,0.73612 0.32371,1.14409 0.15078,0.19069 0.37693,0.29711 0.22616,0.11087 0.53658,0.11087 0.27494,0 0.50109,-0.0931 0.22616,-0.0931 0.38137,-0.29711 0.30155,-0.39467 0.30155,-1.16183 0,-0.76717 -0.30155,-1.16184 -0.29268,-0.39023 -0.88246,-0.39023 z"
       style="font-size:9.08183px;font-family:Hack;-inkscape-font-specification:Hack"
       id="path63101" /><path
       d="m 135.92116,169.95013 q 0.21285,1e-5 0.44788,0.0222 0.23059,0.0177 0.47006,0.0621 0.20398,0.0355 0.44788,0.0976 0.2439,0.0621 0.48336,0.14634 l 0,0.90463 q -0.22616,-0.11529 -0.44345,-0.20842 -0.21729,-0.0931 -0.44788,-0.15521 -0.22173,-0.0576 -0.43458,-0.0887 -0.21729,-0.0266 -0.43902,-0.0266 -0.74056,0 -1.13079,0.33258 -0.39467,0.33703 -0.39467,0.94455 0,0.59422 0.39023,0.93124 0.39024,0.33702 1.07315,0.33702 l 0.68291,0 0,0.73613 -0.68291,0 q -0.62526,0 -0.96672,0.2705 -0.34146,0.26607 -0.34146,0.76717 0,0.5011 0.31929,0.7716 0.31041,0.2705 0.93124,0.2705 0.36806,0 0.80264,-0.0887 0.42571,-0.0842 0.88247,-0.26607 l -10e-6,0.82482 q -0.541,0.1419 -0.95784,0.21285 -0.39467,0.071 -0.74943,0.071 -0.46562,0 -0.85586,-0.11974 -0.39467,-0.11973 -0.68734,-0.36362 -0.57205,-0.47449 -0.57205,-1.28157 0,-0.28824 0.0798,-0.5144 0.0754,-0.22616 0.22172,-0.40354 0.30155,-0.35919 0.8869,-0.5144 -0.65187,-0.17294 -0.99776,-0.61196 -0.18181,-0.23059 -0.26163,-0.50996 -0.0843,-0.27938 -0.0843,-0.59866 0,-0.90464 0.60753,-1.42791 0.30154,-0.2572 0.73169,-0.39023 0.42571,-0.13304 0.98889,-0.13304 z"
       style="font-size:9.08183px;font-family:Hack;-inkscape-font-specification:Hack"
       id="path63103" /><path
       d="m 131.76602,170.8326 -1.39243,0 0,4.74933 1.05541,-1.20174 0.48779,0.59422 -1.53433,1.72501 -0.89577,0 1e-5,-5.86682 -1.3747,0 0,-0.75387 3.65402,1e-5 z"
       style="font-size:9.08183px;font-family:Hack;-inkscape-font-specification:Hack"
       id="path63105" /><path
       d="m 125.16751,169.95014 q 0.19955,0 0.44788,0.0177 0.2439,0.0177 0.46119,0.0532 0.22616,0.0355 0.41684,0.0887 0.19068,0.0532 0.36806,0.12416 l 0,0.90907 q -0.41684,-0.22172 -0.82038,-0.32815 -0.41241,-0.11086 -0.82038,-0.11086 -0.77603,0 -1.16627,0.39023 -0.3991,0.39467 -0.3991,1.09976 0,0.3858 0.11086,0.66073 0.11086,0.27494 0.30154,0.45676 0.18625,0.17738 0.47893,0.2838 0.29268,0.10643 0.69621,0.10643 0.34589,0 0.68291,-0.0798 0.34589,-0.0842 0.65187,-0.24833 l 0,3.32586 -3.35247,1e-5 0,-0.75387 2.53653,0 0,-1.62745 q -0.19068,0.071 -0.3858,0.10642 -0.16851,0.031 -0.39024,0.031 -0.53657,0 -0.94454,-0.16407 -0.40798,-0.16408 -0.68735,-0.44345 -0.59865,-0.60309 -0.59865,-1.63633 0,-1.05984 0.62526,-1.66293 0.30598,-0.29267 0.74943,-0.44788 0.43901,-0.15077 1.03767,-0.15077 z"
       style="font-size:9.08183px;font-family:Hack;-inkscape-font-specification:Hack"
       id="path63107" /><path
       d="m 118.24085,175.94556 3.17066,0 0,0.75386 -4.16842,0 0,-0.38136 2.36802,-6.23932 0.93567,0 z"
       style="font-size:9.08183px;font-family:Hack;-inkscape-font-specification:Hack"
       id="path63109" /><path
       d="m 108.28541,169.95013 q 0.60753,1e-5 1.01107,0.21286 0.40354,0.21729 0.66517,0.62083 0.27937,0.43458 0.41241,1.06428 0.1286,0.62969 0.1286,1.4412 0,1.79154 -0.643,2.6607 -0.64744,0.86916 -1.86249,0.86916 -0.18181,0 -0.35032,-0.0177 -0.17295,-0.0177 -0.31485,-0.0488 -0.17738,-0.0355 -0.33259,-0.0887 -0.15964,-0.0532 -0.30154,-0.11086 l 0,-0.82482 q 0.28381,0.16851 0.59422,0.25277 0.15521,0.0443 0.32372,0.0621 0.16851,0.0222 0.32371,0.0222 0.86473,0 1.29931,-0.63856 0.43901,-0.64744 0.43901,-1.88909 -0.21285,0.44344 -0.58978,0.68291 -0.38137,0.23502 -0.9002,0.23502 -0.91351,0 -1.44121,-0.58978 -0.53214,-0.58979 -0.53214,-1.65407 0,-1.08201 0.53657,-1.6718 0.53658,-0.58979 1.53433,-0.58979 z m 0,0.70065 q -0.58978,0 -0.88689,0.39467 -0.30155,0.39467 -0.30155,1.1574 0,0.76717 0.30155,1.16184 0.1552,0.20399 0.38136,0.29711 0.22616,0.0931 0.5011,0.0931 0.31041,0 0.53657,-0.11087 0.22616,-0.10642 0.37693,-0.29711 0.15521,-0.19512 0.2439,-0.48336 0.0843,-0.2838 0.0843,-0.66074 0,-0.37693 -0.0843,-0.66517 -0.0887,-0.28381 -0.2439,-0.47892 -0.15077,-0.19069 -0.37693,-0.30155 -0.22616,-0.10643 -0.53214,-0.10643 z"
       style="font-size:9.08183px;font-family:Hack;-inkscape-font-specification:Hack"
       id="path63111" /><path
       d="m 103.28332,169.95014 q 0.16408,0 0.33702,0.0177 0.16852,0.0133 0.32372,0.0488 0.29268,0.0621 0.63413,0.19955 l 0,0.82482 q -0.27937,-0.16408 -0.59422,-0.24833 -0.32815,-0.0887 -0.65187,-0.0887 -0.85585,0 -1.29487,0.643 -0.43458,0.64743 -0.43458,1.88466 0.102,-0.22616 0.2572,-0.39911 0.15521,-0.17294 0.32816,-0.2838 0.36806,-0.23503 0.9135,-0.23503 0.90464,0 1.43234,0.58978 0.5277,0.59423 0.5277,1.65407 0,0.52327 -0.1286,0.94898 -0.13303,0.43014 -0.4124,0.73169 -0.52771,0.58092 -1.5299,0.58092 -0.60753,0 -1.01107,-0.21729 -0.40353,-0.21286 -0.66517,-0.6164 -0.28381,-0.44345 -0.41241,-1.07758 -0.1286,-0.63413 -0.1286,-1.43234 0,-0.87803 0.15521,-1.53876 0.15077,-0.66074 0.48336,-1.10863 0.65187,-0.87802 1.87135,-0.87802 z m -0.28824,3.06423 q -0.31041,0 -0.53657,0.10642 -0.22616,0.11087 -0.37693,0.30155 -0.32372,0.40797 -0.32372,1.1441 0,0.73612 0.32372,1.14409 0.15077,0.19069 0.37693,0.29712 0.22616,0.11086 0.53657,0.11086 0.27494,0 0.5011,-0.0931 0.22616,-0.0931 0.38137,-0.29711 0.30154,-0.39467 0.30154,-1.16183 0,-0.76717 -0.30154,-1.16184 -0.29268,-0.39023 -0.88247,-0.39023 z"
       style="font-size:9.08183px;font-family:Hack;-inkscape-font-specification:Hack"
       id="path63113" /><path
       d="m 97.425346,169.95013 q 1.064277,1e-5 1.60085,0.86916 0.541007,0.8736 0.541007,2.56314 0,1.69397 -0.541008,2.56757 -0.536573,0.86916 -1.60085,0.86916 -1.064277,0 -1.605284,-0.86916 -0.266069,-0.42571 -0.403538,-1.06428 -0.137469,-0.63413 -0.137469,-1.50329 0,-0.86916 0.137469,-1.50329 0.137469,-0.63413 0.403538,-1.05985 0.545442,-0.86916 1.605285,-0.86916 z m 0,0.70952 q -0.634132,0 -0.940112,0.67404 -0.305979,0.66961 -0.305979,2.04874 0,1.38356 0.305979,2.04873 0.30598,0.67848 0.940111,0.67848 0.625263,0 0.931243,-0.67404 0.155207,-0.33259 0.235028,-0.83812 0.07539,-0.5011 0.07539,-1.21505 0,-1.388 -0.310414,-2.04873 -0.310414,-0.67405 -0.931242,-0.67405 z m -0.0089,1.17514 q 0.141903,0 0.221724,0.19069 0.07539,0.19068 0.1286,0.44788 0.04434,0.20398 0.07539,0.49223 0.02661,0.28824 0.02661,0.43901 0,0.10643 -0.01774,0.38137 -0.01774,0.27493 -0.07095,0.51883 -0.1286,0.63413 -0.34589,0.63413 -0.124165,0 -0.20842,-0.16851 -0.08869,-0.16851 -0.150773,-0.47892 -0.04435,-0.22173 -0.07095,-0.49666 -0.02661,-0.27494 -0.02661,-0.42572 0,-0.0887 0.01774,-0.35032 0.0133,-0.26163 0.05765,-0.53657 0.110862,-0.64744 0.363628,-0.64744 z"
       style="font-size:9.08183px;font-family:Hack;-inkscape-font-specification:Hack"
       id="path63115" /><path
       d="m 92.361172,169.95014 q 0.199552,0 0.447883,0.0177 0.243897,0.0177 0.461187,0.0532 0.226159,0.0355 0.416842,0.0887 0.190682,0.0532 0.368062,0.12416 l 0,0.90907 q -0.416842,-0.22172 -0.82038,-0.32815 -0.412407,-0.11086 -0.82038,-0.11086 -0.776036,0 -1.16627,0.39023 -0.399104,0.39467 -0.399104,1.09976 0,0.3858 0.110862,0.66073 0.110862,0.27494 0.301545,0.45676 0.186249,0.17738 0.478925,0.2838 0.292676,0.10643 0.696214,0.10643 0.34589,0 0.682911,-0.0798 0.34589,-0.0842 0.65187,-0.24833 l 0,3.32586 -3.352472,1e-5 0,-0.75387 2.536527,0 -10e-7,-1.62745 q -0.190682,0.071 -0.3858,0.10642 -0.16851,0.031 -0.390235,0.031 -0.536573,0 -0.944546,-0.16407 -0.407972,-0.16408 -0.687345,-0.44345 -0.598656,-0.60309 -0.598656,-1.63633 0,-1.05984 0.625262,-1.66293 0.30598,-0.29267 0.749429,-0.44788 0.439014,-0.15077 1.03767,-0.15077 z"
       style="font-size:9.08183px;font-family:Hack;-inkscape-font-specification:Hack"
       id="path63117" /><path
       d="m 87.44777,168.82378 q -1.086449,0.48779 -1.117491,1.48111 0.09313,-0.0177 0.17738,-0.0177 0.301545,0 0.487794,0.17294 0.195117,0.17295 0.195117,0.48779 0,0.14634 -0.04878,0.27494 -0.04878,0.13304 -0.155207,0.22616 -0.08869,0.0754 -0.221725,0.12417 -0.133034,0.0532 -0.292676,0.0532 -0.376931,0 -0.585352,-0.30154 -0.203987,-0.29711 -0.203987,-0.83369 0,-0.75386 0.407973,-1.30817 0.407973,-0.54544 1.152967,-0.82038 z"
       style="font-size:9.08183px;font-family:Hack;-inkscape-font-specification:Hack"
       id="path63119" /><path
       d="m 75.966873,175.94556 q 0.133034,0 0.133034,0.13304 l 0,0.76716 q 0,0.13304 -0.133035,0.13304 l -0.638566,0 q -0.133034,0 -0.133034,-0.13304 l 0,-0.76716 q 0,-0.13304 0.133034,-0.13304 z m -1.489988,-5.9023 q 0.731691,0 1.135229,0.47005 0.399104,0.4745 0.399104,1.33035 l 0,2.56313 1.086449,0 0,0.63857 -1.902395,0 0,-3.2017 q 0,-0.54101 -0.203986,-0.82481 -0.203987,-0.28381 -0.594222,-0.28381 l -0.953414,0 0,-0.69178 z"
       style="font-size:9.08183px;font-family:Hack;-inkscape-font-specification:Hack"
       id="path63121" /><path
       d="m 71.953642,175.04536 -0.736125,0 -0.07982,-0.74499 q -0.447883,0.86472 -1.458946,0.86472 -1.52103,0 -1.521029,-2.00882 l 0,-3.07754 0.82038,1e-5 0,3.07753 q 0,0.66961 0.235027,0.98446 0.230594,0.31484 0.718387,0.31484 0.580918,0 0.895767,-0.4124 0.310414,-0.40798 0.310414,-1.1574 l 0,-2.80703 0.815946,0 z"
       style="font-size:9.08183px;font-family:Hack;-inkscape-font-specification:Hack"
       id="path63123" /><path
       d="m 65.284183,174.41123 1.325912,0 0,0.63413 -1.325912,0 0,0.34589 q 0,0.81595 -0.372497,1.20175 -0.376931,0.3858 -1.170705,0.3858 l -0.980021,0 0,-0.67848 0.926808,0 q 0.434579,0 0.607524,-0.18181 0.172945,-0.17738 0.172945,-0.63413 l 0,-0.43902 -1.707277,0 0,-0.63413 1.707277,0 10e-7,-4.33249 0.815946,0 z"
       style="font-size:9.08183px;font-family:Hack;-inkscape-font-specification:Hack"
       id="path63125" /><path
       d="m 59.142429,169.95013 q 1.03767,1e-5 1.587546,0.66961 0.545442,0.67404 0.545442,1.93344 0,1.26383 -0.549876,1.93787 -0.549877,0.67404 -1.578678,0.67404 -1.028801,0 -1.574243,-0.67404 -0.549876,-0.66961 -0.549876,-1.94231 0,-1.26382 0.545442,-1.93343 0.545442,-0.66518 1.574243,-0.66518 z m 0.0044,0.69179 q -0.607524,-1e-5 -0.931242,0.49666 -0.328152,0.49666 -0.328152,1.42347 0,0.92237 0.328152,1.4146 0.323717,0.49666 0.931242,0.49666 0.611959,0 0.940111,-0.49666 0.323718,-0.49223 0.323718,-1.4146 0,-0.92681 -0.328152,-1.42347 -0.328152,-0.49666 -0.935677,-0.49666 z"
       style="font-size:9.08183px;font-family:Hack;-inkscape-font-specification:Hack"
       id="path63127" /><path
       d="m 52.885347,168.66413 q 0.727256,0 1.370257,0.25277 0.638566,0.25277 1.113056,0.77603 0.447883,0.49667 0.687346,1.20175 0.239462,0.70508 0.239462,1.60972 0,0.83368 -0.203987,1.5299 -0.208421,0.69621 -0.625262,1.20618 -0.425711,0.52327 -0.993326,0.7716 -0.567614,0.25276 -1.201746,0.25276 -0.98889,0 -1.534332,-0.58978 -0.545442,-0.58535 -0.545442,-1.58311 l 0,-3.41456 0.638566,0 0,0.49223 q 0.168511,-0.27937 0.452318,-0.43015 0.283807,-0.15077 0.65187,-0.15077 0.718387,0 1.188442,0.53214 0.212856,0.23946 0.341456,0.58979 0.124165,0.35032 0.124165,0.78934 0,0.40353 -0.115296,0.74942 -0.115297,0.34589 -0.350325,0.6164 -0.243897,0.27937 -0.545442,0.40797 -0.30598,0.1286 -0.629697,0.1286 -0.359194,0 -0.660739,-0.15521 -0.29711,-0.15077 -0.456752,-0.42571 l 0,0.27937 q 0,0.70509 0.3858,1.1175 0.381366,0.41684 1.08645,0.41684 0.496662,0 0.931242,-0.21286 0.430145,-0.20842 0.753863,-0.63413 0.647435,-0.84699 0.647435,-2.27489 0,-1.50329 -0.727255,-2.35471 -0.34589,-0.41241 -0.838118,-0.63414 -0.496663,-0.22615 -1.104188,-0.22615 -0.496662,0 -0.980021,0.18181 l -0.212856,-0.59866 q 0.150773,-0.0621 0.283807,-0.0976 0.133035,-0.0399 0.26607,-0.0665 0.137469,-0.0266 0.266069,-0.0399 0.1286,-0.0133 0.29711,-0.0133 z m -0.03104,2.56757 q -0.47449,0 -0.758297,0.34589 -0.283808,0.35033 -0.283808,0.91794 0,0.58535 0.283807,0.92237 0.283808,0.33702 0.762732,0.33703 0.465621,0 0.753863,-0.34146 0.288242,-0.34146 0.288242,-0.9135 0,-0.58536 -0.288242,-0.92681 -0.288241,-0.34146 -0.758297,-0.34146 z"
       style="font-size:9.08183px;font-family:Hack;-inkscape-font-specification:Hack"
       id="path63129" /><path
       d="m 47.368856,170.061 q 0.913504,0 1.29487,0.36806 0.376931,0.3725 0.376931,1.26826 l 0,2.71391 1.325912,0 0,0.63413 -1.325912,0 0,1.29931 -0.815946,0.35475 0,-1.65406 -1.853615,0 0,-0.63413 1.853615,0 10e-7,-2.71391 q 0,-0.54544 -0.208421,-0.76716 -0.208421,-0.21729 -0.727256,-0.21729 l -0.917939,0 0,-0.65187 z"
       style="font-size:9.08183px;font-family:Hack;-inkscape-font-specification:Hack"
       id="path63131" /><path
       d="m 43.22262,169.95014 q 0.718387,0 1.188443,0.4124 0.465621,0.41684 0.465621,1.19288 0,0.643 -0.310414,1.00219 -0.310414,0.36363 -0.811511,0.50997 -0.501097,0.14634 -1.068711,0.14634 l -1.095319,0 0,0.1286 q 0,0.63413 0.323718,0.88246 0.319283,0.24833 0.900201,0.24833 0.452318,0 0.886897,-0.12416 0.43458,-0.12417 0.811512,-0.34589 l 0,0.81594 q -0.407973,0.15077 -0.824815,0.24833 -0.416842,0.0976 -0.851422,0.0976 -0.443448,0 -0.86029,-0.12416 -0.421276,-0.11973 -0.727256,-0.39911 -0.30598,-0.27494 -0.407973,-0.74056 -0.07095,-0.32815 -0.07095,-0.98889 l 0,-1.01549 q 0,-0.41685 -0.04434,-0.92238 -0.04878,-0.50553 -0.21729,-0.89576 l 0.82038,0 q 0.07539,0.17294 0.119732,0.36806 0.04434,0.19955 0.07095,0.3858 0.261635,-0.44788 0.727256,-0.66517 0.461187,-0.21729 0.975587,-0.21729 z m -0.199551,0.68291 q -0.505532,0 -0.820381,0.24833 -0.319283,0.24833 -0.465621,0.64743 -0.146338,0.40354 -0.146338,0.86473 l 0,0.18181 1.033236,0 q 0.34589,0 0.678476,-0.0798 0.328152,-0.0754 0.545442,-0.29268 0.212856,-0.21728 0.212856,-0.63413 0,-0.47005 -0.288242,-0.70508 -0.288242,-0.23059 -0.749428,-0.23059 z"
       style="font-size:9.08183px;font-family:Hack;-inkscape-font-specification:Hack"
       id="path63133" /><path
       d="m 39.528672,175.04536 -0.669608,0 -0.07095,-0.42571 q -0.301546,0.54544 -0.891332,0.54544 -0.634132,0 -0.882463,-0.62526 -0.301545,0.62526 -0.948981,0.62526 -0.60309,0 -0.842552,-0.45232 -0.243897,-0.46562 -0.243897,-1.75605 l 0,-2.87799 0.744994,0 0,2.84251 q 0,0.55875 0.03104,0.86473 0.02661,0.30598 0.08869,0.45231 0.110862,0.2439 0.439014,0.2439 0.337021,0 0.465622,-0.26607 0.07539,-0.15521 0.106427,-0.45232 0.03104,-0.29711 0.03104,-0.84255 l 0,-2.8425 0.744994,0 0,2.8425 q 0,0.53657 0.03104,0.85142 0.03104,0.31485 0.09756,0.46119 0.119731,0.24833 0.447883,0.24833 0.328152,0 0.447883,-0.26163 0.07095,-0.15078 0.101993,-0.46119 0.03104,-0.30598 0.03104,-0.83812 l 0,-2.8425 0.740559,0 z"
       style="font-size:9.08183px;font-family:Hack;-inkscape-font-specification:Hack"
       id="path63135" /><path
       d="m 33.701766,175.04536 -0.740559,0 -0.07982,-0.63413 q -0.425711,0.75386 -1.334781,0.75386 -0.891332,0 -1.401298,-0.69621 -0.5144,-0.69622 -0.5144,-1.9024 0,-1.21505 0.518835,-1.9157 0.514401,-0.70065 1.396864,-0.70065 0.931242,1e-5 1.33478,0.75387 l 10e-7,-2.51436 0.82038,0 z m -2.048733,-4.40345 q -1.16627,0 -1.16627,1.9157 0,1.9157 1.16627,1.9157 0.598656,0 0.913504,-0.49666 0.314849,-0.49666 0.314849,-1.4146 0,-0.92238 -0.314848,-1.42347 -0.319283,-0.49666 -0.913505,-0.49667 z"
       style="font-size:9.08183px;font-family:Hack;-inkscape-font-specification:Hack"
       id="path63137" /><path
       d="m 26.070026,169.95013 q 1.148532,1e-5 1.804837,0.68735 0.651869,0.69178 0.651869,1.88466 0,0.74056 -0.2572,1.33921 -0.261635,0.59866 -0.771601,0.94898 -0.514401,0.35476 -1.268264,0.35476 -0.993325,0 -1.538767,-0.63856 -0.549876,-0.63414 -0.549876,-1.7605 l 0,-0.3991 3.534286,0 0,-0.0266 q 1e-6,-0.77603 -0.407972,-1.23722 -0.407973,-0.46118 -1.206181,-0.46119 -0.461186,0 -0.891332,0.14634 -0.43458,0.14634 -0.838118,0.35476 l 0,-0.81151 q 0.421277,-0.17294 0.855856,-0.27494 0.430146,-0.10643 0.882463,-0.10643 z m -1.113056,3.05537 q 0,0.4124 0.124165,0.74499 0.124166,0.33259 0.399104,0.5277 0.270504,0.19512 0.718387,0.19512 0.452318,0 0.758297,-0.19955 0.301546,-0.19512 0.474491,-0.5277 0.16851,-0.33259 0.212855,-0.74056 z"
       style="font-size:9.08183px;font-family:Hack;-inkscape-font-specification:Hack"
       id="path63139" /><path
       d="m 22.26965,175.04536 -0.740559,0 -0.07982,-0.97115 q -0.208421,0.5277 -0.625263,0.80707 -0.421276,0.28381 -1.006628,0.28381 -0.61196,0 -1.064277,-0.31041 l 0,-0.83369 q 0.478924,0.39024 1.135229,0.39024 0.753862,0 1.157401,-0.48336 0.403538,-0.47892 0.403538,-1.37913 l 0,-2.47 0.820381,0 z"
       style="font-size:9.08183px;font-family:Hack;-inkscape-font-specification:Hack"
       id="path63141" /><path
       d="m 15.134571,169.95013 q 1.148532,1e-5 1.804836,0.68735 0.65187,0.69178 0.65187,1.88466 0,0.74056 -0.257201,1.33921 -0.261634,0.59866 -0.771601,0.94898 -0.5144,0.35476 -1.268263,0.35476 -0.993325,0 -1.538767,-0.63856 -0.549876,-0.63414 -0.549876,-1.7605 l 0,-0.3991 3.534286,0 0,-0.0266 q 0,-0.77603 -0.407973,-1.23722 -0.407972,-0.46118 -1.20618,-0.46119 -0.461187,0 -0.891332,0.14634 -0.43458,0.14634 -0.838118,0.35476 l 0,-0.81151 q 0.421276,-0.17294 0.855856,-0.27494 0.430145,-0.10643 0.882463,-0.10643 z m -1.113057,3.05537 q 0,0.4124 0.124166,0.74499 0.124166,0.33259 0.399104,0.5277 0.270503,0.19512 0.718387,0.19512 0.452317,0 0.758297,-0.19955 0.301545,-0.19512 0.47449,-0.5277 0.168511,-0.33259 0.212856,-0.74056 z"
       style="font-size:9.08183px;font-family:Hack;-inkscape-font-specification:Hack"
       id="path63143" /><path
       d="m 9.9551002,169.959 q 0.3015448,0 0.5099658,0.20842 0.208421,0.20843 0.208421,0.54101 0,0.33259 -0.208421,0.54101 -0.208421,0.20842 -0.5099659,0.20842 -0.3015452,0 -0.509966,-0.20842 -0.2084209,-0.20842 -0.2084209,-0.54101 0,-0.33258 0.208421,-0.54101 0.2084209,-0.20842 0.509966,-0.20842 z"
       style="font-size:9.08183px;font-family:Hack;-inkscape-font-specification:Hack"
       id="path63145" /><path
       d="m 6.3409719,176.9788 -0.8159457,0 3e-7,-2.67843 q -0.4478833,0.86472 -1.4678154,0.86472 -0.6119593,0 -0.9356768,-0.28381 -0.328152,-0.2838 -0.4523176,-0.74055 -0.1241656,-0.45676 -0.1241656,-0.98446 l 3e-7,-3.07754 0.8203801,1e-5 -2e-7,3.07753 q -10e-8,0.66961 0.2350277,0.98446 0.2350278,0.31484 0.7316904,0.31484 0.4611867,0 0.7228214,-0.23059 0.2572003,-0.22616 0.363628,-0.58535 0.1064278,-0.35919 0.1064278,-0.75386 l 2e-7,-2.80703 0.8159457,0 z"
       style="font-size:9.08183px;font-family:Hack;-inkscape-font-specification:Hack"
       id="path63147" /><path
       d="m 0.31791727,169.46065 q 0.30342792,0.65116 0.12815224,1.25142 -0.18116821,0.59811 -0.88458342,0.92589 -0.58282969,0.27158 -1.03952129,0.14193 -0.4607111,-0.12778 -0.8050055,-0.52017 -0.3442943,-0.3924 -0.5840398,-0.9069 l -0.4626339,-0.99282 -0.116566,0.0543 q -0.5747907,0.26784 -0.6631537,0.66615 -0.090236,0.3943 0.1551285,0.92085 0.1910472,0.40999 0.4871488,0.75146 0.2961016,0.34147 0.6562834,0.58948 l -0.7395908,0.34463 q -0.3089807,-0.30611 -0.5734731,-0.64274 -0.2644925,-0.33663 -0.4480476,-0.73054 -0.1873012,-0.40195 -0.2508179,-0.83223 -0.069409,-0.43242 0.054582,-0.82777 0.1199721,-0.39347 0.498942,-0.68259 0.2674759,-0.20291 0.8663837,-0.48199 l 0.9204691,-0.42892 q 0.3778344,-0.17607 0.817329,-0.42978 0.4376217,-0.25774 0.72016459,-0.57531 l 0.34650719,0.74361 q -0.1249199,0.14138 -0.28304847,0.26399 -0.16214811,0.12448 -0.31972961,0.22726 0.51647872,0.048 0.91010122,0.37825 0.39174948,0.32625 0.60901885,0.79252 z m -0.70329091,0.10756 q -0.21352335,-0.45822 -0.57160005,-0.63872 -0.35994971,-0.18452 -0.78351551,-0.14859 -0.4275853,0.0378 -0.8456149,0.23259 l -0.1648001,0.0768 0.4364117,0.93655 q 0.146095,0.31352 0.3589221,0.58127 0.2069347,0.2656 0.4956685,0.37078 0.2868608,0.10116 0.66469527,-0.0749 0.42606864,-0.19853 0.51735719,-0.55907 0.087269,-0.35867 -0.1075242,-0.7767 z"
       style="font-size:9.08183px;font-family:Hack;-inkscape-font-specification:Hack"
       id="path63149" /><path
       d="m 0.1286024,163.2227 q 3e-8,0.7849 -0.32815201,1.32148 -0.33258652,0.53214 -0.92237329,0.80707 -0.5897868,0.27051 -1.3569531,0.27051 -0.7716008,0 -1.3569532,-0.27494 -0.5897868,-0.27494 -0.9179389,-0.81151 -0.3325866,-0.53657 -0.3325866,-1.33035 0,-0.4124 0.097559,-0.74499 0.093124,-0.33259 0.2838072,-0.67848 l 0.855856,0 q -0.2793727,0.31485 -0.4124073,0.63413 -0.1330346,0.31485 -0.1330346,0.71839 10e-8,0.59866 0.2572003,0.95785 0.2572003,0.35476 0.6917801,0.5144 0.4345797,0.15521 0.9667182,0.15521 0.527704,0 0.9667183,-0.15964 0.4345797,-0.15965 0.69177995,-0.5144 0.25720025,-0.35476 0.25720022,-0.94898 -1e-8,-0.39024 -0.12860016,-0.72726 -0.12860015,-0.33702 -0.40797291,-0.6297 l 0.84698713,0 q 0.38136593,0.63413 0.38136597,1.44121 z"
       style="font-size:9.08183px;font-family:Hack;-inkscape-font-specification:Hack"
       id="path63151" /><path
       d="m -6.9000599,159.87911 0,-0.84255 3.995473,0 -2.0620367,-2.14186 0,-0.99333 1.8713537,1.95561 3.0952720719045,-2.26159 4.36134e-8,0.99776 -2.5631336155179,1.83588 0.5720489,0.60753 1.9910848223225,0 3.68291e-8,0.84255 z"
       style="font-size:9.08183px;font-family:Hack;-inkscape-font-specification:Hack"
       id="path63153" /><path
       d="m 0.03547814,151.77288 q 3e-8,0.73169 -0.4700556,1.13522 -0.47449013,0.39911 -1.33034614,0.39911 l -4.4965702,0 1e-7,1.30817 -0.6385662,0 -1e-7,-2.12412 5.1351363,0 q 0.5410075,0 0.82481466,-0.20398 0.28380717,-0.20399 0.28380716,-0.59423 l -4e-8,-0.95341 0.69178002,0 z"
       style="font-size:9.08183px;font-family:Hack;-inkscape-font-specification:Hack"
       id="path63155" /><path
       d="m 0.12860244,147.68866 q 3e-8,0.71839 -0.41240727,1.18844 -0.41684179,0.46563 -1.19287707,0.46563 -0.6430007,0 -1.0021941,-0.31042 -0.363628,-0.31041 -0.5099661,-0.81151 -0.1463381,-0.5011 -0.1463382,-1.06871 l 0,-1.09532 -0.1286001,0 q -0.6341317,0 -0.882463,0.32372 -0.2483313,0.31928 -0.2483312,0.9002 0,0.45232 0.1241656,0.8869 0.1241657,0.43458 0.3458901,0.81151 l -0.8159457,0 q -0.1507726,-0.40797 -0.2483313,-0.82482 -0.097559,-0.41684 -0.097559,-0.85142 0,-0.44345 0.1241656,-0.86029 0.1197312,-0.42128 0.3991039,-0.72725 0.2749382,-0.30598 0.7405593,-0.40798 0.3281521,-0.071 0.9888907,-0.071 l 1.0154976,0 q 0.4168418,0 0.92237336,-0.0443 0.50553155,-0.0488 0.8957664256669,-0.21729 l 3.586e-8,0.82038 Q -0.17294278,145.87052 -0.36806022,145.91487 q -0.19955193,0.0443 -0.38580039,0.0709 0.44788323,0.26163 0.66517313,0.72725 0.21728989,0.46119 0.21728992,0.97559 z m -0.68291106,-0.19955 q -2e-8,-0.50553 -0.24833132,-0.82038 -0.24833126,-0.31928 -0.64743516,-0.46562 -0.4035384,-0.14634 -0.864725,-0.14634 l -0.181814,0 0,1.03324 q 0,0.34589 0.079821,0.67847 0.075386,0.32815 0.2926762,0.54544 0.2172899,0.21286 0.6341317,0.21286 0.4700557,0 0.70508347,-0.28824 0.23059333,-0.28824 0.23059331,-0.74943 z"
       style="font-size:9.08183px;font-family:Hack;-inkscape-font-specification:Hack"
       id="path63157" /><path
       d="m 0.1286024,141.44048 q 4e-8,0.94011 -0.75386278,1.36582 l 0.6252627133712,0.0798 3.2177e-8,0.73613 -6.9000622655482,0 0,-0.81595 2.5675681,0 q -0.3858004,-0.20398 -0.5676144,-0.56318 -0.1862485,-0.35919 -0.1862485,-0.80707 0,-0.53214 0.2305933,-0.89577 0.2261589,-0.36363 0.6075248,-0.58092 0.3769314,-0.22172 0.838118,-0.31485 0.4611867,-0.0976 0.9223734,-0.0976 0.4656212,0 0.9312423,0.0976 0.4611867,0.0976 0.84255265,0.31929 0.38136592,0.21729 0.61195927,0.58091 0.23059336,0.36363 0.23059338,0.89577 z m -0.69178001,0.16408 q -2e-8,-0.39024 -0.18181401,-0.62527 -0.18181399,-0.23946 -0.47449018,-0.35919 -0.2926761,-0.12417 -0.6252627,-0.16851 -0.3325865,-0.0444 -0.6341317,-0.0444 -0.3015451,0 -0.6341317,0.0444 -0.337021,0.0443 -0.6252627,0.16851 -0.2926761,0.11973 -0.4744901,0.35919 -0.181814,0.23503 -0.181814,0.62527 10e-8,0.3858 0.1818141,0.62526 0.1818139,0.23503 0.4700556,0.36363 0.2882417,0.12416 0.6252627,0.16851 0.3325866,0.0443 0.6341317,0.0443 0.3059797,0 0.6430007,-0.0443 0.3325865,-0.0443 0.6252627,-0.16851 0.28824167,-0.1286 0.47005564,-0.36363 0.18181396,-0.23946 0.18181395,-0.62526 z"
       style="font-size:9.08183px;font-family:Hack;-inkscape-font-specification:Hack"
       id="path63159" /><path
       d="m 0.11973344,136.29205 q 1e-8,0.30155 -0.20842088,0.50997 -0.20842089,0.20842 -0.54100744,0.20842 -0.33258655,0 -0.54100742,-0.20842 -0.208421,-0.20842 -0.208421,-0.50997 0,-0.30154 0.2084209,-0.50997 0.2084209,-0.20842 0.54100745,-0.20842 0.33258655,0 0.54100747,0.20842 0.20842091,0.20843 0.20842092,0.50997 z"
       style="font-size:9.08183px;font-family:Hack;-inkscape-font-specification:Hack"
       id="path63161" /><path
       d="m -4.3324918,131.47621 10e-8,1.32591 -0.6341317,0 -1e-7,-1.32591 -0.34589,0 q -0.8159457,0 -1.2017461,-0.3725 -0.3858004,-0.37693 -0.3858004,-1.1707 l -1e-7,-0.98003 0.6784766,0 0,0.92681 q 1e-7,0.43458 0.181814,0.60753 0.1773795,0.17294 0.6341317,0.17294 l 0.4390143,0 -1e-7,-1.70728 0.6341317,0 1e-7,1.70728 4.3324940769645,0 3.56661e-8,0.81595 z"
       style="font-size:9.08183px;font-family:Hack;-inkscape-font-specification:Hack"
       id="path63163" /><path
       d="m -5.8668244,125.75573 q 0,0.13303 -0.1330346,0.13303 l -0.7671663,0 q -0.1330347,0 -0.1330347,-0.13303 l 0,-0.63857 q 0,-0.13303 0.1330346,-0.13303 l 0.7671663,0 q 0.1330346,0 0.1330347,0.13303 z m 5.90230253,-1.48999 q 4e-8,0.73169 -0.4700556,1.13523 -0.47449013,0.3991 -1.33034613,0.3991 l -2.5631337,0 0,1.08645 -0.6385661,0 -1e-7,-1.90239 3.2016998,0 q 0.5410075,0 0.82481465,-0.20399 0.28380718,-0.20398 0.28380716,-0.59422 l -4e-8,-0.95341 0.69178002,0 z"
       style="font-size:9.08183px;font-family:Hack;-inkscape-font-specification:Hack"
       id="path63165" /><path
       d="m 1.2549622,120.83339 q -0.48779362,-1.08645 -1.48111878,-1.11749 0.017738,0.0931 0.017738,0.17738 10e-9,0.30154 -0.17294498,0.48779 -0.172945,0.19512 -0.4877936,0.19512 -0.1463381,0 -0.2749382,-0.0488 -0.1330346,-0.0488 -0.2261589,-0.15521 -0.075386,-0.0887 -0.1241656,-0.22172 -0.053214,-0.13304 -0.053214,-0.29268 0,-0.37693 0.3015451,-0.58535 0.29711066,-0.20399 0.83368363,-0.20399 0.75386284,0 1.30817377,0.40798 0.545442,0.40797 0.8203802,1.15296 z"
       style="font-size:9.08183px;font-family:Hack;-inkscape-font-specification:Hack"
       id="path63167" /><path
       d="m 0.0177402,108.09313 q 4e-8,0.9135 -0.36806239,1.29487 -0.37249692,0.37693 -1.26826341,0.37693 l -2.7139062,0 10e-8,1.32591 -0.6341317,0 -1e-7,-1.32591 -1.2993048,0 -0.354759,-0.81594 1.6540638,0 -1e-7,-1.85362 0.6341317,0 1e-7,1.85362 2.7139062,0 q 0.545442,0 0.76716631,-0.20843 0.21728987,-0.20842 0.21728985,-0.72725 l -4e-8,-0.91794 0.65186963,0 z"
       style="font-size:9.08183px;font-family:Hack;-inkscape-font-specification:Hack"
       id="path63169" /><path
       d="m 0.12860244,103.94689 q 3e-8,0.71839 -0.41240727,1.18845 -0.41684179,0.46562 -1.19287707,0.46562 -0.6430007,0 -1.0021941,-0.31042 -0.363628,-0.31041 -0.5099661,-0.81151 -0.1463381,-0.50109 -0.1463382,-1.06871 l 0,-1.09532 -0.1286001,0 q -0.6341317,0 -0.882463,0.32372 -0.2483313,0.31928 -0.2483312,0.9002 0,0.45232 0.1241656,0.8869 0.1241657,0.43458 0.3458901,0.81151 l -0.8159457,0 q -0.1507726,-0.40797 -0.2483313,-0.82481 -0.097559,-0.41685 -0.097559,-0.85143 0,-0.44344 0.1241656,-0.86029 0.1197312,-0.42127 0.3991039,-0.72725 0.2749382,-0.30598 0.7405593,-0.40798 0.3281521,-0.0709 0.9888907,-0.0709 l 1.0154976,0 q 0.4168418,0 0.92237336,-0.0443 0.50553155,-0.0488 0.8957664256669,-0.21729 l 3.586e-8,0.82038 Q -0.17294278,102.12875 -0.36806022,102.1731 q -0.19955193,0.0443 -0.38580039,0.0709 0.44788323,0.26164 0.66517313,0.72726 0.21728989,0.46118 0.21728992,0.97558 z m -0.68291106,-0.19955 q -2e-8,-0.50553 -0.24833132,-0.82038 -0.24833126,-0.31928 -0.64743516,-0.46562 -0.4035384,-0.14634 -0.864725,-0.14634 l -0.181814,0 0,1.03324 q 0,0.34589 0.079821,0.67847 0.075386,0.32816 0.2926762,0.54545 0.2172899,0.21285 0.6341317,0.21285 0.4700557,0 0.70508347,-0.28824 0.23059333,-0.28824 0.23059331,-0.74943 z"
       style="font-size:9.08183px;font-family:Hack;-inkscape-font-specification:Hack"
       id="path63171" /><path
       d="m -4.9666234,100.25298 0,-0.669611 0.4257107,-0.07095 q -0.5454419,-0.301545 -0.5454419,-0.891331 -1e-7,-0.634132 0.6252626,-0.882463 -0.6252627,-0.301546 -0.6252627,-0.948981 0,-0.60309 0.4523176,-0.842552 0.4656212,-0.243897 1.756057,-0.243897 l 2.8779822829532,0 3.25647e-8,0.744994 -2.8425064155179,0 q -0.5587454,0 -0.864725,0.03104 -0.3059796,0.02661 -0.4523177,0.08869 -0.2438968,0.110862 -0.2438968,0.439014 0,0.337021 0.2660693,0.465621 0.1552071,0.07539 0.4523177,0.106428 0.2971107,0.03104 0.8425526,0.03104 l 2.8425063663034,0 3.25647e-8,0.744994 -2.8425063988681,0 q -0.5365729,0 -0.8514215,0.03104 -0.3148486,0.03104 -0.4611867,0.09756 -0.2483313,0.119732 -0.2483313,0.447884 0,0.328152 0.2616348,0.447883 0.1507726,0.07095 0.4611867,0.101993 0.3059796,0.03104 0.8381181,0.03104 l 2.8425063494597,0 3.23709e-8,0.740563 z"
       style="font-size:9.08183px;font-family:Hack;-inkscape-font-specification:Hack"
       id="path63173" /><path
       d="m -4.9666234,94.426071 -1e-7,-0.740559 0.6341317,-0.07982 q -0.7538628,-0.425711 -0.7538629,-1.334781 0,-0.891332 0.6962145,-1.401298 0.6962145,-0.5144 1.902395,-0.5144 1.2150495,-10e-7 1.91569855,0.518834 0.70064902,0.514401 0.70064905,1.396864 4e-8,0.931242 -0.75386278,1.334781 l 2.51435428,0 1e-7,0.82038 z m 4.40344579,-2.048733 q -5e-8,-1.166271 -1.91569859,-1.16627 -1.9156985,0 -1.9156985,1.16627 10e-8,0.598656 0.4966627,0.913504 0.4966626,0.314849 1.4146014,0.314849 0.9223734,0 1.4234704,-0.314849 0.49666261,-0.319283 0.49666259,-0.913504 z"
       style="font-size:9.08183px;font-family:Hack;-inkscape-font-specification:Hack"
       id="path63175" /><path
       d="m 0.1286024,86.794268 q 5e-8,1.148532 -0.68734545,1.804836 -0.69177995,0.65187 -1.88465705,0.65187 -0.7405594,0 -1.3392152,-0.257201 -0.5986558,-0.261634 -0.9489803,-0.7716 -0.354759,-0.514401 -0.3547591,-1.268264 0,-0.993325 0.6385661,-1.538767 0.6341317,-0.549876 1.7604915,-0.549876 l 0.3991038,0 2e-7,3.534286 0.026607,0 q 0.7760353,0 1.237222,-0.407973 0.46118662,-0.407973 0.46118658,-1.20618 -2e-8,-0.461187 -0.14633812,-0.891332 -0.1463381,-0.43458 -0.35475906,-0.838118 l 0.81151122,-10e-7 q 0.17294502,0.421277 0.27493825,0.855857 0.10642771,0.430145 0.10642773,0.882463 z m -3.0553618,-1.113057 q -0.4124073,0 -0.7449939,0.124166 -0.3325865,0.124166 -0.5277039,0.399104 -0.1951175,0.270504 -0.1951175,0.718387 10e-8,0.452318 0.199552,0.758297 0.1951175,0.301545 0.527704,0.47449 0.3325866,0.168511 0.7405594,0.212856 z"
       style="font-size:9.08183px;font-family:Hack;-inkscape-font-specification:Hack"
       id="path63177" /><path
       d="m -4.9666235,82.993923 0,-0.74056 0.9711527,-0.07982 q -0.527704,-0.208421 -0.8070767,-0.625262 -0.2838072,-0.421277 -0.2838072,-1.006629 0,-0.611959 0.3104141,-1.064277 l 0.8336836,0 q -0.3902349,0.478925 -0.3902349,1.135229 1e-7,0.753863 0.4833592,1.157401 0.4789246,0.403538 1.3791256,0.403538 l 2.47000940856,0 3.58599e-8,0.82038 z"
       style="font-size:9.08183px;font-family:Hack;-inkscape-font-specification:Hack"
       id="path63179" /><path
       d="m 0.1286024,75.858843 q 5e-8,1.148532 -0.68734545,1.804836 -0.69177995,0.65187 -1.88465705,0.65187 -0.7405594,0 -1.3392152,-0.2572 -0.5986558,-0.261635 -0.9489803,-0.771601 -0.354759,-0.514401 -0.3547591,-1.268264 0,-0.993325 0.6385661,-1.538767 0.6341317,-0.549876 1.7604915,-0.549876 l 0.3991038,0 2e-7,3.534286 0.026607,0 q 0.7760353,0 1.237222,-0.407973 0.46118662,-0.407973 0.46118658,-1.20618 -2e-8,-0.461187 -0.14633812,-0.891332 -0.1463381,-0.43458 -0.35475906,-0.838118 l 0.81151122,0 q 0.17294502,0.421276 0.27493825,0.855856 0.10642771,0.430145 0.10642773,0.882463 z m -3.0553618,-1.113056 q -0.4124073,0 -0.7449939,0.124165 -0.3325865,0.124166 -0.5277039,0.399104 -0.1951175,0.270504 -0.1951175,0.718387 10e-8,0.452318 0.199552,0.758297 0.1951175,0.301545 0.527704,0.47449 0.3325866,0.168511 0.7405594,0.212856 z"
       style="font-size:9.08183px;font-family:Hack;-inkscape-font-specification:Hack"
       id="path63181" /><path
       d="m 0.11973344,70.679372 q 1e-8,0.301545 -0.20842088,0.509966 -0.20842089,0.208421 -0.54100744,0.208421 -0.33258655,0 -0.54100742,-0.208421 -0.208421,-0.208421 -0.208421,-0.509966 0,-0.301545 0.2084209,-0.509966 0.2084209,-0.208421 0.54100745,-0.208421 0.33258655,0 0.54100747,0.208421 0.20842091,0.208421 0.20842092,0.509966 z"
       style="font-size:9.08183px;font-family:Hack;-inkscape-font-specification:Hack"
       id="path63183" /><path
       d="m -6.9000599,67.065276 0,-0.815946 2.6784303,0 q -0.864725,-0.447883 -0.8647251,-1.467815 0,-0.61196 0.2838072,-0.935677 0.2838071,-0.328152 0.7405593,-0.452318 0.4567522,-0.124166 0.9844562,-0.124166 l 3.0775341992356,0 3.58599e-8,0.82038 -3.0775342350955,0 q -0.6696075,0 -0.9844561,0.235028 -0.3148486,0.235028 -0.3148486,0.731691 0,0.461186 0.2305934,0.722821 0.2261588,0.2572 0.5853523,0.363628 0.3591935,0.106428 0.7538629,0.106428 l 2.8070304294944,0 3.56662e-8,0.815945 z"
       style="font-size:9.08183px;font-family:Hack;-inkscape-font-specification:Hack"
       id="path63185" /><path
       d="m 0.12860244,60.205138 q 3e-8,0.718387 -0.41240727,1.188442 -0.41684179,0.465621 -1.19287707,0.465622 -0.6430007,0 -1.0021941,-0.310415 -0.363628,-0.310414 -0.5099661,-0.811511 -0.1463381,-0.501097 -0.1463382,-1.068711 l 0,-1.095319 -0.1286001,0 q -0.6341317,1e-6 -0.882463,0.323718 -0.2483313,0.319283 -0.2483312,0.900201 0,0.452318 0.1241656,0.886897 0.1241657,0.43458 0.3458901,0.811512 l -0.8159457,0 q -0.1507726,-0.407973 -0.2483313,-0.824815 -0.097559,-0.416842 -0.097559,-0.851422 0,-0.443448 0.1241656,-0.86029 0.1197312,-0.421276 0.3991039,-0.727256 0.2749382,-0.30598 0.7405593,-0.407973 0.3281521,-0.07095 0.9888907,-0.07095 l 1.0154976,0 q 0.4168418,0 0.92237336,-0.04434 0.50553155,-0.04878 0.8957664256669,-0.21729 l 3.586e-8,0.820381 Q -0.17294278,58.386998 -0.36806022,58.431343 q -0.19955193,0.04434 -0.38580039,0.07095 0.44788323,0.261634 0.66517313,0.727255 0.21728989,0.461187 0.21728992,0.975588 z m -0.68291106,-0.199552 q -2e-8,-0.505532 -0.24833132,-0.82038 -0.24833126,-0.319283 -0.64743516,-0.465622 -0.4035384,-0.146338 -0.864725,-0.146338 l -0.181814,0 0,1.033236 q 0,0.34589 0.079821,0.678477 0.075386,0.328152 0.2926762,0.545441 0.2172899,0.212856 0.6341317,0.212856 0.4700557,0 0.70508347,-0.288242 0.23059333,-0.288242 0.23059331,-0.749428 z"
       style="font-size:9.08183px;font-family:Hack;-inkscape-font-specification:Hack"
       id="path63187" /><path
       d="m 0.1286024,53.868205 q 3e-8,0.784904 -0.32815201,1.321477 -0.33258652,0.532138 -0.92237329,0.807077 -0.5897868,0.270503 -1.3569531,0.270503 -0.7716008,10e-7 -1.3569532,-0.274938 -0.5897868,-0.274938 -0.9179389,-0.811511 -0.3325866,-0.536573 -0.3325866,-1.330346 0,-0.412407 0.097559,-0.744994 0.093124,-0.332586 0.2838072,-0.678476 l 0.855856,0 q -0.2793727,0.314848 -0.4124073,0.634131 -0.1330346,0.314849 -0.1330346,0.718387 10e-8,0.598656 0.2572003,0.957849 0.2572003,0.354759 0.6917801,0.514401 0.4345797,0.155207 0.9667182,0.155207 0.527704,0 0.9667183,-0.159642 0.4345797,-0.159641 0.69177995,-0.5144 0.25720025,-0.354759 0.25720022,-0.948981 -1e-8,-0.390234 -0.12860016,-0.727255 -0.12860015,-0.337021 -0.40797291,-0.629698 l 0.84698713,0 q 0.38136593,0.634132 0.38136597,1.441209 z"
       style="font-size:9.08183px;font-family:Hack;-inkscape-font-specification:Hack"
       id="path63189" /><path
       d="m -6.9000599,50.524612 0,-0.842553 3.995473,0 -2.0620367,-2.141857 0,-0.993325 1.8713537,1.955609 3.0952720719045,-2.261589 4.36134e-8,0.99776 L -2.5631314,49.074535 l 0.5720489,0.607524 1.9910848223225,0 3.68291e-8,0.842553 z"
       style="font-size:9.08183px;font-family:Hack;-inkscape-font-specification:Hack"
       id="path63191" /><path
       d="m 0.03547814,42.418379 q 3e-8,0.731691 -0.4700556,1.135229 -0.47449013,0.399104 -1.33034614,0.399104 l -4.4965702,0 1e-7,1.308174 -0.6385662,0 -1e-7,-2.124119 5.1351363,-10e-7 q 0.5410075,0 0.82481466,-0.203986 0.28380717,-0.203986 0.28380716,-0.594221 l -4e-8,-0.953415 0.69178002,0 z"
       style="font-size:9.08183px;font-family:Hack;-inkscape-font-specification:Hack"
       id="path63193" /><path
       d="m 0.12860244,38.334227 q 3e-8,0.718387 -0.41240727,1.188443 -0.41684179,0.465621 -1.19287707,0.465621 -0.6430007,0 -1.0021941,-0.310414 -0.363628,-0.310414 -0.5099661,-0.811511 -0.1463381,-0.501097 -0.1463382,-1.068712 l 0,-1.095318 -0.1286001,0 q -0.6341317,0 -0.882463,0.323717 -0.2483313,0.319284 -0.2483312,0.900201 0,0.452318 0.1241656,0.886898 0.1241657,0.43458 0.3458901,0.811511 l -0.8159457,0 q -0.1507726,-0.407973 -0.2483313,-0.824815 -0.097559,-0.416841 -0.097559,-0.851421 0,-0.443449 0.1241656,-0.860291 0.1197312,-0.421276 0.3991039,-0.727256 0.2749382,-0.305979 0.7405593,-0.407972 0.3281521,-0.07095 0.9888907,-0.07095 l 1.0154976,0 q 0.4168418,0 0.92237336,-0.04434 0.50553155,-0.04878 0.8957664256669,-0.21729 l 3.586e-8,0.82038 Q -0.17294278,36.516087 -0.36806022,36.560432 q -0.19955193,0.04434 -0.38580039,0.07095 0.44788323,0.261635 0.66517313,0.727256 0.21728989,0.461186 0.21728992,0.975587 z m -0.68291106,-0.199552 q -2e-8,-0.505531 -0.24833132,-0.82038 -0.24833126,-0.319283 -0.64743516,-0.465621 -0.4035384,-0.146338 -0.864725,-0.146338 l -0.181814,0 0,1.033235 q 0,0.34589 0.079821,0.678477 0.075386,0.328152 0.2926762,0.545442 0.2172899,0.212855 0.6341317,0.212855 0.4700557,0 0.70508347,-0.288242 0.23059333,-0.288241 0.23059331,-0.749428 z"
       style="font-size:9.08183px;font-family:Hack;-inkscape-font-specification:Hack"
       id="path63195" /><path
       d="m 0.1286024,32.086045 q 4e-8,0.940111 -0.75386278,1.365822 l 0.6252627133712,0.07982 3.2177e-8,0.736125 -6.9000622655482,0 0,-0.815946 2.5675681,0 q -0.3858004,-0.203986 -0.5676144,-0.56318 -0.1862485,-0.359193 -0.1862485,-0.807076 0,-0.532139 0.2305933,-0.895767 0.2261589,-0.363628 0.6075248,-0.580918 0.3769314,-0.221724 0.838118,-0.314848 0.4611867,-0.09756 0.9223734,-0.09756 0.4656212,0 0.9312423,0.09756 0.4611867,0.09756 0.84255265,0.319283 0.38136592,0.217289 0.61195927,0.580917 0.23059336,0.363628 0.23059338,0.895767 z m -0.69178001,0.164076 q -2e-8,-0.390235 -0.18181401,-0.625263 -0.18181399,-0.239462 -0.47449018,-0.359193 -0.2926761,-0.124166 -0.6252627,-0.168511 -0.3325865,-0.04434 -0.6341317,-0.04434 -0.3015451,0 -0.6341317,0.04434 -0.337021,0.04434 -0.6252627,0.168511 -0.2926761,0.119731 -0.4744901,0.359193 -0.181814,0.235028 -0.181814,0.625263 10e-8,0.3858 0.1818141,0.625263 0.1818139,0.235028 0.4700556,0.363628 0.2882417,0.124165 0.6252627,0.16851 0.3325866,0.04434 0.6341317,0.04434 0.3059797,0 0.6430007,-0.04434 0.3325865,-0.04434 0.6252627,-0.16851 0.28824167,-0.128601 0.47005564,-0.363628 0.18181396,-0.239463 0.18181395,-0.625263 z"
       style="font-size:9.08183px;font-family:Hack;-inkscape-font-specification:Hack"
       id="path63197" /><path
       d="m 0.11973344,26.937616 q 1e-8,0.301545 -0.20842088,0.509966 -0.20842089,0.208421 -0.54100744,0.208421 -0.33258655,0 -0.54100742,-0.208421 -0.208421,-0.208421 -0.208421,-0.509966 0,-0.301546 0.2084209,-0.509966 0.2084209,-0.208421 0.54100745,-0.208421 0.33258655,0 0.54100747,0.208421 0.20842091,0.20842 0.20842092,0.509966 z"
       style="font-size:9.08183px;font-family:Hack;-inkscape-font-specification:Hack"
       id="path63199" /><path
       d="m -4.3324918,22.121712 10e-8,1.325912 -0.6341317,0 -1e-7,-1.325912 -0.34589,0 q -0.8159457,0 -1.2017461,-0.372497 Q -6.90006,21.372284 -6.90006,20.57851 l -1e-7,-0.980021 0.6784766,0 0,0.926808 q 1e-7,0.434579 0.181814,0.607524 0.1773795,0.172945 0.6341317,0.172945 l 0.4390143,0 -1e-7,-1.707277 0.6341317,0 1e-7,1.707277 4.3324940769645,0 3.56661e-8,0.815946 z"
       style="font-size:9.08183px;font-family:Hack;-inkscape-font-specification:Hack"
       id="path63201" /><path
       d="m -5.8668244,16.401234 q 0,0.133034 -0.1330346,0.133034 l -0.7671663,0 q -0.1330347,0 -0.1330347,-0.133034 l 0,-0.638566 q 0,-0.133035 0.1330346,-0.133035 l 0.7671663,0 q 0.1330346,0 0.1330347,0.133035 z m 5.90230253,-1.489988 q 4e-8,0.73169 -0.4700556,1.135229 -0.47449013,0.399103 -1.33034613,0.399104 l -2.5631337,0 0,1.086449 -0.6385661,0 -1e-7,-1.902395 3.2016998,0 q 0.5410075,0 0.82481465,-0.203987 0.28380718,-0.203986 0.28380716,-0.594221 l -4e-8,-0.953415 0.69178002,0 z"
       style="font-size:9.08183px;font-family:Hack;-inkscape-font-specification:Hack"
       id="path63203" /><path
       d="m 1.2549622,11.478963 q -0.48779362,-1.086449 -1.48111878,-1.117491 0.017738,0.09313 0.017738,0.17738 10e-9,0.301545 -0.17294498,0.487793 -0.172945,0.195118 -0.4877936,0.195118 -0.1463381,0 -0.2749382,-0.04878 -0.1330346,-0.04878 -0.2261589,-0.155208 -0.075386,-0.08869 -0.1241656,-0.221724 -0.053214,-0.133034 -0.053214,-0.292676 0,-0.376931 0.3015451,-0.5853524 0.29711066,-0.2039864 0.83368363,-0.2039864 0.75386284,-10e-8 1.30817377,0.4079728 0.545442,0.407973 0.8203802,1.152967 z"
       style="font-size:9.08183px;font-family:Hack;-inkscape-font-specification:Hack"
       id="path63205" /></g><g
     id="g65495"><text
       xml:space="preserve"
       id="text65135"
       style="line-height:1.25;font-family:'Helvetica 65 Medium';font-size:13.33333333px;writing-mode:tb-rl;-inkscape-font-specification:'Helvetica 65 Medium, ';white-space:pre;shape-inside:url(#rect65137)" /></g></svg>
