<svg xmlns="http://www.w3.org/2000/svg" viewBox="0 0 1417.323 1417.323"><defs><style>.a{fill:#ff0;}</style></defs><path class="a" d="M693.686,1104.043c28.809-88.662,57.564-177.345,83.188-267C782,819.113,785.092,800.667,791.235,783c2.365-6.8-.507-12.528-5.643-13.41-5.261-.907-9.564,2.741-10.47,9.4-3.086,22.682-9.777,44.516-15.8,66.475-16.507,60.182-37.439,119.008-55.216,178.809-14.363,48.314-32.6,95.444-44.6,144.478-16.187,66.118-37.039,130.664-64.6,192.947-6.426,14.516-15.543,33.9-26.477,55.626h16.212c1.046-2.038,2.267-4.428,3.861-7.593,29.6-58.811,52.615-120.169,70.812-183.375C671.02,1185.659,680.58,1144.376,693.686,1104.043Zm-38.7-15.835c34.6-107.338,72.87-213.5,100.128-323.169,14.66-58.981,29.473-117.907,42.676-177.232,1.483-6.664-.87-11.652-5.945-12.77-5.045-1.112-9.124,2.391-10.394,9.445-.854,4.745-.81,9.659-1.754,14.379-15.4,77.047-36.172,152.788-56.473,228.617-18.049,67.414-42.243,132.941-63.421,199.4-12.789,40.132-27.841,79.605-36.869,120.832-17.769,81.149-44.994,158.964-80.515,233.971-5.41,11.423-11.231,23.171-17.155,35.644h16.41c2.71-5.754,5.432-11.522,8.069-16.973,30.862-63.787,57.081-129.331,74.888-198.036C634.511,1164.214,642.894,1125.741,654.99,1088.208ZM524.115,1345.679c-4.872-2.363-10.482.339-12.942,6.989-5.093,13.766-16.614,35.508-29.489,64.655H498.05c11.287-25.615,21.782-46.351,27.949-57.044C529.651,1353.947,528.594,1347.85,524.115,1345.679ZM774.374,985.536c19.908-69.238,42.646-137.659,57-208.414,3.7-18.263,7.305-36.559,13.233-54.3,1.689-5.055.631-9.786-5.248-11.691-4.954-1.606-9.4,1.476-11.016,7.7-.859,3.322-.852,6.859-1.6,10.218C819.4,762.079,812.5,795.223,804.484,828.1c-18.934,77.662-45.3,153.177-67.3,229.967-10.069,35.159-23.752,69.279-33.929,104.412-48.18,166.331-64.144,201.664-90.454,254.848h16.6c8.5-17.159,16.739-34.434,23.975-52.97,23.05-59.043,41.5-119.55,58.916-180.46C731.339,1117.282,755.215,1052.172,774.374,985.536Zm309.9-668.768c-.832,3.665.3,6.944,3.652,8.9,3.309,1.926,6.66,1.4,9.6-.993a14.448,14.448,0,0,0,4.423-6.852,73.467,73.467,0,0,1,10.723-20.707c1.934-2.587,3.432-5.475,3.122-8.806.265-3.741-1.342-6.209-4.588-7.824-3.168-1.578-5.81-.418-8.336,1.351a11.712,11.712,0,0,0-4.263,6.124,80.625,80.625,0,0,1-11.638,22.551A17.054,17.054,0,0,0,1084.275,316.768Zm20.614,42.385c-6.039,14.923-12.039,29.862-17.837,44.879-3.81,9.864-7.367,19.831-10.8,29.83-1.751,5.091-1.056,9.737,4.6,12.037,4.879,1.985,9.108-.775,11.353-7.048a21.708,21.708,0,0,0,.849-2.63c5.323-24.227,14.489-46.963,26.45-68.638a17.364,17.364,0,0,0,2.437-7.088c.257-4.942-2.038-8.355-6.98-8.965C1109.341,351.586,1106.607,354.908,1104.889,359.153ZM931.871,264.5c-1.509,6.654,1.249,11.761,6.315,12.517,5.605.836,9.178-2.433,10.114-9.529.785-5.934.984-11.966,2.064-17.841,8.159-44.4,19.323-88.113,30.543-131.814,8.859-34.5,21.132-81.283,32.644-117.834h-15.4c-17.785,57.816-31.02,112.423-44.555,165.367C945.212,198.168,939.351,231.508,931.871,264.5Zm99.221,89.484a10.157,10.157,0,0,0,9.73-9.747,9.375,9.375,0,0,0-9.716-9.418c-5.588.017-9.617,3.972-9.626,9.451A9.735,9.735,0,0,0,1031.092,353.985Zm-31.211,109.99a9.689,9.689,0,0,0-9.479,9.877c.024,5.584,4,9.463,9.667,9.419a9.139,9.139,0,0,0,9.468-9.638A9.571,9.571,0,0,0,999.881,463.975Zm68.1-431.823c4.613,1.837,9.478-.769,11.593-6.748,4.512-12.768,4.316-13.768,8.809-25.4H1071.8c-2.577,6.256-5.206,12.649-7.975,19.373C1061.388,25.3,1063.222,30.255,1067.984,32.152ZM1041.57,646.387c-5.488.038-9.362,4.078-9.332,9.732.031,5.621,4.011,9.666,9.469,9.62a9.5,9.5,0,0,0,9.476-9.761A9.4,9.4,0,0,0,1041.57,646.387Zm1.781-370.966a9.539,9.539,0,0,0,9.94-9.961,9.68,9.68,0,0,0-19.354.164A9.516,9.516,0,0,0,1043.351,275.421Zm-195.1,751.921c12.886-55.366,31.157-109.334,44.056-164.737,6.314-27.121,10.5-54.7,18.113-81.539,1.9-6.7-.763-11.906-5.66-12.92-5.288-1.1-9.878,2.589-10.555,9.172-2.2,21.376-7.77,42.092-12.12,63.041-9.554,46.018-22.828,91.074-35.765,136.208-11.163,38.943-19.009,78.809-31.821,117.264-17.82,53.487-38.592,105.939-55.2,159.886-47,152.7-44.96,148.039-47.873,163.606h15.093c.8-3.317,1.594-6.618,2.43-10.085,17.265-71.715,41.594-141.3,64.918-211.125C812.6,1140.04,834.792,1085.175,848.253,1027.342ZM869.41,1109.6c11.5-36.26,18.7-73.617,28.56-110.294,19.123-71.153,38.086-142.343,50.838-215.007,1.151-6.557,3.291-12.936,4.6-19.473,1.22-6.12-1.763-11.308-6.656-11.761-5.975-.553-8.736,3.108-9.838,8.456a33.484,33.484,0,0,0-.557,3.414c-2.857,28.255-9.677,55.788-15.5,83.484-11.886,56.581-28.436,112-42.426,168.06-9.918,39.748-18.26,79.943-33.428,118.189-31.686,79.9-58.7,161.375-82.65,243.882-2.012,6.931-5.637,20.684-10.243,38.775h15.1l.971-3.876c17.5-69.522,41.288-137.066,64.45-204.8C844.026,1175.314,858.748,1143.216,869.41,1109.6Zm-250.1-854.222c5.332.966,9.714-3.087,10.395-10.275,1.81-19.1,6.747-37.606,10.621-56.3,3.58-17.274,28.149-121.288,44.805-188.8H670.109C657.937,48.105,647.68,93.625,632.99,153.75c-7.159,29.3-11.755,59.151-19.65,88.283C611.369,249.307,614.021,254.417,619.312,255.376Zm35.827,18.471c4.884,1.619,9.345-1.709,10.678-8.04,1.229-5.846,1.6-11.875,2.854-17.714,8.486-39.376,16.371-78.884,26.093-117.991C700.238,108.08,709.431,70.913,726.523,0H711.43c-1.323,7.069-3.668,18.309-12.094,50.355-18.436,70.135-32.967,141.183-49.7,211.715C648.4,267.267,649.416,271.948,655.139,273.847ZM503.862,365.5c-2.983,34.423-5.448,68.9-12.286,102.866a27.9,27.9,0,0,0-.367,7.548,7.25,7.25,0,0,0,6.509,7.007c3.849.618,6.76-1.365,8.425-4.736a21.132,21.132,0,0,0,1.768-8.741,121.437,121.437,0,0,1,.914-12.39c5.622-40.66,9.787-81.456,11.589-122.476,1.648-37.558.843-75.167,2.612-112.733,2.822-59.942,14.121-117.9,38.789-172.887C579.093,10.442,579.036,10.906,584.632,0H568.42q-2.345,4.659-4.8,9.452C527.077,80.873,509.339,156.8,507.577,236.9,506.634,279.763,507.57,322.7,503.862,365.5Zm180.629-81.949c-2.52,6.78-.117,12.541,4.864,13.871,5.449,1.455,9.934-2.6,11.158-10.109.629-3.867,1.028-7.783,1.859-11.606,15.609-71.771,31.61-143.452,49.827-214.621.346-1.354,6.6-27.521,15.009-61.082h-15.1C735.659,64.609,706.672,184.55,693.8,246.749,691.231,259.137,688.934,271.591,684.491,283.547ZM547.6,279.368c.592,64.274-5.675,127.967-15.762,191.348-1.226,7.7-3.289,15.28-4.432,23-.681,4.6,1.5,8.271,6.407,9.157,5.215.943,8.2-2.081,9.773-6.7a21.769,21.769,0,0,0,.619-4.091c2.44-18.029,4.946-36.05,7.3-54.09,5.467-41.842,10.122-83.752,10.452-126.021.232-29.977-.346-59.974,1.437-89.921,1.81-30.377,4.173-60.722,11.714-90.339C588.534,78.99,609.68,39.817,629.4,0h-16.6c-4.326,8.744-8.922,17.952-14,28.324C577.97,70.915,560.984,114.8,554.22,162.09,548.657,200.993,547.235,240.141,547.6,279.368Zm270.19,702.786c23.423-74.052,40.756-149.653,59-225.038,1.427-5.9-.983-11.494-5.739-12.249-5.867-.931-9.1,2.422-10.285,7.81-.89,4.036-1.2,8.2-2.028,12.253a2031.2,2031.2,0,0,1-51.378,199.913c-13.229,42.414-22.416,86.025-36.914,128.057-56.146,162.783-80.727,246.962-100.329,324.423h15.024c6.831-27.692,12.34-49.278,14.508-56.158,26.36-83.639,50.169-168.1,80.364-250.511C795.392,1068.657,804.324,1024.715,817.787,982.154ZM611.669,147.333a9.929,9.929,0,0,0-9.275-10.13,10.03,10.03,0,0,0-9.911,9.534,9.6,9.6,0,0,0,19.186.6ZM966.376,510.748a9.679,9.679,0,1,0-.185,19.353,9.679,9.679,0,0,0,.185-19.353Zm-120.6-195.231c-.756,7.5,1.975,12.144,7.427,12.583,5.7.459,9.228-3.525,9.155-11.133-.273-28.531,4.949-56.387,10.458-84.165,10.839-54.652,24.9-108.544,39.134-162.385C918.248,46.6,924.682,23.2,931.44,0H915.676c-.662,2.35-1.326,4.684-1.979,7.086-15.136,55.736-29.757,111.6-43.265,167.763C859.274,221.24,850.563,268.025,845.779,315.517Zm119.555,15.54c5.569.152,9.773-3.707,9.939-9.125a9.643,9.643,0,0,0-9.268-9.983c-5.392-.229-9.544,3.746-9.723,9.309C956.094,327.044,959.659,330.9,965.334,331.057ZM913.55,1109.005c19.093-70.911,33.649-142.961,53.2-213.765,1.471-5.329-.01-9.769-5.453-11.838-4.525-1.718-9.237,1.778-10.689,8.086-1.391,6.039-1.827,12.3-3.283,18.323-9.467,39.161-19.291,78.238-28.622,117.431-9.864,41.433-18.553,83.17-34.845,122.784-42.939,104.4-67.645,181.922-90.467,267.3h14.8c26.034-94.39,47.975-154.811,68.35-209.393C888.849,1174.943,904.367,1143.114,913.55,1109.005Zm-19.8-853.629c-4.259,24.842-4.116,50.043-7.536,74.926-.889,6.471,2.857,11.35,8.029,11.566,5.351.223,8.761-3.813,8.813-10.875.048-6.677-.607-13.378-.256-20.032,1.775-33.669,7.011-66.843,14.424-99.718C936.467,125.911,954.392,57.534,971.963,0H956.61c-15.268,51.092-27.58,100.2-38.934,145.431C908.539,181.82,900.093,218.353,893.747,255.376Zm74.777,183.079c-5.623-.158-9.753,3.663-9.935,9.192a9.567,9.567,0,1,0,19.12.65C977.9,442.631,974.148,438.614,968.524,438.455ZM426.424,44.223a9.635,9.635,0,0,0,8.961,9.569,9.155,9.155,0,0,0,9.2-9.172c.145-5.447-3.5-9.43-8.7-9.5A9.665,9.665,0,0,0,426.424,44.223ZM1040.935,1123.21c13.6-55.493,22.634-111.905,33.6-167.93,14.923-76.269,18.366-153.14,14.1-230.6-2.09-38.009-1.892-76.151,2.968-113.972,6.533-50.843,19.856-100.214,34.731-149.164,14.067-46.29,30.129-91.559,65.181-127.149,4.379-4.446,4.012-10.555.3-13.55-3.978-3.207-9.9-2.1-13.8,3.254-14.788,20.289-29.742,40.432-40.293,63.48-17.722,38.714-29.073,79.5-40,120.432-8.737,32.716-16.727,65.665-20.676,99.332-5.551,47.316-4.622,94.842-2.375,142.322a829.728,829.728,0,0,1-12.528,190.7c-7.031,38.037-14.488,76-21.305,114.068-8.757,48.906-20.848,96.714-42.5,141.774-25.372,52.791-46.167,107.432-64.456,163.04-2.856,8.682-10.707,31.5-18.191,58.076H931.44c18.8-64.542,40.3-127.347,69.737-191.931C1016.362,1192.075,1032.169,1158.992,1040.935,1123.21ZM38.779,134.146a9.923,9.923,0,0,0,9.637-9.751,9.454,9.454,0,0,0-9.571-9.623c-5.677-.112-9.643,3.6-9.822,9.192A9.639,9.639,0,0,0,38.779,134.146Zm-2.94,286.038c-.108,5.809,4.128,10.246,9.67,10.128a10.184,10.184,0,0,0,9.6-9.784,9.678,9.678,0,0,0-9.634-9.549C39.788,410.888,35.944,414.559,35.839,420.184Zm36.955-19.065a9.63,9.63,0,0,0,9.4,9.924,9.4,9.4,0,0,0,9.615-9.59c.062-5.719-3.706-9.664-9.318-9.757A9.152,9.152,0,0,0,72.794,401.119ZM600,1094.719a430.894,430.894,0,0,0,25.32-54.488c36.851-97.62,70.3-196.311,94.785-297.9,12.512-51.918,26.306-103.532,36.4-156.007,9.564-49.744,18.643-99.58,28.332-149.3,8.105-41.591,19.172-82.508,29.039-123.7,14.8-61.786,27.231-124.124,42.993-185.686q6-23.439,12.1-46.855c14.5-55.813,14.309-54.979,17.928-68.077,1.165-4.212,2.4-8.476,3.592-12.713H875.016c-1.421,5.085-2.831,10.215-4.245,15.448-2.8,10.351-11.022,43-16.4,63.658q-6.492,24.942-12.9,49.9c-15.7,61.33-27.934,123.472-42.915,184.972-11.167,45.843-22.883,91.556-31.84,137.912-10.483,54.249-18.71,108.946-31.04,162.819-24.7,107.938-50.639,215.564-87.914,320.064-17.782,49.852-33.1,100.737-58.261,147.6-25.011,46.582-45.7,94.954-63.912,144.52-16.1,43.805-35.943,85.806-63.459,123.828-20.509,28.338-36.464,47.984-48.26,66.6h17.344c5.3-7.842,11.5-16.147,18.826-25.217,41-50.728,71.072-107.387,92.868-168.7A885.074,885.074,0,0,1,600,1094.719ZM171.454,724.12a10.146,10.146,0,0,0-10.037-9.4,9.489,9.489,0,0,0-9.173,9.983c.153,5.6,4.081,9.266,9.785,9.146A9.534,9.534,0,0,0,171.454,724.12ZM55.313,735.805a9.541,9.541,0,0,0-9.764-9.462,9.15,9.15,0,0,0-9.553,9.5,9.506,9.506,0,0,0,9.592,9.62A9.912,9.912,0,0,0,55.313,735.805Zm1074.138,381.42c10.361-57.817,18.94-115.924,27.973-173.957,11.078-71.2,12.033-142.79,8.659-214.583-1.94-41.275-1.752-82.522,3.105-123.66a315.391,315.391,0,0,1,5.292-31.3c1.071-4.838-.5-9.473-6.163-10.675-5.534-1.174-8.646,1.939-10.049,7.048a15.82,15.82,0,0,0-.836,4.048c.006,9.727-1.816,19.256-2.908,28.868-5.54,48.746-4.554,97.592-2.361,146.484,3.21,71.625-.591,142.866-12.385,213.658-6.548,39.3-12.659,78.682-18.725,118.065-6.484,42.094-16.062,83.337-35.79,121.4-40.19,77.536-66.667,148.249-87.112,214.706h15.4c.747-2.372,1.5-4.837,2.24-7.115,20.138-62.057,42.882-123.051,73.078-181.06C1107.343,1193.656,1122.354,1156.833,1129.451,1117.225ZM1115.174,17.388c5.231,2.142,9.019-.843,11.089-5.463.867-1.935,2.282-6.06,4.375-11.925h-17.612q-1.2,3.153-2.151,5.838C1109.091,10.9,1110.077,15.3,1115.174,17.388ZM1204,580.863c-5.419-.82-9.33,2.627-9.818,9.8-1.53,22.533-4.952,44.891-5.465,67.53-.812,35.779,1.022,71.478,2.285,107.2a1092.065,1092.065,0,0,1-9.863,188.332c-5.643,40.848-11.551,81.657-17.208,122.5-4.046,29.211-7.912,58.45-17.032,86.652-11.769,36.395-30.08,69.685-48.97,102.687-1.614,2.818-3.528,5.525-3.694,8.823-.252,5.042,1.817,8.459,6.636,8.861,5.585.1,8.564-2.828,10.084-6.891,6.329-16.923,15.948-32.177,24.246-48.082,19.68-37.721,33.174-77.344,38.9-119.583,4.639-34.24,9.33-68.475,14.412-102.652,6.509-43.773,12.658-87.582,15.524-131.772,3.575-55.1,1.758-110.178-.485-165.274-1.578-38.749-1.088-77.451,6.821-115.684C1211.785,586.485,1209.177,581.645,1204,580.863ZM77.245,894.116c7.5-28.276,14.537-56.739,16.755-86.024,4.269-56.363-4.011-111.243-20.753-164.99-10.2-32.754-23.4-64.515-32.641-97.583-5.2-18.616-10.9-37.145-12.9-56.51-.493-4.768-2.828-8.349-7.821-9.32a7.076,7.076,0,0,0-8.035,4.051c-1.739,3.454-1.153,7.192-.116,10.79,1.4,4.867,3.215,9.638,4.279,14.574a654.321,654.321,0,0,0,24.913,85.477c17.013,46.842,32.528,94.039,37.255,144.053,2.831,29.951,3.2,59.817-1.609,89.651-4.411,27.338-11.791,53.974-18.439,80.786-15.352,61.911-24.256,125.252-41.507,186.745-4,14.248-9.53,38.286-16.626,64.723v51.511c9.2-27.3,23.188-74.836,46.9-178.931C57.425,986.885,65.067,940.015,77.245,894.116ZM0,1022.854v35.7l5.875-24.178C7.152,1029.14,5.6,1024.837,0,1022.854ZM152.127,415.49c-.245,5.8,3.9,10.316,9.457,10.325a10.248,10.248,0,0,0,9.876-9.545,9.694,9.694,0,0,0-9.439-9.734C156.275,406.35,152.363,409.891,152.127,415.49ZM13.517,714.139a8.989,8.989,0,0,0-.4-11.554c-3.6-4.423-8.23-4.49-13.115-2.228v16.609C5.2,719.306,10,719.075,13.517,714.139ZM227.159,87.18a9.571,9.571,0,0,0,9.509-9.728,9.679,9.679,0,1,0-9.509,9.728Zm18.021,621.3c.136-5.756-3.431-9.582-9.105-9.765-5.795-.185-10.287,4.062-10.188,9.632a10.011,10.011,0,0,0,9.714,9.662A9.424,9.424,0,0,0,245.18,708.482ZM243.165,834.6a9.671,9.671,0,0,0,9.72-9.574,9.544,9.544,0,0,0-9.45-9.778c-5.63-.174-9.656,3.556-9.884,9.157C233.312,830.281,237.431,834.647,243.165,834.6Zm48.888,326.373c.065-5.847-1.823-9.346-6.787-9.953-5.508-.673-8.488,2.723-10.02,7.561-2.011,6.347-3.4,12.932-5.89,19.081-14.316,35.432-30.064,70.195-49.311,103.284-3.97,6.826-3.108,12.464,1.988,15.006,5.046,2.514,10.176-.417,13.18-7.533,2.145-5.082,3.915-10.363,6.492-15.216,18.476-34.791,33.756-71.029,48.858-107.349A41.556,41.556,0,0,0,292.053,1160.974ZM423.546,370.845c-1.989,35.913-5,71.735-11.955,107.064-11.476,58.3-28.944,115.149-42.634,172.922-3.97,16.757-7.726,33.641-13.878,49.849-2.349,6.188.181,11.823,5,13.277,4.86,1.465,9.525-2.041,11.094-8.6.855-3.574,1.123-7.292,2.019-10.853,10.9-43.294,20.675-86.916,33.069-129.78,23.1-79.887,33.1-161.391,33.842-244.247.519-58.13,2.805-116.12,11.018-173.757C457.739,100.271,479.022,43.185,498.05,0H481.684C459.72,49.725,433.8,121.1,428.976,211.878,426.164,264.852,426.477,317.9,423.546,370.845Zm296.051-64.7c-10.072,38.773-19.764,77.62-27.65,116.905-14,69.735-24.2,140.223-41.452,209.313C633.767,699.345,619.207,766.9,598.009,832.7c-9.171,28.468-17.718,57.156-29.21,84.833-3.332,8.026-.112,14.651,6.71,14.276,5.192-.284,7.716-3.707,8.754-8.357a225.652,225.652,0,0,1,8.206-27.069c25.643-71.391,44.358-144.75,62.219-218.364,11.672-48.1,23.129-96.243,31.872-144.985,10.487-58.464,20.352-117.065,34.954-174.691,12.041-47.529,23.777-95.117,34.259-143.021C775.125,126.879,792.406,57.206,808.186,0h-14.8C781.157,45.756,769.458,93.728,755.8,149.391,743.025,201.477,733.084,254.228,719.6,306.147Zm-448.369,758.5a9.5,9.5,0,0,0-9.7,9.559c-.1,5.768,3.608,9.645,9.288,9.7a9.532,9.532,0,0,0,9.946-9.331A9.919,9.919,0,0,0,271.228,1064.645ZM192.409,734.119a9.275,9.275,0,0,0,9.609,9.428c5.6.05,9.622-3.765,9.739-9.238a9.676,9.676,0,1,0-19.348-.19Zm71.762,199.212c1.559-9.556,4.325-18.815,6.016-26.875.027-6.974-2.531-10.438-6.994-10.921-5.006-.541-9.3,3.1-9.77,9.423-.906,12.228-3.735,24.112-5.675,36.155-9.188,57.064-20.087,113.8-33.293,170.072-6.2,26.424-11.234,53.139-19.094,79.174-2.165,7.172.239,12.65,5.248,13.777,5.221,1.175,10.056-2.328,10.894-8.9,3.127-24.515,9.978-48.214,15.54-72.187C241.616,1060.237,253.788,996.958,264.171,933.331Zm-60.72-310.587a9.678,9.678,0,1,0-9.4,9.779A9.442,9.442,0,0,0,203.451,622.744Zm42.954-414.426c11.272,50.481,14.672,101.982,20.3,154.6a110.346,110.346,0,0,0,.069,11.044c.61,6.687,4.181,10.022,9.46,9.445,4.95-.541,8.057-5.23,7.234-11.446-.6-4.554-1.963-9.019-2.415-13.581-3.7-37.332-7.2-74.677-12.4-111.853-3.192-22.83-9.041-45.072-13.805-67.551-1.5-7.094-6.922-10.141-12.034-7.449-5.622,2.96-5.689,7.913-3.707,13.086A169.171,169.171,0,0,1,246.405,208.318Zm17.321,326.687c-.123-.776-.314-2.143-.557-3.5-4.969-27.644-7.831-55.583-11.609-83.393-.742-5.455-.528-11.033-1.1-16.518-.558-5.3-3.016-9.593-9.022-9.3-6.118.3-7.845,4.751-7.653,10.215a21.083,21.083,0,0,0,.275,3.441c5.154,25.521,7.049,51.514,11.22,77.168,1.341,8.245.095,16.611,2.008,24.717,1.116,4.73,4.093,8.062,9.309,7.338C261.776,544.448,263.554,540.45,263.726,535.005ZM196.589,1081.27c-.546-4.358-2-7.922-6.663-8.7-5.184-.862-8.623,1.815-9.815,6.592-1.218,4.888-1.251,10.066-2.391,14.98-4.731,20.381-8.8,40.92-14.768,61.012-1.934,6.517.7,11.722,5.716,12.851,4.475,1.007,8.895-2.61,10.229-8.931,1.28-6.063,1.684-12.327,3.174-18.329,4.6-18.521,7.76-37.4,13.753-55.58A29.924,29.924,0,0,0,196.589,1081.27Zm806.038-770.835a10,10,0,0,0-9.933,9.5,9.317,9.317,0,0,0,8.9,9.522c5.572.295,9.869-3.462,10.164-8.889A9.658,9.658,0,0,0,1002.627,310.435ZM1371.66,858.048a9.68,9.68,0,0,0,19.353.456,9.68,9.68,0,1,0-19.353-.456Zm23.516-757.536a9.49,9.49,0,0,0,9.678-9.531,9.684,9.684,0,0,0-19.349-.7A9.556,9.556,0,0,0,1395.176,100.512Zm-48.407,840.664a9.394,9.394,0,0,0-9.048,10.023,9.911,9.911,0,0,0,9.982,9.337,9.726,9.726,0,0,0,9.3-9.933C1356.942,944.785,1352.7,940.879,1346.769,941.176Zm-8.809-592.394a9.855,9.855,0,0,0,9.841-9.546,10.006,10.006,0,0,0-9.629-9.8,9.293,9.293,0,0,0-9.535,9.573C1328.6,344.612,1332.521,348.729,1337.96,348.782Zm-2.395,367.641c-.27,5.64,3.378,9.857,8.837,10.216a9.693,9.693,0,1,0,1.136-19.345A9.3,9.3,0,0,0,1335.565,716.423Zm41.662-116.154a10.132,10.132,0,0,0,9.625-9.781,9.475,9.475,0,0,0-9.622-9.53c-5.695-.072-9.6,3.6-9.751,9.19A9.625,9.625,0,0,0,1377.227,600.269Zm1.462-210.6a9.615,9.615,0,0,0,9.557-9.685,9.353,9.353,0,0,0-9.532-9.6c-5.63-.105-9.643,3.666-9.823,9.231A9.456,9.456,0,0,0,1378.689,389.667ZM1239.335,154.481a9.4,9.4,0,0,0,9.319-9.838c-.067-5.709-3.844-9.371-9.625-9.332a9.528,9.528,0,0,0-9.6,9.594A10.111,10.111,0,0,0,1239.335,154.481Zm-22.694,49.969a9.526,9.526,0,0,0,9.814,10.073,9.679,9.679,0,1,0-9.814-10.073ZM1240.694,98.7c5.656-.123,9.365-3.973,9.285-9.638-.081-5.647-3.894-9.289-9.623-9.189a9.419,9.419,0,1,0,.338,18.827Zm-30.8-40.906c-.446,5.088,4.486,9.765,9.613,9.679a9.939,9.939,0,0,0,9.556-9.869,9.343,9.343,0,0,0-10.006-9.147C1213.234,48.791,1210.365,52.41,1209.892,57.8Zm-35.656,11.676c5.376,2.087,10.086-.935,12.447-8.547a154.475,154.475,0,0,1,6.56-18.142C1199.385,29.221,1205.57,14.92,1212.568,0h-16.081c-.567,1.2-1.172,2.482-1.844,3.886-8.032,16.807-14.381,34.38-23.385,50.755C1167.556,61.372,1169.133,67.492,1174.236,69.472Zm243.087,647.494V700.357C1411.516,707.169,1411.516,710.1,1417.323,716.966Zm-9.618-510.819c-.338,3.878,1.831,6.363,5.112,8.147a15.22,15.22,0,0,0,4.506,1.314V197.927C1412.741,198.259,1408.209,200.369,1407.705,206.147ZM1252.153,1272.385c23.113-38.235,40.416-78.629,45.42-123.482,1.813-16.25,2.823-32.589,4.394-48.869.483-5,.8-9.763-3.767-13.148a6.69,6.69,0,0,0-7.77-.537c-5.209,2.9-5.107,7.791-4.878,12.685.968,20.608-1.313,40.991-4.614,61.246-6.566,40.28-23.405,76.571-45.31,110.462-51.143,79.127-60.295,98.436-81.535,146.581h16.673c7.332-18.357,13.348-31.954,27.019-57.5C1214.013,1329.505,1234.4,1301.759,1252.153,1272.385ZM93.982,281.023c9.587,30.935,13.761,62.873,16.342,95.057.6,7.434,4.442,11.325,9.924,10.519,5.334-.784,8.28-6.15,6.6-13.028a189.186,189.186,0,0,1-3.762-20.345c-3.423-26.25-7.028-52.472-15.2-77.8-12.483-38.689-36.652-64.924-77.924-72.7C20.03,200.855,10.091,197.2,0,197.927v17.681c9.72,1.667,27.963-.226,46.576,7.591C72.5,234.085,86.06,255.457,93.982,281.023Zm1272.364,786.3c-4.944-1.61-10.125,2.165-11.007,8.689-2.388,17.673-8.109,34.48-12.864,51.525-18.244,65.4-43.838,127.486-83.252,183.3-13.953,19.756-27.892,39.549-39.679,60.712-17.329,31.117-13.966,26.476-23.057,45.777h16.081c12.631-26.929,27.991-55.937,51.106-86.717,56.274-74.933,83.994-162.029,107.927-250.8C1373,1074.613,1372.643,1069.367,1366.346,1067.319Zm39.92-33.069a129.664,129.664,0,0,1-2.174,15.022c-16.649,69.875-32.3,140.065-64.333,205.13-2.94,5.971-1.339,11.344,3.046,13.246,5.127,2.224,10.12-.591,12.64-7.361,1.684-4.523,2.712-9.317,4.664-13.71,20.476-46.077,33.625-94.5,46.3-143.1l10.916-44.921v-35.7C1409.886,1023.594,1407.172,1026.475,1406.266,1034.25ZM1296.893,339.236a9.22,9.22,0,0,0,9.691-9.4,9.617,9.617,0,0,0-9.527-9.754,9.962,9.962,0,0,0-9.814,9.617A9.392,9.392,0,0,0,1296.893,339.236Zm90.347,922.213c1.755,2.445,4.529,3.073,7.45,2.476,6.11-1.249,7.26-6.383,8.683-11.273.126-.439.092-.924.222-1.362,3.384-11.359,7.434-20.561,13.728-39.24v-51.511c-7.843,29.219-17.6,61.377-29.395,86.632C1385.721,1251.9,1383.765,1256.611,1387.24,1261.449Zm-174-128.28c4.156-28.96,7.377-58.053,11.083-87.078,5.107-39.995,11.623-79.812,15.559-119.954,6.927-70.628,7.313-141.341,2.758-212.144-3.155-49.05.378-97.642,11.915-145.535,1.734-7.2-.512-12.374-5.757-13.407-5.424-1.069-9.913,2.468-10.563,9.944-1.261,14.5-4.244,28.7-6.316,43.055-6.932,48.006-4.851,96.114-2.339,144.3a1138.988,1138.988,0,0,1-6.78,193.361c-3.978,33.629-8.768,67.163-13.3,100.725-4.013,29.682-6.485,59.559-11.5,89.113-6.768,39.887-22.573,76.323-43.042,110.8-39.8,67.05-57.464,108.593-83.154,170.972h16.585c3.494-9.05,9.824-24.533,23.412-56.99,16.692-39.871,39.271-76.642,60.352-114.2C1192.035,1210.712,1207.433,1173.625,1213.24,1133.169ZM1321.8,456.529a9.621,9.621,0,0,0-9.814-9.447,9.484,9.484,0,0,0-9.536,10.322,9.336,9.336,0,0,0,10.067,9.031A9.491,9.491,0,0,0,1321.8,456.529Zm-24.841,185.429A9.731,9.731,0,0,0,1307,651.9a9.682,9.682,0,0,0-.144-19.356A9.743,9.743,0,0,0,1296.961,641.958Zm2.684-274.158a9.488,9.488,0,0,0,9.467,9.745,9.855,9.855,0,0,0,9.8-9.6,9.48,9.48,0,0,0-9.671-9.546C1303.562,358.365,1299.676,362.172,1299.645,367.8Zm-36.274,326.5a9.009,9.009,0,0,0,9.582,9.314,9.113,9.113,0,0,0,9.285-9.642,9.211,9.211,0,0,0-9.614-9.378C1267.1,684.679,1263.285,688.68,1263.371,694.305Zm-3.951,419.774c.706-7.507-2.046-12.963-7.484-13.368-5.41-.4-9.056,4.34-9.117,12.191-.165,21.6-4.282,42.605-9.981,63.3-9.274,33.671-25.79,64.05-44.323,93.288-32.289,50.94-63.431,116.319-75.489,147.836h17.612c8.124-22.775,27.02-73.235,68.978-137.291C1232.787,1229.388,1253.732,1174.545,1259.42,1114.079Zm10.042-985.628a9.735,9.735,0,0,0,9.439-9.884c-.075-5.485-4.192-9.4-9.8-9.317a9.431,9.431,0,0,0-9.544,9.666A9.991,9.991,0,0,0,1269.462,128.451Zm-266.84,974.634c10.209-42.757,16.632-86.336,28.293-128.767a19.506,19.506,0,0,0,.431-4.806c.069-4.486-2.024-7.762-6.406-8.611-4.428-.859-7.322,1.725-9.183,5.662-1.638,3.466-1.133,7.251-1.871,10.845-4.863,23.67-9.814,47.323-14.539,71.02-8.067,40.445-16.8,80.689-33.207,118.8-17.742,41.225-35.82,82.3-50.793,124.669-18.851,53.34-29.9,88.11-40.324,125.425h15.4c18.144-64.235,40.188-131.467,73.089-206.7C978.837,1175.59,993.692,1140.482,1002.622,1103.085ZM292.475,1248.867c5.2,2.548,10.328-.428,13.384-8.249,6.924-17.714,16.772-33.9,27.154-49.618,28.044-42.454,50.151-87.793,70.414-134.407,32.9-75.681,61.1-153.047,87.4-231.154,12.922-38.372,21.112-78.2,34.8-116.378a14.36,14.36,0,0,0,.519-3.374c.232-5.425-1.355-9.143-6.435-9.759-6.282-.761-9.161,3.215-10.421,8.724-8.98,39.3-20.029,78.1-32.7,116.267-23.777,71.637-48.513,143-79.433,212.006-15.9,35.49-29.053,72.287-49.407,105.651-19.071,31.262-38.5,62.3-56.605,94.143C286.686,1240.567,286.908,1246.14,292.475,1248.867Zm11.786-591.4a9.582,9.582,0,0,0,9.87-9.347,9.953,9.953,0,0,0-9.346-10.018,9.5,9.5,0,0,0-10.02,9.15C294.459,653.161,298.414,657.415,304.261,657.463Zm9.586-310.282a9.791,9.791,0,0,0,9.345-10.058,9.281,9.281,0,0,0-9.924-9.246c-5.673.137-9.312,4.034-9.172,9.82A9.479,9.479,0,0,0,313.847,347.181Zm-15.6,983.051a9.9,9.9,0,0,0-9.691-9.664,9.657,9.657,0,0,0-9.3,9.927c.063,5.737,3.816,9.422,9.537,9.362A9.26,9.26,0,0,0,298.242,1330.232Zm15.946-380.15a9.24,9.24,0,0,0,9.936,9.117,9.479,9.479,0,0,0,9.422-9.761,9.816,9.816,0,0,0-9.727-9.606A9.553,9.553,0,0,0,314.188,950.082Zm134,102.624c45.272-103.573,80.5-210.66,112.56-318.881,1.838-6.2-.1-11.284-4.721-12.638-5.184-1.519-9.648,1.561-11.358,8.237-1.2,4.675-1.649,9.545-2.933,14.191a2275.292,2275.292,0,0,1-84.293,248.4c-23.779,58.679-49.063,116.732-68.949,176.933-10.613,32.127-19.974,64.681-32.151,96.28-15.3,39.71-37.118,76.143-57.465,113.307-1.767,3.231-4.07,6.177-4.582,9.956-.78,5.749,2.564,9.759,10.143,9.514,3.023-.147,5.6-3.657,7-7.987,3.443-10.619,9.051-20.154,14.473-29.776,22.429-39.8,42.8-80.456,56.469-124.307C401.714,1173.942,422.146,1112.283,448.187,1052.706ZM342.152,613.769a9.936,9.936,0,0,0-9.638,9.735,9.605,9.605,0,0,0,9.845,9.387c5.675-.061,9.38-3.882,9.318-9.612C351.617,617.685,347.612,613.687,342.152,613.769ZM455.4,816.676c.357-5.746-3.134-9.786-8.762-10.135a9.51,9.51,0,1,0-1.374,18.967C450.862,825.858,455.059,822.2,455.4,816.676ZM334.831,530.1a9.683,9.683,0,1,0-9.551-10.34A9.509,9.509,0,0,0,334.831,530.1Zm70.5,412.408A10.113,10.113,0,0,0,395.364,933a9.73,9.73,0,0,0-9.26,10.052c.116,5.64,4.063,9.369,9.759,9.223A9.544,9.544,0,0,0,405.332,942.505Zm58.376-569.662c-3.079,43.709-7.8,87.216-16.332,130.223C438.859,546,426.165,587.927,416.1,630.494c-3.384,14.318-6.151,28.811-11.246,42.716-2.512,6.856.034,12.414,5.217,13.568,5.63,1.253,9.532-2.115,10.9-9.513.754-4.076,1.115-8.24,2.1-12.253,7.815-31.74,15.079-63.633,23.764-95.135,18.093-65.62,27.387-132.576,31.845-200.3,3.515-53.4,1.514-106.99,5.641-160.386,3.42-44.255,9.935-87.829,24.321-130.033C517.659,52.713,529.81,25.188,541.678,0h-16.41C499.6,54.04,472.021,121.674,467.8,235.236,466.1,281.1,466.936,327.027,463.708,372.843Zm-45.435,885.925c16.951-59.392,35.972-118.173,60.52-174.8,46.154-106.464,83.161-216.065,116.39-327.066.526-1.758.909-3.559,1.377-5.41-.5-4.143-1.839-7.768-6.417-8.778-4.878-1.076-8.327,1.516-9.661,5.79-1.774,5.679-2.221,11.764-3.891,17.484-26.722,91.561-56.486,182.1-94.01,269.864-26.37,61.681-50.667,124.133-69.191,188.575-13.847,48.168-31.586,94.26-58.943,136.424-5.636,8.688-9.783,18.3-16,26.657a14.682,14.682,0,0,0-1.36,2.4c-2.759,5.7-1.647,11.363,2.591,13.3,4.489,2.055,9.95-.057,12.313-5.894,6.618-16.347,16.269-30.988,25.315-45.942C394.938,1322.236,408.928,1291.508,418.273,1258.768ZM361.462,931.084a9.707,9.707,0,0,0,9.467-9.721c.026-5.722-4.287-9.76-10.144-9.5a9.425,9.425,0,0,0-9.2,9.851A9.813,9.813,0,0,0,361.462,931.084Zm726.478,177.164c9.605-52.084,18.669-104.268,28.069-156.39,12.086-67.019,15.238-134.545,12.684-202.513-1.617-43.042-4.729-86.163,1.769-129.135.9-5.94-3-11.232-7.757-11.088-5.963.179-8.729,4.2-8.605,9.624.253,11.094-.878,22.108-1.3,33.159-1.655,43.613,1.322,87.154,1.993,130.731.8,51.994-2.572,103.684-11.326,154.963-7.4,43.358-15.443,86.61-22.558,130.014-8.02,48.929-20.98,96.206-43.352,140.7-35.345,70.287-60.742,141.393-80.949,209.014h15.353c27.968-91.576,55.036-155.611,85.08-216.272A352.727,352.727,0,0,0,1087.94,1108.248Zm-942.974-32.465c-4.706,1.9-6.031,6.246-6.379,10.666a86.114,86.114,0,0,1-2.342,14.973c-8.807,33.82-14.3,68.4-23.432,102.143-1.681,6.209.749,10.983,5.647,12.263,4.926,1.287,9.1-1.743,10.52-8.253,1.026-4.695,1.084-9.6,2.093-14.3q8.685-40.457,17.674-80.849c2.1-9.4,4.734-18.69,7.035-27.681C155.847,1077.729,150.633,1073.5,144.966,1075.783Zm-27.3-330.9a9.281,9.281,0,0,0,9.612,9.526,9.384,9.384,0,0,0,9.685-9.513,9.89,9.89,0,0,0-9.689-9.729A9.681,9.681,0,0,0,117.665,744.879Zm-8.135,328.315c-5.127-.893-8.468,2.273-9.642,6.922-1.291,5.108-1.394,10.51-2.588,15.651-7.443,32.043-15.234,64.006-22.556,96.075-12.456,54.551-35.438,104.929-60.725,154.41-2.3,4.491-5.4,8.569-7.7,13.06a7.918,7.918,0,0,0,1.527,9.59,7.242,7.242,0,0,0,8.191,1.9c3.85-1.387,5.925-4.337,7.217-7.863a194.228,194.228,0,0,1,8.881-19.458c15.989-32.159,31.431-64.578,42.755-98.74,15.377-46.385,24.178-94.453,35.857-141.786,1.7-6.9,3.828-13.7,5.551-19.816C116.224,1077.644,114.243,1074.013,109.53,1073.194ZM410.359,1363.65c-4.406-3.128-10.2-1.4-13.657,4.962-7.817,14.4-18.653,29.084-28.456,48.711h16.315a197,197,0,0,1,25.83-39.125C415.289,1372.533,414.814,1366.811,410.359,1363.65ZM59.836,1080.8c-1.57,5.736-1.9,11.8-3.3,17.594-6.121,25.255-12.208,50.523-18.748,75.671-6.481,24.92-13.039,49.836-23.81,73.4-3.123,6.834-1.238,12.069,4.032,13.924,4.973,1.75,9.652-1.606,11.8-8.668,1.069-3.513,1.549-7.223,2.8-10.661,15.588-42.92,25.2-87.477,36-131.7,2.186-8.944,5.3-17.6,7.311-26.267-.191-4.924-1.974-8.677-6.706-9.6C64.417,1073.567,61.014,1076.5,59.836,1080.8Zm2.494-911.89c-1.529,4.937,1.159,9.344,7.311,11.386,5.01,1.662,10.3,2.558,15.19,4.492q57.591,22.768,81.274,80.081c12.229,29.451,16.455,60.694,20.818,91.941,1.343,9.616.927,19.316,2.346,28.875.771,5.193,3.81,8.453,9.442,7.875,5.53-.566,6.7-4.834,7.312-9.72-.863-4.476-2.04-9.182-2.647-13.961-3.245-25.566-6.519-51.1-12.311-76.278C176.211,229.011,137.7,185.88,74.993,164.379,69.058,162.345,63.764,164.277,62.33,168.909ZM739.082,392.07c-12.567,53.619-20.8,108.077-30.954,162.165-14.835,79.035-35.093,156.811-56.027,234.4C638.3,839.763,622.31,890.23,603,939.594c-2.731,6.983-1.029,12.544,4.013,14.043,5.317,1.581,9.676-1.628,11.727-8.775,1.46-5.086,2.419-10.342,4.206-15.3,25.763-71.571,46.529-144.612,64.648-218.446,11.578-47.18,23.649-94.247,32.522-142.046,8.616-46.415,16.96-92.883,25.878-139.241,8.049-41.843,19.152-83,29-124.434,20.913-88.028,40-176.488,63.345-263.935.91-3.408,8.053-30.667,10.926-41.457H834.1c-.467,1.746-.933,3.488-1.448,5.416C810.49,88.4,790.482,171.9,771.6,255.686,761.327,301.275,749.746,346.568,739.082,392.07ZM452.773,1215.988a9.774,9.774,0,0,0,9.6,9.713,9.369,9.369,0,0,0,9.6-9.522c.062-5.631-3.723-9.463-9.381-9.5A9.457,9.457,0,0,0,452.773,1215.988Zm507.96-119.424c12.1-51.31,22.328-103.055,35.635-154.085,2.555-9.794,5.186-19.569,7.578-29.4,1.069-4.392.039-8.458-4.3-10.59-3.734-1.833-7.228-.741-9.859,2.511-2.119,2.62-2.467,5.846-2.948,9.055-.817,5.461-1.581,10.951-2.827,16.321-8.217,35.431-16.823,70.775-24.788,106.263-8.672,38.639-15.9,77.7-31.334,114.413-27.494,65.409-52.954,131.554-74.165,199.287-10.015,31.981-10.067,31.27-19.628,66.987h15.157c.525-1.972.924-3.458,1.1-4.079,19.75-70.085,42.927-139.014,70.612-206.368C935.847,1170.671,951.7,1134.872,960.733,1096.564ZM66.278,49.841a9.4,9.4,0,0,0,9.368-9.76,9.977,9.977,0,0,0-9.771-9.607A9.63,9.63,0,0,0,56.31,40.811C56.594,46.375,60.614,50.016,66.278,49.841Zm1081.9-14.635c5.491,1.952,9.152-1.182,10.928-5.654,4.72-11.88,8.324-21.208,11.657-29.552h-16.673c-3.01,6.821-6.259,14.215-9.907,22.447C1141.616,28.243,1143.4,33.51,1148.181,35.206ZM384.144,320.378c.074,4.819-.853,9.657-.732,14.471.115,4.565,2.371,7.969,7.418,8.4,5.507.471,7.818-3.069,8.916-7.711a13.843,13.843,0,0,0,.142-4.811c-2.232-17.708-1.024-35.446-.379-53.159,1.914-52.485,6.471-104.9,3.339-157.508-.629-10.561-.245-21.2.029-31.8.846-32.872,6.97-56.638,28.338-88.265H413.871c-14.655,23.127-22.877,44.66-25.259,79.26-1.447,21-.661,41.909.11,62.865C390.913,201.635,383.206,260.9,384.144,320.378Zm-34.112-60.769c4.877.3,8.441-3.654,9.022-10.153.143-1.595-.044-3.219-.007-4.828.1-4.6.11-9.2.389-13.789,1.68-27.6,3.519-55.171,2.428-82.869-.725-18.413-.9-36.858-.812-55.287.166-33.088,9.657-65.5,23.509-92.683H368.246a206.616,206.616,0,0,0-14.074,35.952c-9.359,32.644-9.009,66.019-7.5,99.437a745.232,745.232,0,0,1-1.461,86.335c-.619,8.736-1.4,17.419-2.865,26.069C341.265,254.193,344.922,259.29,350.032,259.609Z"/></svg>