<svg xmlns="http://www.w3.org/2000/svg" viewBox="0 0 1417.323 1417.323"><defs><style>.a{fill:#ff0;}</style></defs><path class="a" d="M1287.743,1052.048c-20.152-4.6-40.614-7.027-61.123-9.395v0q-4.216-.486-8.43-.98c-.055-.007-.112-.01-.166-.016q-3.579-.417-7.154-.778v.073c-41.408-4.16-82.458-2.693-123.311,5.522-14.915,3-28.756,8.425-38.52,21.052-10.107,13.07-9.448,28.676,1.694,40.876,11.724,12.837,27.459,15.836,46.011,5.731,27.684-15.079,56.935-16.8,87.224-14.212,22.708,1.944,45.293,5.755,68.215,4.638a22.35,22.35,0,0,1,5.489.531c9.319,1.9,13.531,6.38,13.3,13.992a16.528,16.528,0,0,1-14.723,15.771,45.425,45.425,0,0,1-15.126-.657c-12.784-2.845-25.467-6.075-38.44-8.156-37.8-6.065-74.084-3.875-108.52,15.306-23.368,13.015-36.584,9.41-53.2-11.616-3.145-3.977-6.165-8.053-9.321-12.022a46.3,46.3,0,0,0-9.406-9.117c-17.436-12.349-46.632-2.4-51.253,17.886-3.294,14.458,3.445,26.079,12.9,36.171,10.305,10.994,22.689,19.51,35.042,28.017,5.12,3.527,10.42,6.878,15.12,10.912,10.926,9.378,15.707,28.911,10.644,41.837-2.275,5.808-6.289,9.77-12.651,10.377-6.208.6-10.636-2.718-13.444-7.949a68.517,68.517,0,0,1-5.165-12.012c-4.29-13.85-12.213-25.172-23.147-34.521-.176-.15-.338-.316-.522-.454-18.247-13.675-31.993-30.424-40.655-52.033-7.31-18.23-25.609-24.215-44.522-17.271-17.134,6.291-28.678,26.986-24.743,43.807,2.559,10.935,10.018,17.986,18.567,24.022a231.5,231.5,0,0,1,39.522,35.519c13.561,15.24,24.148,32.553,34.649,49.891,5.029,8.3,6.321,17.344,1.314,26.316-2.867,5.137-7.244,8.5-13.376,8.368-5.794-.121-9.952-3.264-12.679-8.283a40.637,40.637,0,0,1-3.947-11.712c-3.252-16.541-9.672-31.624-20.67-44.6a305.124,305.124,0,0,0-47.319-44.417c-12.484-9.587-26.642-12.145-41.814-8.759-18.613,4.155-37.208,8.422-55.7,13.1-10.852,2.746-20.727,7.626-28.075,16.576-12.248,14.915-8.435,32.858,8.814,41.427a40.239,40.239,0,0,0,16.591,4.052c14.672.594,27.949-5.17,41.606-8.995,20.217-5.664,36.753-.817,49.876,15.64,9.69,12.154,17.609,25.3,22.9,39.969a28.081,28.081,0,0,1,1.253,16.3c-1.58,6.605-5.436,11.186-12.455,12.218-6.163.908-11.7-2.637-14.268-9.631a93.745,93.745,0,0,1-3.7-14.669c-3.628-18.932-14.529-31.4-30.72-34-9.414-1.51-18.818-.128-28.119,1.835-11.974,2.529-24.031,4.5-36.327,2.982-13.857-1.706-24.906-9.2-35.3-17.768-14.627-12.065-31.149-15.153-49.285-10.8-19.732,4.731-29.124,16.679-27.879,35.2,1.073,15.979,12.339,27.981,30.264,31.01a171.933,171.933,0,0,1,47.2,14.75,78.84,78.84,0,0,0,46.339,7.471c6.822-.956,13.467-3.136,20.485-2.733,5.429.311,9.97,2.113,12.387,7.3,2.507,5.38,1.2,10.4-2.244,14.891a20.02,20.02,0,0,1-15.583,7.934c-21.913.534-43.806.481-64.207-9.63-16.1-7.98-32.661-14.843-50.332-18.6-19.76-4.2-35.292,2.413-44.082,18.647-6.308,11.65-12.574,34.191,11.559,43.139h72.684c-4.5-6.146-12.008-10.9-23.444-13.657A51.868,51.868,0,0,0,674.4,1403a74.655,74.655,0,0,1-13.807.432c-11.748-.444-17.057-10.006-11.486-20.417,4.634-8.666,14.312-12.138,26.564-9.3,16.46,3.818,31.832,10.548,46.953,17.9,25.086,12.2,51.8,12.463,78.406,8.836,17.187-2.342,30.767-21.839,28.7-37.133-2.817-20.835-18.535-31.707-41.526-27.041-21.041,4.27-40.568,2-59.5-8.065-11.254-5.981-23.515-9.1-36.187-10.674a32.433,32.433,0,0,1-13.7-4.427c-4.848-3.1-7.449-7.6-7.291-13.306.161-5.844,3.408-10.054,8.607-12.381,10.533-4.715,21.111-4.248,31.3,1.035a62.966,62.966,0,0,1,11.5,7.608c21.816,18.367,46.832,22.12,74.027,16.893,7.666-1.473,15.286-3.49,23.164-3.581,11.46-.131,18.208,4.675,21.552,15.6,1.88,6.142,3.079,12.493,4.943,18.641,5.641,18.6,20.948,28.631,37.346,24.678,16.727-4.033,30.131-23.832,26.293-40.963-6.378-28.468-20.633-52.672-43.428-71.153-17.561-14.238-37.5-12.695-57.811-6.959-10.353,2.922-20.284,7.628-31.365,7.687-6.413.034-12.148-1.19-14.471-8.082-1.754-5.2,1.914-10.876,9.043-14.619,5.768-3.029,12.089-4.284,18.38-5.695,15.689-3.519,31.351-7.159,47.013-10.8,10.884-2.528,20.711.116,29.278,6.78,15.865,12.341,30.74,25.8,43.437,41.478a74.288,74.288,0,0,1,14.3,29.6c1.144,4.682,2.362,9.361,3.846,13.945,5.941,18.356,16.9,26.782,34.092,26.4,14.268-.316,26.526-11.252,31.2-27.879a40.1,40.1,0,0,0-3.977-31.983c-20.682-35.845-44.831-68.722-79.615-92.462a39.681,39.681,0,0,1-8.169-7.387c-6.813-8.257-4.876-20.151,4.067-26.769,8.986-6.649,20.554-4.7,26.484,4.582a33.184,33.184,0,0,1,3.336,6.8c6.073,17.282,16.859,31.213,31.128,42.292,15.166,11.777,26.271,25.974,32.494,44.416,3.892,11.533,10.7,21.747,24.068,24.419,20.925,4.183,39.55-11.861,40.837-34.392,1.438-25.142-6.772-45-29.281-58.141-11.544-6.742-22.125-15-32.344-23.651-4.416-3.74-8.6-7.73-11.414-12.867-3.491-6.377-2.893-13.144,1.339-17.316,4.491-4.427,11.731-5.266,17.988-2.109,5.147,2.6,8.444,7.07,11.638,11.593,6.422,9.094,13.478,17.527,22.827,23.837,14.056,9.485,28.914,11.322,44.575,4.693,6.133-2.6,12.154-5.521,18.016-8.686,25.413-13.725,52.544-15.265,80.6-12.488,20.467,2.026,39.9,9.23,60.341,11.052,25.946,2.313,45.515-19.417,40.046-44.127-2.029-9.169-7.78-14.961-16.023-18.512a50.9,50.9,0,0,0-20.829-4.268c-22.2.276-44.113-3.123-66.164-4.725-32.93-2.391-65.5-2.3-95.207,15.451a31.773,31.773,0,0,1-11.759,3.854c-6.8,1-13.55-2.241-16.443-7.775-2.988-5.714-1.7-12.425,3.554-17.658,5.415-5.394,12.318-8.175,19.526-9.8,37.343-8.4,75.068-11.4,113.254-7.512,4.053.413,8.133.668,12.2.98v.089c20.062,1.536,40.246,2.38,59.664,7.868,24.073,6.81,45.795,3.645,67.775-7.991,29.9-15.83,55.9-26.579,79.014-37.887v-20.24c-4.863,2.436-23.326,11.289-96.113,45.837C1310.562,1052.113,1299.619,1054.757,1287.743,1052.048ZM1378.1,927.825c-13.481,7.52-27.59,13.717-41.366,20.591-29.251,14.589-59.572,16.729-91.425,11.409-4.686-.783-9.385-1.5-14.086-2.189l0-.013c-.173-.026-.346-.042-.518-.067-6.6-.967-13.209-1.858-19.834-2.575v.03c-19.589-2.122-39.293-2.98-59.116-1.438-24.336,1.894-48.673,3.784-73,5.848-27.246,2.311-50.508,13.143-69.5,32.965-3.826,4-8.015,7.644-11.8,11.676-24.566,26.181-55.552,37.713-90.66,39.511-30.155,1.545-55.4,12.47-73.828,37.149-4.962,6.646-10.187,13.108-14.892,19.929-9.153,13.269-21.327,22.054-36.934,26.125-32.951,8.6-63.069,22.661-89.014,45.2-8.194,7.118-18.071,11.753-28.188,15.8a386.347,386.347,0,0,1-78.874,21.94c-35.522,6.045-63.3,23.814-82.347,54.772a273.4,273.4,0,0,0-20.711,42.036c-8.941,22.369-22.878,40.766-41.327,56.117-11.715,9.749-24.027,18.618-36.522,27.294-9.4,6.529-19.547,16.267-21.99,27.394h19.653c.92-2.689,3.2-5.643,8.975-9.906,5.926-4.379,12.162-8.335,18.2-12.569,32.908-23.075,60.23-50.646,73.544-89.867,3.17-9.337,8.06-18.058,13.006-26.649,13.566-23.56,32.513-40.545,59.256-47.481,11.553-3,23.47-4.562,35.075-7.384,37.681-9.163,74.838-19.453,105.072-45.939a126.124,126.124,0,0,1,55.551-28.242c30.641-6.934,54.247-22.17,70.735-49.4,15.829-26.142,40.386-37.093,70.732-38.577,36.85-1.8,69.464-14.912,95.729-41.861,7.077-7.26,14.434-14.273,21.994-21.03a77.177,77.177,0,0,1,38.607-18.755c17.966-3.207,36.214-3.439,54.252-5.605,30.474-3.661,60.741-3.139,90.954-.09q5.568.563,11.13,1.244c1.477.178,2.953.335,4.428.525q8.022,1.031,16.046,2.255c19.129,2.939,38.6,6.053,57.681.964,51.928-13.854,92.665-37.609,114.53-57.6V894.62A132.541,132.541,0,0,1,1378.1,927.825Zm-122.014,76.131c-14.845-3.13-30.009-4.761-45.213-6V998c-6.406-.542-12.819-1.02-19.224-1.488-32.6-2.382-64.893,1.395-97.241,4.3-28.265,2.542-52.823,12.927-70.7,35.588-12.539,15.895-27.584,27.539-46.992,33.461a38.669,38.669,0,0,0-6.977,2.963,102.935,102.935,0,0,1-51.6,12.816c-33.024-.567-55.778,15.746-69.853,45.05-.895,1.865-1.984,3.645-2.774,5.552-5.95,14.371-16.65,22.746-31.864,25.636-5.186.985-10.28,2.444-15.453,3.509-32.687,6.731-62.637,18.384-84.641,45.269-7.443,9.094-18.111,13.116-29.327,15.677-11.674,2.665-23.236,5.893-33.926,11.3-15.512,7.847-31.927,11.1-49.119,12.4-29.939,2.272-52.671,16.307-67.159,43.09-5.16,9.54-10.011,19.283-13.2,29.561-8.644,27.889-24.967,49.864-48.187,67.334a299,299,0,0,0-31.622,27.3h27.7c13.6-11.593,26.5-22.679,27.934-23.917,15.86-13.669,27.885-29.808,35.347-49.474,4.97-13.1,9.843-26.249,16.112-38.841,12.2-24.5,32.116-36.278,59.136-37.336,14.8-.58,29.242-3.218,42.683-9.99,11.325-5.705,23-10.808,35.512-13,19.527-3.413,35.06-12.851,47.685-28.015,11.224-13.482,26.071-21.525,42.75-26.663,14.3-4.407,28.884-7.607,43.463-10.8,19.014-4.17,33.157-14.082,41.152-32.284a143.954,143.954,0,0,1,9.8-18.219c9.726-15.574,23.731-24.381,42.314-24.32,23.687.078,46.172-4,66.9-16.137,4.508-2.64,9.7-4.181,14.676-5.942a76.368,76.368,0,0,0,35.038-24.807c3.588-4.5,7.431-8.815,11.338-13.048,10.426-11.292,23.009-19.08,38.074-22.463,8.531-1.917,17.271-2.6,25.924-3.8,40.465-5.594,80.738-4.864,120.9-.258,10.627,1.217,21.249,2.608,31.859,4.342,23.457,3.834,46.618,5.264,69.206-4.494,40.365-17.441,68.765-29.961,90.8-43.451V952.929c-16.565,11.131-37.535,20.125-71.872,37.167C1316.873,1004.283,1288.02,1010.7,1256.083,1003.956Zm88.5-105.156c-24.9,12.785-50.484,22.759-79.125,20.139-10.046-.917-20.055-2.218-30.062-3.55-6.646-.884-13.29-1.791-19.945-2.573l-.344-.038-4.238-.5v.014c-18.634-2.185-37.333-4.222-56.069-2.31-29.322,2.991-58.672,5.489-88.052,7.817-28.583,2.265-54.248,11.746-74.419,33.366-6.753,7.239-14.133,13.9-21.358,20.69a104.65,104.65,0,0,1-51.306,26.9,217.116,217.116,0,0,1-33.475,4.613c-25.593,1.215-47.3,10.284-64.849,29.334-9.219,10.006-18.526,19.928-27.179,30.418-11.908,14.432-26.53,24.821-44.356,30.447a234.04,234.04,0,0,0-71.471,36.637c-10.279,7.774-21.805,13.661-33.74,18.7-22.388,9.451-45.987,14.5-69.636,19.235-47.094,9.432-83.3,34.2-108.138,75.442a397.294,397.294,0,0,0-21.151,41.087,142.894,142.894,0,0,1-44.187,55.726c-15.794,12.013-30.907,24.812-44.561,39.283a50.049,50.049,0,0,1-24.746,14.373c-8.461,2.115-17.031,3.979-25.255,6.815-12.049,4.155-21.871,9.311-30.1,16.456h36.792a80.6,80.6,0,0,1,11.609-2.793c20.087-3.172,36.953-11.9,50.247-27.644a140.072,140.072,0,0,1,26.783-23.923c29.47-20.693,51.312-47.346,64.735-80.837,1.366-3.407,3.245-6.607,4.806-9.941,22.946-48.982,60.221-78.817,114.283-87.757,43.245-7.15,83.36-22.5,118.3-49.938,11.309-8.88,24.42-14.854,38.2-18.855,29.951-8.695,54.756-24.533,73.379-49.956,6.8-9.276,15.187-17.325,23.6-25.248,10.218-9.627,22.151-15.617,36.071-17.436,8.674-1.133,17.377-2.075,26.087-2.893,32.188-3.023,60.832-13.96,84.093-37.188,7.343-7.332,14.912-14.437,22.339-21.687,12.755-12.452,27.957-19.908,45.509-22.945,31.611-5.471,63.756-5.279,95.528-9.341,20.862-2.669,41.59-1.082,62.25,1.586,10.437,1.349,20.852,2.969,31.258,4.468,28.706,4.138,56.767,3.294,84.163-7.913,53.476-21.873,74.112-46.494,90.465-74.426V815.237c-3.11,5.738-7.99,14.537-16.369,29.2C1387.445,868.055,1368.934,886.3,1344.584,898.8Zm-32.72,220.669c-2.806,12.29-5.9,24.581-12.319,35.7-10.556,18.261-25.892,25.74-46.82,23.395-9.583-1.072-19.029-2.856-28.446-4.779v-.008c-10.837-2.213-21.637-4.605-32.553-6.392-29.007-4.753-56.805-1.667-83.165,11.89q-21.893,11.257-23.189,35.768c-.282,5.5.162,11.045.362,16.568.258,7.132.751,14.259.878,21.394.2,11.275-4.778,19.867-13.987,26.214-8.6,5.928-18.218,9.752-27.819,13.6-12.474,5-23.112,12.259-30.62,23.692-5.689,8.663-11.278,17.381-15.717,26.76a47.865,47.865,0,0,0-4.843,16.426c-1.225,14.159,0,37.9,8.449,57.627h19.479c-5.328-10.684-7.6-25.169-9.5-38.052-1.174-7.976-1.755-16.315,1.357-23.933,8.543-20.9,19.6-39.581,42.8-47.665,11.961-4.166,23.261-9.988,32.98-18.413,9.911-8.592,15.344-19.208,15.523-32.543.155-11.546-.964-23.016-1.358-34.526-.485-14.2,5.725-24.008,19.144-29.634,21.687-9.1,43.927-11.1,66.959-7.1,7.162,1.246,14.287,2.691,21.407,4.158v.039c4.627.963,9.263,1.878,13.9,2.794.118.023.235.049.354.072h0c8.4,1.653,16.821,3.18,25.352,4.132,26.426,2.959,47.5-5.481,62.2-28.253,8.241-12.771,12.66-27.015,16-41.611,3.054-13.3,10.427-22.746,22.875-28.407,14.227-6.478,28.309-13.282,42.555-19.709,7.833-3.537,15.6-7.061,23.217-10.614v-20.9c-15.638,7.515-39.721,19-76.8,36.543C1325.234,1090.928,1315.673,1102.735,1311.864,1119.469Zm105.459-613.386V419.405A71.425,71.425,0,0,0,1403.8,462.2C1403.8,478.572,1408.588,494.765,1417.323,506.083ZM845.359,1392.148c-9.405,5.348-16.543,15.826-18.625,25.175h19.3c2.247-5.487,6.723-9.017,11.009-9.943,8.851-1.912,13.242,2.611,15.93,9.943H891.5C885.031,1396.73,872.5,1376.713,845.359,1392.148Zm328.867-15.049c-16.825-2.255-30.032,4.167-40.79,16.55-8.458,9.734-16.671,17.6-26.193,23.674h29.774c4.508-5.053,8.419-10.248,14.264-15.571,3.617-3.295,7.758-5.817,12.71-6.579,13.178-2.031,20.432,5.847,17.369,18.8a23.8,23.8,0,0,1-1.137,3.353H1199.1a47.472,47.472,0,0,0,1.216-10.97C1200.176,1390.163,1190.254,1379.247,1174.226,1377.1Zm-214.953-17.624c-18.522-11.455-42.038-1.342-48.5,20.882-2.178,7.491.047,21.771,3.9,36.966h18.445c-1.828-6.69-3.52-13.4-5.072-19.963a22.529,22.529,0,0,1,1.739-15.436c2.773-5.694,7.295-9.064,13.7-8.5,6.2.548,9.777,4.778,11.388,10.527,2.377,8.482,1.5,17.359,2.839,25.988.388,2.512.919,4.939,1.422,7.381h18.421c-1.855-8.369-2.368-16.568-3.527-28.089C972.866,1377.694,970.321,1366.308,959.273,1359.475ZM34.8,1259.5c10.917-21.861,27.21-37.785,49.127-48.644,25.771-12.769,50.971-26.689,76.674-39.6,30.274-15.2,54.188-36.96,71.727-66.012,9.876-16.36,20.6-32.215,31.063-48.214,21.011-32.118,46.705-59.305,81.128-77.452a56.31,56.31,0,0,0,19.84-16.93c12.124-16.939,3.887-41.557-16.057-47.816-12.7-3.987-23.736.842-33.749,7.707-10.817,7.415-20.761,16.089-31.321,23.9A248.473,248.473,0,0,0,224.07,1008.9q-20.722,31.033-41.158,62.259a144.625,144.625,0,0,1-51.126,47.543c-26.123,14.625-52.8,28.152-79.668,41.318-30.9,15.144-42.884,25.411-52.118,39.351v37.277c2.111-4.006,4.4-8.45,6.949-13.569,9.307-18.683,23.568-31.953,42.215-41.183,28.859-14.284,57.555-28.9,85.948-44.115,26.811-14.369,48.6-33.8,65-59.506,13.126-20.581,26.769-40.833,40.373-61.1a226.013,226.013,0,0,1,52.651-55.356c9.592-7.179,18.79-14.881,28.273-22.209,4.957-3.831,10.262-7.106,16.85-7.212,10.052-.16,16,8.894,11.894,18.1-2.369,5.312-6.8,8.622-11.541,11.557-8.807,5.448-17.89,10.486-26.447,16.3-24.605,16.71-43.6,38.9-60.126,63.29-11.106,16.393-22.317,32.77-32.356,49.818-17.269,29.327-41.072,50.973-71.532,65.981-25.791,12.707-51.007,26.572-76.652,39.576-22.123,11.219-38.7,27.7-50.333,49.586-7.48,14.081-13.67,27.421-21.164,38.874v28.951a98.528,98.528,0,0,0,13.768-16.857C21.784,1285.449,28.327,1272.466,34.8,1259.5ZM13.939,582.3c5.674-23.42-2.656-34.8-13.939-46.716v66.249C6.957,595.61,12.332,588.927,13.939,582.3Zm1361.953,604.11c-10.99,25.559-25.265,47.521-51.83,60.2-10.695,5.107-17.726,13.832-17.726,25.616a40.473,40.473,0,0,0,4.3,17.149,20.158,20.158,0,0,1,2.067,8.678,21.993,21.993,0,0,1-3.267,11.059,169.113,169.113,0,0,1-25.264,32.776c-8.351,8.655-14.81,18.574-16.111,30.644-1.541,14.252-1.135,28.5-3.645,44.794h18.372c1.531-11.317,1.845-22.478,2.768-36.522.683-10.348,5-19.073,11.922-26.561,11.147-12.051,21.813-24.384,28.789-39.493a13.482,13.482,0,0,1,11.221-8.194c29.029-3.069,48.656-20.24,64.213-43.188a272.285,272.285,0,0,0,15.622-26.7V1199.3c-6.425,9.69-11.506,21.169-20.669,37.333-6.607,11.66-13.463,23.1-23.161,32.55-8.877,8.655-18.926,15.433-31.023,18.69-5.443,1.467-11.035,2.408-14.985-3.3a14.45,14.45,0,0,1-2.381-8.2,16.935,16.935,0,0,1,3.23-10.008c3.138-4.2,7.529-6.843,12.134-8.936,18.723-8.5,31.493-22.838,40.591-40.845,4.872-9.652,9.523-19.424,14.449-29.044,6.54-12.749,13.05-20.254,21.815-26.448v-20.923c-3.805,1.951-6.388,3.308-7.327,3.869C1393.405,1153.942,1383.292,1169.218,1375.892,1186.408Zm10.575,127.361c-6.256,2.911-12.43,6.043-18.806,8.651-19.746,8.064-34.206,22.007-45.767,39.617-11.387,17.366-13.491,38.427-15.3,55.286h18.279c.784-9.477,1.338-18.017,4.77-28.384,8.369-25.241,25.422-42.035,49.791-51.944,17.156-6.974,28.506-13.43,37.888-22.481v-28.985C1409.486,1297.5,1400.2,1307.367,1386.467,1313.769ZM1341.9,1160.88a53.924,53.924,0,0,1-2.076,5.113c-8.25,20.221-21.343,36.383-39.844,48.19-9.68,6.173-19.987,9.176-31.438,8.263-14.555-1.16-28.957-3.372-43.35-5.673v0c-4.913-.786-9.824-1.582-14.741-2.35-17.224-2.692-34.01-8.147-51.767-7.549-19.777.666-33.245,13.315-33.462,32.087-.241,20.97,10.578,32.5,32.018,33.024,18.427.454,36.868.138,55,4.163,13.584,3.014,27.541,1.9,41.2,3.766,9.6,1.306,14.036,5.785,14.553,12.992a19.038,19.038,0,0,1-12.628,19.35c-6.594,2.424-12.745.686-18.779-1.758-8.086-3.274-15.864-7.285-24.349-9.59-23.8-6.466-48.279-6.69-72.633-7.563a45.633,45.633,0,0,0-28.735,8.391c-17.9,13.016-36.562,24.769-55.46,36.258-11.915,7.244-19.4,18.36-20.9,32.593-2.259,21.481,11.476,41.771,38.21,36.113,10.3-2.181,18.835-7.306,26.126-14.577,5.873-5.855,11.287-12.167,17.013-18.172,8.419-8.831,18.08-16.01,30.211-18.458,23.169-4.677,45.3-.012,66.626,9.114,7.535,3.226,11.43,9.634,12.525,17.808,1,7.472.316,20.374-3.151,34.911h18.7c3.618-17.341,3.772-33.129,1.846-43.016s-7.3-18.242-16.311-22.971c-27.132-14.235-55.909-19.378-86.157-13.139-14.195,2.929-25.6,11.251-35.693,21.314-5.708,5.693-10.955,11.846-16.525,17.683-4.812,5.042-10.1,9.417-17.063,11.3-11.69,3.153-20.284-4.776-18.149-16.742a25.29,25.29,0,0,1,11.977-17.863c19.194-11.445,37.722-23.855,56.059-36.6,7.256-5.044,15.907-5.779,24.549-5.543,29.771.816,58.93,3.132,86.769,16.271,25.07,11.832,50.075-3,54.161-29.753,2.745-17.974-7.945-34.379-26.325-35.485-32.39-1.948-64.156-10.636-96.861-8.539a38.089,38.089,0,0,1-6.9-.282c-7.311-.869-12.3-5.672-12.885-12.234-.648-7.291,3.063-12.941,10.107-15.422,8.485-2.988,16.976-1.121,25.251.573,10.721,2.194,21.476,4.132,32.251,5.953v.078c1.9.32,3.8.57,5.7.88,2.157.351,4.308.748,6.467,1.085.006-.028.008-.056.013-.086,14.437,2.255,28.91,4.282,43.46,5.882,12.789,1.4,24.784-.619,35.978-6.883,22.754-12.748,40.471-30.289,51.109-54.427,3.618-8.2,7.253-16.4,10.649-24.693a53.146,53.146,0,0,1,26.834-28.5c2.01-.981,18.082-8.7,26.242-12.639v-20.028c-10.4,4.99-18,8.491-20.015,9.248C1369.414,1113.221,1350.387,1131.971,1341.9,1160.88ZM627.138,1347.2c4.751-5.114,7.471-11.461,8.852-18.425,4.779-24.105-13.275-42.4-37.126-37.43-15.686,3.269-24.781,14.118-31.327,27.7a249.082,249.082,0,0,0-13.836,36.73c-6.173,20.578-17.462,37.307-34.886,50-4.305,3.136-9.2,7.062-14.581,11.545h29.122c17.937-13.782,25.635-20.177,45.2-77.417,2.3-6.734,4.958-13.375,8.906-19.341,3.764-5.685,8.379-10.444,15.637-11.413,9.14-1.221,15.21,4.269,14.878,13.482a21.8,21.8,0,0,1-5.9,14.4c-14.235,15.128-21.65,33.332-24.684,53.551-1.774,11.821-6.784,18.951-15.752,26.735h25.249a51.158,51.158,0,0,0,8.462-23.436A81.3,81.3,0,0,1,627.138,1347.2Zm722.539,70.121h18.307c.249-2.261.544-4.494.932-6.718,2.648-15,10.445-26.362,24.083-33.292,8.726-4.434,16.8-7.74,24.324-11.056v-19.922a228.462,228.462,0,0,1-21.556,9.354C1358.941,1369.968,1352.878,1392.681,1349.677,1417.323ZM393.976,27.572l2.044,1.863a14.739,14.739,0,0,1,4.415,10.417,15.276,15.276,0,0,1-4.443,10.6c-5.126,5.334-12.655,4.909-19.027-1.126-4.4-4.189-7.3-9.486-10.589-14.486-8.382-12.762-20.017-18.28-35.3-16.951-15.968,1.393-29.694,11.8-33.727,26.307a28.341,28.341,0,0,0-1.088,7.613c0,9.725,5.666,18.417,17.49,26.418,8.195,5.536,16.651,10.758,25.316,15.52,41.165,22.669,36.167,85.076,20.7,86.6-7.991.788-13.565-4.136-15.55-14.189a80.932,80.932,0,0,1-.949-10.978c-.615-10.706-2.134-21.383-8.688-30.1a128.967,128.967,0,0,0-46.623-38.192c-14.777-7.283-31.354-.345-40.531,15.145-8.7,14.684-6.233,29.157,6.84,40.112,5.342,4.476,11.535,7.55,17.646,10.777,5.351,2.826,10.409,6.1,13.152,11.793,2.791,5.787,3.277,11.725-1.183,16.855-4.512,5.192-10.414,6.361-17,4.348-5.854-1.791-9.695-6.027-13.208-10.663-5.008-6.611-9.687-13.479-16.074-18.934-9.748-8.326-20.751-10.654-32.872-6.658-18.306,6.037-29.654,24.711-24.673,40.684,3.138,10.062,10.567,16.476,19.587,21.292,5.469,2.921,11.524,4.849,16.256,9.013,4.231,3.725,6.737,8.331,4.7,14.133-2.069,5.885-6.562,8.585-12.693,8.9-10.168.529-18.447-3.595-25.234-10.712-3.637-3.811-6.638-8.244-9.786-12.5-3.711-5.019-7.445-10.007-12.569-13.7-8.245-5.938-17.355-7.067-26.939-4.262-16.931,4.957-28.629,23.544-29.093,45.906-.381,18.378,8.007,30.985,27.111,35.814,25.8,6.521,50.973,15.958,77.735,18.294,38,3.318,49.831-6.987,60.282-34.023.332-.859.743-1.69,1.035-2.561,5.67-16.92,18.281-25.825,34.77-30.493,12.286-3.478,24.364-2.871,36.854-.559,15.851,2.935,25.825,11.342,31.6,26.334,7.849,20.366,16.639,40.371,25.12,60.492a62.033,62.033,0,0,0,8.79,14.809c14.819,18.442,35.97,18.141,49.976-.877,10.406-14.13,13.911-29.986,9.738-47.057-2.068-8.461-.992-15.783,3.808-22.966,5.193-7.77,6.514-16.412,5.422-25.73-1.269-10.819-5.541-20.863-7.34-31.525-5.718-33.87-.966-96.557,36.325-130.282,22.754-20.595,45.791-40.766,70.829-58.584,8.73-6.21,15.677-12.21,20.64-19.516H571.7c-12.681,11-33.4,23.336-64.554,52.135-5.592,5.167-11.055,10.481-16.784,15.474-43.6,38.051-37.772,69.756-40.717,124.238-.825,15.267,3.738,29.557,7.546,44,1.612,6.123,2.049,12.3,0,18.385-3.011,8.919-9.235,11.039-17.235,5.986-5.789-3.655-8.622-9.365-10.842-15.547-6.556-18.249-7.366-36.822-3.819-55.8,3.272-17.509,4.949-36.787,2.819-54.336a72.766,72.766,0,0,1-.54-8.738c0-15.18,5.093-28.67,15.041-41.459,21.919-28.162,49.578-50.049,76.42-72.9,5.5-4.685,10.19-8.261,14.331-11.442H504.209C492.3,9.936,477.705,22.979,460.2,38.312c-15.2,13.306-27.447,29.158-39.4,45.306-8.461,11.432-11.529,24.149-11.529,37.361a97.906,97.906,0,0,0,.609,10.658c2.5,22.859-1.542,47.123-4.737,70.059-3.159,22.686,3.122,43.771,13.993,63.552,3.611,6.571,9.745,10.608,16.817,12.427,10.168,2.617,14.184,9.159,14.467,19.1.254,8.913-.632,17.541-5.258,25.336-6.563,11.06-17.713,11.5-25.046.943a54.58,54.58,0,0,1-4.994-9.806c-9.2-21.565-18.491-43.1-27.4-64.781-6.229-15.162-16.992-24.385-32.763-29.008-23.707-6.948-46.508-6.608-69.194,4.063-13.151,6.187-23.05,14.961-28.7,28.394-1.158,2.753-2.483,5.436-3.64,8.191-9.305,22.184-18.961,27.278-43.073,24.655-20.545-2.236-39.658-9.888-59.613-14.266-5.829-1.279-11.76-2.2-17.243-4.775-6.382-3-10.049-7.885-10.649-14.965a34.149,34.149,0,0,1,5.426-22.4c6.791-10.215,18.133-11.163,26.193-1.934,4.223,4.836,7.45,10.527,11.45,15.575,12.564,15.85,34.986,23.606,52.429,18.332,21.924-6.628,28.9-34.532,12.675-50.644a53.555,53.555,0,0,0-14.241-9.638c-3.5-1.744-7.094-3.352-10.4-5.417-7.855-4.913-10.314-11.763-7.01-18.682,3.47-7.269,12.608-11.081,20.482-8.636,5.587,1.735,9.332,5.744,12.816,10.1,4.316,5.4,8.357,11.038,12.949,16.186,14.665,16.438,35.923,13.731,49.825,2.818,13.178-10.344,13.6-32.493,1.322-47.358-4.981-6.029-11.525-9.822-18.362-13.223-4.335-2.156-8.753-4.174-12.262-7.629-4.99-4.91-6.233-11.332-3.062-17.03,3.376-6.067,8.624-8.739,15.585-7.752a19.217,19.217,0,0,1,3.374.735c21.968,7.307,41.8,33.328,43.365,56.507a115.508,115.508,0,0,0,2.367,14.963c4.279,21.2,30.736,27.158,44.083,21.149,23.868-10.742,17.82-53.975,11.892-79.566-2.546-10.99-8.862-19.6-17.619-26.528C355.968,82.658,345,75.9,333.791,69.482c-4.185-2.4-8.531-4.715-12.195-7.788-4.064-3.414-6.021-7.456-6.021-11.34,0-5.159,3.443-10.03,9.939-12.78,8.852-3.747,17.868-1.717,24.337,5.97,3.7,4.4,6.621,9.439,10.232,13.906,7.853,9.716,17.376,16.793,30.608,15.815,12.457-.923,20.909-8.525,23.862-19.912,3.179-12.254,9.91-19.683,20.8-25.542C436.974,26.938,453.307,13.14,468.724,0H441.018a140.336,140.336,0,0,1-18.243,15.244c-4.421,3.082-9.255,5.49-14.594,2.085-4.6-2.935-6.984-7.041-6.984-12.235A14.982,14.982,0,0,1,401.808,0H382.166a23.136,23.136,0,0,0-.55,4.974C381.616,14.293,386.059,21.684,393.976,27.572Zm439.2,6.477c12.872,27.765,24.075,56.232,35.784,84.486,13.357,32.22,58.256,56.55,25.979,72.63-10.464,5.213-21.687,1.2-25.478-10.913-8.567-27.363-22.83-52.226-33.217-78.773-9.37-23.947-21.111-46.872-29.029-71.507C800.65,9.555,782.2,1.258,761.933,6.818c-14.281,3.919-20.066,14.791-22.545,27.794-2.283,11.972-.705,23.982,7.906,33.137,22.124,23.521,33.556,52.479,43.607,82.283a180.291,180.291,0,0,0,17.644,37.352,49.946,49.946,0,0,1,5.716,11.761c2.275,7.525.808,13.7-4.277,17.529-5.472,4.122-13.2,4.1-19.431-.116-4.978-3.373-7.83-8.315-10-13.756-4.711-11.816-6.382-24.434-9.683-36.622-6.464-23.872-14.9-46.879-28.866-67.557-10.611-15.71-24.3-26.214-44.023-27.224-8.739-.448-17.45-1.433-26.182-2.037s-17.473-1.107-26.216-1.525c-16.261-.775-30.878,4.113-44.113,13.313a236.779,236.779,0,0,0-43.882,38.923c-18.252,21-26.091,45.683-24.679,73.336.824,16.168,9.487,28.377,22.268,31.528,7.133,1.758,14.2.792,20.991-1.843a28.681,28.681,0,0,1,22.14.272,37.8,37.8,0,0,0,22.3,2.386c13.2-2.7,21.545-11.371,22.976-24.875.607-5.732.835-11.5,1.441-17.236.834-7.881,5.794-13.182,12.369-13.5,6.715-.327,12.065,4.279,13.472,12.284a54.034,54.034,0,0,1-.226,17.908c-2.816,17.616.879,33.45,12.986,46.883,16.343,18.134,31.413,37.445,50.775,52.747,10.274,8.118,12.295,16.5,7.748,25.291-5.874,11.36-18.718,12.59-26.481,2.49a26.61,26.61,0,0,1-3.276-5.272c-9.97-22.35-26.615-39.663-43-57.178-11.53-12.325-25.59-18.521-42.576-17.523-18.469,1.085-36.848-1.443-55.279-1.339-25.321.143-40.577,19.068-35.627,43.754,2.688,13.408,13.245,21.838,27.583,22.689,12.116.719,23.847-1.9,35.684-3.469,17.751-2.357,32.826,2.149,44.839,15.783a159.916,159.916,0,0,1,22.3,32.363c5.866,11.356,5.383,22.565-1.061,33.58-14.836,25.363-36.7,38.722-66.3,38.94-10.607.078-21.222.546-31.819.274-11.369-.293-18.295-5.7-18.652-13.682-.388-8.728,7.035-16.862,17.148-18.759,6.833-1.28,13.259.836,19.669,2.6,9.817,2.7,19.617,5.24,29.876,2.83,16.73-3.93,27.393-15.49,28.317-30.567.854-13.95-9.6-29.288-23.964-34.807a40.263,40.263,0,0,0-14.768-3.123c-17.294.118-34.6-.273-51.881.272-13.046.412-23.853,6.267-32.369,16.261-10.4,12.21-19.667,25.517-24.3,40.7-6.883,22.561-22.414,31.96-44.2,34.131-22.072,2.2-40.269,11.177-54.889,28.35-13.2,15.5-30.786,23.73-51.083,26.075-12.832,1.481-23.021-2.857-30.716-13.237-7.155-9.651-12.831-20.218-18.986-30.485-8.057-13.435-16.234-26.774-25.25-39.611-12.88-18.341-30.307-28.676-52.578-30.27-29.941-2.142-59.272-7.809-88.442-14.482-19.3-4.415-37.678-2.19-54.567,8.106-33.61,20.487-60.4,37.463-75.5,58.845v86.422c12.806,16.671,34.062,22.93,61.21,3.721a77.7,77.7,0,0,0,14.135-13.165c2.691-3.155,5.6-6.21,7.775-9.706,15.7-25.246,39.3-30.742,66.639-26.832,8.869,1.268,17.735,2.51,26.491,4.627,13.87,3.354,25.156,10.527,32.959,22.312,13.088,19.766,25.941,39.706,38.239,59.97,7.443,12.264,3.243,25.3-8.786,30.965-10.655,5.015-19.581.366-21.312-11.294-1.113-7.5-.849-15.362-2.965-22.543-8.727-29.636-25.376-52.171-57.626-58.605-17.934-3.58-34.906-.686-49.311,11.557-5.082,4.321-9.845,9.049-14.5,13.84a88.689,88.689,0,0,1-26.779,19.23,137.248,137.248,0,0,0-14.115,7.236c-12.68,7.707-17.7,19.954-14.135,33.638,3.208,12.3,13.162,19.785,28.1,20.046,20.783.363,37.705-8.9,52.545-22.593,4.4-4.059,8.265-8.706,12.712-12.709,8.6-7.742,17.775-8.193,23.938-1.53,7.33,7.926,6.987,21.733-.8,28.836a18.08,18.08,0,0,1-5.081,3.539c-18.512,7.528-36.936,15.313-55.685,22.208-10.939,4.022-22.763,4.158-34.209,2.853-20.537-2.343-38.785,2.477-55.169,14.919-1.188.9-2.665,1.895-4.265,2.932v21.561c3.557-2.318,9.6-6.3,9.931-6.559,14.869-11.546,31.348-16.671,50.331-14.806,11.193,1.1,22.59.7,33.636-2.312,23.165-6.31,44.772-16.687,66.574-26.374,14.641-6.506,19.446-19.806,17.849-35.038-1.57-14.984-7.575-27.825-22.811-33.466-14.545-5.386-26.493.584-37.041,10.375-3.885,3.608-7.492,7.513-11.3,11.2-8.922,8.636-19.095,15.166-31.255,18.27-9.747,2.487-17.391-.065-19.633-6.514-2.167-6.235,1.5-12.927,11.084-16.652,17.434-6.775,31.692-17.669,44.1-31.3,23.2-25.49,57.129-16.136,73.186,5.215,9.879,13.138,13.614,27.925,14.657,43.82,1.135,17.32,9.573,28.942,23.372,30.884,16.514,2.325,29.893-3.894,39.8-17.105,9.549-12.729,10.452-26.659,2.277-40.1q-20.277-33.336-42.027-65.769c-9.718-14.559-23.838-23.462-40.861-27.576a276.212,276.212,0,0,0-38.144-5.929,101.309,101.309,0,0,0-28.9.994C96.286,445.685,82.935,456.845,72,471.507c-6.894,9.243-13.582,18.675-23.245,25.388C31.311,509.011,15.813,504.3,8.081,484.521c-8.7-22.264-2.482-47.419,16.6-65.535C40.306,404.146,58.644,392.948,76.441,381c17.63-11.838,36.35-14.355,56.708-9.309,25.713,6.376,51.8,11.034,78.22,12.883,20.046,1.4,35.892,9.023,46.888,26.077,4.869,7.55,9.968,14.957,14.71,22.585,8.751,14.082,16.815,28.617,26.075,42.35,14.391,21.345,32.382,27.609,57.526,21.96,22.088-4.963,40.7-15.615,55.779-32.413,8.723-9.717,19.033-16.641,32.012-19.145,5.644-1.088,11.291-2.192,16.974-3.051,24.2-3.656,41.991-14.832,49.67-39.632,4.167-13.453,11.471-25.586,20.284-36.7,5.857-7.383,13.2-12.465,22.677-13.082,17.262-1.123,34.571-.843,51.851-.225a20.856,20.856,0,0,1,10.962,3.9c5.821,4.03,8.848,9.474,7.479,16.585-1.282,6.659-6,9.986-12.379,11.441a26.367,26.367,0,0,1-10.272.19c-11.976-1.937-23.3-6.91-35.874-6.3-21.7,1.052-40.539,25.589-34.955,46.495,3.589,13.438,14.163,18.648,26.341,21.372,14.57,3.257,29.417,1.656,44.118,1.308,38.907-.92,65.79-20.7,83.1-54.611,6.7-13.124,6.635-26.544.328-39.9-5.538-11.726-12.934-22.27-20.5-32.743-17.83-24.693-41.482-34.589-71.634-29.254-7.895,1.4-15.778,3.338-23.923,3.136-8.822-.219-14.11-4.066-15.066-11.148-1.175-8.71,3.179-15.527,11.437-18.065a34.474,34.474,0,0,1,14.388-1.156c15.4,1.874,30.839,1.6,46.287,1.286a40.968,40.968,0,0,1,32.093,13.45c14.879,15.811,29.435,31.8,38.911,51.707a59.148,59.148,0,0,0,8.036,12.028c8.269,9.976,19.006,12.435,31.147,8.938,12.984-3.739,21.267-12.7,25.336-25.241,5.233-16.131-.8-29.031-13.387-39.044-18.748-14.908-33.763-33.335-49.435-51.162-8.078-9.19-10.9-19.908-9.658-32.062a144.974,144.974,0,0,0,.494-21.416c-.85-18.3-14.266-31.772-31-31.6-17.816.18-30.324,12.991-31.289,31.888a105.472,105.472,0,0,1-1.456,14.437c-1.407,7.324-7.554,11.3-15.5,10.613-9.088-.792-13.342-4.672-13.638-12.439-1.34-35.165,22.414-64.307,57.362-67.719,32.14-3.138,46.047,8.231,53.8,33.672.467,1.537.869,3.093,1.318,4.635,3.878,13.324,3.471,27.468,7.223,40.722,9.238,32.636,31.825,54.832,59.374,72.539,7.335,4.713,16.121,4.848,24.8,3.229,17.157-3.2,31.628-12.243,46.2-21.03A67.767,67.767,0,0,1,876.232,252c8.04-.648,16.111-.9,24.155-1.5,27.4-2.048,47.036-14.615,55.96-41.558,1.516-4.578,3.01-9.164,4.389-13.784,9.747-32.638,19.106-26.622,47.99-60.929,7.843-9.32,18.261-13.545,30.072-15.234,14.57-2.095,29.2-3.987,43.609-6.948,33.338-6.847,66.538-14.727,97.644-28.864C1216.919,66.427,1234.4,30.733,1240.825,0h-18.7a136.988,136.988,0,0,1-8.151,24.1c-12.115,27.054-34.012,41.874-61.371,50.583-38.21,12.182-76.892,22.055-116.846,26.373-17.015,1.845-31.244,8.831-41.975,22.543-22.122,28.281-40.163,28.46-49.666,63.792-1.314,4.878-2.753,9.742-4.485,14.485-7.558,20.7-19.97,29.653-42.019,30.669-8.752.4-17.507.825-26.239,1.518-12.929,1.027-24.421,6.071-35.294,12.9-10.128,6.367-20.329,12.6-31.887,16.259-10.994,3.486-20.959,1.955-29.844-5.375a168.161,168.161,0,0,1-31.791-34.463c-7.829-11.389-10.028-24.581-11.692-37.877-1.6-12.825-4.164-25.408-9-37.429-10.617-26.39-28.946-38.135-60.084-38.648-38.269-.631-72.632,25.637-81.159,62.163a81.68,81.68,0,0,0-1.775,20.6c.248,10.432-3.579,14.948-12.446,15.4-8.449.432-14.556-5.09-15.441-14.306-.959-9.992.607-19.759,3.3-29.355a77.992,77.992,0,0,1,14.533-28.772,200.531,200.531,0,0,1,44.627-40.034,52.717,52.717,0,0,1,32.036-9.186c16.791.8,33.545,2.358,50.319,3.544,14.337,1.015,24.352,8.707,31.935,20.343C739.788,128.362,747.533,148.7,752.96,170c2.835,11.128,5.157,22.4,8.368,33.415,3.561,12.22,9.866,22.849,21.039,29.79,20.071,12.471,48.049.186,51.581-22.643a29.288,29.288,0,0,0-3.421-19.414c-17.311-29.312-26.8-61.979-40.474-92.836-5.842-13.176-14.094-24.775-23.616-35.546-5.6-6.329-9.892-13.3-9.453-22.3.4-8.244,4.523-14.261,11.487-16.308a17.574,17.574,0,0,1,19.348,7.332,22.368,22.368,0,0,1,3.426,6.747c5.558,22.524,17.13,42.609,25.6,63.942,11.447,28.846,26.339,56.207,36.091,85.788,4.849,14.711,15.553,23.4,31.49,23.563,15.387.156,27.98-5.671,34.859-20.29,18.855-40.069-17.886-37.194-46.668-111.36-7.235-18.63-15.76-36.761-23.677-55.134-2.409-5.6-4.393-11.266-4.393-17.2A19.922,19.922,0,0,1,845.971,0h-19.3a24.167,24.167,0,0,0-.615,5.241C826.052,15.317,828.894,24.8,833.175,34.049ZM1365.834,424.9a87,87,0,0,0-2.9,23.143c0,11.489,1.763,23,3.673,34.427,3.968,23.761,15.143,43.7,32.444,60.347a85.955,85.955,0,0,1,9.725,10.768c3.968,5.4,5.96,10.971,5.96,16.323,0,7.216-3.615,14.054-10.814,19.562-13,9.947-26.851,18.8-42,25.109-17.458,7.27-31,18.51-40.5,34.953-6.5,11.257-15.373,20.65-25.072,29.315-6.1,5.444-12.64,7.3-20.355,4.53-9.928-3.561-19.663-3.127-29.73.019-7.1,2.219-15.243,2.564-20.212-3.821-2.757-3.541-3.126-8.876-3.463-13.229-.385-5-.353-10.057-1.244-15.012a40.877,40.877,0,0,0-14.718-24.5c-7-5.553-16.923-6.7-25.429-4.578-8.442,2.1-16.353,7.453-20.6,15.159a139.911,139.911,0,0,0-8.207,18.205c-6.328,16.78-18.989,24.506-36.129,26.851-11.8,1.615-23.551,1.128-35.176-.329-21.561-2.7-43.277-1.9-64.869-3.763-16.865-1.453-32.927-6.365-49.259-10.1-20.607-4.721-39.209-.823-56.233,11.5A129.9,129.9,0,0,0,882.58,707.2c-29.407,39.379-29.724,37.611-79.343,56.827-24.011,9.3-47.922,18.821-71.359,29.517-18.458,8.424-30.657,22.175-37.087,41.4-3.424,10.237-7.309,20.345-11.481,30.3-10.859,25.926-30.686,43.279-54.871,56.243-30.591,16.4-63.421,26.9-96.636,36.337-28.084,7.979-55.957,16.557-83.133,27.32a140.479,140.479,0,0,0-41.177,24.855c-13.9,12.141-28.1,23.912-42.921,34.9-27.549,20.423-47.754,47.156-65.649,75.9-7.426,11.926-15.092,23.721-22.031,35.927-15.793,27.776-38.411,47.8-66.923,61.926-24.327,12.05-48.069,25.275-72.268,37.6-26.007,13.24-45.153,32.866-57.964,59.076a371.138,371.138,0,0,1-22.347,39.7c-17.364,26.652-39.932,30.089-57.39,36.03v21.72a51.107,51.107,0,0,1,15.415-6.806c30.046-7.9,50.7-27.039,65.16-53.755,5.806-10.728,11.857-21.33,17.375-32.2A103.782,103.782,0,0,1,143.274,1274c26.479-13.921,52.794-28.163,79.479-41.673a163.365,163.365,0,0,0,68.187-63.756c12.229-20.586,24.561-41.131,38.393-60.727a217.487,217.487,0,0,1,45.567-47.931c14.47-11.065,28.871-22.241,42.368-34.48,19.7-17.855,44.113-26.1,68.525-34.492,34.765-11.953,70.817-19.784,105.2-32.97q18.366-7.045,36.2-15.3c40.73-18.766,69.049-48.607,81.3-92.207,6.3-22.417,19.844-36.617,41.4-45.387q44.4-18.058,89.05-35.432c18.067-7.043,33.037-17.935,44.411-33.821a263.058,263.058,0,0,1,25.52-30.89c17.729-18.157,38.411-24.743,62.911-16.87,29.62,9.519,60.341,9.38,90.894,10.945,8.507.436,16.99,1.346,25.477,2.105,14.57,1.3,28.962.655,43.15-3.286,17.628-4.9,29.811-15.814,36.83-32.632,2.3-5.51,4.317-11.173,7.06-16.457,2.957-5.7,7.893-9.2,14.574-8.641,6.748.564,10.52,5.165,12.861,11.1,5.846,14.832,3.04,23.846-10.235,32.118a59.6,59.6,0,0,0-16.312,14.78c-10.227,13.618-23.462,21.524-40.482,23.729-15.248,1.976-30.329,7.4-45.8,4.7-26.267-4.583-52.857-2.868-79.2-5.356-14.027-1.326-27.254-6.473-41.087-8.84-19.6-3.356-36.44,1.589-50.617,15.567a106.263,106.263,0,0,0-20.478,28.528c-7.68,15.445-19.859,24.389-36.015,29.936q-46.62,16.006-91.925,35.608c-20.644,8.925-34.628,23.794-42.371,44.813-2.78,7.548-5.866,14.992-9.037,22.387-8.678,20.237-22.832,36.007-40.126,49.3-30,23.059-64.624,36.8-99.637,49.746-30,11.09-61.481,17.273-91.7,27.673-21.524,7.407-41.594,17.345-59.411,31.613q-19.974,15.993-39.92,32.026c-27.231,21.9-46.807,49.99-64.4,79.681-5.869,9.9-11.91,19.709-17.663,29.68-15.188,26.327-36.58,45.913-63.6,59.683-25.009,12.744-50.163,25.2-74.817,38.652-24.023,13.11-42.635,31.16-54.683,55.822-.1.206-.267.38-.371.585-17.434,34.555-38.708,58.416-59.038,73.694H84.633c.448-.425.852-.8,1.349-1.281,18.518-17.947,30.822-40.139,42.166-62.827,11.581-23.165,28.88-40.193,51.76-51.921,22.937-11.756,45.634-24,68.751-35.387,32.674-16.1,57.606-39.972,75.6-71.585,11.158-19.608,22.552-39.113,35.637-57.557,10.731-15.126,22.853-28.99,37.176-40.786,14.768-12.163,29.754-24.067,44.743-35.959,23.64-18.756,51.614-28.073,80.162-35.6,46.611-12.279,92.109-27.349,134.815-50.036a272.013,272.013,0,0,0,31.4-20.106c25.463-18.388,43.838-42.29,53.333-72.137,7.946-24.978,24.191-40.291,48.321-49.03,28.954-10.487,57.5-22.1,86.435-32.654,15.272-5.569,26.767-14.879,34.436-29.149a195.191,195.191,0,0,1,13.739-22.351c12.229-16.866,28.488-23.207,48.426-17.344a237.855,237.855,0,0,0,75.734,9.2,104.674,104.674,0,0,1,25.422,2.364c18.4,3.956,36.586,2.491,54.728-1.728,5.144-1.2,10.386-2.015,15.615-2.8,16.985-2.537,30.582-10.754,41.416-23.981a113.724,113.724,0,0,1,15.06-15.706c4.6-3.821,9.666-7.4,15.95-5.108,5.62,2.045,8.022,7.3,7.923,13.006-.105,6.08-2.188,12.754-7,16.706-3.4,2.8-7.529,4.525-11.46,6.512-7.723,3.9-13.879,10.1-16.337,18.537-2.609,8.953-1.134,18.635,1.489,27.4,3.557,11.882,8.344,23.395,10.535,35.687,1.527,8.574-.657,13.078-7.692,15.316-7.914,2.516-15.6-.488-18.855-7.275-2.086-4.354-1.883-8.993-1.733-13.581.29-8.813-.286-17.524-2.9-25.971-4.567-14.753-16.576-22.258-31.923-20.159-17.628,2.413-27.155,12.546-27.577,28.892-.2,7.719,1.384,15.111,3.3,22.452a38.619,38.619,0,0,1,1.186,10.943c-.216,7.49-5.04,12.538-12.4,13.224-6.72.626-12.311-3.556-14.3-10.421-2.146-7.412.63-14.65.54-21.982-.045-3.677.429-7.389.07-11.027-2.264-22.928-19.928-34.52-41.688-26.855-8.877,3.128-17.246,4.068-26.2.892-6.693-2.373-13.7-1.239-20.563-.451-5.269.6-10.173-.209-14.508-3.226-17.6-12.253-33.06-8.206-43.334.351-13.909,11.587-18.785,30.787-12.213,48.309,4.841,12.907,12,24.792,16.165,38.059,5.07,16.171,1.9,29.606-10.021,41.722-15.831,16.083-34.629,24.736-57.176,25.375a75.253,75.253,0,0,0-19.683,3.344c-16.789,5.091-24.39,15.3-24.623,33.008-.088,6.71-1.037,12.943-6.7,17.365-21.919,17.114-40.386,37.794-59.634,57.662-13.791,14.235-29.39,25.876-47.768,33.48a69.075,69.075,0,0,1-13.89,3.956c-4.916.9-9.161-.8-11.632-5.5-2.382-4.527-.94-8.584,2.12-12.112,4.148-4.782,9.5-8.085,15.136-10.73,35.527-16.69,60.253-45.762,85.287-74.414a64.54,64.54,0,0,0,13.048-24.954c8.007-28.253,29-39.2,55.639-43.329,10.21-1.582,20.576-2.392,30.508-5.554,19.462-6.2,30.047-22.836,25.777-40.566-5.651-23.46-22.943-33.7-45.272-24.489-24.869,10.253-50.218,19.213-75.045,29.508-18,7.463-32.341,19.843-38.708,38.333-20.535,59.645-67.857,90.87-120.984,116.121a590.244,590.244,0,0,1-120.864,42.085c-40.357,9.327-73.2,32.395-104.257,58.764-28.459,24.163-49.341,53.919-67.209,86.181-2.789,5.035-5.779,9.961-8.508,15.027-19.181,35.6-47.669,60.965-84.259,77.846-21.932,10.119-43.632,20.754-64.472,33.081a121.992,121.992,0,0,0-46,47.609c-8.4,15.438-17.68,32.818-30.527,49.3H140c14.81-21.717,24.553-43.055,35.826-57.9,9.391-12.366,22.318-20.495,35.592-28.073a478.818,478.818,0,0,1,48.041-24.289c46.058-19.806,80.873-51.372,103.564-96.262,4.768-9.435,10.425-18.441,15.961-27.468,29.66-48.368,70.653-84.089,122.223-107.307,20.78-9.355,43.4-13.518,65.445-19.114,31.418-7.977,60.288-22.462,89.721-35.378,29.078-12.761,55.229-30.4,78.732-51.843,18.5-16.881,33.364-36.436,41.384-60.347,7.935-23.656,24.227-37.79,47.372-45.347,18.8-6.137,37.5-12.59,55.142-21.712a34.616,34.616,0,0,1,6.491-2.29c8.868-2.515,16.169.317,19.3,7.4,3.53,7.988.543,16.951-7.339,21.432-7.409,4.212-15.8,4.784-23.983,5.876-14.667,1.953-28.92,5.321-42.408,11.539-15.674,7.226-26.226,19.259-32.406,35.17-16.941,43.622-49.922,72.562-88.435,96.249-9.067,5.577-18.258,10.681-25.364,18.833-3.947,4.529-9.081,6.672-15.153,7.3-8.5.878-16.959,2.72-24.286,7.281-29.559,18.4-62.291,27.951-95.876,35.55-70.32,15.91-121.071,57.827-156.811,119.293-5.9,10.147-11.417,20.516-17.081,30.8-21.939,39.823-54.435,68-95.617,86.535-16.574,7.459-33.177,14.817-49.029,23.788-20.122,11.387-36.433,26.571-47.725,46.857-4.5,8.077-9.172,15.837-13.957,23.428h21.2c15.814-26.6,27.518-47.013,71.573-66.171,7.382-3.21,14.662-6.654,22.051-9.846,49.427-21.35,87.048-55.39,111.684-103.508a367.87,367.87,0,0,1,20.905-36.566c34.21-51.335,80.472-85.344,141.484-98.064,33.3-6.942,65.3-17.318,94.475-35.362,5.858-3.623,12.344-6.229,19.457-6.524,4.209-.173,7.731,1.027,9.918,4.942,2.306,4.128,1.636,8.012-1.033,11.653-3.63,4.951-8.726,8.166-13.882,11.229-31.189,18.521-64.869,30.417-100.366,37.328-65.957,12.842-112.449,51.079-143.445,109.627a26.2,26.2,0,0,0-1.309,2.433c-17.033,42.622-48.1,73.534-83.591,100.941-13.169,10.17-27.9,16.84-43.284,22.523-16.891,6.241-33.309,13.471-47.645,24.618-9.512,7.394-18,18.162-26.793,30.747H243.1a86.455,86.455,0,0,1,20.244-19.762c14.061-9.941,30.058-15.915,46.079-21.663a135.852,135.852,0,0,0,43.986-25.366c2.26-1.969,4.452-4.034,6.846-5.829,34.249-25.671,59.692-57.941,77.786-97,17.464-37.7,44.916-67.257,82.326-86.687,20.661-10.731,43.2-15.58,65.661-20.357,32.08-6.821,61.731-19.448,90-35.719a66.3,66.3,0,0,0,16.821-14.216c4.659-5.343,10.467-7.811,17.519-8.435,17.821-1.578,32.66-10.473,47.051-20.147,13.5-9.077,24.552-20.906,35.514-32.756,13.953-15.086,29-29.037,44.025-43.016,5.536-5.149,11.394-8.456,19.292-6.511,16.478,4.056,32.362-.167,48.412-3.334,30.489-6.017,54.753-22.017,74.775-45.2,1.809-2.093,3.776-4.062,5.465-6.247,9.858-12.757,22.437-20.761,38.56-23.38,13.831-2.247,26.982-7.684,40.964-9.349,4.334-.516,8.8-1.244,13.072-.761,22.111,2.5,43.592-.829,64.942-6.142,7.2-1.791,14.552-1.958,21.971-1.522,16.984,1,33.875,2.942,50.749,4.956,6.5.774,13,1.557,19.566,2.312,7.447.857,14.9,1.67,22.358,2.35,53.482,4.871,95.485-16.633,124.275-62.511,10.279-16.4,18.344-34.026,27.663-50.958,3.776-6.86,6.286-11.45,8.305-14.947V734.271a198.124,198.124,0,0,0-21.786,32.431c-9.68,17.527-18.593,35.488-28.512,52.868-18.63,32.642-47.31,50.838-84.2,56.1-14.265,2.035-28.606.318-42.612-2.606a205.179,205.179,0,0,0-29.343-3.609c-11.753-.931-23.525-1.574-35.184-3.209-20.473-2.872-39.782,1.554-59.3,6.141a85.163,85.163,0,0,1-27.49,1.566c-14.534-1.343-28.894-.829-43.109,3.388-11.436,3.392-23.174,5.777-34.8,8.522-12.206,2.882-22.778,8.573-31.25,17.925-6.037,6.665-12.135,13.28-18.021,20.08-20.318,23.471-47.344,33.268-76.893,38.145a88.086,88.086,0,0,1-21.32,1.333c-8.65-.683-12.248-6.05-9.87-14.3,2.548-8.838,9.456-11.942,17.582-13.359,10.43-1.818,21.112-1.548,31.482-4.042,25.827-6.212,44.906-21.729,59.316-43.335,8.755-13.124,7.591-27.4,3.269-41.858-3.709-12.4-9.185-24.034-14.525-35.75-3.936-8.633-6.074-17.419-1.433-26.58,3.849-7.6,10.26-11.295,18.521-10.492,9.966.966,15.18,7.334,13.089,17.039-3.718,17.253-1.466,33.878,4.469,50.165,6.419,17.62,18.314,24.44,36.655,21.375,17.532-2.93,26.932-14.482,27.144-32.763.132-11.408-3.328-22.281-4.339-33.5-1.043-11.577,7.872-18.171,18.563-13.82a12.46,12.46,0,0,1,8.03,10.4c1.053,7.175-.069,14.274-.847,21.351a49.661,49.661,0,0,0,1.473,19.168c4.719,16.563,22.175,24.4,40.914,18.682,17.526-5.349,24.4-18.894,20.187-39.553-1.374-6.738-3.974-13.241-3.793-20.286.207-8.046,4.494-13.274,11.555-13.886,6.544-.567,11.622,3.731,13.563,11.211,1.891,7.287.994,14.693,1.136,22.045.291,15.082,7.482,30.688,23.485,33.985a34.047,34.047,0,0,0,10.843.372c4.428-.524,8.252-2.23,12.5-3.3a40.754,40.754,0,0,1,15.956-.759c5.362.8,9.8,3.421,14.863,4.848,11.2,3.161,22.323,5.617,34.032,5.7a95.712,95.712,0,0,0,44.213-10.59c16.139-8.244,27.35-21.582,36.605-36.77,9.476-15.558,16.849-32.213,24.951-48.481,15.313-30.769,31.892-46.065,44.227-55.675V677.478c-27.186,19.224-49.919,47.6-63.725,77.1-7.308,15.622-14.652,31.252-24.194,45.712-11.451,17.343-26.741,29.306-47.65,32.319-18.067,2.6-35.792.1-52.91-6.358a13.452,13.452,0,0,1-9.19-12.651c-.584-11.8-3.962-23.346-8.144-34.33-2.926-7.681-6.094-17.09-3.52-25.286a16.718,16.718,0,0,1,6.018-8.371,17.7,17.7,0,0,1,12.828-3.288c4.4.592,7.592,4.705,9.556,8.414a13.469,13.469,0,0,1,1.477,6.4,41,41,0,0,1-1.053,7.817,55.287,55.287,0,0,0-1.171,10.809,36.818,36.818,0,0,0,1.08,9.043c5.407,21.361,26.52,31.012,48.139,22.211,10.436-4.251,18.039-11.765,24.351-20.781a214.812,214.812,0,0,0,22.2-41.256c16.84-40.757,44.466-71.631,83.359-92.43l2.548-1.672V629.376c-16.619,10.77-53.706,29.321-78.691,65.315a229.008,229.008,0,0,0-23.752,42.719,205.109,205.109,0,0,1-20.6,38.228c-4.669,6.722-10.187,12.5-18.345,15.073-11.893,3.737-21.453-2.8-22.126-15.22-.074-1.293-.111-2.5-.111-3.618,0-10.278,3.211-13.721,14.635-17.638a42.7,42.7,0,0,0,21.478-15.763,40.68,40.68,0,0,0,5.6-11.977c1.924-6.869.4-14.262,2.278-21.042,1.666-6.016,5.755-10.665,10.871-14.084,10.7-7.151,18.852-17.126,25.329-28.051,9.431-15.917,22.422-26.833,39.364-34.224,10.029-4.38,30.236-14.865,44.07-27.218v-66.33c-12.115-12.8-27.658-26.233-33.052-55.88a164.755,164.755,0,0,1-3.166-29.583,95.355,95.355,0,0,1,.692-11.663c2.695-21.792,16.515-38.887,35.526-54.605v-23.2C1392.739,379.273,1372.69,399.775,1365.834,424.9ZM1027.241,794.632c1.018,9.808,2.119,19.591,3.618,29.35,1.917,12.491-4.474,20.683-15.11,20.5-7.217-.12-11.305-4.309-13.785-10.545-3.628-9.123-4.1-18.753-4.162-28.4,0-3.444-.194-6.9.038-10.33.613-9.1,4.675-12.9,13.509-12.93C1021.208,782.249,1026.359,786.148,1027.241,794.632Zm252.428-83.317a31.256,31.256,0,0,1-1.91,9.771c-2.871,8.461-8.554,14.062-16.748,17.191-9.19,3.506-19.783-1.408-20.78-10.976a69.683,69.683,0,0,1-.4-7.054c0-14.673,6.192-21.773,22.164-21.34C1273.864,698.907,1279.669,702.95,1279.669,711.315ZM256.309,28.383a91.715,91.715,0,0,1-20.952,28.089A135.043,135.043,0,0,0,209.963,88.2c-8.676,15.2-22.64,26.716-36.27,37.3-12.89,10.01-25.753,22.683-39.855,30.613-26.395,14.84-48.861,18.937-60.692,50.492-4.141,11.048-7.559,22.341-8.009,34.093-.794,20.737-9.453,35.731-28.251,45.429-11,5.674-20.986,13.3-31.48,19.973C3.55,307.275,1.812,308.453,0,309.63v21.478c21.616-14.465,43.6-26.221,66.172-43.9,8.227-6.441,12.684-15.656,14.206-26.094,1.394-9.561,2.475-19.174,4.121-28.69,5.069-29.3,18.235-42.935,44.7-53.533,19.365-7.755,35.6-21.408,50.977-35.169,14.842-13.284,33.826-25.782,43.547-43.387A128.618,128.618,0,0,1,250.5,67.1c8.106-7.328,15.207-15.632,19.612-25.653C279.33,20.485,293.005,6.443,313.267,0H276.825C268.6,7.144,261.971,16.278,256.309,28.383Zm654.81,81.256a45.855,45.855,0,0,0,6.2,9.929c11.728,15.225,27.462,18.565,42.391,9.163,12.161-7.659,18.9-19.544,18.9-31.668a33.358,33.358,0,0,0-3.479-14.755c-3.488-7.114-8.646-13.029-13.665-19.026C948.256,47.529,939.616,23.9,933.085,0H914.65c5.308,20.929,13.742,43.615,18.163,52.772,4.751,9.844,11.358,18.389,18.435,26.62,4.079,4.761,7.8,9.743,8.434,16.314l.084,1.744a17.431,17.431,0,0,1-11.138,16.342c-6.7,2.528-12.945.285-17.956-6.524a23.143,23.143,0,0,1-2.9-4.7c-9.726-23.585-19.757-47.051-28.873-70.866-1.453-3.8-3.06-17.883-7.4-31.706H873.022c3.862,10.587,4.143,27.1,8.911,38.976C891.418,62.626,901.237,86.146,911.119,109.639Zm118.47-31.1c35.507-3.858,70.534-10.205,103.956-23.391,16.507-6.514,32.858-13.481,46.376-25.431,9.061-8.015,16.5-17.48,19.255-29.721h-18.857a31.91,31.91,0,0,1-6.146,9.421c-7.927,9.642-18.557,15.613-29.556,20.983-34.473,16.84-71.429,24.194-109.1,29.361-18.8,2.576-31.318-4.586-40.572-20.364C984.353,21.342,979.883,10.535,977.549,0H959.036a134.747,134.747,0,0,0,35.48,67.489C1003.956,77.26,1016.541,79.955,1029.589,78.543ZM49.616,51.026C17.671,63.464,7.027,71.126,0,80.891v36.875c2.239-4.287,4.75-9.051,7.589-14.392,7.456-14.025,18.432-23.8,33.39-29.223,6.458-2.335,12.788-5.047,19.128-7.714C99.894,49.721,123.28,24.614,140.067,0H117.649C102,20.08,80.99,38.813,49.616,51.026ZM0,21.009v18.46c5.517.014,13.036,2.029,27.539-4.617,15.28-7,30.123-14.829,43.881-24.537C76.378,6.819,77.963,6.351,84.644,0H53.714C38.562,11.387,13.128,24.224,0,21.009ZM85.592,129.69c-24.965,10.218-41.462,36.984-49.714,61.359C31.1,205.162,27.018,219.518,22,233.543c-4.115,11.509-10.5,18.12-22,26.317v22.252c20.982-13.925,35.43-26.05,41.667-49,3.247-11.946,6.819-23.841,11.006-35.486C78.542,125.68,109.405,162.489,184.81,80.019c36.365-39.764,45.1-62.4,58.238-80.019H220.692C192.852,39.865,161.928,98.451,85.592,129.69ZM70.705,88.343c-26.225,10-45.03,27-56.786,52.264-.747,1.607-1.553,3.185-2.321,4.782-2.919,6.067-7.21,14.1-11.6,24.512v49.263a142.647,142.647,0,0,0,5.744-13.292c7.3-18.781,14.753-37.456,23.514-55.652.021-.045.04-.092.062-.138,10.413-21.609,25.966-36.7,48.716-44.983,28.891-10.537,52.614-28.9,73.408-51.266C170.688,33.123,181.31,15.505,190.526,0H169.459C144.671,39.344,115.05,71.415,70.705,88.343ZM678.041,3.654c6.048-.277,11.995-.424,17.693,1.882,5.426,2.2,8.673,6.146,8.673,11.923l-.022.867c-.355,6.476-3.955,10.592-10.3,12.253a24.8,24.8,0,0,1-10.953.5c-10.174-1.882-20.406-3.451-30.524-5.591-19.733-4.152-38.838-4.77-56.241,7.806-27.142,19.6-53.246,40.416-76.5,64.61-28.705,29.888-34.783,83.037-22.619,120.617,3.9,12.061,5.438,24.267,2.407,36.716a168.29,168.29,0,0,0-4.388,44.524c.244,9.326-1.585,18.406-6.479,26.511-9.886,16.374-21.012,31.932-32.071,47.521a36.057,36.057,0,0,1-7.86,7.716c-11.529,8.618-24.692,8.13-34.231-2.63-23.4-26.4-46.792-52.955-55.472-88.655a58.381,58.381,0,0,0-3.609-9.681c-7.926-17.883-23.391-26.45-41.054-22.843-16.712,3.413-30.16,20.328-30.84,37.978-.474,12.313,4.763,21.976,13.2,29.982,13.342,12.664,24.094,27.183,33.4,42.956a147.127,147.127,0,0,0,27.805,34.227,53.339,53.339,0,0,1,6.1,6.59c6.528,8.367,6.212,17.16-.668,22.728-7.136,5.773-16.815,4.738-23.558-2.588-3.951-4.3-6.352-9.562-8.986-14.679-13.14-25.537-29.613-48.805-48.349-70.492-11.529-13.345-26.065-19.787-43.913-19.275-11.5.328-23.028.615-34.549-.571-25.3-2.6-49.69-9.177-73.942-16.385-13.335-3.963-26.66-7.35-40.652-3.673-10.444,2.744-19.175,8.787-28,14.627C40.987,332.712,19.12,346.107,0,360.615v23.26C20.513,366.9,47.027,351.522,72.178,333.6c16.83-11.992,33.707-14.361,53.383-8.065,34.476,11.031,69.607,19.734,106.3,17.626,18.77-1.078,32.8,6.11,43.934,20.982,14.654,19.57,29.205,39.136,40.091,61.166,3.366,6.811,7.225,13.4,12.624,18.893,10.375,10.564,25.129,13.124,38.806,6.752,14.022-6.534,21.674-19.162,20.244-33.712-.88-8.972-6.124-15.732-11.9-22.083C368.07,386.8,359.274,379.49,353.006,370c-13.7-20.742-26.4-42.13-44.9-59.359-6.952-6.474-7.859-15.537-3.311-24.292,3.7-7.121,9.781-11.2,17.924-10.719,9.986.59,14.716,7.648,17.7,16.133,2.514,7.152,4.3,14.575,7.079,21.615,12.8,32.419,35.748,57.729,58.785,82.909a27,27,0,0,0,14.315,7.926c20.6,4.511,37.66-1.92,49.943-18.544,12.3-16.651,23.424-34.195,34.668-51.6,6.135-9.5,8.32-20.283,8.364-31.6.034-8.969-1.3-18.084.93-26.892,6-23.71,4.444-46.438-1.454-70.549C502.208,160.715,514.5,125.2,543.68,99.434c19.027-16.813,38.4-33.1,58.729-48.3,12.286-9.189,25.766-11.423,40.54-8.766,13.8,2.483,27.6,5.243,41.518,6.8,12.319,1.384,24.494-.554,31.917-11.968,4.255-6.552,6.626-13.407,6.626-20.412A27.842,27.842,0,0,0,717.93,0H644.907C652.55,2.855,663.266,4.336,678.041,3.654ZM1375.79,163.545a114.529,114.529,0,0,1-42.1,52.541c-26.6,18.332-52.5,37.683-79.515,55.439-2.063,1.373-4.1,2.783-6.189,4.124-4.914,3.158-9.976,6.7-16.011,4.584-16.334-5.72-32.17-2.983-48.083,1.689-10.573,3.1-21.318,5.626-31.88,8.766-18.393,5.466-31.776,17.011-40.726,33.976-8.928,16.924-15.052,35.073-23.286,52.291-2.183,4.564-4.538,9.045-6.808,13.568-10.15,20.228-26.959,29.774-49.138,31.712-29.1,2.541-58.225,4.933-86.71,12.179-21.756,5.535-40.83,15.779-53.589,34.218C872.4,496.612,848.766,519.3,819.6,536.883c-15.031,9.062-26.945,22.431-38.566,35.537-38.116,42.987-89.027,60.663-142.819,72.075-18.323,3.887-37.177.821-55.753-1.489-21.2-2.635-42.307-7.049-63.915-3.656-10.8,1.7-21.237,4.585-30.69,9.85a366.8,366.8,0,0,1-102.241,38.4c-23.555,5.047-43.64,17.892-64.271,29.6-29.105,16.515-57.663,33.647-82.784,56.065A106.783,106.783,0,0,1,208.8,791.962c-39.734,16.642-68.22,46.36-93.731,79.591-15.184,19.778-27.231,41.631-40.421,62.709-17.164,27.429-39.21,49.308-68.4,63.658-7.087,3.483-2.414,1.388-6.246,3.308v20.226c37.638-18.417,67.616-38.315,94.236-84.072,17.737-30.488,36.865-60.028,61.558-85.692,14.733-15.312,30.719-28.46,49.954-37.549a259.126,259.126,0,0,0,61.527-40.557c19.852-17.6,44.121-28.315,66.183-42.47C358.414,715.1,385.582,705.175,414.4,698.9c22.6-4.919,44.3-12.929,64.045-24.911,27.943-16.955,57.71-21.276,89.051-14.7,49.948,10.484,96.988,2.264,143.436-17.518,31.982-13.62,60.391-31.162,83.525-57.218a243.049,243.049,0,0,1,57.806-47.926,118.965,118.965,0,0,0,35.695-33.249,68.865,68.865,0,0,0,4.065-5.587c20.3-35.139,52.735-48.8,91.277-52.219,20.17-1.787,40.282-4.28,60.383-6.767,20.973-2.6,36.807-13.42,48.347-30.968,10.065-15.307,16.454-32.35,23.644-49.025,3.278-7.6,6.585-15.2,10.142-22.669,7.141-15.006,18.758-24.653,34.846-29.165,15.048-4.221,30.046-8.61,45.439-11.4a43.709,43.709,0,0,1,10.3-.667c5.336.315,11.164.827,12.6,7.365s-1.417,11.782-7,15.294c-5.843,3.672-12.651,3.956-19.242,4.907-4.779.689-9.577,1.259-14.344,2.026-28.556,4.594-44.533,23-53.4,49-7.789,22.831-18.539,43.834-33.5,63.049-14.248,18.3-32.374,25.987-54.785,27.261-27.77,1.579-55.68,2.072-82.919,9.122-21.072,5.452-38.762,16.387-49.448,35.023-14.992,26.147-35.232,45.218-62.243,58.534-17.9,8.825-32.016,23.472-44.842,38.622-22.686,26.8-50.932,44.71-83.643,56.624-19.423,7.076-38.176,16.023-58.12,21.671-27.127,7.681-54.53,7.313-82.119,2.436-23.684-4.187-47.447-6.961-71.091.578a137.741,137.741,0,0,0-22.847,9.62,302.2,302.2,0,0,1-75.355,28.2c-40.977,9.28-77.15,28.851-110.131,53.978-28.116,21.422-57.106,41.169-87.945,58.437-35.494,19.875-61.074,50.051-83.192,83.434-9.8,14.784-19.514,29.636-28.709,44.8a173.281,173.281,0,0,1-75.3,68.062s2.028-.62-28.821,14.206v20.863c41.259-19.243,78.468-39.392,100.942-67.685,11.2-14.1,20.748-29.333,30.467-44.452,6.851-10.658,13.656-21.35,20.727-31.861,22.641-33.653,50.919-61.082,87.184-80.051,23.113-12.09,44.455-26.959,64.947-43.177,29.966-23.715,61.949-44.475,99.256-54.482,34.99-9.383,69.166-20.29,101.318-37.324,20.664-10.949,43.369-11.418,65.476-6.679,49.423,10.6,96.448,4.606,142.046-16.425,12.1-5.579,24.593-10.307,36.957-15.3,23.7-9.568,44.267-23.651,61.189-42.8,21.406-24.223,45.177-45.284,74.58-59.572,12.687-6.167,22.25-16.265,29.8-28.189,3.572-5.645,7.314-11.188,10.71-16.935,13-22.009,33.161-32.271,57.667-35.9,22.847-3.386,45.894-3.965,68.873-5.514,23.785-1.6,43.787-10.024,59.543-29,17.777-21.413,31.247-44.869,39.871-71.237,1.069-3.268,2.615-6.379,3.884-9.585,7.036-17.783,20.458-27.174,39.046-29.936,8.413-1.249,16.865-2.408,25.163-4.232,17.467-3.84,25.271-12.268,27.012-30.139.807-8.287,4.571-13.392,11.461-17.5,3.372-2.01,6.61-4.217,9.93-6.3,0-.014-.006-.03-.011-.045,29.864-18.758,57.877-40.2,86.514-60.746,18.464-13.25,29.3-32.037,37.979-52.485,6.87-16.162,9.149-22.74,24.8-52.7v-36.9c-2.927,4.062-5.222,8.489-8.157,13.78A638.809,638.809,0,0,0,1375.79,163.545Zm17.716-143.854a24.943,24.943,0,0,1,1.237,7.409,18.392,18.392,0,0,1-2.473,9.256c-19.267,34.086-35.913,69.491-53.084,104.638-6.5,13.287-19.895,33.145-34.124,43.83-16.406,12.319-33.061,24.295-50.179,35.6a90.384,90.384,0,0,1-24.633,11.823s-50.614,8.916-86.832,16.574c-33.631,7.109-57.108,24.641-69.7,57.032-6.406,16.482-14.438,32.336-21.813,48.439-6.956,15.186-18.545,24.058-35.264,26.6-23.646,3.6-47.341,6.832-70.965,10.623-37.588,6.032-68.446,22.185-89.759,54.54-.506.768-1.149,1.442-1.7,2.178a174.8,174.8,0,0,1-42.4,40.331,265.559,265.559,0,0,0-43.52,37.279c-7.654,8-15.264,16.064-23.35,23.613-35.087,32.752-77.412,48.851-124.654,52.69-21.015,1.707-41.806-2.21-62.585-4.934-18.741-2.458-37.456-5.265-56.281-.6-15.177,3.761-28.523,11.506-41.875,19.193-21.9,12.612-45.05,21.847-69.917,26.692-25.451,4.96-50.012,12.1-71.389,27.769-17.146,12.572-35.842,22.5-55.463,30.719-14.423,6.038-27.28,14.451-37.618,26.324A117.738,117.738,0,0,1,174.8,761.436c-24.167,8.545-44.136,22.452-58.955,43.641-3.8,5.443-8.583,10.265-13.271,15.022-15.156,15.376-27.586,32.729-38.363,51.378-10.372,17.948-20.7,35.952-33.516,52.331C20.622,936.679,11.321,945.276,0,952.887v21.507c28.753-17.608,46.681-36.869,66.189-70.887,17.03-29.7,35.419-58.3,60.054-82.407a33.391,33.391,0,0,0,4.006-4.761c12.846-18.446,30.346-30.386,51.344-37.98a136.254,136.254,0,0,0,56.188-37.812,84.453,84.453,0,0,1,30.029-21.72,373.6,373.6,0,0,0,64.468-35.872,123.534,123.534,0,0,1,44.877-18.849c12.58-2.664,25.053-5.875,37.492-9.15,23.845-6.279,45.1-18.314,66.372-30.284,14.756-8.305,30.372-13.02,47.507-12.115,16.128.849,32.042,3.482,48.029,5.488,19.728,2.475,39.592,4.593,59.26,1.334,53.8-8.917,100.915-30.814,137.6-72.6A278.1,278.1,0,0,1,827.586,499.7c13.886-9.341,25.644-21.029,36.039-34.117q8.82-11.1,17.784-22.092c11.752-14.4,26.739-23.552,44.659-28.5,28.29-7.808,57.26-11.639,86.282-14.792,27.158-2.949,46.75-15.381,57.477-40.878,1.338-3.179,2.812-6.3,4.243-9.44,8.106-17.787,15.222-36.034,24.914-53.083,6.418-11.292,15.531-19.572,27.827-23.621,31.206-10.279,103.746-22.2,108.78-23.679.056-.017.115-.025.171-.042l0-.008a97.7,97.7,0,0,0,29.165-13.84q23.433-16.569,46.874-33.1c21.592-15.17,33.7-31.853,44.6-55.4,15.087-32.582,31.973-64.278,48.011-96.389,4.907-9.815,8.158-11.288,12.918-11.272V21.116c-5.165-1.238-8.434-4.954-8.434-12.212a17.8,17.8,0,0,1,.563-4.309A11.432,11.432,0,0,1,1411.962,0h-20.476a31.141,31.141,0,0,0-.637,6.265C1390.849,10.8,1392.113,15.262,1393.506,19.691ZM1055.462,33.366a186.943,186.943,0,0,0,42.317-9.357C1120.331,16.449,1129.5,8.422,1137.018,0h-29.736c-15.293,9.772-34,14.9-62.671,15.594-11.342.273-18.42-6.174-23.108-15.594h-19.457C1010.647,20.094,1026.76,36.015,1055.462,33.366Zm308.854,317.722c-.918.907-1.733,1.929-2.639,2.85-2.632,2.664-5.318,5.212-7.877,8.042.078.07.158.138.236.209a266.7,266.7,0,0,0-22.088,27.3c-11.169,16.1-13.928,33.225-11.45,51.832,3.188,23.933,6.124,47.926,12.448,71.311a84.828,84.828,0,0,0,17.839,33.94,66.548,66.548,0,0,1,6.2,8.3c4.824,7.732,4.093,15.135-1.732,19.939-6.335,5.223-15.1,5.029-21.552-.54-5.044-4.353-7.774-10.243-10.321-16.175-7.765-18.083-11.4-37.3-15.455-56.418-4.828-22.735-8.684-45.629-12.077-68.612-3.811-25.808-24.585-35.188-44.216-37.153a51.894,51.894,0,0,0-22.46,2.848c-12.739,4.465-21.15,13.1-23.431,26.562s3.245,23.8,14.37,31.341c1.907,1.293,3.749,2.7,5.745,3.837,11.32,6.443,18.09,16.05,20.522,28.836,3.524,18.521,7.943,36.909,9.159,55.785.757,11.766-3.61,17.123-12.9,16.981-8.763-.135-15.957-8.127-14.709-18.126a112.376,112.376,0,0,0-1.657-39.8c-2.624-11.292-7.458-21.255-17.284-28.155-10.674-7.5-23.489-7.792-34.222-.364-16.587,11.481-31.459,37.818-13.353,64.238a103.453,103.453,0,0,0,15.534,17.559c6.666,6.141,7.886,11.584,4.659,18.48-3.022,6.457-9.049,9.284-17.35,8.314-4.807-.561-8.186-2.9-9.917-7.425-.9-2.362-1.7-4.77-2.4-7.2-7.017-24.28-24.782-35.758-48.878-29.046a253.719,253.719,0,0,1-88.215,8.369c-8.953-.678-17.925.4-26.274,4.462-14.554,7.078-22.9,23.743-18.126,37.769,4.708,13.842,16.593,18.451,29.529,20.5,18.616,2.946,37.269-.208,55.906-.652,14.282-.338,28.33-3.82,42.677-3.433a51.662,51.662,0,0,1,8.241.726c10.394,1.977,14.166,5.519,14.156,12.977a18.544,18.544,0,0,1-14.916,18.264c-6.733,1.507-13.456.681-19.94-.443-16.257-2.819-32.587-3.013-48.945-2.48-22.65.735-44.589-2.211-65.37-11.6-18.561-8.388-36.554-6.668-54.575,1.882-22.419,10.636-42.919,24.376-57.718,44.133-22.5,30.038-51.83,48.425-86.754,60.7a682.49,682.49,0,0,0-95.313,41.856c-6.226,3.327-12.258,2.862-18.618.52-8.186-3.013-16.535-3.649-25.012-.858-14.9,4.9-19.417,17.129-21.921,30.8-.663,3.619-1.071,7.284-1.677,10.914-3.1,18.567-14.416,30.331-31.179,37.56-16.742,7.221-34.542,11.143-51.841,16.628-28.458,9.025-57.658,15.788-85.189,27.637-6.538,2.814-12.741,6.4-19.164,9.493-4.132,1.99-8.233,4.108-12.956,4.518-8.116.7-13.733-1.94-16.173-7.765-2.633-6.281-.341-13.409,6.248-18.166,8.2-5.92,18.016-7.952,27.446-10.869,37.1-11.472,74.176-23.019,111.315-34.362,9.869-3.014,20.16-4.592,29.59-9.11,8.619-4.129,15.309-10.122,19.486-18.8,11.38-23.646-1.193-44.971-27.367-46.279a49,49,0,0,0-25.42,5.355C496.6,790.993,454.9,801.716,413.673,813.832c-26.184,7.7-49.289,20.315-66.933,41.781-7.75,9.429-17.608,15.976-28.841,20.84-51.439,22.27-93.125,56.413-124.293,103.138-12.656,18.974-25.273,37.978-37.66,57.129-14.864,22.982-34.463,40.578-58.509,53.578C71.044,1104.567,19.411,1130.222,0,1140.179V1161.1c11.322-8,26.4-13.814,50.169-25.911,19.891-10.124,39.825-20.152,59.379-30.932a165.741,165.741,0,0,0,59.479-54.625c14.57-22.122,28.934-44.4,44.106-66.1,28.416-40.657,65.872-70.441,111.364-90.076,11.76-5.076,23.391-10.594,31.282-20.877,18.987-24.741,45.178-36.884,74.244-44.773,37.948-10.3,75.725-21.147,110.763-39.65A39.581,39.581,0,0,1,556.62,783.6c6.261-.412,12.26.774,15.3,7.069,2.907,6.027,1.164,11.747-2.856,16.735-5.051,6.263-12.294,8.708-19.718,10.589-47.693,12.081-93.83,29.27-141.049,42.914-10.757,3.108-20.382,8.582-27.578,17.521-8.522,10.587-9.334,22.993-2.411,34.723,7.539,12.771,19.4,18.425,33.036,16.069,5.729-.99,11.394-2.408,16.359-5.2,27.965-15.732,58.862-23.318,89.133-32.71,21.058-6.535,42.588-11.573,63.2-19.514,20-7.7,36.726-19.141,44.542-40.412,3.048-8.3,3.733-17.031,5.353-25.6,2.433-12.877,11.573-18.963,22.781-15.412,4.957,1.57,7.661,4.767,7.68,10.159a36.816,36.816,0,0,1-1.561,10.2c-4.784,16.908-11.263,33.13-20.909,47.863-11.933,18.225-30.291,27.809-49.744,35.64C557.2,906.709,524.725,914.5,492.92,924.378c-27.463,8.527-53.849,20-81.058,29.213-11.193,3.791-19.98,11.254-27.751,19.964-9.082,10.18-18.5,20.146-30.12,27.36-36.58,22.7-63.275,54.57-85.563,90.692-7.741,12.543-15.941,24.808-23.5,37.458-14.725,24.65-35.085,42.959-60.579,55.995-26.428,13.512-52.483,27.755-78.942,41.206-24.7,12.558-43.2,30.915-55.626,55.7-6.391,12.744-13.416,25.186-20.548,37.539a63.306,63.306,0,0,1-24.185,24.142c-1.7.95-3.376,1.8-5.049,2.649v19.955c17.876-7.874,32.7-15.8,45.918-39,6.608-11.594,13.132-23.262,19.053-35.215a109.126,109.126,0,0,1,50.255-50.472c23.642-11.887,46.677-25.009,70.5-36.507,34.788-16.793,61.374-41.7,80.362-75.316,9.962-17.635,21.34-34.461,32.911-51.124,15.425-22.208,33.805-41.375,56.393-56.385a209.8,209.8,0,0,0,41.767-36.058c8.965-10.192,20.837-15.288,33.187-20.262,51.683-20.813,105.908-33.832,158.321-52.357,5.2-1.836,10.219-4.162,15.329-6.245,33.373-13.6,53.994-38.768,66.006-72.047,3.69-10.225,7.51-20.382,7.677-31.309.138-8.965,4.786-13.789,12.386-17.218,30.188-13.615,60.324-27.341,91.228-39.3,6.859-2.654,13.6-5.622,20.524-8.1a130.247,130.247,0,0,0,59.619-43.164c15.656-19.885,33.68-37.065,56.312-49.28,17.181-9.273,33.922-11.429,52.124-3.323,18.98,8.454,39.187,11.569,59.934,11.1,21.006-.479,41.908.355,62.706,3.712a44.021,44.021,0,0,0,26.95-3.991c11.365-5.665,17.881-14.888,18.451-27.861.11-2.533.082-5.072.136-7.608.283-13.564,8.343-20.292,21.728-17.746a59.975,59.975,0,0,0,13.749.916c11.69-.475,20.025-6.691,23.772-17.7.959-2.82,1.541-5.765,2.42-8.614,2.334-7.553,6.931-11.349,13.109-10.93,6.367.431,12.739,6.916,13.4,13.827a21.849,21.849,0,0,1-.157,6.206c-4.763,24.194,6.313,43.659,19.563,61.877,8.04,11.056,20.6,13.611,33.644,10.465,14.225-3.432,22.749-13.427,27.207-26.9,3.545-10.719,1.357-20.955-4.275-30.48-6.234-10.541-13.233-20.568-21.943-29.234-5.249-5.224-7.366-11.1-7.108-18.609.91-26.533-5.8-51.982-12.322-77.353-3.047-11.854-10.8-20.644-21.414-26.886a59.541,59.541,0,0,1-9.625-6.687c-9.01-8.078-7.056-19.517,4-24.558,20.42-9.312,42.212,3.214,45.228,25.253a806.919,806.919,0,0,0,22.063,108.706c3.752,13.374,9.641,25.911,19.14,36.351,9.666,10.624,21.767,12.659,34.745,8.092,12.817-4.512,22.763-12.474,24.235-27.229,1.108-11.125-4.463-20.02-11.111-28.159-8.859-10.847-15.851-22.516-19.033-36.347a471.268,471.268,0,0,1-10.873-72.255c-.672-9.417.882-18.489,6.121-26.48a267.031,267.031,0,0,1,26.186-33.594,250.986,250.986,0,0,1,46.83-39.784v-21.5c-19.922,12.943-37.116,26.06-52.945,41.617C1364.356,351.15,1364.338,351.118,1364.316,351.088ZM1193,548.506c-9.288-7.322-16.883-16.435-20.194-28.048-2.31-8.1-.333-15.958,4.7-22.831,3.873-5.285,8.743-8.813,15.729-7.993,6.773.795,10.455,5.413,12.878,11.123,4.112,9.69,4.194,20.11,5.067,29.053-.258,4.986.247,8.663-.864,12.279C1207.819,550.221,1199.625,553.731,1193,548.506Zm-72.277,45.442c-12.219-4.35-24.541-6.215-37.289-4.25-21.011,3.24-42.216,3.583-63.368,4.809-6.477.375-12.915.567-19.284-.752-6.209-1.285-11.521-3.877-12.426-11.055-.731-5.806,3.414-11.294,10.4-13.811,8.976-3.234,18.285-1.085,27.442-1.355,2.758-.081,5.527.238,8.291.373,24.23,1.715,47.581-3.127,70.846-9.146,19.217-4.972,28.247,5.618,31.952,22.259C1139.277,589.963,1130.073,597.279,1120.72,593.948Zm147.618-10.542c5.919,7.936,11.868,15.887,17.178,24.231,4.271,6.717,5.352,14.213,1.638,21.753-5.845,11.866-20.567,13.776-29.261,3.842-7.153-8.174-15-29.612-14.967-40.9-.212-6.964,1.462-12.808,8.841-15.488C1259.277,574.116,1264.258,577.936,1268.338,583.406Zm99.978-340.561c-26.113,16.905-50.99,35.628-75.618,54.663-14.939,11.553-26.63,25.375-31.133,44.292-1.744,7.373-6.718,11.147-14,12.475-8.683,1.584-17.336,3.387-26.016,5-1.033.2-2.064.408-3.1.592-.132.023-.249.063-.379.087-2.474.448-4.883.971-7.2,1.592v.076c-21.541,5.788-36.414,19.072-42.494,42.385-.87,3.335-2.036,6.6-2.771,9.96-2.8,12.782-9.206,23.424-18.525,32.5-8.945,8.718-17.357,18.03-23.179,29.114-8.886,16.92-23.186,24.122-41.437,27.074-26.084,4.22-52.37,3.719-78.563,5.25-32.212,1.883-56.877,14.933-68.563,46.457C928.86,571.84,917.462,583.118,900,589.458c-23.151,8.408-42.506,22.805-59.358,40.614q-11.647,12.308-23.033,24.864A124.332,124.332,0,0,1,772.692,686.4c-12.942,5.4-25.9,10.778-38.931,15.951-30.02,11.916-58.782,27.244-92.127,29.486-19.871,1.336-39.3,2.9-58.8-3.02-26.206-7.956-51.912-5.895-76.37,6.812-25.855,13.435-53.1,22.9-81.292,30.03-34.489,8.724-67.032,21.926-94.018,45.819A313.839,313.839,0,0,1,268.7,854.427,282.451,282.451,0,0,0,157.093,959.014c-10.326,16.891-21.631,33.187-32.612,49.673-13.412,20.137-30.9,35.8-51.978,47.689-20.871,11.77-52.074,27.3-72.5,37.108v20.031c2.265-1.094,3.953-1.912,4.511-2.19,21-10.461,41.873-21.193,62.984-31.427a187.6,187.6,0,0,0,80.188-72.848c8.5-13.964,18.015-27.3,26.643-41.189A260.036,260.036,0,0,1,274.62,872.028c25.314-13.488,49.007-29.087,70.444-48.341,18.769-16.859,41.334-27.573,65.413-34.655,35.489-10.438,71.411-19.42,104.374-37.086,19.751-10.584,40.924-12.571,62.288-5.8,35.675,11.314,71.191,6.268,105.295-4.042,31.759-9.6,61.862-24.626,92.8-36.991,23.341-9.327,43.618-22.879,59.715-42.27,22.906-27.594,49.632-49.768,83.869-62.222,13.577-4.939,22.83-15.164,28.409-28.615,2.466-5.945,5.1-11.838,7.966-17.6,6.277-12.6,16.047-21.237,29.75-24.988a100.5,100.5,0,0,1,22.456-3.506c26.224-1.089,52.481-1.165,78.545-5.367,22.57-3.639,41.351-12.024,52.126-33.672,3.17-6.37,7.049-12.694,12.374-17.41,19.478-17.249,31.48-38.432,36.939-63.891,3.072-14.332,13.549-22.542,27.443-26.119.047-.012.09-.029.137-.041,9.781-2.491,19.867-3.922,29.556-6.726,11.579-3.342,21.343-2.676,31.456,5.425,12.909,10.344,28.18,7.935,39.769-4.023,5.187-5.352,8.9-11.739,12.532-18.141,4.124-7.243,8.359-14.478,14.615-20.024,29.674-26.3,54.9-40.842,74.429-53.8V259.871c-15.2,10.82-39.374,24.426-79.227,55.76a95.037,95.037,0,0,0-25.679,31.309c-2.334,4.5-4.66,9.033-8.184,12.752-6.109,6.45-13.888,7.4-21.279,2.684-3.987-2.546-5.924-5.545-5.924-9.651a23.625,23.625,0,0,1,2.011-8.581c5.075-12.734,13.325-23.04,24.047-31.493q35.571-28.056,73.136-53.389c25.337-17.11,34.819-27.793,41.1-40.1v-49.3a211.876,211.876,0,0,0-7.263,19.92C1402.929,212.9,1388.506,229.771,1368.316,242.845ZM1186.777,108.181c-36.319,12.66-73.514,22.7-111.43,28.421-24.58,3.715-44.5,12.627-60.556,26.209l-.016-.007c-.058.05-.107.111-.165.161a110.208,110.208,0,0,0-10.535,10.085h.143c-10.317,11.37-18.694,25.133-25.3,41.252-3.487,8.51-7.122,16.961-10.811,25.386-7.243,16.542-19.973,25.954-37.7,28.91-17.46,2.911-35.012,5.412-52.319,9.06-21.324,4.5-39.992,16.168-60.22,23.672-16.925,6.278-29.184,17.239-36.18,33.91-8.516,20.3-23.088,33.924-43.937,41.167-14.253,4.952-24.908,14.5-32.617,27.463-5.062,8.513-10.159,17.025-16.314,24.821-16.118,20.418-35.353,36.656-61.606,41.684-30.379,5.819-60.488,4.228-89.867-6.32-10.873-3.9-21.988-7.367-33.707-5.971-29.685,3.536-57.722,11.818-81.339,31.109-19.606,16.013-41.043,27.967-66.314,32.078-9.993,1.624-20,3.234-30.057,4.36-14.546,1.631-25.343-4.348-33.042-16.767q-21.48-34.645-43.421-69.008c-11.085-17.341-26.6-28.5-47.16-31.923-19.276-3.209-38.577-6.269-57.879-9.327-13.7-2.17-27.489-4.044-41.137-.176C65.861,409.039,40.214,433.174,24.287,468.2a15.286,15.286,0,0,0-1,5.377C23,478.5,25.082,482,29.865,483.7c4.647,1.647,8.08-.586,10.988-3.742a15.251,15.251,0,0,0,3.5-7.4C49.948,445.3,94,411.344,125.744,414.887c24.266,2.709,48.276,6.784,72.319,10.776,15.658,2.6,27.586,11.025,36.273,24.185,3.934,5.959,7.924,11.884,11.722,17.929,11.395,18.136,22.573,36.412,34.1,54.467,9.722,15.231,23.679,22.863,41.934,21.686,38.064-2.454,74.331-10.362,104.757-35.414,14.574-12,30.62-21.057,48.915-26.233,16.779-4.746,33.4-9.021,50.7-2.521,26.063,9.8,53.09,12.908,80.77,11.614,25-1.168,47.965-8.027,67.978-23.569a153.847,153.847,0,0,0,40.148-46.15c8.547-15.168,20.3-25.6,36.676-31.749,18.639-7,32.2-20.209,41.312-37.931,1.894-3.684,3.94-7.292,5.776-11,5.017-10.142,12.9-16.958,23.114-21.811,33.444-15.888,67.838-27.952,105.092-31.508,28.117-2.683,48.559-17.1,59.137-44.158,4.015-10.276,8.224-20.508,12.987-30.453,8.628-18.014,20.042-32.535,35.063-42.637a89.473,89.473,0,0,1,35.7-14.021c34.022-5.722,67.194-15.263,100.66-23.494,42.853-10.537,73.561-35.249,92.8-74.954C1275.992,32.5,1280.616,16.089,1282.789,0h-18.375c-3.048,19.811-10.389,42.65-30.716,72.195A92.872,92.872,0,0,1,1186.777,108.181Zm117.077,11.083a150.44,150.44,0,0,1-32.492,39q-4.52,3.9-9.315,7.429c-1.666,1.221-3.366,2.4-5.081,3.552A172.488,172.488,0,0,1,1213,190.575c-31.636,10.2-64.847,15.2-97.386,22.279-33.71,7.338-57.781,24.43-70.7,56.979-6.1,15.368-13.839,30.083-20.752,45.133-6.933,15.094-18.114,24.532-34.81,27.3-20.411,3.378-40.706,7.48-61.152,10.608-41.248,6.311-75.719,23.259-99,59.592a94.547,94.547,0,0,1-26.42,27.161c-26.966,18.264-49.867,40.839-71.476,64.936a182.375,182.375,0,0,1-13.893,13.485c-25.26,22.765-55.11,35.393-88.616,39.885-27.814,3.729-55.148-.716-82.457-5-20.351-3.194-40.628-6.05-60.771.909-13.834,4.78-26,12.755-38.3,20.43-24.115,15.056-50,25.547-78.243,29.264-28.34,3.73-53.864,13-75.1,32.987-8.9,8.379-19.821,14.206-31,19.259-16.413,7.422-34.2,10.663-51.114,16.6a15.2,15.2,0,0,1-12.787-1.165c-16.145-9.6-31.66-6.476-46.065,3.262-22.846,15.446-47.651,21.768-75.147,20.57-20.6-.9-39.329,6.037-55.951,18.492A132.513,132.513,0,0,0,0,734.367v30.777c3.834-6.631,5.95-9.409,11.633-16.293,13.14-15.917,28.141-29.254,49.1-33.783a103.1,103.1,0,0,1,26.8-2.1c25.551,1.234,48.568-6.086,69.756-20.017,5.186-3.409,10.512-6.624,16.61-8.31a19.6,19.6,0,0,1,12.209.1c6.436,2.322,8.536,6.491,6.478,12.977-2.633,8.291-8.746,13.343-16.21,17-12.822,6.288-26.446,10.59-39.676,15.867-8.535,3.4-17.211,6.474-25.655,10.085-6.531,2.793-12.755,3.278-19.271.1-16.86-8.218-31.792-3.74-45.371,7.526C34.338,758.309,26.186,771.53,17.9,784.557,4.357,805.847,7.861,800.719,0,815.232v37.412c7.531-12.865,14.158-26.428,22.663-40.753,9.057-15.254,18.03-30.575,29.753-44.009,5.541-6.35,11.874-11.647,20.727-12.666,5.689-.655,11.429-.449,15.055,4.618s.907,10.2-1.512,14.948a27.154,27.154,0,0,1-7.793,9.609c-22.506,16.688-36.4,39.933-49.535,63.9C19.957,865.454,11.018,880.94,0,894.54v26.775c2.051-1.879,4-3.735,5.709-5.536,13.126-13.8,23.26-29.786,32.473-46.292,15.412-27.611,30.357-55.392,56.37-75.12,6.972-5.288,10.484-13.5,11.665-22.146,1.266-9.275,6.659-13.75,15.078-16.724,21.446-7.573,43.023-14.889,63.579-24.752,12.655-6.073,22-15.111,24.7-29.53,1.583-8.458,7.238-12.611,15-14.215a205.062,205.062,0,0,0,94.227-46.609c9.562-8.271,21.227-12.576,33.682-14.989,18.712-3.625,37.6-6.456,55.809-12.43,22.97-7.536,43.374-20.035,63.822-32.49,16.455-10.024,34-14.413,53.454-11.963,19.63,2.469,39.113,5.918,58.834,7.838,35.63,3.47,69.693-1.337,102.359-16.283,26.382-12.07,47.089-31.157,66.417-52.123,11.408-12.375,22.182-25.579,36.161-35.117a272.876,272.876,0,0,0,66.743-64.571c10.821-14.745,25.751-23.979,43.268-29.379C925.4,370.858,952.129,366,979.041,362.9c30.538-3.522,52.837-16.428,64.608-46.073,6.861-17.278,15.551-33.842,23.654-50.615,7.75-16.04,20.315-26.291,37.585-31.133,31.231-8.754,62.907-15.481,94.655-22.022s58.975-20.166,81.905-40h.472a193.969,193.969,0,0,0,33.238-37.629c15.428-22.616,25.513-48.4,37.851-72.824,13.965-27.654,13.137-45.93,14.976-62.6h-18.308c-2.1,16.117-2.977,33.059-10.446,49C1328.1,72.748,1316.966,96.546,1303.854,119.264Zm-32.287-27.986c-29.88,52.367-64.068,59.107-190.946,87.434-29.242,6.528-49.915,23.419-62.315,50.693-7.519,16.536-15.3,32.955-23.137,49.341-6.824,14.261-18.09,22.908-33.69,25.865-21.449,4.066-42.969,7.812-64.312,12.376-38.856,8.308-72.714,24.311-93.511,60.872a68.764,68.764,0,0,1-25.638,25.8c-25.426,14.378-45.467,34.3-62.707,57.462-2.057,2.763-4.565,5.192-6.869,7.773-29.032,32.516-65.151,48.551-108.923,47.47-20.59-.51-40.78-3.528-60.814-7.9-21.193-4.626-42.289-6.642-63.278.953-14.881,5.386-27.99,13.956-40.743,23.041-29.98,21.355-63.749,31.383-100.058,33.573-21.724,1.31-40.53,7.843-53.779,26.3a68.466,68.466,0,0,1-8.445,9.126c-16.372,15.7-35.588,23.441-58.479,20.242-17.984-2.512-35.8-3.259-52.973,4.107-8.66,3.713-17.5,7.132-25.781,11.576A127.991,127.991,0,0,1,71.5,653.014c-25.159-.442-49.747,9.122-71.5,24.51v23.084c3.317-2.583,6.346-4.782,8.941-6.734,19.913-14.979,41.835-23.593,67.241-22.968a129.517,129.517,0,0,0,30.159-3.145c18.27-3.9,34.143-13.463,50.943-20.834,14.547-6.382,29.338-10.777,45.535-7.675a100.384,100.384,0,0,0,16.493,1.527c30.841.726,55.378-12.452,74.344-35.812,11.626-14.319,26.33-19.833,43.908-20.948A228.057,228.057,0,0,0,400.2,571.256c21.487-7.686,40.071-20.569,58.78-33.145,21.732-14.609,45.152-18.184,70.553-12.775,26.812,5.707,53.79,10.162,81.437,9.055,35.318-1.413,66.538-12.9,93.29-36.217,14.15-12.33,26.3-26.482,37.928-41.118,9.121-11.481,19.5-21.56,32.241-28.914a144.3,144.3,0,0,0,50.345-48.4c11.524-18.172,28.008-29.269,47.872-36.606,25.665-9.48,52.429-14.016,79.252-17.656,31.381-4.26,53.35-19.124,64.917-49.209,5.351-13.919,12.37-27.2,18.735-40.724,10.005-21.262,26.678-33.918,49.561-39.121,33.372-7.592,66.613-15.759,99.956-23.483,45.239-10.479,81.406-34.5,104.354-76.01,7.123-12.891,13.933-25.938,20.069-39.337,12.525-27.32,14.215-43.489,15.383-57.6H1306.6c-.6,5.566-1.159,10.673-2.014,15.041C1299.157,42.843,1285.363,67.11,1271.567,91.278Z"/></svg>