<svg xmlns="http://www.w3.org/2000/svg" viewBox="0 0 1417.323 1417.323"><defs><style>.a{fill:#ff0;}</style></defs><path class="a" d="M1248.772,436.557c-24.558,13.214-49.868,25.017-76.758,32.858-27.343,7.974-53.212,19.306-78.22,32.823a381.094,381.094,0,0,1-38.637,18.507c-42.726,17.213-85.695,33.823-127.141,54.079-61.887,30.244-123.941,60.143-185.907,90.227-19.164,9.3-39.1,14.763-60.661,13.942-13.251-.5-26.076,2.335-38.529,7-20.524,7.692-40.286,17.082-59.987,26.609-74.481,36.017-146.8,76.232-220.5,113.749C296.717,859.8,230.084,891.433,165.45,927c-22.4,12.327-43.286,26.311-59.678,46.34-5.729,7-13.069,12.39-20.979,16.766C35.107,1017.6,26.639,1021.82,0,1037.071v19.861c31.815-18.5,62.773-35.636,86.7-47.961a113.919,113.919,0,0,0,37.342-30.244c8.177-10.214,18.219-18.228,29.336-24.991,17.141-10.426,34.9-19.73,52.61-29.132,73.88-39.234,149.876-74.293,223.7-113.643,63.841-34.028,127.714-68.01,193.443-98.347,21.769-10.048,43.894-17.684,68.392-17.141,18.512.41,35.98-4.939,52.639-12.763q35.657-16.746,71.176-33.785c59.973-28.913,118.755-60.413,180.389-85.724,45.188-18.558,90.681-36.264,133.756-59.536,10.76-5.813,22.315-9.981,34.013-13.486,31.9-9.557,62.288-22.673,91.921-37.746,32.646-16.605,64.624-34.544,98.137-49.429,7.067-3.139,14.239-6.026,21.429-8.871.005-.033.009-.065.015-.1,11.339-4.741,26.25-10.972,42.327-17.686V357.017c-15.256,6.581-30.975,13.488-46.738,20.576C1329.116,395.368,1288.574,415.14,1248.772,436.557Zm54.168-73.179c-33.387,18.162-67.162,35.615-100.835,53.25-15.985,8.371-32.471,15.625-50.644,17.556-17.5,1.859-33.56,7.727-48.972,15.884-20.567,10.887-40.876,22.368-62.3,31.469-77.611,32.97-154.554,67.37-229.912,105.26-31.906,16.042-64.006,31.695-95.983,47.6a157.966,157.966,0,0,1-20.554,8.057c-7.112,2.372-10.355,8.156-8.314,13.714,1.972,5.366,8.476,7.023,15.395,3.92a10.939,10.939,0,0,0,1.236-.615c10.648-6.518,22.319-10.954,33.466-16.455,72.09-35.578,143.592-72.4,217.156-104.9,55.4-24.472,111.765-46.809,164.9-76.184,10.793-5.966,22.7-8.841,34.838-10.748a161.822,161.822,0,0,0,41.666-12.1c19.13-8.62,37.548-18.639,56.187-28.228,31.124-16.01,60.961-34.622,93.674-47.411,22.915-8.959,49.024-19.666,73.378-29.84V316.446c-9.278,4.659-16.939,8.08-29.788,13.152C1359.3,340.746,1329.855,348.737,1302.94,363.378Zm-7.122,138.929c-.636.312-1.273.62-1.909.931-12.6,6.188-25.261,12.265-38.048,18.069-50.115,22.747-101.044,43.718-149.246,70.527-9.923,5.519-20.869,8.588-32.107,10.286a181.25,181.25,0,0,0-53.837,16.889Q985.093,636.669,949.6,654.5c-63.949,32.267-127.3,65.8-194.05,92.151-16.344,6.452-30.791,15.465-42.776,28.445-8.2,8.873-18.084,15.7-28.456,21.793-10.728,6.3-21.49,12.548-32.348,18.622-68.357,38.241-136.089,77.664-206.087,112.86-43,21.623-88.349,38.2-131.787,59-38.633,18.5-76.716,38.247-116.536,54.132-21.369,8.523-43.917,14.247-64.886,23.583C95.686,1081.552,47.444,1109.547,0,1139.118v20.211c33.354-20.56,20.585-12.75,105.856-62.013,26.777-15.47,56.022-24.528,84.838-34.935,39.51-14.27,76.814-33.614,114.518-51.938,48.109-23.38,98.428-41.9,146.252-65.718,76.756-38.233,150.793-81.569,225.446-123.72,19.157-10.816,37.389-22.778,52.923-38.558,8.208-8.336,18.18-14.121,28.974-18.462,31.009-12.469,61.68-25.725,91.586-40.646,58.364-29.119,116.577-58.541,174.871-87.8,16.16-8.111,32.927-14.4,51.054-16.443,15.589-1.756,29.88-7.377,43.682-14.541,18.607-9.658,36.757-20.414,56-28.6,20.813-8.85,41.384-18.209,61.879-27.73,0,.053,0,.106.005.159,8.283-3.857,16.458-7.727,24.674-11.651.37-.177.739-.356,1.11-.532,6.37-3.047,12.78-6.13,19.29-9.278q30.588-14.718,61.1-29.594c21.417-10.305,45.349-21.678,73.268-34.615V443.939l-6.407,2.775C1371.781,463.647,1334.047,483.5,1295.818,502.307Zm48.16-230.55c-1.725,3.072-1.96,6.106.068,9.114,2.122,3.144,5.152,4.773,8.86,4.07a18.212,18.212,0,0,0,6.961-2.81c16.04-11.321,37.664-22.614,57.456-34.082V227.876c-25.533,16.152-59.515,34.969-68.534,39.062A10.868,10.868,0,0,0,1343.978,271.757Zm6.107,30.506c-21.179,2.82-40.048,11.44-58.548,21.619-45.364,24.958-89.89,51.486-136.812,73.555-6.488,3.051-8.976,8.925-6.454,13.981,2.508,5.033,8.606,6.338,15.029,2.806,4.832-2.657,9.226-6.129,14.105-8.68,43.26-22.617,85.875-46.412,128.6-70.011,11.126-6.145,22.556-11.966,35.14-14,26.251-4.254,48.962-14.277,76.18-29.019V272.718c-14.64,7.863-32.7,17.5-34.676,18.53C1372.385,296.6,1361.6,300.73,1350.085,302.263ZM306.016,575.5c88.227-41.951,177.095-82.6,264.393-126.454,75.557-37.96,150.423-77.256,227.795-111.528,92.505-40.973,184.776-82.425,271.187-135.688,46.878-28.9,95.51-54.95,140.081-87.555,3.5-2.562,6.96-5.192,10.439-7.79l.056,0c1.619-1.209,3.222-2.439,4.837-3.653q12.6-9.468,25.173-18.969c23.31-17.588,46.858-34.842,72.335-49.379,6.229-3.554,7.663-9.982,4.254-14.672-3.2-4.4-9.787-4.984-15.426-.417-17.06,13.814-36.275,24.524-53.688,37.815Q1241.3,69.536,1225,81.626c-.2.148-.4.29-.6.438Q1209.2,93.3,1193.77,104.2c-25.1,17.755-50.732,34.755-77.425,50.263-70.931,41.21-141.011,83.844-215.841,117.99-68.749,31.373-138.563,60.514-206.027,94.587C586.5,421.581,478.2,475.426,368.656,526.765c-47.131,22.088-94.856,43.072-139.247,70.627C145.443,649.511,58.33,694.413,0,725.323v19.8c64.71-34.637,120.883-63.8,185.2-101.081C225.264,620.827,264.054,595.451,306.016,575.5ZM142.958,1034.905c20.214-3.017,39.324-9.475,57.711-18.383,67.6-32.747,135.231-65.408,203.652-96.442,60.7-27.534,117.731-62.219,176.708-93.124,37.11-19.446,72.6-42.07,111.809-57.441a11.405,11.405,0,0,0,4.437-3.178c2.453-2.953,3.807-6.255,1.888-10.192-1.879-3.858-5.092-5.122-9.046-5.056a14.888,14.888,0,0,0-7.844,2.432c-10.891,7.024-22.973,11.736-34.328,17.858-70.793,38.168-140.922,77.645-212.593,114.089-78.641,39.989-159.955,74.556-238.82,114.183-15.683,7.88-31.715,15.227-49.381,17.164-21.092,2.311-40.041,10.1-58.214,20.512-44.181,25.307-69.244,39.29-88.937,50.64v20.289c34.416-20.615,69.8-40.76,105.334-60.123C117.147,1041.7,129.547,1036.909,142.958,1034.905ZM272.4,542.19c87.138-41.012,174.213-82.161,260.829-124.265,74.8-36.357,148.556-74.839,224.819-108.176,106.641-46.615,212.663-94.45,312.778-154.407,28.418-17.019,57.064-33.633,84.942-51.437l.1,0c.9-.571,1.778-1.165,2.671-1.739,1.184-.762,2.358-1.538,3.538-2.3A687.64,687.64,0,0,0,1220.3,58.292c52.32-42.183,76.52-53.022,94.131-58.292h-40.507c-16.981,9.478-33.53,21.048-49.252,33.22-16.769,12.984-32.831,26.956-50.578,38.589-12.948,8.487-26.028,16.743-39.124,24.971-79.563,50.1-161.7,95.637-246.916,135.658C813.813,267.3,737.66,298,664.057,334.2,550.758,389.908,437.581,445.87,323.047,499c-46.284,21.469-91.005,45.229-133.941,72.98C130.3,609.989,72.58,638.042,0,675.638v19.623c65.9-34.2,129.361-67.025,186.7-101.165C215.4,577.009,242.033,556.483,272.4,542.19ZM214.256,526a233.014,233.014,0,0,1,47.485-28.094c63.865-28.761,126.832-59.425,189.96-89.754,98.624-47.383,195.947-97.524,296.9-139.987C865.229,219.107,978.529,163.475,1088,100.14l.141.009c12.471-7.208,24.914-14.472,37.281-21.891C1171.067,50.874,1201.626,22.147,1232.34,0h-28.883c-19.088,15.509-32.841,30.231-62.052,48.146-28.133,17.254-56.586,33.9-85.219,50.207l.227.012C981.152,141.294,904.108,180.854,824.7,216c-75.4,33.374-151.582,65.008-225.756,101.147-111.415,54.283-222.36,109.557-335.276,160.7-24.282,11-47.195,23.965-68.062,40.607a309.624,309.624,0,0,1-39.063,26.112C111.036,570.7,73.788,589.528,0,627.081v19.406c53.439-27.3,87.873-44.677,134.978-70.125C162.6,561.438,189.4,545.269,214.256,526Zm-49.94-55c2-3.2,2.421-6.442.222-9.718a8.828,8.828,0,0,0-8.871-4.168,17.2,17.2,0,0,0-6.464,2.257c-20.347,12.282-42.249,21.486-63.455,32.054-3.394,1.691-33.4,16.135-85.748,41.92v19c71.1-34.9,139.04-67.946,158.61-76.486A12.51,12.51,0,0,0,164.316,471ZM1354,221.8c-11.881,7.586-23.083,15.922-32.961,25.814a135.135,135.135,0,0,0-9.414,10.442c-9.269,11.447-20.692,20.3-33.425,27.554q-7.348,4.188-14.7,8.367c-31.927,18.219-63.816,36.5-95.844,54.539-19.833,11.169-38.2,24.019-53.192,41.4-8.233,9.544-18.635,16.432-29.7,22.315-27.673,14.71-55.466,29.224-84.226,41.687-98.534,42.7-195.686,88.273-290.7,138.365-19.661,10.366-38.52,21.707-54.433,37.516-8.088,8.036-17.779,13.845-28.36,18.158C598.457,659.611,570.2,672,542.4,685.465c-85.865,41.6-169.8,86.96-254.558,130.714C213.172,854.727,137.034,890.723,71.237,944.56c0,0-28.718,15.731-71.237,40.551v20.181c6.231-3.5,14.344-8.006,25.473-14.127C50.086,977.628,75.6,965.52,97.239,947.172c25.98-22.033,54.743-39.78,84.561-56.015,78.917-42.967,159.464-82.8,239.007-124.56,69.952-36.729,139.9-73.543,213.394-102.965,12.527-5.014,23.908-11.968,33.334-21.764,11.314-11.762,24.531-20.835,38.895-28.441,75.347-39.9,151.777-77.6,229.665-112.272,53.244-23.7,106.933-46.4,158.1-74.492,12.414-6.815,24.1-14.56,33.211-25.58,11.318-13.688,24.927-24.439,40.374-33.137,31.322-17.639,62.546-35.451,93.811-53.188q11.412-6.474,22.828-12.943c16.435-9.282,31.145-20.474,42.611-35.7a83.821,83.821,0,0,1,5.932-7.019,115.705,115.705,0,0,1,21.245-17.322c31.868-20.785,49.438-31.521,63.116-41.644V177.76c-12.912,10.36-31.71,23.865-63.28,44.02Zm25.506-114.164c-.714.656-1.492,1.227-2.212,1.874-24.033,21.6-51.345,38.91-76.836,58.6-12.475,9.634-24.893,19.332-37.436,28.853-24.14,18.321-48.773,35.94-75.356,50.886a1329.613,1329.613,0,0,0-121.535,76.729c-12.758,9.115-26.381,16.905-40.229,24.272-47.631,25.339-97.07,46.855-146.117,69.2C806.4,451.494,733.124,485.207,663.466,526.047,627.5,547.131,592.655,570.071,553.889,586.1c-20.207,8.355-39.921,17.926-59.714,27.255C280.882,713.881,124.5,808.1,0,880.733v20.726c34.905-19.4,37.944-21.229,50.524-28.981,146.721-90.412,298.842-170.8,454.252-245.109,35.124-16.8,71.591-30.764,105.782-49.476,29.921-16.374,57.939-35.988,87.962-52.259,80.5-43.63,164.082-80.814,247.3-118.782,43.8-19.985,87.794-39.74,127.929-66.764,22.176-14.932,43.632-30.944,66.663-44.589,48.946-29,98.26-57.322,143.283-92.314q9.623-7.479,18.968-15.383c4.914-4.163,10-8.116,15.111-12.025,1.912-1.453,3.809-2.926,5.741-4.355.35-.26.7-.512,1.053-.772,21.275-15.669,43.539-30.117,63.359-47.754,12.695-11.3,20.993-19.365,29.395-26.982V73.532q-4.585,3.844-9.22,7.974C1398.471,90.1,1389.023,98.907,1379.51,107.639Zm-7.536,56.024c0-.042,0-.085,0-.129-13.257,9.744-27.028,18.8-40.47,28.291-4.82,3.391-9.589,6.848-14.272,10.419-1.051.8-2.075,1.641-3.115,2.456-5.454,4.263-10.809,8.653-15.916,13.37l-.016.013c-5.468,5.053-11.15,9.782-16.895,14.417q-7.985,6.358-16.241,12.309a579.471,579.471,0,0,1-50.811,32.579c-43.738,25.148-87.872,49.59-127.106,81.918-26.895,22.159-59.05,35.792-90.3,50.5-71.275,33.56-143.955,64.1-214.355,99.546-43.413,21.857-87.717,42.268-127.573,70.4a409.277,409.277,0,0,1-82.725,45.533c-11.95,4.837-23.663,10.286-35.341,15.761-97.876,45.88-193.4,96.386-288.721,147.276-57.315,30.6-115.2,60.241-168.6,97.624a619.421,619.421,0,0,1-64.809,39.7c-4.337,2.3-9.376,5.039-14.717,7.967v20.148c39.292-22.3,73.847-42.164,102.72-62.619,11.27-7.984,23.08-15.261,34.981-22.289C200.042,832.039,264.5,799.1,328.49,765.315c80.7-42.6,161.656-84.728,245.057-121.9,26.089-11.63,52.812-21.924,75.967-39.254,21.642-16.2,44.844-29.909,68.673-42.626C801,517.338,886.5,478.805,971.98,440.189c51.2-23.13,102.655-45.874,146.153-83.035,27.635-23.609,60.486-39.61,91.819-57.671,22.745-13.11,45.411-26.268,66.589-41.6.393-.284.773-.584,1.164-.869,3.473-2.534,6.921-5.105,10.3-7.768,1.305-1.027,2.564-2.12,3.854-3.168,2.478-2.014,4.972-4.005,7.392-6.106q5.613-4.863,11-10.062c10.938-10.6,23.576-19.222,36.126-27.856,18.043-12.412,36.369-24.42,53.4-38.26,6.816-5.54,12.138-10.337,17.547-15.308V125.827c-11.836,10.463-24.949,21.978-34.719,29.739Q1377.372,159.722,1371.974,163.663Zm-219.159,1135.37c-21.317,9.238-44.294,14.112-65.676,23.361-43.793,18.94-85.557,41.984-128.168,63.31-23.774,11.9-43.833,21.969-63.411,31.619h38.865c53.842-26.992,100.818-52.182,147.806-74.382,23.634-11.167,49.172-17.052,73.356-26.593,40.445-15.956,77.767-38.094,114.663-60.783,16.563-10.186,32.7-21.029,48.775-31.968h0c.035-.023.07-.048.106-.071,14.767-10.049,29.5-20.157,44.35-30.079,1.057-.7,2.12-1.4,3.178-2.1,10.071-6.692,20.207-13.282,30.515-19.614,6.37-3.914,11.647-7.162,16.193-9.963,1.3-.666,2.592-1.335,3.956-1.888v-20.761c-43.866,25.906-85.634,55.019-127.85,83.46C1246.053,1251.831,1200.919,1278.188,1152.815,1299.033ZM1280.992,852.99c.009-.065.016-.13.024-.194-5.2,2.962-10.338,6.029-15.523,9.018-3.923,2.263-7.9,4.442-11.81,6.721,0,.046.005.09.007.136-53.989,31.445-106.954,64.524-157.312,101.8-42.711,31.616-88.555,58.063-136.2,81.539-53.715,26.465-107.444,52.927-160.666,80.361-74.52,38.412-150.635,73.873-223.188,115.939-85.48,49.562-169.221,102.138-257.959,145.953-12.466,6.156.782-1.035-43.007,23.059h36.281l7.458-4.034c43.21-23.734,87.979-44.578,130.491-69.576,49.054-28.846,96.542-60.421,146.784-87.166,107.165-57.045,215.6-111.655,324.282-165.74,48.871-24.32,98.638-47.03,144.072-77.623,37.461-25.225,73.807-52.13,111.576-76.871,31.291-20.5,63.355-39.688,95.709-58.387,46.216-26.838,96.486-54.678,145.315-81.51V776.872c-27.22,15-60.368,33.355-101.963,56.554C1303.843,839.85,1292.442,846.46,1280.992,852.99Zm20.093-115.741.045-.218q-24.915,13.443-49.59,27.311c-.623.351-1.258.68-1.882,1.03l0,.039c-38.3,21.513-76.131,43.858-112.979,67.942C1083.82,867.9,1032.4,904.837,976.9,935.093c-107.638,58.678-216.029,115.972-323.481,175-39.767,21.845-81.282,40.6-118.587,66.8-45.556,31.994-93.583,59.912-143.056,85.234-92.337,47.26-184.1,95.514-272.841,149.327-10.334,6.268-9.926,5.735-10.447,5.87h33.672c54.622-32.379,129.758-74.422,190.42-105.305,72.926-37.127,145.575-74.7,212.9-121.636a368.2,368.2,0,0,1,38.818-23.95c82.973-43.7,165.14-88.9,247.494-133.754,58.069-31.625,117.653-60.467,174.463-94.4,54.042-32.275,105.368-68.784,158.549-102.4,43.062-27.219,87.251-52.432,131.93-76.77.011-.059.023-.119.035-.179,40.545-22.109,81-43.139,120.561-63.671V675.638c-8.577,4.443-17.243,8.94-26.264,13.684Q1345.939,713.049,1301.085,737.249ZM102.109,71.952c.037.006.074.016.112.023,15.147-9.281,30.406-18.393,45.659-27.5C175.969,27.7,199.139,14.479,225.11,0H190.143c-13.706,7.786-26.917,15.411-38.629,22.42-12.867,7.7-25.772,15.34-38.62,23.066l-.057-.012Q95.557,55.836,78.568,66.653c-.244.156-.5.3-.741.457l.011,0C60.3,78.308,43.065,89.981,26.56,102.794c-4.8,3.729-15.082,12.887-26.56,23.033v22.661c9.016-8.286,18.27-17.059,35.073-30.561C56.286,100.882,79,86.107,102.109,71.952Zm1297.046,1180c-5.9,3.883-9.862,6.55-11.3,7.56-9.037,6.368-18.225,12.469-27.417,18.564-6.2,4.07-12.4,8.121-18.658,12.093a1075.226,1075.226,0,0,1-104.042,58.56c-77.754,38.046-62.589,46.465-91.81,68.592H1171.5c12.069-12.23,17.746-22.249,36.526-33.031,11.782-6.766,23.547-13.61,35.67-19.727,34.232-17.273,68.69-34.072,100.916-54.917h0l.01-.007c6.292-4.069,12.528-8.238,18.628-12.656l.03-.02.014-.01c17.52-12.687,35.988-24.065,54.026-36.036v-20.775c-3.3,2.124-6.449,4.157-9.286,6C1405.058,1248.056,1402.117,1250.02,1399.155,1251.954ZM1236.223,486.4c-1.313.6-2.6,1.265-3.916,1.86-33.8,15.276-69.416,26.225-102.464,43.285-20.671,10.671-40.77,22.831-63.138,29.6-49.884,15.09-96.466,37.706-142.923,60.766-56.551,28.072-112.765,56.85-170.722,82.011-19.275,8.368-38.98,13.708-60.238,13.292-13.2-.259-26.1,2.586-38.5,7.35-17.458,6.706-33.962,15.429-50.6,23.87-101.5,51.5-200.363,108.084-303.794,155.9-51.618,23.862-101.983,50.435-152.9,75.813-6.36,3.17-8.874,9.008-6.275,14.066,2.662,5.182,8.322,6.416,14.992,2.818,5.465-2.948,10.509-6.693,16.027-9.522q42.757-21.925,85.679-43.528c70.625-35.462,143-67.377,212.366-105.409,56.374-30.907,113.228-60.941,170.835-89.516,17.914-8.885,36.377-16.045,56.831-15.231,18.605.741,36.1-3.449,53.131-10.492,53.708-22.207,105.315-48.848,157.446-74.39,43.226-21.18,85.261-45.23,131.165-60.249,34.766-11.375,68.24-25.143,100.316-42.6a208.456,208.456,0,0,1,25.7-11.9c24.186-9.159,47.951-19.231,71.49-29.8h0q23.5-10.546,46.666-21.818l.312-.148q23.226-11.357,46.187-23.3c2.591-1.353,5.219-2.623,7.827-3.936,17.666-8.653,48.542-22.62,79.6-36.374V400.761c-18.5,7.935-29.8,12.137-62.829,27.394C1314.591,446.585,1276.186,468.074,1236.223,486.4Zm123.166,893.437q-4.589,3.146-9.35,5.888-4.693,2.7-9.57,4.992a121.313,121.313,0,0,1-21.6,7.822c-15.166,3.893-30.218,10.558-44.948,18.78h40.507c8.369-2.5,15.269-3.766,22.957-6.508l0,0a111.75,111.75,0,0,0,12.759-5.486c.565-.28,1.133-.552,1.694-.841a127.613,127.613,0,0,0,12.277-7.234c15.594-10.534,31.111-21.181,46.709-31.709,1.574-1.062,3.173-2.111,4.751-3.172a5.863,5.863,0,0,1,1.747-.412v-21.51c-1.842,1.244-3.819,2.582-5.952,4.026Q1385.342,1362.1,1359.389,1379.841ZM192.858,490.53c11.385-12.579,25.213-21.364,40.649-28.016,49.308-21.248,97.582-44.71,145.916-68.05C464.054,353.6,547.61,310.458,633.431,272.112,713.756,236.221,795.5,203.544,875.2,166.2c46.807-21.934,92.721-45.534,138.092-70.144l.354.019c8.98-4.861,17.852-9.925,26.788-14.868,1.573-.871,3.161-1.715,4.732-2.589l-.063,0c31.285-17.369,62.394-35.065,93.19-53.348C1154.574,15.6,1164.205,7.394,1171.5,0h-25.572a182.57,182.57,0,0,1-17.254,11.421q-66.036,39.122-133.683,75.122C926.332,123.2,856.426,157.435,784.748,188.226c-96.485,41.448-193.232,82.232-287.326,129.1C406.307,362.7,315.154,408.08,221.858,448.934c-13.387,5.862-26.169,12.956-35.812,24.209-13.621,15.9-30.592,27.01-48.829,36.76C105.376,526.925,53.745,552.963,0,579.879V599.1c57.5-28.922,122.564-61.931,150.27-77.03C165.94,513.531,180.8,503.854,192.858,490.53Zm-29.367-51.486c16.072-1.147,31.19-5.648,45.842-12.177,77.472-34.521,153.253-72.56,229.359-109.934,60.8-29.857,120.609-61.954,183.579-87.076C727.8,187.758,831.654,142.2,933.231,91.813l.131.007c9.239-4.575,18.43-9.251,27.631-13.907,1.742-.884,3.5-1.738,5.239-2.624h-.024q65.948-33.517,130.477-70.041c3.427-1.949,6.484-3.688,9.228-5.247h-34.364c-36.4,19.882-98.564,53.028-152.066,79.758-64,31.8-128.923,61.689-195,89.19C644.964,202.039,565.125,234.246,488.046,273c-92.181,46.341-184.453,92.559-278.525,135.032-15.856,7.16-32.077,12.628-49.5,14.433a153.227,153.227,0,0,0-48.353,13.584c-25.946,11.929-51.75,24.172-77.725,36.038C32.3,472.829,11.308,482.7,0,488.032v19.127c32.217-15.353,67.434-32.041,104.524-49.467C123.344,448.85,142.364,440.551,163.491,439.044ZM78.228,258.305c16.528-2.621,32.06-8.524,46.785-16.345,45.584-24.213,91.055-48.642,136.61-72.913,66-35.163,131.748-70.816,198.809-103.9,8.559-4.242,17.061-8.6,25.677-12.728C514.34,38.887,520.5,21.332,554.634,0H525.286c-15.137,13.084-24.484,26.119-50,38.39C459,46.223,442.845,54.315,426.743,62.513h0c-.249.126-.5.26-.746.386q-16.784,8.55-33.5,17.237h.247Q356.55,99,320.53,118.2C252.2,154.559,184.039,191.228,115.755,227.67c-11.206,5.98-22.845,11.342-35.521,13.044a158.815,158.815,0,0,0-61.4,21.783c-1.239.745-9.32,5.111-18.834,10.221v19.791c8.41-4.555,17.214-9.526,26.732-14.961C42.87,268.333,59.708,261.244,78.228,258.305Zm95.626,92.107c47.539-19.617,93.024-43.546,138.918-66.591,71.237-35.772,142.049-72.385,213.625-107.482,33.428-16.392,69.335-26.187,103.846-39.67,42.368-16.554,84.2-34.339,125.719-52.819l.255.008c8.7-3.864,17.329-7.891,26-11.816,2.894-1.312,5.8-2.593,8.694-3.911l-.07-.009q48.494-22.073,96.591-45.036C903.784,15.255,919.328,7.569,934.425,0H895.56c-25.128,12.385-49.444,24.061-79.585,37.83Q780.5,54.039,744.9,69.971c-42.266,18.878-84.786,37.163-128.162,53.44-31.881,11.963-64.768,21.245-95.5,36.258-78.849,38.517-156.664,79.084-235.14,118.341-43.432,21.727-86.232,44.948-132.013,61.549-35.69,12.943-72.266,23.425-106.742,39.7C24.8,389.9,11.1,396,0,400.761v18.06c44.322-19.63,89.006-38.83,96.179-41.541C121.816,367.59,148.491,360.88,173.854,350.412ZM1341.009,525.331l.009-.041c-17.653,8.652-35.3,17.324-53.023,25.821-16.282,7.805-32.634,15.467-48.985,23.129-36.432,17.073-72.834,34.209-108.261,53.354-13.129,7.095-25.094,15.6-34.414,27.346-10.336,13.03-22.971,23.231-37.268,31.523-67.8,39.32-136.406,77.124-207.241,110.773-31.4,14.917-64.207,27.293-92.93,47.266-67.3,46.806-138.778,86.615-210.222,126.489-31.964,17.839-63.449,36.7-99.066,46.991a310.066,310.066,0,0,0-39.105,13.684c-79.461,35.048-157.872,72.414-236.819,108.591-54.4,24.931-131.66,72.849-173.684,99.885v20.476c53.6-34.513,127.2-78.712,180.7-104.968,48.8-23.947,99.384-44.082,148.345-67.764,35.859-17.343,70.987-36.761,109.286-48.2,38.969-11.639,75.12-28.8,110.287-48.781,70.331-39.951,141.649-78.227,208.232-124.44a366.879,366.879,0,0,1,58.855-33.381c82.28-36.977,161.579-79.675,239.7-124.646,19.684-11.332,38.441-23.757,53.126-41.466,8.666-10.451,19.33-18.377,31.317-24.645,33-17.255,66.136-34.254,100.062-49.646h0c.289-.132.574-.272.862-.4l.013,0c32.367-14.654,64.277-30.243,96.107-46,.037-.214.067-.428.1-.643,23.559-11.342,50.693-24.351,80.327-38.473V488.032c-3.769,1.778-6.461,3.052-7,3.316Q1375.641,508.288,1341.009,525.331ZM46.181,213.266c13.852-18.772,31.485-32.674,51.166-44.613,50.762-30.8,102.415-60.006,154.428-88.569h.357Q302.555,52.325,353.279,25.1c25.681-13.768,38.085-20.448,43.4-23.322C391.9,4.4,385.532,8,401.306,0H364.121c-34,17.855-70.2,37.4-110.94,59.9-.113,0-.229-.007-.343-.012q-64.683,35.538-128.486,72.666c-35.017,20.489-70.186,40.62-95.443,73.962-3.3,4.357-14.841,12.459-28.909,21.357v20.173C19.6,236.693,37.4,225.165,46.181,213.266ZM1328.458,624.332c-.577.289-1.151.585-1.729.875-27.413,13.74-52.536,26.4-72.472,36.637q-4.93,2.534-9.875,5.052c-92.935,47.479-86.915,49.051-139.515,84.837-50.189,34.154-102.588,64.759-155.673,94.254-45.112,25.065-92.616,45.672-137.077,71.867-95.68,56.374-190.971,113.395-289.539,164.686a92.273,92.273,0,0,0-29,23.183c-11.16,13.575-24.819,23.875-40.087,32.381-32.81,18.28-65.927,36-99.777,52.24-91.457,43.882-181.243,90.834-267.467,144.371C65.415,1347.649,28.177,1371.291,0,1390.044v20.745l7.017-4.769a2527.646,2527.646,0,0,1,265.592-156.36c60.6-30.782,122.267-59.452,181.669-92.584,17.388-9.7,34.267-20.067,47.511-35.274,11.4-13.087,25.277-22.694,40.605-30.6,55.318-28.532,109.46-59.2,163.319-90.368,57.432-33.235,113.228-69.274,172.867-98.72,214.934-106.127,225.166-142.256,366.962-216.405,22.915-11.983,45.993-23.653,69.13-35.211q4.449-2.221,8.9-4.438v-.006c17.529-8.748,53.81-26.863,93.749-46.953v-19.22c-29.976,15.014-60.609,30.3-88.865,44.459Zm-52.891,285.03,0-.06c-2,1.164-3.967,2.37-5.961,3.538-4.4,2.583-8.843,5.118-13.233,7.728,0,.042.006.083.008.125-41.007,24.367-81.294,49.886-119.637,78.527-37.338,27.89-75.675,54.388-117.707,74.835q-160.368,78.016-320,157.532c-73.395,36.715-146.654,73.58-215.218,118.964a791.866,791.866,0,0,1-77.107,44.69c-13.924,7.113-28.073,14.44-42.628,22.082h37.216c2.16-1.1,4.714-2.4,7.767-3.962,26.063-13.343,51.946-26.993,76.245-43.431a1134.414,1134.414,0,0,1,110.94-66.3q178.356-93.046,360.063-179.4c66.138-31.48,130.668-65.2,189.235-109.656,41.131-31.218,84.651-58.85,129.309-84.7,5.047-2.938,10.055-5.936,15.14-8.816l127.318-72.358V828.935c-46.956,26.485-83.133,46.776-87.391,49.189Q1302.65,893.585,1275.567,909.362ZM104.888,22.57C115.559,15.92,128.221,8.258,142.155,0H108.483c-.761.2-3.5,1.819-44.493,28.069C41.664,42.365,21.177,55.774,0,73.532V95.939c16.32-14.785,33.016-27.88,82.814-59.488C89.546,32.176,96.831,27.59,104.888,22.57ZM1314.171,679.945c.008-.03.014-.059.022-.088q-8.256,4.276-16.484,8.608c-1.012.53-2.026,1.055-3.037,1.585q-23.092,12.1-45.974,24.58c-.479.262-.966.511-1.445.772v.013c-49.218,26.91-97.509,55.432-143.685,87.677-29.648,20.7-60.812,39.191-91.6,58.192-54.771,33.8-112.851,61.535-169.069,92.673-69.329,38.4-138.149,77.717-207.244,116.542-47.323,26.592-96.706,49.386-139.314,84.257-32.345,26.471-70.643,44.208-107.773,63.153-80.642,41.148-161.757,81.373-239.672,127.637-27,16.031-75.828,45.06-116.481,71.777H64.186c2.559-1.65,5.087-3.271,7.524-4.816,32.115-20.361,64.84-39.7,97.607-58.992,74.723-43.984,152.591-82,229.569-121.725,39.509-20.388,79.321-40.567,114.475-68.163a461.275,461.275,0,0,1,77.312-49.406c14.395-7.261,28.46-15.174,42.671-22.8,87.3-46.847,171.5-99.319,259.731-144.437a2171.779,2171.779,0,0,0,226.617-133.872q62.591-42.255,128.587-78.558c10.47-5.769,20.946-11.525,31.554-17.066.023-.011.044-.021.067-.034,9.466-4.943,18.97-9.813,28.456-14.718.01-.042.022-.085.032-.127,45.368-23.589,79.9-41.289,108.935-56.122V627.081c-21.105,10.742-45.037,22.932-73.206,37.366C1334.112,669.573,1324.148,674.77,1314.171,679.945ZM336.787,61.97Q295.96,83.682,255.37,105.841c-59.994,32.89-119.735,66.241-179.592,99.382-6.3,3.487-8.944,9.985-5.989,14.863,2.894,4.778,8.854,5.5,15.347,1.55,5.111-3.112,9.843-6.864,15.034-9.821Q218.754,144.264,339.265,80.21h.115c6.919-3.684,13.791-7.456,20.724-11.117,4.321-2.282,8.654-4.541,12.979-6.816h0C406.881,44.49,440.759,26.848,474.524,9c.408-.216,5.318-3.72,12.833-9H453.484c-5.114,3.4-8.094,5.4-8.675,5.7C408.7,24.029,372.875,42.912,337.149,61.973Zm1073.142,979.347q-17.9,10.315-35.564,20.995c-6.186,3.721-12.317,7.53-18.462,11.314-5.049,3.114-10.1,6.22-15.125,9.378q-12.084,7.582-24.047,15.355-3.795,2.46-7.576,4.944c-18.846,12.325-37.557,24.863-55.969,37.875-45.011,31.811-90.943,62.171-141.727,84.269-36.1,15.708-72.879,29.853-108.381,46.943-84.452,40.655-168.08,83.02-253.432,121.8l-50.9,23.131h41.507c45.171-20.6,86.242-39.758,145.006-68.269,66.729-32.376,132.307-67.256,201.443-94.443,51.321-20.18,99.284-46.415,144.727-77.456,18.46-12.61,36.851-25.322,55.3-37.949,9.322-6.381,18.625-12.792,28.028-19.052,5.528-3.681,11.108-7.278,16.677-10.894,18.57-11.959,39.2-24.672,60.226-37.213q12.749-7.436,25.667-14.591v-20.384l-2.021,1.157C1413.275,1038.749,1411.686,1040.3,1409.929,1041.317Zm-59.86,88.423c-35.235,22.914-69.936,46.649-104.862,70.047-37.359,25.027-76.153,47.757-118.009,64.656-27.329,11.033-55.181,20.753-81.936,33.223-60.352,28.128-119.185,59.345-179.274,88.006-24.394,11.635-34.054,16.607-66.977,31.651H839.3c37.69-17.914,88.064-42.837,117.689-57.426,49.172-24.216,97.447-50.424,149.225-68.922,40.557-14.489,78.642-33.833,115.514-55.888,27.594-16.5,53.945-34.855,80.42-53.02,10.2-7,20.419-13.97,30.734-20.8,21.7-14.365,44.221-28.609,67.253-42.656,5.7-3.367,11.4-6.72,17.185-9.945v-20.762c-.693.4-1.361.844-2.053,1.249C1393.725,1101.609,1378.223,1111.2,1350.069,1129.74Zm28.586,186.713q-7.332,5.163-14.77,10.13-1.6,1.072-3.209,2.134c-5.016,3.322-10.06,6.594-15.166,9.754-19.6,12.131-39.934,22.937-61.647,31.415-19.112,7.461-36.959,17.666-54.3,28.627a264.22,264.22,0,0,0-26.1,18.81h28.883c15.619-11.263,31.278-20.856,48.982-27.642a434.02,434.02,0,0,0,62.916-30.511h0l.012-.009c19.1-11.111,37.526-23.4,55.588-36.363l.026-.018.011-.008c4.29-3.078,8.73-5.955,13.154-8.843,1.3-.846,2.449-2.2,4.294-1.8V1290.51c-3.644,2.36-7.325,4.717-10.915,7.086C1396.87,1303.449,1387.793,1310.02,1378.655,1316.453Zm-.684,100.87h29.737l9.615-6.534v-20.745c-10.07,6.7-19.008,12.793-25.59,17.529C1386.473,1411.307,1382.025,1414.413,1377.971,1417.323ZM31.834,0C19.388,8.658,9.219,15.546,0,22.167V43.535C19.173,29.335,49.254,9.632,64.194,0Zm1117.08,1384.088c-2.677-5.076-7.335-4.921-12.015-3.771a14.16,14.16,0,0,0-4.879,2.479c-10,7.464-21.425,12.464-32.108,18.738-4.526,2.657-14.6,8.275-28.352,15.789h34.353c19.207-10.907,23.1-12.99,31.371-16.661,2.722-1.208,5.622-2.248,7.976-3.992C1149.5,1393.529,1151.67,1389.316,1148.914,1384.088Zm62.073-323.782c-37.077,26.6-73.909,53.581-114.173,75.379-38.961,21.091-80.155,37.414-120.054,56.49q-149.028,71.25-297.8,143.029c-44.434,21.361-88.966,42.541-131.938,66.78a129.833,129.833,0,0,0-21.732,15.339h29.348c4.381-2.737,9.158-5.529,14.568-8.39,68.055-35.995,138.083-67.95,207.473-101.211,83.313-39.934,165.528-82.2,250.2-119.25,54.865-24.011,107.9-51.2,156.1-86.966,45.383-33.675,92.573-64.455,140.787-93.607,33.551-20.166,64.754-37.755,93.561-54.113V933.62c-24.685,13.535-59.007,33.172-94.671,54.645C1284.562,1010.862,1247.064,1034.422,1210.987,1060.306Zm181.692,145.09q-31.773,21.728-63.99,42.714c-45.686,29.626-92.379,57.585-141.423,81.7-13.962,6.864-28.076,12.767-43.492,15.079A150.062,150.062,0,0,0,1097.3,1359.8c-43.723,22.414-78.409,40.65-110.9,57.519h36.575c50.81-26.89,60.5-31.6,79.95-41.533,14.034-7.168,28.646-12.444,44.433-14.352,12.633-1.526,24.936-4.722,36.231-10.724,37.193-19.762,75.089-38.259,111.163-60.047,13.52-8.166,26.7-16.859,39.8-25.669.032-.02.061-.041.091-.062,15.055-10.122,30.009-20.4,45.073-30.514q1.509-1.011,3.021-2.013c9.229-6.167,18.515-12.25,27.945-18.111,1.639-1.019,3.213-1.993,4.838-3a4.911,4.911,0,0,1,1.81-.205v-21.6c-3.451,2.171-6.935,4.236-10.357,6.455C1402.091,1198.93,1397.383,1202.18,1392.679,1205.4ZM542.606,38.174c1.783,3.849,5.1,4.983,9.1,4.832a17.193,17.193,0,0,0,8.936-3.316c6.337-4.237,13.228-7.371,20.072-10.645,21.2-10.139,28.1-13.478,29.817-14.334,2.911-1.339,11.191-5.191,31.5-14.711H602.382c-20.1,9.708-36.741,17.738-47.4,22.114-3.605,1.48-7.534,2.317-10.315,5.295C541.759,30.522,540.742,34.149,542.606,38.174ZM147.489,401.967c24.05-5.816,47.042-14.478,69.487-24.82C296.493,340.509,374.2,300.2,452.687,261.462c47.5-23.44,94.114-48.851,143.759-67.623Q724.117,145.565,847.363,87.558l.427.018c9.893-4.623,19.742-9.34,29.6-14.049,1.258-.6,2.533-1.168,3.79-1.772h-.057q66.163-31.712,131.126-66.072,5.654-3,10.726-5.682h-36.6c-45.8,23.773-87.3,44.858-143.468,71.04h-.022Q754.26,112.425,663.6,149.38c-40.483,16.553-82.191,30.071-121.718,49-89.756,42.975-177.965,89.077-267.521,132.453-33.976,16.456-67.107,35.4-103.374,46.081-47.63,14.033-94.177,30.306-138.773,52.184-12.533,6.149-7.958,4.33-32.209,14.845v18.787c11.163-5.174,22.747-10.512,35.3-16.227C71.97,429.812,108,411.518,147.489,401.967ZM193.481,297.03c90.748-44.688,179.858-92.59,270.3-137.882,31.277-15.664,61.714-33.267,95.963-42.22,20.067-5.246,39.935-11.187,59.164-19,22.758-9.252,45.337-18.908,67.853-28.707l-.111,0C731.331,49.791,775.664,29.569,819.9,9.119,825.772,6.4,832.346,3.306,839.3,0H799.011C773.4,11.7,733.724,29.494,662.093,61.255q-8.44,3.742-16.912,7.413c-3.916,1.7-7.853,3.357-11.786,5.021q-5.572,2.357-11.178,4.627a450.039,450.039,0,0,1-52.371,18.126c-21.609,5.817-43.053,11.963-63.212,21.927C425.445,158.5,345.353,200.776,264.677,241.91c-47.178,24.052-93.358,50.506-143.986,66.952C98.73,315.994,52.214,334.485,0,357.005v19.344c49.383-20.621,109.8-45.8,112.169-46.533A559.635,559.635,0,0,0,193.481,297.03ZM185.859,255.6c104.45-54.3,208.281-109.781,313.4-162.783a149.814,149.814,0,0,1,34.012-12.681h0c50.719-11.595,6.7,10.472,150.741-54.635C704.273,16.342,722.567,8.064,740.251,0H698.744C601.112,44.37,641.219,26.161,602.8,43.337c-61.57,27.525-50.609,9.895-93.48,26.186-.168.063-.34.112-.508.176a163.193,163.193,0,0,0-15.126,6.632c-94.4,47.668-187.814,97.23-281.524,146.225-37.946,19.839-75.181,41.463-116.618,53.578a436.966,436.966,0,0,0-81.185,32.884c-5.584,2.938-10.125,5.3-14.362,7.428V333.6c46.056-19.241,85.832-36.577,85.832-36.577C120.8,287.091,153.7,272.313,185.859,255.6Zm50.893,830.8c49.655-22.692,99.05-45.952,148.7-68.649,29.543-13.5,60.944-22.593,90.126-36.945,47.791-23.506,93.666-50.562,140-76.743,39.519-22.328,79.631-43.84,115.938-71.286,24.1-18.221,49.735-33.261,77.785-44.363,7.916-3.133,15.576-6.915,23.35-10.411,81.593-36.7,158.763-82.07,238.787-121.847,6.17-3.067,8.186-8.735,5.594-13.7-2.5-4.795-8.344-6.2-14.5-2.956-4.465,2.354-8.408,5.7-12.877,8.043-69.561,36.492-137.91,75.449-209.563,107.74A927.632,927.632,0,0,0,700.347,832.8c-72.7,49.182-150.8,89.81-228.547,130.612-28.605,15.01-59.8,24.081-89.326,37.047-72.746,31.947-143.346,68.619-217.613,97.279C123.253,1113.79,86,1138.652,47.512,1160.891c-15.537,8.98-31.629,18.482-47.512,28.459v20.824c49.6-30.787,93.116-57.34,144.673-84.353C174.321,1110.286,206.382,1100.277,236.752,1086.4ZM405.5,577.057c62.512-28.87,125.783-56.39,186.31-89.27q134.619-73.131,274.451-135.461C938.3,320.334,1009.387,286.484,1076,243.878c44.054-28.179,90.731-52.207,133.4-82.569,24.921-17.735,49.546-35.889,74.14-54.086q21.752-16.093,43.53-32.153,4.923-3.615,9.48-7.593l.03-.028q4.554-3.956,8.736-8.275l0,0h0A139.112,139.112,0,0,0,1359.446,42.2c8.876-12.617,19.963-22.84,32.617-31.567,0,0,7.746-5.263,15.645-10.632h-29.737c-14.369,10.316-22.719,17.58-35.294,36.436-6.2,9.3-14.349,16.855-23.332,23.417q-32.569,23.793-65.207,47.442c.048,0,.094,0,.143,0-50.1,36.208-100.829,71.479-154.389,102.9-72.625,42.6-145.415,84.375-222.5,118.468-59.617,26.367-119.475,52.388-177.179,82.756-91.55,48.181-183.43,95.611-277.516,138.721A2623.96,2623.96,0,0,0,177.661,677.849c-57.98,34.356-76.1,43.062-177.661,99.023V796.4c54.67-30.032,107.527-58.8,150.738-83.408C234.416,665.333,317.922,617.5,405.5,577.057ZM1371.48,61.925c-.019.02-.035.034-.054.054-6.195,6.509-12.432,13.088-19.353,18.779-14.4,11.84-29.037,23.381-43.8,34.755-2.536,1.958-5.091,3.892-7.637,5.838q-21.5,16.4-43.357,32.309-22.411,16.249-45.13,32.051c-54.386,37.631-112.845,68.97-168.459,104.82C995.33,321.708,942.4,344.3,890.182,368.061c-75.507,34.359-151.107,68.5-223.947,108.364-35.367,19.356-69.423,41.111-106.121,58.028C431.8,593.6,304.376,654.415,181.965,725.338,130.718,755.03,57.318,796.6,0,828.935V848.69l69.813-39.676c132.156-75.781,264.5-151.173,403.03-215.049,46.639-21.5,94.426-40.844,138.839-66.844,73.472-43.012,149.274-81.364,226.684-116.676,57.007-26,114.44-51.1,170.169-79.844,38.61-19.915,73.916-45.183,110.936-67.671,49.229-29.9,99.533-58.054,145.008-93.868q8.461-6.665,17.076-13.141,1.032-.781,2.067-1.557c25.294-19.05,51.1-37.47,75.374-57.756l.008.016c.1-.084.193-.175.294-.258,2.938-2.459,5.748-5.075,8.637-7.594,5.228-4.54,10.421-9.123,15.454-13.9.637-.608,1.327-1.151,1.961-1.763-.045-.027-.08-.06-.126-.087,5.6-5.382,11.168-10.795,16.437-16.577,2.661-2.92,8.4-7.528,15.662-12.908V22.167A298.132,298.132,0,0,0,1371.48,61.925Zm-81.509,733.212c.011-.064.02-.127.032-.192-10.622,5.918-21.186,11.93-31.753,17.939-2.215,1.259-4.46,2.468-6.672,3.732l0,.036c-45.446,25.98-90.274,53.014-133.611,82.6-42.446,28.979-84.167,59.112-129.28,83.971-69.644,38.377-141.288,72.934-211.46,110.308-65.9,35.1-132.382,69.127-197.874,104.967-42.241,23.115-82.026,50.5-123.61,74.845-57.525,33.673-117.826,62.116-176.154,94.261-26.389,14.543-59.251,32.565-89.448,49.718H225.11c17.779-9.913,36.86-20.411,59.78-33.068,55.267-30.523,112.374-57.585,167.149-89.044,46.377-26.634,90.444-57.215,137.435-82.656,99.482-53.861,199.784-106.209,300.428-157.879,62.53-32.1,125.86-62.849,183.259-103.88,61.429-43.911,125.5-83.384,190.736-120.9,48.556-27.951,97.713-54.9,147.133-81.407,2.133-1.143,4.178-2.232,6.293-3.363v-19.8c-11.513,6.1-22.013,11.71-31.027,16.663Q1338.086,768.481,1289.971,795.137ZM93.547,124.591C118.88,108.807,144.6,93.7,170.441,78.79l.1.007q49.7-28.725,99.939-56.529c.714-.4,27.706-14.995,41.154-22.268H275.355l-9.924,5.459Q203.94,39.28,143.286,74.575c-1.256.732-2.42,1.419-3.644,2.135h.007C24.908,143.885,38.379,146.981,0,177.763v22.37a190.919,190.919,0,0,0,22.665-19.6A392.861,392.861,0,0,1,93.547,124.591ZM1259.856,972.573h0c-29.425,18.1-58.349,37-86.227,57.6-41.565,30.7-83.577,60.883-130.625,82.793-121.157,56.421-240.666,116.244-361.095,174.161a1929.339,1929.339,0,0,0-228.424,130.2h33.873c20.445-14.355,60.744-42.216,86.454-55.606,135.313-70.476,272.917-136.306,410.722-201.7,54.174-25.7,109.187-49.873,157.455-86.017,38.731-29,78.76-55.912,119.587-81.542,35.232-22.116,71.07-43.26,107.27-63.837.512-.291,1.02-.586,1.532-.877q18.188-10.327,36.485-20.478l7.8-4.331a9.693,9.693,0,0,1,2.661-.5v-21.7q-24.284,14.168-47.062,27.248C1333.247,929.169,1296.163,950.244,1259.856,972.573Zm-64,153.906a671.669,671.669,0,0,1-127.524,71.639c-28.771,12.377-57.594,24.706-85.85,38.194-106.636,50.9-212.586,103.23-320,152.509-21.8,10-42.3,19.9-60.1,28.5h39.647l7.37-3.456c72.151-33.829,144.569-67.09,216.207-102,65.629-31.986,130.781-65.012,198.245-93.05a763.8,763.8,0,0,0,153.386-85.956c18.952-13.638,38.175-26.855,57.532-39.86q21.578-14.495,43.54-28.4c5.505-3.487,11-6.995,16.539-10.423q7.635-4.738,15.331-9.384c12.069-7.3,24.178-14.533,36.44-21.531,3.859-2.2,6.088-3.548,8.168-4.826,7.319-4.41,14.624-8.851,22.536-12.192v-21.13c-10.005,5.841-20.764,12.179-32.106,18.942Q1287.655,1060.732,1195.855,1126.479ZM1332.676,575.1l.005-.051c-16.433,8.079-32.821,16.251-49.247,24.346-13.973,6.906-27.973,13.757-41.933,20.689,0,.014,0,.027,0,.041-11.48,5.694-23,11.305-34.463,17.038-100.006,50.014-76.739,49.884-123.155,79.878C1020.9,757.74,955.438,794.069,888.5,827.807c-37.436,18.869-76.373,34.949-111.706,57.762-85.269,55.052-173.489,105-262.7,153.281-13.7,7.413-27.9,13.377-43.4,15.405-20.369,2.663-39.355,9.4-57.724,18.26-37.567,18.108-74.784,37-112.8,54.106-78.889,35.506-156.165,73.989-229.738,119.646C45.1,1261.991,22.06,1276.243,0,1290.525v20.363c42.3-28.027,138.744-88.375,214.971-125.219,68.438-33.077,137.608-64.65,205.874-98.112,15.379-7.538,31.132-14.165,48.33-15.928,17.738-1.817,34.114-7.416,49.686-15.828,66.3-35.818,132.254-72.258,196.615-111.488,45.624-27.81,89.781-58.033,138.531-80.574,52.519-24.282,103.665-51.314,153.654-80.473C1177.2,684.38,1093.31,712.5,1229.546,645.007q50.448-24.993,100.957-49.867c0-.019.005-.039.007-.059,27.333-13.487,57.341-28.269,86.813-42.735v-19c-1.713.844-3.38,1.664-5.14,2.533Q1372.418,555.465,1332.676,575.1ZM465.708,1108.9c7.207-3.549,10.325-9.229,7.6-14.68-2.641-5.286-9.332-6.186-16.362-2.075-4.57,2.672-8.872,5.846-13.581,8.224-35.774,18.064-71.2,36.89-107.525,53.78-95.984,44.631-189.727,93.326-279.28,149.887C24.781,1324.106,27.63,1321.78,0,1340.449v20.756c67.292-45.165,137.5-88.716,209.976-125.879C294.584,1191.943,380.394,1150.905,465.708,1108.9Z"/></svg>