<?xml version="1.0" encoding="UTF-8" standalone="no"?>
<svg
   xmlns:dc="http://purl.org/dc/elements/1.1/"
   xmlns:cc="http://creativecommons.org/ns#"
   xmlns:rdf="http://www.w3.org/1999/02/22-rdf-syntax-ns#"
   xmlns:svg="http://www.w3.org/2000/svg"
   xmlns="http://www.w3.org/2000/svg"
   xml:space="preserve"
   height="70.957001mm"
   width="194.92401mm"
   version="1.1"
   id="svg2"><metadata
     id="metadata8"><rdf:RDF><cc:Work
         rdf:about=""><dc:format>image/svg+xml</dc:format><dc:type
           rdf:resource="http://purl.org/dc/dcmitype/StillImage" /><dc:title></dc:title><cc:license
           rdf:resource="http://creativecommons.org/licenses/by/4.0/" /></cc:Work><cc:License
         rdf:about="http://creativecommons.org/licenses/by/4.0/"><cc:permits
           rdf:resource="http://creativecommons.org/ns#Reproduction" /><cc:permits
           rdf:resource="http://creativecommons.org/ns#Distribution" /><cc:requires
           rdf:resource="http://creativecommons.org/ns#Notice" /><cc:requires
           rdf:resource="http://creativecommons.org/ns#Attribution" /><cc:permits
           rdf:resource="http://creativecommons.org/ns#DerivativeWorks" /></cc:License></rdf:RDF></metadata><defs
     id="defs6" /><g
     transform="matrix(1.25,0,0,-1.25,-157.82093,503.26784)"
     id="g10"><g
       style="opacity:0.98000004;fill:#ffed1f;fill-opacity:1;stroke:none"
       transform="translate(5e-6,1.1e-5)"
       id="g4535"><g
         id="g12"
         transform="translate(181.9314,342.6182)"
         style="fill:#ffed1f;fill-opacity:1;stroke:none" /><g
         id="g16"
         transform="translate(305.6636,218.6074)"
         style="fill:#ffed1f;fill-opacity:1;stroke:none"><path
           d="M 0,0 H 11.571 V 31.235 H 33.67 V -0.009 l 11.57,10e-4 V 62.491 H 33.67 V 39.051 H 11.571 v 23.44 H 0 Z M 69.314,-0.009 V 31.236 H 92.458 V -0.009 h 11.573 v 57.288 l -3.848,5.212 H 61.595 L 57.741,57.279 V -0.009 Z m 0,54.679 H 92.459 V 39.047 H 69.314 Z m 220.46,-54.679 v 57.288 l 3.853,5.212 h 38.588 l 3.848,-5.212 V -0.009 H 324.491 V 31.236 H 301.346 V -0.009 Z M 324.491,54.67 H 301.346 V 39.047 h 23.145 z m -207.96,-49.489 3.853,-5.19 h 38.588 l 3.848,5.19 V 15.614 H 151.248 V 7.802 H 128.103 V 54.67 h 23.145 v -7.811 h 11.572 v 10.42 l -3.848,5.212 h -38.588 l -3.853,-5.212 z m 58.789,57.31 h 11.572 V 39.048 h 11.573 l 11.572,15.622 v 7.809 l 11.572,0.012 V 54.67 L 204.251,31.236 221.609,7.802 v -7.811 h -11.572 v 7.811 l -17.359,23.434 h -5.786 V -0.009 H 175.32 Z m 58.789,-62.5 h 45.248 V 15.614 H 267.785 V 7.802 h -22.103 v 54.689 h -11.573 z m 160.743,57.288 -3.847,5.212 h -42.442 v -62.5 h 42.442 l 3.847,5.19 V 26.04 l -3.847,5.196 3.847,5.202 z M 383.28,39.048 h -23.145 v 15.623 h 23.145 z m 0,-31.246 H 360.135 V 31.236 H 383.28 Z M 68.763,93.579 v 31.245 H 91.907 V 93.579 h 11.573 v 57.288 l -3.848,5.212 H 61.044 L 57.19,150.867 V 93.579 Z m 0,54.679 H 91.908 V 132.635 H 68.763 Z m -72.93,-0.543 20.433,-0.008 V 93.579 h 11.573 v 54.128 h 20.527 l 10e-4,8.372 H -4.167 Z m 132.27,8.364 11.572,-15.632 11.573,15.632 h 11.572 v -62.5 h -11.572 v 46.434 L 139.675,124.39 128.103,140.013 V 93.579 h -11.572 v 62.5 z m 48.268,0 v -62.5 h 11.572 v 31.245 h 30.87 l 3.847,5.202 v 20.841 l -3.847,5.212 z m 34.717,-23.443 h -23.145 v 15.623 h 23.145 z m 66.318,15.622 h -31.592 v -15.622 h 23.145 v -7.812 H 245.814 V 101.39 h 31.592 v -7.811 h -43.164 v 62.5 h 43.164 z m 114.577,7.821 h -44.206 v -62.5 h 44.206 v 7.811 h -32.634 v 23.434 h 23.145 v 7.812 h -23.145 v 15.622 h 32.634 z m -60.37,0 3.848,-5.212 v -20.841 l -3.848,-5.202 h -13.511 l 17.359,-23.434 v -7.811 h -11.573 v 7.811 l -17.358,23.434 h -5.786 V 93.579 h -11.573 v 62.5 z m -30.869,-23.443 h 23.145 v 15.623 h -23.145 z m -424.4762,-8.6252 h 27.696 v -12.098 h -68.253 v 12.098 h 27.759 v 44.878 h 83.184 v -184.311 h -83.198 v 109.751 h -19.241 v 12.096 h 51.222 l -0.01,-12.144 h -19.159 v -95.247 h 55.924 v 157.099 h -55.924 z"
           style="fill:#ffed1f;fill-opacity:1;fill-rule:nonzero;stroke:none"
           id="path18" /></g></g></g></svg>