<?xml version="1.0" encoding="UTF-8" standalone="no"?>
<!-- Created with Inkscape (http://www.inkscape.org/) -->

<svg
   xmlns:dc="http://purl.org/dc/elements/1.1/"
   xmlns:cc="http://creativecommons.org/ns#"
   xmlns:rdf="http://www.w3.org/1999/02/22-rdf-syntax-ns#"
   xmlns:svg="http://www.w3.org/2000/svg"
   xmlns="http://www.w3.org/2000/svg"
   xmlns:sodipodi="http://sodipodi.sourceforge.net/DTD/sodipodi-0.dtd"
   xmlns:inkscape="http://www.inkscape.org/namespaces/inkscape"
   width="225.12509"
   height="135.51578"
   viewBox="0 0 225.12509 135.51578"
   id="svg4137"
   version="1.1"
   inkscape:version="0.91 r13725"
   sodipodi:docname="wikilogo.svg"
   inkscape:export-filename="D:\Dropbox\wikilogo3.png"
   inkscape:export-xdpi="90"
   inkscape:export-ydpi="90">
  <defs
     id="defs4139" />
  <sodipodi:namedview
     id="base"
     pagecolor="#ffffff"
     bordercolor="#666666"
     borderopacity="1.0"
     inkscape:pageopacity="0.0"
     inkscape:pageshadow="2"
     inkscape:zoom="1.979899"
     inkscape:cx="102.10173"
     inkscape:cy="89.124464"
     inkscape:document-units="px"
     inkscape:current-layer="layer1"
     showgrid="false"
     units="px"
     inkscape:window-width="1920"
     inkscape:window-height="1148"
     inkscape:window-x="-4"
     inkscape:window-y="-4"
     inkscape:window-maximized="1"
     showguides="true"
     inkscape:guide-bbox="true"
     inkscape:snap-text-baseline="true"
     inkscape:snap-center="true"
     inkscape:snap-object-midpoints="true"
     fit-margin-top="0"
     fit-margin-left="0"
     fit-margin-right="0"
     fit-margin-bottom="0">
    <sodipodi:guide
       position="266.40178,-22.228462"
       orientation="1,0"
       id="guide4188" />
    <sodipodi:guide
       position="-22.501843,156.56854"
       orientation="1,0"
       id="guide4202" />
  </sodipodi:namedview>
  <metadata
     id="metadata4142">
    <rdf:RDF>
      <cc:Work
         rdf:about="">
        <dc:format>image/svg+xml</dc:format>
        <dc:type
           rdf:resource="http://purl.org/dc/dcmitype/StillImage" />
        <dc:title></dc:title>
      </cc:Work>
    </rdf:RDF>
  </metadata>
  <g
     inkscape:label="Layer 1"
     inkscape:groupmode="layer"
     id="layer1"
     transform="translate(89.625087,-917.34642)">
    <path
       id="path4238-6-1-9"
       style="fill:#544e4a;fill-opacity:1;fill-rule:nonzero;stroke:#ffff00;stroke-opacity:0"
       d="m 124.54682,996.26207 10.45318,0 0,56.45733 -10.45318,0 z m -73.030675,-0.04 10.453182,0 0,56.45743 -10.453182,0 z M 31.360411,1052.698 20.907229,1038.5774 10.453181,1052.698 0,1052.698 l 0,-56.45733 10.453181,0 0,41.94463 10.454048,-14.1125 10.453182,14.1125 0,-41.94463 10.453181,0 0,56.45733 -10.453181,0 z m 40.986336,-56.44253 10.453181,0 0,21.17653 10.454084,0 10.453198,-14.1117 0,-7.05393 10.45318,-0.011 0,7.06483 -15.679787,21.1684 15.679787,21.1683 0,7.0558 -10.45318,0 0,-7.0558 -15.680691,-21.1683 -5.226591,0 0,28.2241 -10.453181,0 0,-56.45733 z"
       inkscape:connector-curvature="0" />
    <path
       d="m -59.833249,950.31232 20.344565,0 0,8.8868 -50.136403,0 0,-8.8868 20.390843,0 0,-32.9659 61.1042278,0 0,135.38888 -61.1145088,0 0,-80.61954 -14.133805,0 0,-8.88534 37.625994,0 -0.0073,8.92061 -14.073567,0 0,69.96527 41.079925,0 0,-115.39974 -41.079925,0 0,23.59576 z"
       style="fill:#544e4a;fill-opacity:1;fill-rule:nonzero;stroke:none"
       id="path14-4"
       inkscape:connector-curvature="0" />
    <path
       d="m -0.05356415,982.01128 3.91523205,0 0,-10.56882 7.4775451,0 0,10.57186 3.914896,0 0,-21.1475 -3.914896,0 0,7.93125 -7.4775451,0 0,-7.93125 -3.91523205,0 0,21.14483 z m 23.45349115,0 0,-10.57223 7.831149,0 0,10.57223 3.915901,0 0,-19.38427 -1.302032,-1.7636 -13.056859,0 -1.304062,1.7636 0,19.38427 3.915903,0 z m 0,-18.50145 7.83148,0 0,5.2863 -7.83148,0 0,-5.2863 z m 74.596155,18.50145 0,-19.38427 1.303732,-1.7636 13.056866,0 1.30203,1.7636 0,19.38427 -3.91556,0 0,-10.57223 -7.83149,0 0,10.57223 -3.915578,0 z m 11.747068,-18.50145 -7.83149,0 0,5.2863 7.83149,0 0,-5.2863 z m -70.366598,16.74541 1.30373,1.75604 13.056858,0 1.302033,-1.75604 0,-3.53025 -3.91557,0 0,2.64337 -7.831481,0 0,-15.85853 7.831481,0 0,2.64292 3.91557,0 0,-3.52574 -1.302033,-1.7636 -13.056858,0 -1.30373,1.7636 0,17.62823 z m 19.892196,-19.39183 3.915571,0 0,7.93236 3.915908,0 3.91557,-5.28594 0,-2.64237 3.915571,0 0,2.64644 -5.873349,7.92923 5.873349,7.92929 0,2.64293 -3.915571,0 0,-2.64293 -5.87369,-7.92929 -1.957788,0 0,10.57222 -3.915571,0 0,-21.14789 z m 19.892194,21.14787 15.310381,0 0,-5.28629 -3.91557,0 0,2.64337 -7.4789,0 0,-18.50495 -3.915911,0 0,21.14787 z m 54.389968,-19.38427 -1.30169,-1.7636 -14.36093,0 0,21.14787 14.36093,0 1.30169,-1.75604 0,-7.05802 -1.30169,-1.75817 1.30169,-1.7602 0,-7.05184 z m -3.91557,6.16876 -7.83148,0 0,-5.28631 7.83148,0 0,5.28631 z m 0,10.57259 -7.83148,0 0,-7.92931 7.83148,0 0,7.92931 z m -106.421847,-29.02395 0,-10.57223 7.831139,0 0,10.57223 3.915912,0 0,-19.38436 -1.302033,-1.76352 -13.056868,0 -1.304061,1.76352 0,19.38436 3.915911,0 z m 0,-18.50154 7.831481,0 0,5.2863 -7.831481,0 0,-5.2863 z m -24.6770274,0.18375 6.9138301,0 0,18.31512 3.9159065,0 0,-18.31512 6.9456368,0 2.76e-4,-2.83276 -17.7757176,0 0,2.83009 z m 44.7556564,-2.83009 3.915571,5.28936 3.91591,-5.28936 3.91557,0 0,21.14788 -3.91557,0 0,-15.71167 -3.91591,5.2863 -3.915571,-5.2863 0,15.71167 -3.91557,0 0,-21.14788 3.91557,0 z m 16.332252,0 0,21.14788 3.91557,0 0,-10.57223 10.445352,0 1.301698,-1.76019 0,-7.05194 -1.301698,-1.76352 -14.360922,0 z m 11.747052,7.93228 -7.831482,0 0,-5.28623 7.831482,0 0,5.28623 z m 22.439746,-5.28594 -10.689652,0 0,5.28594 7.831471,0 0,2.64337 -7.831471,0 0,7.9292 10.689652,0 0,2.64303 -14.605222,0 0,-21.14788 14.605222,0 0,2.64634 z m 38.768978,-2.64634 -14.9578,0 0,21.14788 14.9578,0 0,-2.64303 -11.04224,0 0,-7.9292 7.83148,0 0,-2.64337 -7.83148,0 0,-5.28594 11.04224,0 0,-2.64634 z m -20.42717,0 1.30204,1.76352 0,7.05194 -1.30204,1.76019 -4.57164,0 5.87368,7.9292 0,2.64303 -3.9159,0 0,-2.64303 -5.87336,-7.9292 -1.9578,0 0,10.57223 -3.915914,0 0,-21.14788 14.360934,0 z m -10.44502,7.93228 7.83151,0 0,-5.28623 -7.83151,0 0,5.28623 z"
       style="fill:#544e4a;fill-opacity:1;fill-rule:nonzero;stroke:none"
       id="path18"
       inkscape:connector-curvature="0" />
  </g>
</svg>
