<?xml version="1.0" encoding="UTF-8" standalone="no"?>
<svg
   xml:space="preserve"
   height="70.957001mm"
   width="194.924mm"
   version="1.1"
   id="svg2"
   sodipodi:docname="tampere-hacklab-yellow.svg"
   inkscape:version="1.1.1 (3bf5ae0d25, 2021-09-20)"
   xmlns:inkscape="http://www.inkscape.org/namespaces/inkscape"
   xmlns:sodipodi="http://sodipodi.sourceforge.net/DTD/sodipodi-0.dtd"
   xmlns="http://www.w3.org/2000/svg"
   xmlns:svg="http://www.w3.org/2000/svg"
   xmlns:rdf="http://www.w3.org/1999/02/22-rdf-syntax-ns#"><sodipodi:namedview
     id="namedview13"
     pagecolor="#505050"
     bordercolor="#eeeeee"
     borderopacity="1"
     inkscape:pageshadow="0"
     inkscape:pageopacity="0"
     inkscape:pagecheckerboard="0"
     inkscape:document-units="mm"
     showgrid="false"
     inkscape:zoom="1.4142136"
     inkscape:cx="360.97801"
     inkscape:cy="152.38151"
     inkscape:window-width="1842"
     inkscape:window-height="973"
     inkscape:window-x="1912"
     inkscape:window-y="-8"
     inkscape:window-maximized="1"
     inkscape:current-layer="svg2"
     fit-margin-top="0"
     fit-margin-left="0"
     fit-margin-right="0"
     fit-margin-bottom="0" /><metadata
     id="metadata8"><rdf:RDF /></metadata><defs
     id="defs6" /><g
     id="g25549"><g
       id="g25526"><g
         id="g25504"><rect
           style="fill:#000000;fill-opacity:1;stroke:none;stroke-width:9.73724;stroke-miterlimit:4;stroke-dasharray:19.4745, 9.73724;stroke-dashoffset:0;stroke-opacity:1"
           id="rect11"
           width="736.72064"
           height="268.18393"
           x="3.199463e-06"
           y="-9.4653324e-06" /><g
           style="opacity:0.98;fill:#000000"
           transform="matrix(1.25,0,0,-1.25,69.59333,74.99507)"
           id="g12"><path
             id="path14"
             style="fill:#000000;fill-opacity:1;fill-rule:nonzero;stroke:none"
             d="M 0,0 H 27.696 V -12.098 H -40.557 V 0 h 27.759 v 44.878 h 83.184 v -184.311 h -83.198 v 109.751 h -19.241 v 12.096 H 19.169 L 19.159,-29.73 H 0 v -95.247 H 55.924 V 32.122 H 0 Z" /></g><path
           id="path18"
           style="opacity:0.98;fill:#050501;fill-opacity:1;fill-rule:nonzero;stroke:none;stroke-width:1.25"
           d="m 224.25858,230.00857 h 14.46375 v -39.04375 h 27.62375 v 39.055 l 14.4625,-0.001 v -78.12375 h -14.4625 v 29.3 h -27.62375 v -29.3 h -14.46375 z m 86.6425,0.0113 v -39.05625 h 28.93 v 39.05625 h 14.46625 v -71.61 l -4.81,-6.515 h -48.235 l -4.8175,6.515 v 71.61 z m 0,-68.34875 h 28.93125 v 19.52875 h -28.93125 z m 275.575,68.34875 v -71.61 l 4.81625,-6.515 h 48.235 l 4.81,6.515 v 71.61 h -14.465 v -39.05625 h -28.93125 v 39.05625 z m 43.39625,-68.34875 h -28.93125 v 19.52875 h 28.93125 z m -259.95,61.86125 4.81625,6.4875 h 48.235 l 4.81,-6.4875 v -13.04125 h -14.465 v 9.765 h -28.93125 v -58.585 h 28.93125 v 9.76375 h 14.465 v -13.025 l -4.81,-6.515 h -48.235 l -4.81625,6.515 z m 73.48625,-71.6375 h 14.465 v 29.30375 h 14.46625 l 14.465,-19.5275 v -9.76125 l 14.465,-0.015 v 9.77625 l -21.6975,29.2925 21.6975,29.2925 v 9.76375 h -14.465 v -9.76375 l -21.69875,-29.2925 h -7.2325 v 39.05625 h -14.465 z m 73.48625,78.125 h 56.56 v -19.52875 h -14.465 v 9.765 h -27.62875 v -68.36125 h -14.46625 z m 200.92875,-71.61 -4.80875,-6.515 h -53.0525 v 78.125 h 53.0525 l 4.80875,-6.4875 v -26.07375 l -4.80875,-6.495 4.80875,-6.5025 z m -14.465,22.78875 h -28.93125 v -19.52875 h 28.93125 z m 0,39.0575 h -28.93125 v -29.2925 h 28.93125 z M 310.21233,113.03482 V 73.97857 h 28.93 v 39.05625 h 14.46625 v -71.61 l -4.81,-6.515 h -48.235 l -4.8175,6.515 v 71.61 z m 0,-68.34875 h 28.93125 v 19.52875 h -28.93125 z m -91.1625,0.67875 25.54125,0.01 v 67.66 h 14.46625 v -67.66 h 25.65875 l 0.001,-10.465 h -65.6675 z m 165.3375,-10.455 14.465,19.54 14.46625,-19.54 h 14.465 v 78.125 h -14.465 v -58.0425 l -14.46625,19.52875 -14.465,-19.52875 v 58.0425 h -14.465 v -78.125 z m 60.335,0 v 78.125 h 14.465 V 73.97857 h 38.5875 l 4.80875,-6.5025 V 41.42482 l -4.80875,-6.515 z m 43.39625,29.30375 H 459.18733 V 44.68482 h 28.93125 z m 82.8975,-19.5275 h -39.49 v 19.5275 h 28.93125 v 9.765 h -28.93125 v 29.2925 h 39.49 v 9.76375 h -53.955 v -78.125 h 53.955 z m 143.22125,-9.77625 h -55.2575 v 78.125 h 55.2575 v -9.76375 h -40.7925 v -29.2925 h 28.93125 v -9.765 h -28.93125 v -19.5275 h 40.7925 z m -75.4625,0 4.81,6.515 v 26.05125 l -4.81,6.5025 h -16.88875 l 21.69875,29.2925 v 9.76375 h -14.46625 v -9.76375 l -21.6975,-29.2925 h -7.2325 v 39.05625 h -14.46625 v -78.125 z m -38.58625,29.30375 h 28.93125 V 44.68482 h -28.93125 z" /><path
           style="fill:#ffed1f;fill-opacity:1;stroke:#1b1918;stroke-width:0.479279"
           d="M 54.090087,180.4144 V 111.94594 H 42.108105 30.126124 v -7.18919 -7.189189 h 31.495494 31.495493 v 7.189189 7.18919 H 81.13513 69.153149 v 59.9099 59.90991 h 35.261261 35.26126 V 133.17116 34.576574 H 104.41441 69.153149 v 20.198197 20.198197 h 17.459458 17.459463 v 7.531531 7.531531 H 61.621618 19.17117 V 82.504499 74.972968 H 36.630628 54.090087 V 47.24324 19.513512 h 51.693693 51.69369 V 134.19819 248.88287 H 105.78378 54.090087 Z"
           id="path4634" /><path
           style="fill:#ffed1f;fill-opacity:1;stroke:#1b1918;stroke-width:0.479279"
           d="m 245.1171,78.738734 v -33.89189 h -13.00901 -13.00901 v -4.792793 -4.792792 h 32.52253 32.52252 v 4.792792 4.792793 h -12.66667 -12.66667 v 33.89189 33.891886 h -6.84684 -6.84685 z"
           id="path4673" /><path
           style="fill:#ffed1f;fill-opacity:1;stroke:#1b1918;stroke-width:0.479279"
           d="M 295.78376,77.370949 V 42.111275 l 2.46063,-3.425008 2.46062,-3.425008 h 23.86837 23.86838 l 2.42775,3.17954 2.42776,3.17954 v 35.505142 35.505139 h -6.84684 -6.84685 V 93.117111 73.603599 h -14.72072 -14.72072 v 19.513512 19.513509 h -7.18919 -7.18919 z m 43.81982,-22.93852 v -10.27027 h -14.72072 -14.72072 v 10.27027 10.270269 h 14.72072 14.72072 z"
           id="path4712" /><path
           style="fill:#ffed1f;fill-opacity:1;stroke:#1b1918;stroke-width:0.479279"
           d="M 370.41439,73.945941 V 35.261259 h 6.8661 6.86609 l 6.99877,9.558478 c 3.84932,5.257164 7.30688,9.562098 7.68345,9.566523 0.37658,0.0044 3.84573,-4.296891 7.70922,-9.558478 l 7.02453,-9.566523 h 6.84033 6.84034 v 38.684682 38.684679 h -6.84685 -6.84685 V 83.873868 c 0,-15.816215 -0.23108,-28.745461 -0.51351,-28.731659 -0.28243,0.0138 -2.9016,3.325965 -5.82036,7.36036 -2.91877,4.034395 -6.02057,8.225603 -6.8929,9.313794 l -1.58604,1.978529 -6.8008,-9.32195 c -3.74044,-5.127074 -7.03188,-9.329574 -7.31431,-9.33889 -0.28244,-0.0093 -0.51352,12.923601 -0.51352,28.739816 v 28.756752 h -6.84684 -6.84685 z"
           id="path4751" /><path
           style="fill:#ffed1f;fill-opacity:1;stroke:#1b1918;stroke-width:0.479279"
           d="M 445.04502,73.945941 V 35.261259 h 26.29613 26.29613 l 2.46062,3.425008 2.46063,3.425008 v 12.402178 12.402178 l -2.45471,3.343984 -2.45471,3.343984 h -19.4552 -19.4552 v 19.513512 19.513509 h -6.84685 -6.84684 z m 43.13513,-19.513512 v -10.27027 h -14.72072 -14.72072 v 10.27027 10.270269 h 14.72072 14.72072 z"
           id="path4790" /><path
           style="fill:#ffed1f;fill-opacity:1;stroke:#1b1918;stroke-width:0.479279"
           d="M 517.62159,73.945941 V 35.261259 h 26.36036 26.36035 v 4.45045 4.45045 h -19.51351 -19.51351 v 10.27027 10.270269 h 14.37838 14.37838 v 4.450451 4.45045 h -14.37838 -14.37838 v 15.063062 15.063059 h 19.51351 19.51351 v 4.45045 4.45045 h -26.36035 -26.36036 z"
           id="path4829" /><path
           style="fill:#ffed1f;fill-opacity:1;stroke:#1b1918;stroke-width:0.479279"
           d="M 586.09005,73.945941 V 35.261259 h 26.24429 26.24429 l 2.17013,3.02184 2.17012,3.021841 v 13.127489 13.127489 l -2.17012,3.02184 -2.17013,3.021841 h -8.44249 c -4.64337,0 -8.44249,0.188156 -8.44249,0.418124 0,0.229969 4.77568,6.849503 10.61261,14.710076 l 10.61262,14.291951 v 4.80343 4.80344 h -6.84685 -6.84685 l -0.008,-4.96396 -0.008,-4.96396 -10.76289,-14.549553 -10.76288,-14.549548 h -3.94967 -3.94968 v 19.513512 19.513509 h -6.84684 -6.84685 z m 43.13513,-19.513512 v -10.27027 h -14.72072 -14.72072 v 10.27027 10.270269 h 14.72072 14.72072 z"
           id="path4868" /><path
           style="fill:#ffed1f;fill-opacity:1;stroke:#1b1918;stroke-width:0.479279"
           d="M 659.35131,73.945941 V 35.261259 h 27.38738 27.38739 v 4.45045 4.45045 H 693.58554 673.045 v 10.27027 10.270269 h 14.37838 14.37838 v 4.450451 4.45045 H 687.42338 673.045 v 15.063062 15.063059 h 20.54054 20.54054 v 4.45045 4.45045 h -27.38739 -27.38738 z"
           id="path4907" /><path
           style="fill:#ffed1f;fill-opacity:1;stroke:#1b1918;stroke-width:0.479279"
           d="m 224.57656,191.02701 v -38.68468 h 6.84685 6.84684 v 14.72072 14.72072 h 14.03604 14.03603 v -14.72072 -14.72072 h 7.18919 7.18919 v 38.68468 38.68469 h -7.18919 -7.18919 v -19.51352 -19.51351 h -14.03603 -14.03604 v 19.51351 19.51352 h -6.84684 -6.84685 z"
           id="path4946" /><path
           style="fill:#ffed1f;fill-opacity:1;stroke:#1b1918;stroke-width:0.479279"
           d="m 296.46845,194.371 v -35.3407 l 2.45471,-3.34398 2.45471,-3.34399 24.07682,0.001 24.07682,0.001 2.22522,3.26507 2.22523,3.26507 v 35.41829 35.41829 h -6.84685 -6.84684 v -19.51352 -19.51351 h -14.72072 -14.72072 v 19.51351 19.51352 h -7.18919 -7.18919 z m 43.81982,-22.8575 v -10.27027 h -14.72072 -14.72072 v 10.27027 10.27027 h 14.72072 14.72072 z"
           id="path4985" /><path
           style="fill:#ffed1f;fill-opacity:1;stroke:#1b1918;stroke-width:0.479279"
           d="m 372.63962,226.6327 -2.22523,-3.0256 v -32.61054 -32.61055 l 2.17012,-3.02184 2.17012,-3.02184 h 24.07417 24.07417 l 2.17012,3.02184 c 2.05611,2.86309 2.17013,3.34869 2.17013,9.24325 v 6.2214 h -6.84685 -6.84685 v -4.79279 -4.7928 H 398.8288 384.10808 v 29.78378 29.78379 h 14.72072 14.72072 v -5.13514 -5.13513 h 6.84685 6.84685 v 6.53329 c 0,6.29379 -0.0816,6.6442 -2.22523,9.55888 l -2.22522,3.02559 H 398.8288 374.86484 Z"
           id="path5024" /><path
           style="fill:#ffed1f;fill-opacity:1;stroke:#1b1918;stroke-width:0.479279"
           d="m 516.9369,191.02701 v -38.68468 h 7.18919 7.18919 v 34.23423 34.23424 h 14.03604 14.03603 v -5.13514 -5.13513 h 6.84685 6.84684 v 9.58558 9.58559 H 545.00897 516.9369 Z"
           id="path5102" /><path
           style="fill:#ffed1f;fill-opacity:1;stroke:#1b1918;stroke-width:0.479279"
           d="m 586.77474,194.32709 v -35.3846 l 2.22522,-3.28242 2.22523,-3.28243 24.07682,-0.0177 24.07682,-0.0177 2.45471,3.34399 2.45471,3.34398 v 35.3407 35.3407 h -7.18919 -7.18919 v -19.51352 -19.51351 h -14.72072 -14.72072 v 19.51351 19.51352 h -6.84685 -6.84684 z m 43.13513,-22.81359 v -10.27027 h -14.72072 -14.72072 v 10.27027 10.27027 h 14.72072 14.72072 z"
           id="path5141" /><path
           style="fill:#ffed1f;fill-opacity:1;stroke:#1b1918;stroke-width:0.479279"
           d="m 660.03599,191.02701 v -38.68468 l 26.53153,0.0177 26.53153,0.0177 2.22523,3.28243 2.22522,3.28242 v 12.69155 12.69155 l -2.39639,3.13847 c -1.31802,1.72615 -2.3964,3.32948 -2.3964,3.56295 0,0.23348 1.07838,1.83681 2.3964,3.56296 l 2.39639,3.13847 v 12.81209 12.81209 l -2.42776,3.17954 -2.42776,3.17954 h -26.32899 -26.329 z m 43.81982,14.72072 v -15.06306 h -14.72072 -14.72072 v 15.06306 15.06307 h 14.72072 14.72072 z m 0,-34.23423 v -10.27027 h -14.72072 -14.72072 v 10.27027 10.27027 h 14.72072 14.72072 z"
           id="path14990" /><path
           style="fill:#ffed1f;fill-opacity:1;stroke:#1b1918;stroke-width:0.169451"
           d="m 443.47696,190.87423 v -38.97369 h 7.14114 7.14114 v 14.76643 14.76643 h 7.26243 7.26243 l 1.0713,-1.39192 c 0.58922,-0.76556 3.85442,-5.1501 7.25601,-9.74342 l 6.18472,-8.35151 0.006,-4.86906 0.006,-4.86907 1.12311,-0.15394 c 0.61772,-0.0847 3.83123,-0.15394 7.14114,-0.15394 h 6.01803 l -0.004,4.90197 -0.004,4.90197 -10.67682,14.40332 c -5.87226,7.92182 -10.72853,14.53628 -10.79172,14.6988 -0.0632,0.16251 4.74303,6.85424 10.6805,14.8705 l 10.7954,14.57501 v 4.7979 4.7979 h -7.14114 -7.14114 v -4.91274 -4.91275 l -10.79358,-14.5741 -10.79357,-14.57409 h -3.73078 -3.73078 v 19.48684 19.48684 h -7.14114 -7.14114 z"
           id="path24548" /></g></g></g></svg>
