<svg xmlns="http://www.w3.org/2000/svg" viewBox="0 0 373.089 205.055"><polygon points="55.774 41.665 55.774 69.675 38.048 69.675 38.048 79.472 85.256 79.472 85.256 69.675 66.694 69.675 66.694 52.585 101.855 52.585 101.855 153.468 66.694 153.468 66.694 93.249 80.279 93.249 80.279 83.452 43.024 83.452 43.024 93.249 55.774 93.249 55.774 164.39 112.776 164.39 112.776 41.665 55.774 41.665"/><path d="M138.639,47h-8.548V42.789H151.92V47h-8.547V74h-4.734Z"/><path d="M171.511,67.028H159.676L157.265,74h-5l11.354-31.209h3.944L178.919,74h-5Zm-1.359-4.208-4.514-13.632h-.088L161.035,62.82Z"/><path d="M185.378,42.789h4.471l8.943,20.338,8.766-20.338h4.471V74H207.3V54.536h-.088l-6.532,14.991h-3.945L190.2,54.536h-.087V74h-4.735Z"/><path d="M222.106,42.789h11.31a10.249,10.249,0,0,1,7.013,2.191,9.285,9.285,0,0,1,3.375,7.452,9.412,9.412,0,0,1-9.775,9.381h-7.188V74h-4.735Zm4.735,14.552h7.013A4.941,4.941,0,0,0,239.07,52.3a4.619,4.619,0,0,0-2.016-4.164,5.5,5.5,0,0,0-3.376-.877h-6.837Z"/><path d="M251.6,42.789h19.944v4.47h-15.21v8.9h12.975v4.208H256.336v9.161h15.21V74H251.6Z"/><path d="M279.851,42.789h12.186a9.182,9.182,0,0,1,6.356,2.06,8.988,8.988,0,0,1-2.937,15.3L302.688,74h-5.611l-6.443-13.325h-6.049V74h-4.734Zm4.734,13.676h7.145c3.55,0,5.3-2.324,5.3-4.953a4.219,4.219,0,0,0-1.578-3.551A5.266,5.266,0,0,0,291.993,47h-7.408Z"/><path d="M310.091,42.789h19.945v4.47h-15.21v8.9H327.8v4.208H314.826v9.161h15.21V74H310.091Z"/><path d="M179.546,84.449V120.5H168.214V107.266H142.976V120.5H131.644V84.449h11.332V97.686h25.238V84.449Z"/><path d="M217.451,113.448H198.857l-3.09,7.056H183.25l16.792-36.055h16.224l16.74,36.055H220.541Zm-3.606-8.139L208.18,92.381l-5.717,12.928Z"/><path d="M254.738,83.933c14.422,0,21.787,5.254,22.508,16.122H265.708c-.669-4.584-4.274-6.541-10.97-6.541-8.653,0-11.332,3.348-11.332,8.911,0,5.614,2.73,9.014,11.332,9.014,6.7,0,10.3-2.01,10.97-6.645h11.538c-.721,10.92-8.086,16.225-22.508,16.225-15.864,0-22.664-6.336-22.664-18.594C232.074,90.218,238.874,83.933,254.738,83.933Z"/><path d="M309.435,100.931,330.759,120.5H315.1l-13.8-13.289-8.242,6.386v6.9H281.724V84.449h11.331v16.379l21.17-16.379h16.534Z"/><path d="M168.729,153.585v9.58H131.644V127.11h11.332v26.475Z"/><path d="M205.708,156.109H187.113l-3.089,7.056H171.507L188.3,127.11h16.225l16.74,36.055H208.8Zm-3.606-8.138-5.665-12.929-5.718,12.929Z"/><path d="M269.675,152.555c0,6.026-3.554,10.61-11.744,10.61H224.967V127.11h31.574c8.19,0,10.714,3.915,10.714,9.323a10.639,10.639,0,0,1-2.834,6.851A10.926,10.926,0,0,1,269.675,152.555ZM236.3,140.5H252.06c1.957,0,3.863,0,3.863-2.833s-1.906-2.833-3.863-2.833H236.3Zm22.045,11.331c0-2.832-1.906-2.832-3.863-2.832H236.3v5.717h18.182C256.438,154.718,258.344,154.718,258.344,151.833Z"/></svg>