<?xml version="1.0" encoding="UTF-8" standalone="no"?>
<!-- Created with Inkscape (http://www.inkscape.org/) -->

<svg
   width="92mm"
   height="52mm"
   viewBox="0 0 92 52"
   version="1.1"
   id="svg79113"
   inkscape:version="1.1.1 (3bf5ae0d25, 2021-09-20)"
   sodipodi:docname="tampere_hacklab_kayntikortti_front_2022.svg"
   xmlns:inkscape="http://www.inkscape.org/namespaces/inkscape"
   xmlns:sodipodi="http://sodipodi.sourceforge.net/DTD/sodipodi-0.dtd"
   xmlns:xlink="http://www.w3.org/1999/xlink"
   xmlns="http://www.w3.org/2000/svg"
   xmlns:svg="http://www.w3.org/2000/svg">
  <sodipodi:namedview
     id="namedview79115"
     pagecolor="#ffffff"
     bordercolor="#cccccc"
     borderopacity="1"
     inkscape:pageshadow="0"
     inkscape:pageopacity="1"
     inkscape:pagecheckerboard="0"
     inkscape:document-units="mm"
     showgrid="false"
     inkscape:zoom="2.1820712"
     inkscape:cx="189.49886"
     inkscape:cy="67.138048"
     inkscape:window-width="2560"
     inkscape:window-height="1385"
     inkscape:window-x="1912"
     inkscape:window-y="-8"
     inkscape:window-maximized="1"
     inkscape:current-layer="layer1" />
  <defs
     id="defs79110" />
  <g
     inkscape:label="Layer 1"
     inkscape:groupmode="layer"
     id="layer1">
    <path
       id="rect12752-1"
       style="fill:#ffed1f;fill-opacity:1;stroke-width:1.51518;stroke-dasharray:3.03037, 1.51518"
       d="M 1e-7,0 H 92 V 52 H 1e-7 Z" />
    <path
       id="rect12752"
       style="fill:none;stroke-width:1.35483;stroke-dasharray:2.70966, 1.35483"
       d="m -18.791568,-75.036374 h 85 v 45 h -85 z" />
    <path
       id="rect138072"
       style="fill:none;stroke-width:0.107471"
       d="m 113.00404,8.2309465 h 84 V 52.230947 h -84 z" />
    <g
       id="g34347"
       transform="translate(0.92954071,1.0476581)">
      <text
         xml:space="preserve"
         style="font-style:normal;font-variant:normal;font-weight:normal;font-stretch:normal;font-size:2.92px;line-height:1.25;font-family:Hack;-inkscape-font-specification:Hack;writing-mode:lr-tb;fill:#000000;fill-opacity:1;stroke-width:0.264583"
         id="text118720"
         transform="translate(-109.98765,-5.2714752)"><textPath
           xlink:href="#rect138072"
           id="textPath142542">internet tampere.hacklab.fi - email info@tampere.hacklab.fi - Address Ahlmanintie 56, 33800 Tampere FINLAND - phone +358 93157 6905  -   matrix #tampere:hacklab.fi -</textPath></text>
      <g
         transform="matrix(0.13573666,0,0,-0.13573666,-12.137669,65.08856)"
         id="g10">
        <g
           transform="translate(-15.636156,-48.168836)"
           id="g4543">
          <rect
             style="opacity:1;fill:#ffed1f;fill-opacity:1;stroke:none;stroke-width:7.78979;stroke-miterlimit:4;stroke-dasharray:15.5796, 7.78979;stroke-dashoffset:0;stroke-opacity:1"
             id="rect11"
             width="589.37653"
             height="214.54715"
             x="141.8929"
             y="-450.78311"
             transform="scale(1,-1)" />
          <g
             id="g4535"
             transform="translate(15.636161,48.168847)"
             style="opacity:0.98">
            <g
               style="fill:#000000"
               transform="translate(181.9314,342.6182)"
               id="g12">
              <path
                 id="path14"
                 style="fill:#000000;fill-opacity:1;fill-rule:nonzero;stroke:none"
                 d="M 0,0 H 27.696 V -12.098 H -40.557 V 0 h 27.759 v 44.878 h 83.184 v -184.311 h -83.198 v 109.751 h -19.241 v 12.096 H 19.169 L 19.159,-29.73 H 0 v -95.247 H 55.924 V 32.122 H 0 Z" />
            </g>
            <g
               style="fill:#000000"
               transform="translate(305.6636,218.6074)"
               id="g16">
              <path
                 id="path18"
                 style="fill:#000000;fill-opacity:1;fill-rule:nonzero;stroke:none"
                 d="M 0,0 H 11.571 V 31.235 H 33.67 V -0.009 l 11.57,10e-4 V 62.491 H 33.67 V 39.051 H 11.571 v 23.44 H 0 Z M 69.314,-0.009 V 31.236 H 92.458 V -0.009 h 11.573 v 57.288 l -3.848,5.212 H 61.595 L 57.741,57.279 V -0.009 Z m 0,54.679 H 92.459 V 39.047 H 69.314 Z m 220.46,-54.679 v 57.288 l 3.853,5.212 h 38.588 l 3.848,-5.212 V -0.009 H 324.491 V 31.236 H 301.346 V -0.009 Z M 324.491,54.67 H 301.346 V 39.047 h 23.145 z m -207.96,-49.489 3.853,-5.19 h 38.588 l 3.848,5.19 V 15.614 H 151.248 V 7.802 H 128.103 V 54.67 h 23.145 v -7.811 h 11.572 v 10.42 l -3.848,5.212 h -38.588 l -3.853,-5.212 z m 58.789,57.31 h 11.572 V 39.048 h 11.573 l 11.572,15.622 v 7.809 l 11.572,0.012 V 54.67 L 204.251,31.236 221.609,7.802 v -7.811 h -11.572 v 7.811 l -17.359,23.434 h -5.786 V -0.009 H 175.32 Z m 58.789,-62.5 h 45.248 V 15.614 H 267.785 V 7.802 h -22.103 v 54.689 h -11.573 z m 160.743,57.288 -3.847,5.212 h -42.442 v -62.5 h 42.442 l 3.847,5.19 V 26.04 l -3.847,5.196 3.847,5.202 z M 383.28,39.048 h -23.145 v 15.623 h 23.145 z m 0,-31.246 H 360.135 V 31.236 H 383.28 Z M 68.763,93.579 v 31.245 H 91.907 V 93.579 h 11.573 v 57.288 l -3.848,5.212 H 61.044 L 57.19,150.867 V 93.579 Z m 0,54.679 H 91.908 V 132.635 H 68.763 Z m -72.93,-0.543 20.433,-0.008 V 93.579 h 11.573 v 54.128 h 20.527 l 10e-4,8.372 H -4.167 Z m 132.27,8.364 11.572,-15.632 11.573,15.632 h 11.572 v -62.5 h -11.572 v 46.434 L 139.675,124.39 128.103,140.013 V 93.579 h -11.572 v 62.5 z m 48.268,0 v -62.5 h 11.572 v 31.245 h 30.87 l 3.847,5.202 v 20.841 l -3.847,5.212 z m 34.717,-23.443 h -23.145 v 15.623 h 23.145 z m 66.318,15.622 h -31.592 v -15.622 h 23.145 v -7.812 H 245.814 V 101.39 h 31.592 v -7.811 h -43.164 v 62.5 h 43.164 z m 114.577,7.821 h -44.206 v -62.5 h 44.206 v 7.811 h -32.634 v 23.434 h 23.145 v 7.812 h -23.145 v 15.622 h 32.634 z m -60.37,0 3.848,-5.212 v -20.841 l -3.848,-5.202 h -13.511 l 17.359,-23.434 v -7.811 h -11.573 v 7.811 l -17.358,23.434 h -5.786 V 93.579 h -11.573 v 62.5 z m -30.869,-23.443 h 23.145 v 15.623 h -23.145 z" />
            </g>
          </g>
        </g>
      </g>
    </g>
  </g>
</svg>
