<?xml version="1.0" encoding="UTF-8" standalone="no"?>
<svg
   width="297mm"
   height="210mm"
   viewBox="0 0 297 210"
   version="1.1"
   id="svg8"
   inkscape:export-filename="C:\Users\Tmu\Pictures\hacklab_diy_thai.png"
   inkscape:export-xdpi="199.7"
   inkscape:export-ydpi="199.7"
   inkscape:version="1.1.1 (3bf5ae0d25, 2021-09-20)"
   sodipodi:docname="hacklab_diy_mainos.svg"
   xmlns:inkscape="http://www.inkscape.org/namespaces/inkscape"
   xmlns:sodipodi="http://sodipodi.sourceforge.net/DTD/sodipodi-0.dtd"
   xmlns="http://www.w3.org/2000/svg"
   xmlns:svg="http://www.w3.org/2000/svg"
   xmlns:rdf="http://www.w3.org/1999/02/22-rdf-syntax-ns#"
   xmlns:cc="http://creativecommons.org/ns#"
   xmlns:dc="http://purl.org/dc/elements/1.1/">
  <defs
     id="defs2">
    <rect
       id="rect853"
       height="48.108515"
       width="274.21854"
       y="11.759859"
       x="15.501633" />
    <rect
       x="15.501633"
       y="11.759859"
       width="274.21854"
       height="48.108515"
       id="rect861" />
    <rect
       id="rect867"
       height="48.108515"
       width="274.21854"
       y="11.759859"
       x="15.501633" />
    <rect
       x="15.501633"
       y="11.759859"
       width="274.21854"
       height="48.108515"
       id="rect875" />
    <rect
       x="15.501633"
       y="11.759859"
       width="274.21854"
       height="157.00282"
       id="rect869" />
    <rect
       id="rect923"
       height="48.108515"
       width="274.21854"
       y="11.759859"
       x="15.501633" />
    <rect
       x="15.501633"
       y="11.759859"
       width="274.21854"
       height="48.108515"
       id="rect929" />
    <rect
       id="rect935"
       height="48.108515"
       width="274.21854"
       y="11.759859"
       x="15.501633" />
    <rect
       x="15.501633"
       y="11.759859"
       width="274.21854"
       height="48.108515"
       id="rect941" />
    <rect
       id="rect947"
       height="48.108515"
       width="274.21854"
       y="11.759859"
       x="15.501633" />
    <rect
       id="rect959"
       height="48.108515"
       width="274.21854"
       y="11.759859"
       x="15.501633" />
    <rect
       x="15.501633"
       y="11.759859"
       width="274.21854"
       height="48.108515"
       id="rect1088" />
    <rect
       id="rect1227"
       height="48.108515"
       width="274.21854"
       y="11.759859"
       x="15.501633" />
    <rect
       id="rect1243"
       height="157.00282"
       width="274.21854"
       y="11.759859"
       x="15.501633" />
  </defs>
  <sodipodi:namedview
     inkscape:window-maximized="1"
     inkscape:window-y="-8"
     inkscape:window-x="1912"
     inkscape:window-height="973"
     inkscape:window-width="1842"
     showgrid="false"
     inkscape:document-rotation="0"
     inkscape:current-layer="layer11"
     inkscape:document-units="mm"
     inkscape:cy="451.53818"
     inkscape:cx="455.57879"
     inkscape:zoom="0.49497476"
     inkscape:pageshadow="2"
     inkscape:pageopacity="0.0"
     borderopacity="1.0"
     bordercolor="#666666"
     pagecolor="#ffffff"
     id="base"
     inkscape:pagecheckerboard="0" />
  <metadata
     id="metadata5">
    <rdf:RDF>
      <cc:Work
         rdf:about="">
        <dc:format>image/svg+xml</dc:format>
        <dc:type
           rdf:resource="http://purl.org/dc/dcmitype/StillImage" />
      </cc:Work>
    </rdf:RDF>
  </metadata>
  <g
     inkscape:groupmode="layer"
     id="layer11"
     inkscape:label="Taso 0"
     style="display:inline">
    <rect
       y="1.4210855e-15"
       x="6.6613381e-15"
       height="210"
       width="297"
       id="rect833"
       style="display:inline;opacity:1;fill:#ffed1f;fill-opacity:1;stroke:none;stroke-width:2.49826" />
    <g
       style="display:inline;fill:#000000"
       id="g10"
       inkscape:label="logo"
       transform="matrix(0.16748837,0,0,-0.16748837,77.996608,214.64004)">
      <g
         style="fill:#000000"
         id="g12"
         transform="translate(181.9314,342.6182)">
        <path
           d="M 0,0 H 27.696 V -12.098 H -40.557 V 0 h 27.759 v 44.878 h 83.184 v -184.311 h -83.198 v 109.751 h -19.241 v 12.096 H 19.169 L 19.159,-29.73 H 0 v -95.247 H 55.924 V 32.122 H 0 Z"
           style="fill:#000000;fill-opacity:1;fill-rule:nonzero;stroke:none"
           id="path14"
           inkscape:connector-curvature="0" />
      </g>
      <g
         style="fill:#000000"
         id="g16"
         transform="translate(305.6636,218.6074)">
        <path
           d="M 0,0 H 11.571 V 31.235 H 33.67 V -0.009 l 11.57,10e-4 V 62.491 H 33.67 V 39.051 H 11.571 v 23.44 H 0 Z M 69.314,-0.009 V 31.236 H 92.458 V -0.009 h 11.573 v 57.288 l -3.848,5.212 H 61.595 L 57.741,57.279 V -0.009 Z m 0,54.679 H 92.459 V 39.047 H 69.314 Z m 220.46,-54.679 v 57.288 l 3.853,5.212 h 38.588 l 3.848,-5.212 V -0.009 H 324.491 V 31.236 H 301.346 V -0.009 Z M 324.491,54.67 H 301.346 V 39.047 h 23.145 z m -207.96,-49.489 3.853,-5.19 h 38.588 l 3.848,5.19 V 15.614 H 151.248 V 7.802 H 128.103 V 54.67 h 23.145 v -7.811 h 11.572 v 10.42 l -3.848,5.212 h -38.588 l -3.853,-5.212 z m 58.789,57.31 h 11.572 V 39.048 h 11.573 l 11.572,15.622 v 7.809 l 11.572,0.012 V 54.67 L 204.251,31.236 221.609,7.802 v -7.811 h -11.572 v 7.811 l -17.359,23.434 h -5.786 V -0.009 H 175.32 Z m 58.789,-62.5 h 45.248 V 15.614 H 267.785 V 7.802 h -22.103 v 54.689 h -11.573 z m 160.743,57.288 -3.847,5.212 h -42.442 v -62.5 h 42.442 l 3.847,5.19 V 26.04 l -3.847,5.196 3.847,5.202 z M 383.28,39.048 h -23.145 v 15.623 h 23.145 z m 0,-31.246 H 360.135 V 31.236 H 383.28 Z M 68.763,93.579 v 31.245 H 91.907 V 93.579 h 11.573 v 57.288 l -3.848,5.212 H 61.044 L 57.19,150.867 V 93.579 Z m 0,54.679 H 91.908 V 132.635 H 68.763 Z m -72.93,-0.543 20.433,-0.008 V 93.579 h 11.573 v 54.128 h 20.527 l 10e-4,8.372 H -4.167 Z m 132.27,8.364 11.572,-15.632 11.573,15.632 h 11.572 v -62.5 h -11.572 v 46.434 L 139.675,124.39 128.103,140.013 V 93.579 h -11.572 v 62.5 z m 48.268,0 v -62.5 h 11.572 v 31.245 h 30.87 l 3.847,5.202 v 20.841 l -3.847,5.212 z m 34.717,-23.443 h -23.145 v 15.623 h 23.145 z m 66.318,15.622 h -31.592 v -15.622 h 23.145 v -7.812 H 245.814 V 101.39 h 31.592 v -7.811 h -43.164 v 62.5 h 43.164 z m 114.577,7.821 h -44.206 v -62.5 h 44.206 v 7.811 h -32.634 v 23.434 h 23.145 v 7.812 h -23.145 v 15.622 h 32.634 z m -60.37,0 3.848,-5.212 v -20.841 l -3.848,-5.202 h -13.511 l 17.359,-23.434 v -7.811 h -11.573 v 7.811 l -17.358,23.434 h -5.786 V 93.579 h -11.573 v 62.5 z m -30.869,-23.443 h 23.145 v 15.623 h -23.145 z"
           style="fill:#000000;fill-opacity:1;fill-rule:nonzero;stroke:none"
           id="path18"
           inkscape:connector-curvature="0" />
      </g>
    </g>
    <text
       xml:space="preserve"
       id="text859"
       style="font-style:normal;font-weight:normal;font-size:11.2889px;line-height:1.25;font-family:sans-serif;text-align:center;white-space:pre;shape-inside:url(#rect861);display:inline;fill:#000000;fill-opacity:1;stroke:none"
       x="36.522202"
       y="0"
       transform="matrix(1.1632026,0,0,1.1632026,-28.835157,177.21684)"><tspan
         x="106.1962"
         y="22.133648"
         id="tspan377"><tspan
           style="font-weight:bold;font-family:Bahnschrift;-inkscape-font-specification:'Bahnschrift Bold';text-anchor:middle"
           id="tspan375">tampere.hacklab.fi</tspan></tspan></text>
    <text
       transform="matrix(0.63436669,0,0,0.63436669,52.167504,175.87879)"
       y="0"
       x="36.522202"
       style="font-style:normal;font-weight:normal;font-size:11.2889px;line-height:1.25;font-family:sans-serif;text-align:center;white-space:pre;shape-inside:url(#rect867);display:inline;fill:#000000;fill-opacity:1;stroke:none"
       id="text865"
       xml:space="preserve"><tspan
         x="59.929897"
         y="22.133648"
         id="tspan381"><tspan
           style="font-stretch:semi-condensed;font-family:Bahnschrift;-inkscape-font-specification:'Bahnschrift Semi-Condensed';text-anchor:middle"
           id="tspan379">The community driven workshop in Nekala</tspan></tspan></text>
  </g>
  <g
     id="layer1"
     inkscape:groupmode="layer"
     inkscape:label="Taso 1"
     style="display:inline">
    <text
       transform="matrix(1.4530013,0,0,1.4530013,-71.622602,67.099228)"
       y="0"
       x="36.522202"
       style="font-style:normal;font-weight:normal;font-size:25.4px;line-height:1.25;font-family:sans-serif;text-align:center;white-space:pre;shape-inside:url(#rect1227);fill:#000000;fill-opacity:1;stroke:none"
       id="text1225"
       xml:space="preserve"><tspan
         x="80.132032"
         y="35.100976"
         id="tspan385"><tspan
           style="font-weight:bold;font-family:Bahnschrift;-inkscape-font-specification:'Bahnschrift Bold'"
           id="tspan383">TEE SE ITSE!</tspan></tspan></text>
  </g>
  <g
     inkscape:groupmode="layer"
     id="layer2"
     inkscape:label="Taso 2"
     style="display:none">
    <text
       transform="matrix(1.4530013,0,0,1.4530013,-73.424664,67.099228)"
       y="0"
       x="36.522202"
       style="font-style:normal;font-weight:normal;font-size:25.4px;line-height:1.25;font-family:sans-serif;text-align:center;white-space:pre;shape-inside:url(#rect935);fill:#000000;fill-opacity:1;stroke:none"
       id="text933"
       xml:space="preserve"><tspan
         x="55.854445"
         y="35.100976"
         id="tspan389"><tspan
           style="font-weight:bold;font-family:Bahnschrift;-inkscape-font-specification:'Bahnschrift Bold'"
           id="tspan387">DO IT YOURSELF!</tspan></tspan></text>
  </g>
  <g
     inkscape:groupmode="layer"
     id="layer3"
     inkscape:label="Taso 3"
     style="display:none">
    <text
       transform="matrix(1.4530013,0,0,1.4530013,-73.154353,70.505125)"
       y="0"
       x="36.522202"
       style="font-style:normal;font-weight:normal;font-size:25.4px;line-height:1.25;font-family:sans-serif;text-align:center;white-space:pre;shape-inside:url(#rect853);fill:#000000;fill-opacity:1;stroke:none"
       id="text851"
       xml:space="preserve"><tspan
         x="59.42632"
         y="35.100976"
         id="tspan393"><tspan
           style="font-weight:bold;font-family:Bahnschrift;-inkscape-font-specification:'Bahnschrift Bold';text-anchor:middle"
           id="tspan391">GÖR DET SJÄLV!</tspan></tspan></text>
  </g>
  <g
     inkscape:groupmode="layer"
     id="layer4"
     inkscape:label="Taso 4"
     style="display:none">
    <text
       xml:space="preserve"
       id="text867"
       style="font-style:normal;font-weight:normal;font-size:25.4px;line-height:1.25;font-family:sans-serif;text-align:center;white-space:pre;shape-inside:url(#rect869);fill:#000000;fill-opacity:1;stroke:none"
       x="36.522202"
       y="0"
       transform="matrix(1.5475451,0,0,1.5475451,-87.864847,64.633102)"><tspan
         x="67.537452"
         y="35.100976"
         id="tspan397"><tspan
           style="font-weight:bold;font-family:Bahnschrift;-inkscape-font-specification:'Bahnschrift Bold'"
           id="tspan395">FACERE-IT-TE!</tspan></tspan></text>
  </g>
  <g
     inkscape:groupmode="layer"
     id="layer5"
     inkscape:label="Taso 5"
     style="display:none">
    <text
       xml:space="preserve"
       id="text927"
       style="font-style:normal;font-weight:normal;font-size:25.4px;line-height:1.25;font-family:sans-serif;text-align:center;white-space:pre;shape-inside:url(#rect929);fill:#000000;fill-opacity:1;stroke:none"
       x="36.522202"
       y="0"
       transform="matrix(1.4530013,0,0,1.4530013,-73.154348,68.342651)"><tspan
         x="69.48462"
         y="35.100976"
         id="tspan401"><tspan
           style="font-weight:bold;font-family:Bahnschrift;-inkscape-font-specification:'Bahnschrift Bold'"
           id="tspan399">СДЕЛАЙ САМ!</tspan></tspan></text>
  </g>
  <g
     inkscape:groupmode="layer"
     id="layer6"
     inkscape:label="Taso 6"
     style="display:none">
    <text
       transform="matrix(1.5475451,0,0,1.5475451,-87.289049,69.31624)"
       y="0"
       x="36.522202"
       style="font-style:normal;font-weight:normal;font-size:25.4px;line-height:1.25;font-family:sans-serif;text-align:center;white-space:pre;shape-inside:url(#rect1243);fill:#000000;fill-opacity:1;stroke:none"
       id="text1241"
       xml:space="preserve"><tspan
         x="70.892286"
         y="35.100976"
         id="tspan405"><tspan
           style="font-weight:bold;font-family:Bahnschrift;-inkscape-font-specification:'Bahnschrift Bold'"
           id="tspan403">ZRÓB TO SAM!</tspan></tspan></text>
  </g>
  <g
     inkscape:groupmode="layer"
     id="layer7"
     inkscape:label="Taso 7"
     style="display:none">
    <text
       transform="matrix(1.2166372,0,0,1.2166372,-36.704857,71.612398)"
       y="0"
       x="36.522202"
       style="font-style:normal;font-weight:normal;font-size:25.4px;line-height:1.25;font-family:sans-serif;text-align:center;white-space:pre;shape-inside:url(#rect947);fill:#000000;fill-opacity:1;stroke:none"
       id="text945"
       xml:space="preserve"><tspan
         x="52.716652"
         y="35.100976"
         id="tspan411"><tspan
           style="font-weight:bold;font-family:Bahnschrift;-inkscape-font-specification:'Bahnschrift Bold'"
           id="tspan407">ทำด้วยตัวคุณเอง</tspan><tspan
           style="font-weight:bold;font-family:Bahnschrift;-inkscape-font-specification:'Bahnschrift Bold'"
           id="tspan409">!</tspan></tspan></text>
  </g>
  <g
     inkscape:groupmode="layer"
     id="layer8"
     inkscape:label="Taso 8"
     style="display:none">
    <text
       xml:space="preserve"
       id="text1086"
       style="font-style:normal;font-weight:normal;font-size:25.4px;line-height:1.25;font-family:sans-serif;text-align:center;white-space:pre;shape-inside:url(#rect1088);fill:#000000;fill-opacity:1;stroke:none"
       x="36.522202"
       y="0"
       transform="matrix(1.2476361,0,0,1.2476361,-41.36182,72.456071)"><tspan
         x="44.741945"
         y="35.100976"
         id="tspan415"><tspan
           style="font-weight:bold;font-family:Bahnschrift;-inkscape-font-specification:'Bahnschrift Bold'"
           id="tspan413">SAMEE ADIGAAGA!</tspan></tspan></text>
  </g>
  <g
     inkscape:groupmode="layer"
     id="layer9"
     inkscape:label="Taso 9"
     style="display:none">
    <text
       xml:space="preserve"
       id="text939"
       style="font-style:normal;font-weight:normal;font-size:25.4px;line-height:1.25;font-family:sans-serif;text-align:center;white-space:pre;shape-inside:url(#rect941);fill:#000000;fill-opacity:1;stroke:none"
       x="36.522202"
       y="0"
       transform="matrix(1.4530013,0,0,1.4530013,-75.37089,64.990815)"><tspan
         x="111.07588"
         y="36.76289"
         id="tspan421"><tspan
           style="font-weight:bold;font-family:Bahnschrift;-inkscape-font-specification:'Bahnschrift Bold'"
           id="tspan417">自己做</tspan><tspan
           style="font-weight:bold;font-family:Bahnschrift;-inkscape-font-specification:'Bahnschrift Bold'"
           id="tspan419">!</tspan></tspan></text>
  </g>
  <g
     inkscape:groupmode="layer"
     id="layer10"
     inkscape:label="Taso 10"
     style="display:none">
    <text
       transform="matrix(1.255104,0,0,1.255104,-43.510075,70.37776)"
       y="0"
       x="36.522202"
       style="font-style:normal;font-weight:normal;font-size:25.4px;line-height:1.25;font-family:sans-serif;text-align:center;white-space:pre;shape-inside:url(#rect923);fill:#000000;fill-opacity:1;stroke:none"
       id="text921"
       xml:space="preserve"><tspan
         x="47.57588"
         y="36.76289"
         id="tspan435"><tspan
           style="font-weight:bold;font-family:Bahnschrift;-inkscape-font-specification:'Bahnschrift Bold'"
           id="tspan423">それを</tspan><tspan
           style="font-weight:bold;font-family:Bahnschrift;-inkscape-font-specification:'Bahnschrift Bold'"
           id="tspan425">自分</tspan><tspan
           style="font-weight:bold;font-family:Bahnschrift;-inkscape-font-specification:'Bahnschrift Bold'"
           id="tspan427">で</tspan><tspan
           style="font-weight:bold;font-family:Bahnschrift;-inkscape-font-specification:'Bahnschrift Bold'"
           id="tspan429">行</tspan><tspan
           style="font-weight:bold;font-family:Bahnschrift;-inkscape-font-specification:'Bahnschrift Bold'"
           id="tspan431">う</tspan><tspan
           style="font-weight:bold;font-family:Bahnschrift;-inkscape-font-specification:'Bahnschrift Bold'"
           id="tspan433">!</tspan></tspan></text>
  </g>
</svg>
