<svg xmlns="http://www.w3.org/2000/svg" viewBox="0 0 469.544 141.732"><defs><style>.a{fill:#ff0;}</style></defs><rect class="a" width="469.544" height="141.732"/><path d="M93.677,32.6V112.08a3.084,3.084,0,0,1-3.083,3.083H57.836a3.083,3.083,0,0,1-3.083-3.083V64.857H48.772a3.083,3.083,0,1,1,0-6.165H67.493a3.083,3.083,0,1,1,0,6.165H60.919V109H87.51V35.685H60.919V49.963H71.03a3.083,3.083,0,1,1,0,6.165H45.235a3.083,3.083,0,0,1,0-6.165h9.518V32.6a3.083,3.083,0,0,1,3.083-3.083H90.594A3.084,3.084,0,0,1,93.677,32.6Zm40.037,30.806a3.074,3.074,0,1,0,6.148,0V35.461h5.488a3.024,3.024,0,0,0,0-6.047H128.225a3.024,3.024,0,1,0,0,6.047h5.489Zm27.164-5.97L158.743,64.3a3.087,3.087,0,0,1-6.046-.813,3.31,3.31,0,0,1,.152-1.117l10.112-31.2a2.986,2.986,0,0,1,2.947-2.261,2.956,2.956,0,0,1,2.973,2.261l10.111,31.2a3.541,3.541,0,0,1,.152,1.117,3.087,3.087,0,0,1-6.046.813l-2.134-6.859Zm1.854-6.047h6.377L165.933,41.1Zm38.69,6.58a3.186,3.186,0,0,0,2.947-2.108l4.8-10.544V63.433a3.074,3.074,0,1,0,6.147,0V32.006a2.993,2.993,0,0,0-3.124-3.1,3.3,3.3,0,0,0-2.871,2.16l-7.9,17.377-7.9-17.377a3.3,3.3,0,0,0-2.871-2.16,2.994,2.994,0,0,0-3.125,3.1V63.433a3.075,3.075,0,0,0,6.149,0V45.319l4.8,10.544A3.187,3.187,0,0,0,201.422,57.971ZM227,63.408V32.489a3.069,3.069,0,0,1,3.074-3.075h6.352c9.273,0,12.093,6.276,12.093,10.646,0,4.395-2.82,10.671-12.093,10.671h-3.278V63.408a3.074,3.074,0,1,1-6.148,0Zm6.148-18.724h4.066c3.15,0,5.157-1.956,5.157-4.624,0-2.643-2.007-4.6-5.157-4.6h-4.066ZM274.635,66a3.023,3.023,0,0,0,0-6.046h-10.57V50.247h9.35a3.023,3.023,0,1,0,0-6.045h-9.35V35.461h10.57a3.024,3.024,0,0,0,0-6.047H260.94a3.065,3.065,0,0,0-3.023,3.024V62.976A3.064,3.064,0,0,0,260.94,66Zm13.435-2.591V32.489a3.069,3.069,0,0,1,3.074-3.075H297.5c9.273,0,12.094,6.276,12.094,10.646a10.284,10.284,0,0,1-6,9.5l6.072,12.5a3.215,3.215,0,0,1,.305,1.32,3.1,3.1,0,0,1-3.075,3.125,3.157,3.157,0,0,1-2.769-1.753l-6.834-14.023h-3.074V63.408a3.075,3.075,0,1,1-6.149,0Zm6.149-18.724h4.065c3.15,0,5.157-1.956,5.157-4.624,0-2.643-2.007-4.6-5.157-4.6h-4.065ZM337.6,66a3.023,3.023,0,0,0,0-6.046H327.031V50.247h9.35a3.023,3.023,0,1,0,0-6.045h-9.35V35.461H337.6a3.024,3.024,0,0,0,0-6.047H323.906a3.065,3.065,0,0,0-3.023,3.024V62.976A3.064,3.064,0,0,0,323.906,66Zm-190.177,11.7a3.085,3.085,0,0,0-3.074,3.074V92.989h-9.7V80.768a3.074,3.074,0,0,0-6.148,0V112.22a3.074,3.074,0,0,0,6.148,0V99.035h9.7V112.22a3.074,3.074,0,1,0,6.148,0V80.768A3.084,3.084,0,0,0,147.423,77.694Zm39.266,33.46a3.522,3.522,0,0,1,.153,1.117,3.087,3.087,0,0,1-6.047.813l-2.134-6.859H168.575l-2.135,6.859a3.087,3.087,0,0,1-6.046-.813,3.29,3.29,0,0,1,.153-1.117l10.111-31.2a2.986,2.986,0,0,1,2.947-2.261,2.955,2.955,0,0,1,2.973,2.261Zm-9.882-10.976-3.176-10.289-3.2,10.289Zm28.527-16.437c1.753,0,4.268,1.016,4.649,4.725a3.037,3.037,0,0,0,3.049,2.947,2.9,2.9,0,0,0,3.024-2.972c0-4.954-3.176-10.747-10.722-10.747-7.444,0-10.722,5.691-10.722,10.7V104.6c0,5,3.278,10.695,10.722,10.695,7.5,0,10.722-5.715,10.722-10.746a2.9,2.9,0,0,0-3.024-2.972,3.037,3.037,0,0,0-3.049,2.947c-.381,3.709-2.9,4.725-4.649,4.725-1.6,0-4.573-.838-4.573-4.954V88.7C200.761,84.579,203.733,83.741,205.334,83.741ZM240.11,93.09l7.419-10.772a2.812,2.812,0,0,0,.483-1.575,3,3,0,0,0-5.513-1.677l-9.375,13.872V80.768a3.075,3.075,0,0,0-6.149,0V112.22a3.075,3.075,0,0,0,6.149,0v-8.968l2.947-4.294,7.317,14.66a3.019,3.019,0,0,0,2.744,1.676,2.984,2.984,0,0,0,2.795-4.394Zm36.3,15.65H265.844V80.768a3.075,3.075,0,0,0-6.149,0v31a3.065,3.065,0,0,0,3.024,3.024h13.694a3.024,3.024,0,0,0,0-6.047Zm36.429,2.414a3.544,3.544,0,0,1,.152,1.117,3.087,3.087,0,0,1-6.047.813l-2.134-6.859H294.727l-2.134,6.859a3.087,3.087,0,0,1-6.046-.813,3.31,3.31,0,0,1,.152-1.117l10.111-31.2a2.987,2.987,0,0,1,2.948-2.261,2.955,2.955,0,0,1,2.972,2.261Zm-9.883-10.976-3.176-10.289-3.2,10.289Zm40.272,3.938c0,4.37-2.8,10.671-12.067,10.671h-7.216a3.091,3.091,0,0,1-3.074-3.1V81.276a3.069,3.069,0,0,1,3.074-3.074h6.377c9.3,0,12.068,6.275,12.068,10.645a9.06,9.06,0,0,1-3.481,7.139A9.565,9.565,0,0,1,343.231,104.116ZM327.022,93.471h3.888c3.149,0,5.335-1.981,5.335-4.624s-1.981-4.6-5.132-4.6h-4.091Zm10.061,10.645c0-2.642-1.956-4.6-5.132-4.6h-4.929v9.222h4.929C335.1,108.74,337.083,106.758,337.083,104.116Z"/></svg>