<svg xmlns="http://www.w3.org/2000/svg" viewBox="0 0 373.089 141.732"><defs><style>.a{fill:#ff0;}</style></defs><rect class="a" width="373.089" height="141.732"/><path d="M132.916,66.806V55.46H122.364V66.806h-6.03V39.116h6.03V50.144h10.552V39.116h6.03v27.69Zm39.432,0h-6.267L164.1,60.22h-9.244l-1.984,6.586h-6.109l9.125-27.69h7.458ZM162.63,55.1l-1.706-5.752-1.389-4.761h-.2l-1.349,4.761L156.282,55.1Zm27.532,12.179a12.787,12.787,0,0,1-6.486-1.586,10.537,10.537,0,0,1-4.265-4.722,17.964,17.964,0,0,1-1.508-7.816,18.645,18.645,0,0,1,1.508-7.914,11.065,11.065,0,0,1,4.265-4.919,12.185,12.185,0,0,1,6.486-1.686,11.666,11.666,0,0,1,6.327,1.587,10.9,10.9,0,0,1,4.026,4.919l-5.2,2.7a5.785,5.785,0,0,0-1.725-2.8,5.082,5.082,0,0,0-3.432-1.052,5.551,5.551,0,0,0-4.265,1.727,7.106,7.106,0,0,0-1.606,5.018v4.443a7.122,7.122,0,0,0,1.606,5,5.519,5.519,0,0,0,4.265,1.745,5.07,5.07,0,0,0,3.551-1.21,7.357,7.357,0,0,0,1.963-2.916l4.92,2.857a12.47,12.47,0,0,1-4.087,4.879A10.944,10.944,0,0,1,190.162,67.282Zm35.584-.476-7.34-12.061L214.8,59.11v7.7h-6.031V39.116H214.8v13.17h.237l3.928-5.355,6.228-7.815h6.824L222.691,50.5l10.156,16.305Zm31.182,0H240.346V39.116h6.03V61.45h10.552Zm32.411,0h-6.268l-1.983-6.586h-9.243l-1.985,6.586h-6.109l9.125-27.69h7.458ZM279.62,55.1l-1.706-5.752-1.389-4.761h-.2l-1.349,4.761L273.272,55.1Zm17.534,11.7V39.116H310.6a7.241,7.241,0,0,1,5.356,1.943,6.974,6.974,0,0,1,1.944,5.157,7.154,7.154,0,0,1-.694,3.393,4.352,4.352,0,0,1-1.864,1.883,6.428,6.428,0,0,1-2.6.675v.239a6.5,6.5,0,0,1,2.062.356,6.632,6.632,0,0,1,2.024,1.111,5.532,5.532,0,0,1,1.547,2,7.014,7.014,0,0,1,.6,3.035,8.437,8.437,0,0,1-.932,3.967,7.585,7.585,0,0,1-2.539,2.857,6.464,6.464,0,0,1-3.669,1.071Zm6.03-22.612v6.267h5.991a2.925,2.925,0,0,0,1.368-.3,1.979,1.979,0,0,0,.873-.872,2.948,2.948,0,0,0,.3-1.369v-1.19a2.944,2.944,0,0,0-.3-1.368,1.986,1.986,0,0,0-.873-.873,2.937,2.937,0,0,0-1.368-.3Zm0,11.186v6.348h6.943a2.937,2.937,0,0,0,1.368-.3,2.124,2.124,0,0,0,.893-.853,2.68,2.68,0,0,0,.317-1.348V57.88a2.687,2.687,0,0,0-.317-1.349,2.136,2.136,0,0,0-.893-.853,2.95,2.95,0,0,0-1.368-.3ZM135.376,82.566h-7.5V104.9h-6.03V82.566h-7.5V77.21h21.026ZM164.217,104.9h-6.268l-1.983-6.586h-9.243l-1.985,6.586h-6.109l9.125-27.691h7.458ZM154.5,93.2l-1.706-5.752L151.4,82.685h-.2l-1.349,4.761L148.15,93.2Zm17.534,11.7V77.21h6.387l3.689,7.062,3.095,5.911h.079l3.055-5.911,3.649-7.062h6.427V104.9H192.74V86.731h-.119L190.6,90.778l-5.4,9.8-5.276-9.758-2.1-4.365h-.119V104.9Zm42.488,0h-6.03V77.21h13.092a8.628,8.628,0,0,1,4.463,1.111,7.553,7.553,0,0,1,2.916,3.114,9.979,9.979,0,0,1,1.031,4.622,9.853,9.853,0,0,1-1.031,4.6,7.7,7.7,0,0,1-2.916,3.115,8.512,8.512,0,0,1-4.463,1.131H214.52Zm0-22.454v7.22h6.347a3.434,3.434,0,0,0,1.548-.317,2.324,2.324,0,0,0,.991-.933,2.914,2.914,0,0,0,.358-1.488V85.184a2.9,2.9,0,0,0-.358-1.508,2.362,2.362,0,0,0-.991-.912,3.448,3.448,0,0,0-1.548-.317Zm42.8,22.454H238.48V77.21h18.844v5.356H244.511v5.673H255.5v5.316H244.511v5.99h12.813Zm15.234-10.157V104.9h-6.03V77.21h13.131a8.519,8.519,0,0,1,4.443,1.111,7.615,7.615,0,0,1,2.9,3.094,9.95,9.95,0,0,1,1.031,4.642,9.475,9.475,0,0,1-1.25,4.9,7.132,7.132,0,0,1-3.788,3.075l5.435,10.87h-6.7l-4.84-10.157Zm0-5.077H278.9a3.431,3.431,0,0,0,1.548-.317,2.324,2.324,0,0,0,.991-.933,2.914,2.914,0,0,0,.358-1.488V85.184a2.9,2.9,0,0,0-.358-1.508,2.362,2.362,0,0,0-.991-.912,3.445,3.445,0,0,0-1.548-.317h-6.347ZM316.077,104.9H297.233V77.21h18.844v5.356H303.264v5.673h10.988v5.316H303.264v5.99h12.813Z"/><polygon points="57.705 28.045 57.705 48.488 45.104 48.488 45.104 54.653 77.065 54.653 77.065 48.488 63.87 48.488 63.87 34.21 90.462 34.21 90.462 107.521 63.87 107.521 63.87 63.382 73.527 63.382 73.527 57.217 48.641 57.217 48.641 63.382 57.705 63.382 57.705 113.688 96.628 113.688 96.628 28.045 57.705 28.045"/></svg>