<svg xmlns="http://www.w3.org/2000/svg" viewBox="0 0 376.365 141.732"><defs><style>.a{fill:#fff;}</style></defs><path class="a" d="M87.826,32.6V112.08a3.083,3.083,0,0,1-3.082,3.083H51.986A3.083,3.083,0,0,1,48.9,112.08V64.857H42.922a3.083,3.083,0,1,1,0-6.165H61.643a3.083,3.083,0,1,1,0,6.165H55.068V109H81.66V35.685H55.068V49.963H65.18a3.083,3.083,0,1,1,0,6.165h-25.8a3.083,3.083,0,1,1,0-6.165H48.9V32.6a3.083,3.083,0,0,1,3.083-3.083H84.744A3.083,3.083,0,0,1,87.826,32.6Zm40.037,30.806a3.075,3.075,0,1,0,6.149,0V35.461H139.5a3.024,3.024,0,1,0,0-6.047H122.375a3.024,3.024,0,1,0,0,6.047h5.488Zm27.165-5.97L152.893,64.3a3.087,3.087,0,0,1-6.046-.813A3.31,3.31,0,0,1,147,62.367l10.112-31.2a2.985,2.985,0,0,1,2.947-2.261,2.955,2.955,0,0,1,2.972,2.261l10.112,31.2a3.541,3.541,0,0,1,.152,1.117,3.087,3.087,0,0,1-6.047.813l-2.134-6.859Zm1.854-6.047h6.377L160.083,41.1Zm38.689,6.58a3.186,3.186,0,0,0,2.948-2.108l4.8-10.544V63.433a3.074,3.074,0,1,0,6.148,0V32.006a2.993,2.993,0,0,0-3.124-3.1,3.3,3.3,0,0,0-2.871,2.16l-7.9,17.377-7.9-17.377a3.3,3.3,0,0,0-2.871-2.16,2.994,2.994,0,0,0-3.125,3.1V63.433a3.074,3.074,0,0,0,6.148,0V45.319l4.8,10.544A3.186,3.186,0,0,0,195.571,57.971Zm25.58,5.437V32.489a3.069,3.069,0,0,1,3.074-3.075h6.351c9.274,0,12.094,6.276,12.094,10.646,0,4.395-2.82,10.671-12.094,10.671H227.3V63.408a3.074,3.074,0,1,1-6.148,0ZM227.3,44.684h4.065c3.151,0,5.158-1.956,5.158-4.624,0-2.643-2.007-4.6-5.158-4.6H227.3ZM268.784,66a3.023,3.023,0,1,0,0-6.046H258.215V50.247h9.35a3.023,3.023,0,1,0,0-6.045h-9.35V35.461h10.569a3.024,3.024,0,0,0,0-6.047H255.09a3.065,3.065,0,0,0-3.023,3.024V62.976A3.064,3.064,0,0,0,255.09,66Zm13.436-2.591V32.489a3.069,3.069,0,0,1,3.074-3.075h6.352c9.273,0,12.093,6.276,12.093,10.646a10.282,10.282,0,0,1-6,9.5l6.073,12.5a3.213,3.213,0,0,1,.3,1.32,3.1,3.1,0,0,1-3.074,3.125,3.156,3.156,0,0,1-2.769-1.753l-6.834-14.023h-3.075V63.408a3.074,3.074,0,1,1-6.148,0Zm6.148-18.724h4.066c3.15,0,5.157-1.956,5.157-4.624,0-2.643-2.007-4.6-5.157-4.6h-4.066ZM331.75,66a3.023,3.023,0,1,0,0-6.046H321.181V50.247h9.349a3.023,3.023,0,1,0,0-6.045h-9.349V35.461H331.75a3.024,3.024,0,0,0,0-6.047H318.056a3.065,3.065,0,0,0-3.024,3.024V62.976A3.065,3.065,0,0,0,318.056,66Zm-190.178,11.7a3.084,3.084,0,0,0-3.073,3.074V92.989h-9.7V80.768a3.074,3.074,0,0,0-6.148,0V112.22a3.074,3.074,0,1,0,6.148,0V99.035h9.7V112.22a3.074,3.074,0,1,0,6.148,0V80.768A3.084,3.084,0,0,0,141.572,77.694Zm39.267,33.46a3.544,3.544,0,0,1,.152,1.117,3.087,3.087,0,0,1-6.046.813l-2.134-6.859H162.725l-2.135,6.859a3.087,3.087,0,0,1-6.046-.813,3.31,3.31,0,0,1,.152-1.117l10.112-31.2a2.986,2.986,0,0,1,2.947-2.261,2.956,2.956,0,0,1,2.973,2.261Zm-9.883-10.976L167.78,89.889l-3.2,10.289Zm28.528-16.437c1.753,0,4.268,1.016,4.649,4.725a3.036,3.036,0,0,0,3.049,2.947,2.894,2.894,0,0,0,3.023-2.972c0-4.954-3.176-10.747-10.721-10.747-7.444,0-10.722,5.691-10.722,10.7V104.6c0,5,3.278,10.695,10.722,10.695,7.5,0,10.721-5.715,10.721-10.746a2.9,2.9,0,0,0-3.023-2.972,3.036,3.036,0,0,0-3.049,2.947c-.381,3.709-2.9,4.725-4.649,4.725-1.6,0-4.574-.838-4.574-4.954V88.7C194.91,84.579,197.883,83.741,199.484,83.741ZM234.26,93.09l7.419-10.772a2.811,2.811,0,0,0,.482-1.575,3,3,0,0,0-5.512-1.677l-9.375,13.872V80.768a3.075,3.075,0,0,0-6.149,0V112.22a3.075,3.075,0,0,0,6.149,0v-8.968l2.947-4.294,7.316,14.66a3.019,3.019,0,0,0,2.744,1.676,2.983,2.983,0,0,0,2.795-4.394Zm36.3,15.65h-10.57V80.768a3.074,3.074,0,0,0-6.148,0v31a3.065,3.065,0,0,0,3.023,3.024h13.695a3.024,3.024,0,0,0,0-6.047Zm36.428,2.414a3.522,3.522,0,0,1,.153,1.117,3.087,3.087,0,0,1-6.047.813l-2.134-6.859H288.877l-2.135,6.859a3.087,3.087,0,0,1-6.046-.813,3.29,3.29,0,0,1,.153-1.117l10.111-31.2a2.987,2.987,0,0,1,2.947-2.261,2.955,2.955,0,0,1,2.973,2.261Zm-9.882-10.976-3.176-10.289-3.2,10.289Zm40.272,3.938c0,4.37-2.795,10.671-12.067,10.671H318.1a3.091,3.091,0,0,1-3.074-3.1V81.276A3.069,3.069,0,0,1,318.1,78.2h6.377c9.3,0,12.068,6.275,12.068,10.645a9.06,9.06,0,0,1-3.481,7.139A9.565,9.565,0,0,1,337.381,104.116ZM321.172,93.471h3.888c3.149,0,5.335-1.981,5.335-4.624s-1.982-4.6-5.132-4.6h-4.091Zm10.061,10.645c0-2.642-1.956-4.6-5.132-4.6h-4.929v9.222H326.1C329.251,108.74,331.233,106.758,331.233,104.116Z"/></svg>